G04 #@! TF.GenerationSoftware,KiCad,Pcbnew,5.1.10*
G04 #@! TF.CreationDate,2021-06-17T07:00:03-06:00*
G04 #@! TF.ProjectId,cable-link,6361626c-652d-46c6-996e-6b2e6b696361,rev?*
G04 #@! TF.SameCoordinates,Original*
G04 #@! TF.FileFunction,Legend,Top*
G04 #@! TF.FilePolarity,Positive*
%FSLAX46Y46*%
G04 Gerber Fmt 4.6, Leading zero omitted, Abs format (unit mm)*
G04 Created by KiCad (PCBNEW 5.1.10) date 2021-06-17 07:00:03*
%MOMM*%
%LPD*%
G01*
G04 APERTURE LIST*
%ADD10C,0.010000*%
%ADD11C,0.100000*%
%ADD12C,0.120000*%
%ADD13C,0.127000*%
%ADD14C,0.150000*%
%ADD15C,0.020000*%
G04 APERTURE END LIST*
D10*
G04 #@! TO.C,G\u002A\u002A\u002A*
G36*
X32607287Y-58216023D02*
G01*
X32698912Y-58216117D01*
X32776147Y-58216317D01*
X32840263Y-58216659D01*
X32892531Y-58217178D01*
X32934224Y-58217911D01*
X32966613Y-58218893D01*
X32990969Y-58220159D01*
X33008563Y-58221746D01*
X33020667Y-58223689D01*
X33028553Y-58226024D01*
X33033493Y-58228787D01*
X33035933Y-58231055D01*
X33040528Y-58241949D01*
X33047428Y-58267195D01*
X33056701Y-58307125D01*
X33068418Y-58362070D01*
X33082645Y-58432361D01*
X33099452Y-58518331D01*
X33118906Y-58620310D01*
X33141078Y-58738632D01*
X33143124Y-58749639D01*
X33163509Y-58859109D01*
X33181132Y-58953107D01*
X33196249Y-59032824D01*
X33209119Y-59099449D01*
X33220000Y-59154172D01*
X33229150Y-59198184D01*
X33236828Y-59232673D01*
X33243291Y-59258831D01*
X33248797Y-59277846D01*
X33253605Y-59290910D01*
X33257972Y-59299212D01*
X33262158Y-59303941D01*
X33263565Y-59304935D01*
X33277839Y-59312051D01*
X33305429Y-59324275D01*
X33344382Y-59340828D01*
X33392743Y-59360933D01*
X33448557Y-59383810D01*
X33509869Y-59408683D01*
X33574726Y-59434773D01*
X33641171Y-59461301D01*
X33707251Y-59487491D01*
X33771011Y-59512564D01*
X33830496Y-59535741D01*
X33883752Y-59556246D01*
X33928824Y-59573299D01*
X33963757Y-59586123D01*
X33986597Y-59593939D01*
X33994960Y-59596067D01*
X34003386Y-59594173D01*
X34017087Y-59588089D01*
X34036992Y-59577211D01*
X34064034Y-59560936D01*
X34099144Y-59538660D01*
X34143256Y-59509780D01*
X34197299Y-59473692D01*
X34262207Y-59429792D01*
X34338911Y-59377477D01*
X34428343Y-59316144D01*
X34448095Y-59302566D01*
X34524847Y-59249989D01*
X34597898Y-59200339D01*
X34665977Y-59154455D01*
X34727812Y-59113175D01*
X34782133Y-59077337D01*
X34827669Y-59047780D01*
X34863148Y-59025343D01*
X34887300Y-59010863D01*
X34898853Y-59005179D01*
X34898992Y-59005153D01*
X34904690Y-59005071D01*
X34911693Y-59007142D01*
X34920933Y-59012229D01*
X34933344Y-59021198D01*
X34949857Y-59034913D01*
X34971404Y-59054239D01*
X34998918Y-59080041D01*
X35033330Y-59113183D01*
X35075573Y-59154529D01*
X35126579Y-59204945D01*
X35187280Y-59265295D01*
X35258608Y-59336444D01*
X35290575Y-59368373D01*
X35367579Y-59445396D01*
X35433353Y-59511428D01*
X35488734Y-59567358D01*
X35534557Y-59614077D01*
X35571660Y-59652474D01*
X35600879Y-59683439D01*
X35623048Y-59707862D01*
X35639005Y-59726634D01*
X35649586Y-59740643D01*
X35655626Y-59750780D01*
X35657962Y-59757935D01*
X35658066Y-59759510D01*
X35655241Y-59769066D01*
X35646450Y-59786529D01*
X35631217Y-59812633D01*
X35609067Y-59848109D01*
X35579527Y-59893690D01*
X35542119Y-59950107D01*
X35496370Y-60018093D01*
X35441805Y-60098381D01*
X35377947Y-60191702D01*
X35373609Y-60198024D01*
X35321951Y-60273485D01*
X35273002Y-60345341D01*
X35227639Y-60412285D01*
X35186735Y-60473011D01*
X35151165Y-60526210D01*
X35121804Y-60570576D01*
X35099524Y-60604801D01*
X35085203Y-60627577D01*
X35079835Y-60637219D01*
X35077979Y-60644353D01*
X35077816Y-60653403D01*
X35079897Y-60665859D01*
X35084774Y-60683208D01*
X35092998Y-60706940D01*
X35105120Y-60738544D01*
X35121692Y-60779508D01*
X35143265Y-60831321D01*
X35170390Y-60895472D01*
X35203619Y-60973450D01*
X35209081Y-60986236D01*
X35248483Y-61078441D01*
X35281829Y-61156323D01*
X35309717Y-61221128D01*
X35332745Y-61274104D01*
X35351512Y-61316496D01*
X35366614Y-61349553D01*
X35378652Y-61374522D01*
X35388222Y-61392649D01*
X35395923Y-61405181D01*
X35402354Y-61413365D01*
X35408112Y-61418450D01*
X35413797Y-61421681D01*
X35419041Y-61423911D01*
X35431465Y-61427162D01*
X35458977Y-61433158D01*
X35500010Y-61441590D01*
X35552997Y-61452153D01*
X35616371Y-61464539D01*
X35688563Y-61478440D01*
X35768007Y-61493551D01*
X35853135Y-61509564D01*
X35920533Y-61522123D01*
X36008780Y-61538584D01*
X36092417Y-61554347D01*
X36169893Y-61569108D01*
X36239656Y-61582565D01*
X36300156Y-61594414D01*
X36349843Y-61604352D01*
X36387164Y-61612076D01*
X36410569Y-61617282D01*
X36418119Y-61619380D01*
X36435756Y-61633632D01*
X36445636Y-61649681D01*
X36447108Y-61661919D01*
X36448422Y-61689248D01*
X36449577Y-61729826D01*
X36450570Y-61781809D01*
X36451401Y-61843356D01*
X36452068Y-61912625D01*
X36452571Y-61987773D01*
X36452907Y-62066958D01*
X36453075Y-62148338D01*
X36453075Y-62230071D01*
X36452904Y-62310315D01*
X36452562Y-62387227D01*
X36452046Y-62458966D01*
X36451356Y-62523688D01*
X36450491Y-62579552D01*
X36449449Y-62624716D01*
X36448228Y-62657337D01*
X36446828Y-62675574D01*
X36446381Y-62677934D01*
X36434405Y-62697655D01*
X36419708Y-62708828D01*
X36407703Y-62712133D01*
X36380605Y-62718163D01*
X36339979Y-62726610D01*
X36287391Y-62737166D01*
X36224407Y-62749522D01*
X36152592Y-62763371D01*
X36073514Y-62778405D01*
X35988737Y-62794315D01*
X35924766Y-62806193D01*
X35823204Y-62825006D01*
X35736981Y-62841094D01*
X35664775Y-62854749D01*
X35605262Y-62866259D01*
X35557119Y-62875915D01*
X35519022Y-62884006D01*
X35489649Y-62890824D01*
X35467676Y-62896657D01*
X35451780Y-62901795D01*
X35440638Y-62906530D01*
X35432926Y-62911150D01*
X35428295Y-62914999D01*
X35420505Y-62927258D01*
X35407481Y-62953439D01*
X35389994Y-62991633D01*
X35368813Y-63039927D01*
X35344708Y-63096409D01*
X35318447Y-63159170D01*
X35290799Y-63226297D01*
X35262535Y-63295880D01*
X35234422Y-63366007D01*
X35207232Y-63434766D01*
X35181732Y-63500248D01*
X35158693Y-63560540D01*
X35138883Y-63613731D01*
X35123071Y-63657911D01*
X35112028Y-63691167D01*
X35106522Y-63711589D01*
X35106041Y-63715619D01*
X35108087Y-63724400D01*
X35114629Y-63738850D01*
X35126277Y-63759912D01*
X35143638Y-63788527D01*
X35167321Y-63825636D01*
X35197932Y-63872182D01*
X35236081Y-63929106D01*
X35282375Y-63997349D01*
X35337423Y-64077853D01*
X35379389Y-64138952D01*
X35445109Y-64234813D01*
X35501277Y-64317430D01*
X35548223Y-64387312D01*
X35586278Y-64444965D01*
X35615771Y-64490897D01*
X35637033Y-64525615D01*
X35650393Y-64549626D01*
X35656183Y-64563439D01*
X35656429Y-64564743D01*
X35656847Y-64570954D01*
X35655870Y-64577579D01*
X35652619Y-64585578D01*
X35646215Y-64595907D01*
X35635780Y-64609526D01*
X35620433Y-64627394D01*
X35599296Y-64650469D01*
X35571490Y-64679709D01*
X35536136Y-64716073D01*
X35492354Y-64760520D01*
X35439267Y-64814008D01*
X35375994Y-64877496D01*
X35301656Y-64951941D01*
X35297835Y-64955766D01*
X35232443Y-65020983D01*
X35170233Y-65082559D01*
X35112298Y-65139444D01*
X35059729Y-65190587D01*
X35013620Y-65234938D01*
X34975061Y-65271447D01*
X34945145Y-65299064D01*
X34924964Y-65316737D01*
X34915635Y-65323411D01*
X34893370Y-65324029D01*
X34880007Y-65320001D01*
X34870229Y-65313737D01*
X34847828Y-65298782D01*
X34814132Y-65276042D01*
X34770471Y-65246420D01*
X34718175Y-65210821D01*
X34658572Y-65170148D01*
X34592991Y-65125307D01*
X34522763Y-65077202D01*
X34480682Y-65048338D01*
X34408190Y-64998788D01*
X34339352Y-64952116D01*
X34275524Y-64909215D01*
X34218062Y-64870979D01*
X34168323Y-64838302D01*
X34127662Y-64812077D01*
X34097437Y-64793200D01*
X34079003Y-64782562D01*
X34074296Y-64780529D01*
X34063556Y-64780764D01*
X34047038Y-64785335D01*
X34023071Y-64794998D01*
X33989983Y-64810508D01*
X33946102Y-64832619D01*
X33889756Y-64862088D01*
X33866955Y-64874187D01*
X33815311Y-64901368D01*
X33768066Y-64925662D01*
X33727436Y-64945978D01*
X33695636Y-64961220D01*
X33674884Y-64970297D01*
X33667963Y-64972400D01*
X33650144Y-64966415D01*
X33644466Y-64961467D01*
X33638966Y-64950944D01*
X33627677Y-64926068D01*
X33611105Y-64888074D01*
X33589755Y-64838194D01*
X33564133Y-64777662D01*
X33534746Y-64707711D01*
X33502100Y-64629576D01*
X33466699Y-64544490D01*
X33429051Y-64453687D01*
X33389661Y-64358399D01*
X33349036Y-64259862D01*
X33307681Y-64159307D01*
X33266102Y-64057970D01*
X33224805Y-63957084D01*
X33184296Y-63857882D01*
X33145082Y-63761597D01*
X33107668Y-63669464D01*
X33072559Y-63582717D01*
X33040263Y-63502588D01*
X33011285Y-63430311D01*
X32986131Y-63367120D01*
X32965307Y-63314249D01*
X32949319Y-63272931D01*
X32938673Y-63244400D01*
X32933875Y-63229889D01*
X32933653Y-63228438D01*
X32940571Y-63212297D01*
X32959182Y-63193943D01*
X32986833Y-63174291D01*
X33093422Y-63101424D01*
X33185439Y-63031018D01*
X33264693Y-62961250D01*
X33332993Y-62890298D01*
X33392149Y-62816338D01*
X33443970Y-62737547D01*
X33474599Y-62682840D01*
X33529543Y-62561124D01*
X33568623Y-62436256D01*
X33592244Y-62309532D01*
X33600808Y-62182247D01*
X33594721Y-62055698D01*
X33574387Y-61931180D01*
X33540210Y-61809987D01*
X33492595Y-61693417D01*
X33431946Y-61582764D01*
X33358668Y-61479324D01*
X33273165Y-61384392D01*
X33175841Y-61299265D01*
X33067101Y-61225237D01*
X33009680Y-61193360D01*
X32886033Y-61138565D01*
X32759679Y-61099803D01*
X32631862Y-61076673D01*
X32503829Y-61068769D01*
X32376827Y-61075688D01*
X32252102Y-61097028D01*
X32130901Y-61132384D01*
X32014469Y-61181353D01*
X31904053Y-61243531D01*
X31800900Y-61318515D01*
X31706256Y-61405901D01*
X31621367Y-61505286D01*
X31547480Y-61616266D01*
X31514279Y-61677511D01*
X31462769Y-61796893D01*
X31427043Y-61919481D01*
X31406757Y-62046912D01*
X31401563Y-62180824D01*
X31402287Y-62208033D01*
X31409878Y-62315825D01*
X31425036Y-62412847D01*
X31449014Y-62504041D01*
X31483064Y-62594350D01*
X31520114Y-62672644D01*
X31555951Y-62738423D01*
X31593896Y-62798619D01*
X31635635Y-62854920D01*
X31682853Y-62909018D01*
X31737235Y-62962603D01*
X31800467Y-63017364D01*
X31874233Y-63074991D01*
X31960219Y-63137176D01*
X32033961Y-63187970D01*
X32058831Y-63209035D01*
X32068088Y-63228339D01*
X32068200Y-63230672D01*
X32065028Y-63240652D01*
X32055851Y-63265027D01*
X32041178Y-63302565D01*
X32021516Y-63352030D01*
X31997375Y-63412188D01*
X31969262Y-63481804D01*
X31937686Y-63559645D01*
X31903154Y-63644475D01*
X31866175Y-63735061D01*
X31827258Y-63830168D01*
X31786911Y-63928561D01*
X31745642Y-64029006D01*
X31703959Y-64130269D01*
X31662370Y-64231115D01*
X31621385Y-64330310D01*
X31581510Y-64426620D01*
X31543255Y-64518809D01*
X31507127Y-64605644D01*
X31473636Y-64685890D01*
X31443288Y-64758313D01*
X31416593Y-64821678D01*
X31394059Y-64874751D01*
X31376194Y-64916298D01*
X31363506Y-64945084D01*
X31356504Y-64959874D01*
X31355533Y-64961467D01*
X31339537Y-64971228D01*
X31332130Y-64972400D01*
X31320922Y-64968518D01*
X31297092Y-64957613D01*
X31262866Y-64940795D01*
X31220473Y-64919177D01*
X31172142Y-64893869D01*
X31136316Y-64874740D01*
X31076201Y-64842675D01*
X31028999Y-64818227D01*
X30992937Y-64800589D01*
X30966238Y-64788955D01*
X30947128Y-64782519D01*
X30933831Y-64780475D01*
X30929433Y-64780748D01*
X30916221Y-64786484D01*
X30890266Y-64801367D01*
X30852618Y-64824717D01*
X30804327Y-64855858D01*
X30746441Y-64894111D01*
X30680012Y-64938800D01*
X30606087Y-64989246D01*
X30599233Y-64993955D01*
X30504109Y-65059381D01*
X30421977Y-65115896D01*
X30351834Y-65164120D01*
X30292676Y-65204678D01*
X30243501Y-65238191D01*
X30203306Y-65265282D01*
X30171089Y-65286572D01*
X30145845Y-65302685D01*
X30126574Y-65314242D01*
X30112271Y-65321866D01*
X30101934Y-65326179D01*
X30094561Y-65327804D01*
X30089147Y-65327363D01*
X30084692Y-65325478D01*
X30080190Y-65322772D01*
X30074641Y-65319866D01*
X30074300Y-65319719D01*
X30065405Y-65312558D01*
X30045684Y-65294440D01*
X30016230Y-65266433D01*
X29978139Y-65229607D01*
X29932503Y-65185031D01*
X29880418Y-65133772D01*
X29822978Y-65076901D01*
X29761278Y-65015485D01*
X29698623Y-64952813D01*
X29624157Y-64878117D01*
X29560784Y-64814427D01*
X29507622Y-64760781D01*
X29463790Y-64716214D01*
X29428404Y-64679761D01*
X29400583Y-64650459D01*
X29379444Y-64627343D01*
X29364105Y-64609449D01*
X29353683Y-64595813D01*
X29347296Y-64585470D01*
X29344063Y-64577458D01*
X29343099Y-64570810D01*
X29343502Y-64564741D01*
X29348035Y-64552537D01*
X29359974Y-64530417D01*
X29379670Y-64497842D01*
X29407474Y-64454270D01*
X29443737Y-64399161D01*
X29488811Y-64331974D01*
X29543048Y-64252169D01*
X29606797Y-64159206D01*
X29612354Y-64151134D01*
X29662316Y-64078398D01*
X29709591Y-64009250D01*
X29753262Y-63945052D01*
X29792412Y-63887168D01*
X29826124Y-63836961D01*
X29853481Y-63795795D01*
X29873566Y-63765033D01*
X29885462Y-63746038D01*
X29888250Y-63740945D01*
X29891262Y-63733769D01*
X29893410Y-63726756D01*
X29894238Y-63718565D01*
X29893289Y-63707854D01*
X29890109Y-63693281D01*
X29884242Y-63673506D01*
X29875231Y-63647188D01*
X29862622Y-63612984D01*
X29845959Y-63569553D01*
X29824785Y-63515556D01*
X29798646Y-63449649D01*
X29767086Y-63370492D01*
X29735648Y-63291767D01*
X29703040Y-63210749D01*
X29672733Y-63136683D01*
X29645319Y-63070949D01*
X29621390Y-63014926D01*
X29601541Y-62969995D01*
X29586362Y-62937534D01*
X29576448Y-62918924D01*
X29574040Y-62915615D01*
X29568772Y-62911066D01*
X29561033Y-62906592D01*
X29549530Y-62901907D01*
X29532972Y-62896729D01*
X29510066Y-62890773D01*
X29479520Y-62883756D01*
X29440042Y-62875392D01*
X29390340Y-62865398D01*
X29329122Y-62853490D01*
X29255095Y-62839384D01*
X29166967Y-62822795D01*
X29065827Y-62803885D01*
X28949279Y-62781982D01*
X28848992Y-62762799D01*
X28764530Y-62746246D01*
X28695458Y-62732231D01*
X28641339Y-62720663D01*
X28601736Y-62711452D01*
X28576213Y-62704506D01*
X28564333Y-62699735D01*
X28563755Y-62699256D01*
X28560899Y-62694956D01*
X28558451Y-62687348D01*
X28556371Y-62675152D01*
X28554617Y-62657088D01*
X28553152Y-62631877D01*
X28551933Y-62598239D01*
X28550923Y-62554896D01*
X28550079Y-62500568D01*
X28549363Y-62433975D01*
X28548734Y-62353839D01*
X28548152Y-62258879D01*
X28547780Y-62188686D01*
X28547406Y-62097678D01*
X28547216Y-62011119D01*
X28547205Y-61930600D01*
X28547363Y-61857712D01*
X28547683Y-61794045D01*
X28548159Y-61741190D01*
X28548781Y-61700737D01*
X28549543Y-61674277D01*
X28550293Y-61663986D01*
X28559390Y-61640917D01*
X28573979Y-61624616D01*
X28585538Y-61620949D01*
X28612220Y-61614562D01*
X28652488Y-61605764D01*
X28704805Y-61594868D01*
X28767634Y-61582185D01*
X28839437Y-61568024D01*
X28918678Y-61552698D01*
X29003820Y-61536517D01*
X29077874Y-61522660D01*
X29166812Y-61506039D01*
X29251185Y-61490091D01*
X29329448Y-61475119D01*
X29400057Y-61461427D01*
X29461466Y-61449319D01*
X29512131Y-61439099D01*
X29550507Y-61431072D01*
X29575050Y-61425541D01*
X29583795Y-61423070D01*
X29589457Y-61420212D01*
X29594901Y-61416241D01*
X29600721Y-61409907D01*
X29607510Y-61399960D01*
X29615860Y-61385150D01*
X29626365Y-61364224D01*
X29639617Y-61335933D01*
X29656210Y-61299026D01*
X29676737Y-61252253D01*
X29701790Y-61194363D01*
X29731962Y-61124106D01*
X29767846Y-61040230D01*
X29790918Y-60986236D01*
X29825110Y-60906051D01*
X29853114Y-60839915D01*
X29875480Y-60786340D01*
X29892761Y-60743839D01*
X29905507Y-60710926D01*
X29914269Y-60686113D01*
X29919598Y-60667915D01*
X29922046Y-60654844D01*
X29922164Y-60645414D01*
X29920502Y-60638137D01*
X29920228Y-60637388D01*
X29913851Y-60626095D01*
X29898732Y-60602169D01*
X29875744Y-60566919D01*
X29845760Y-60521649D01*
X29809654Y-60467666D01*
X29768299Y-60406277D01*
X29722569Y-60338789D01*
X29673337Y-60266506D01*
X29626454Y-60197993D01*
X29561707Y-60103335D01*
X29506305Y-60021787D01*
X29459792Y-59952646D01*
X29421715Y-59895212D01*
X29391617Y-59848784D01*
X29369046Y-59812660D01*
X29353545Y-59786139D01*
X29344660Y-59768521D01*
X29341933Y-59759309D01*
X29343441Y-59752801D01*
X29348521Y-59743455D01*
X29358006Y-59730384D01*
X29372730Y-59712701D01*
X29393525Y-59689519D01*
X29421227Y-59659952D01*
X29456668Y-59623112D01*
X29500681Y-59578113D01*
X29554100Y-59524068D01*
X29617759Y-59460090D01*
X29692491Y-59385292D01*
X29708343Y-59369452D01*
X29787586Y-59290430D01*
X29855758Y-59222780D01*
X29913632Y-59165775D01*
X29961980Y-59118684D01*
X30001573Y-59080778D01*
X30033184Y-59051327D01*
X30057586Y-59029601D01*
X30075550Y-59014872D01*
X30087849Y-59006409D01*
X30095254Y-59003483D01*
X30095693Y-59003466D01*
X30107656Y-59008382D01*
X30133101Y-59022972D01*
X30171743Y-59047051D01*
X30223299Y-59080431D01*
X30287484Y-59122928D01*
X30364013Y-59174355D01*
X30452603Y-59234524D01*
X30547945Y-59299799D01*
X30640687Y-59363387D01*
X30720497Y-59417834D01*
X30788296Y-59463737D01*
X30845008Y-59501694D01*
X30891553Y-59532301D01*
X30928854Y-59556154D01*
X30957831Y-59573852D01*
X30979408Y-59585990D01*
X30994505Y-59593165D01*
X31004045Y-59595975D01*
X31005509Y-59596067D01*
X31017138Y-59592980D01*
X31042461Y-59584241D01*
X31079509Y-59570632D01*
X31126311Y-59552935D01*
X31180899Y-59531933D01*
X31241303Y-59508407D01*
X31305554Y-59483141D01*
X31371683Y-59456916D01*
X31437719Y-59430515D01*
X31501694Y-59404720D01*
X31561638Y-59380313D01*
X31615582Y-59358076D01*
X31661556Y-59338792D01*
X31697591Y-59323243D01*
X31721717Y-59312211D01*
X31727535Y-59309270D01*
X31742910Y-59295032D01*
X31753776Y-59276774D01*
X31757023Y-59264367D01*
X31763030Y-59236830D01*
X31771498Y-59195687D01*
X31782128Y-59142463D01*
X31794622Y-59078682D01*
X31808681Y-59005867D01*
X31824006Y-58925545D01*
X31840299Y-58839239D01*
X31857076Y-58749471D01*
X31879748Y-58628444D01*
X31899688Y-58523902D01*
X31916940Y-58435628D01*
X31931550Y-58363404D01*
X31943564Y-58307011D01*
X31953025Y-58266232D01*
X31959980Y-58240848D01*
X31964218Y-58230888D01*
X31967841Y-58227829D01*
X31973596Y-58225219D01*
X31982752Y-58223021D01*
X31996579Y-58221202D01*
X32016347Y-58219725D01*
X32043326Y-58218555D01*
X32078785Y-58217657D01*
X32123994Y-58216995D01*
X32180224Y-58216535D01*
X32248745Y-58216241D01*
X32330825Y-58216078D01*
X32427736Y-58216010D01*
X32500000Y-58216000D01*
X32607287Y-58216023D01*
G37*
X32607287Y-58216023D02*
X32698912Y-58216117D01*
X32776147Y-58216317D01*
X32840263Y-58216659D01*
X32892531Y-58217178D01*
X32934224Y-58217911D01*
X32966613Y-58218893D01*
X32990969Y-58220159D01*
X33008563Y-58221746D01*
X33020667Y-58223689D01*
X33028553Y-58226024D01*
X33033493Y-58228787D01*
X33035933Y-58231055D01*
X33040528Y-58241949D01*
X33047428Y-58267195D01*
X33056701Y-58307125D01*
X33068418Y-58362070D01*
X33082645Y-58432361D01*
X33099452Y-58518331D01*
X33118906Y-58620310D01*
X33141078Y-58738632D01*
X33143124Y-58749639D01*
X33163509Y-58859109D01*
X33181132Y-58953107D01*
X33196249Y-59032824D01*
X33209119Y-59099449D01*
X33220000Y-59154172D01*
X33229150Y-59198184D01*
X33236828Y-59232673D01*
X33243291Y-59258831D01*
X33248797Y-59277846D01*
X33253605Y-59290910D01*
X33257972Y-59299212D01*
X33262158Y-59303941D01*
X33263565Y-59304935D01*
X33277839Y-59312051D01*
X33305429Y-59324275D01*
X33344382Y-59340828D01*
X33392743Y-59360933D01*
X33448557Y-59383810D01*
X33509869Y-59408683D01*
X33574726Y-59434773D01*
X33641171Y-59461301D01*
X33707251Y-59487491D01*
X33771011Y-59512564D01*
X33830496Y-59535741D01*
X33883752Y-59556246D01*
X33928824Y-59573299D01*
X33963757Y-59586123D01*
X33986597Y-59593939D01*
X33994960Y-59596067D01*
X34003386Y-59594173D01*
X34017087Y-59588089D01*
X34036992Y-59577211D01*
X34064034Y-59560936D01*
X34099144Y-59538660D01*
X34143256Y-59509780D01*
X34197299Y-59473692D01*
X34262207Y-59429792D01*
X34338911Y-59377477D01*
X34428343Y-59316144D01*
X34448095Y-59302566D01*
X34524847Y-59249989D01*
X34597898Y-59200339D01*
X34665977Y-59154455D01*
X34727812Y-59113175D01*
X34782133Y-59077337D01*
X34827669Y-59047780D01*
X34863148Y-59025343D01*
X34887300Y-59010863D01*
X34898853Y-59005179D01*
X34898992Y-59005153D01*
X34904690Y-59005071D01*
X34911693Y-59007142D01*
X34920933Y-59012229D01*
X34933344Y-59021198D01*
X34949857Y-59034913D01*
X34971404Y-59054239D01*
X34998918Y-59080041D01*
X35033330Y-59113183D01*
X35075573Y-59154529D01*
X35126579Y-59204945D01*
X35187280Y-59265295D01*
X35258608Y-59336444D01*
X35290575Y-59368373D01*
X35367579Y-59445396D01*
X35433353Y-59511428D01*
X35488734Y-59567358D01*
X35534557Y-59614077D01*
X35571660Y-59652474D01*
X35600879Y-59683439D01*
X35623048Y-59707862D01*
X35639005Y-59726634D01*
X35649586Y-59740643D01*
X35655626Y-59750780D01*
X35657962Y-59757935D01*
X35658066Y-59759510D01*
X35655241Y-59769066D01*
X35646450Y-59786529D01*
X35631217Y-59812633D01*
X35609067Y-59848109D01*
X35579527Y-59893690D01*
X35542119Y-59950107D01*
X35496370Y-60018093D01*
X35441805Y-60098381D01*
X35377947Y-60191702D01*
X35373609Y-60198024D01*
X35321951Y-60273485D01*
X35273002Y-60345341D01*
X35227639Y-60412285D01*
X35186735Y-60473011D01*
X35151165Y-60526210D01*
X35121804Y-60570576D01*
X35099524Y-60604801D01*
X35085203Y-60627577D01*
X35079835Y-60637219D01*
X35077979Y-60644353D01*
X35077816Y-60653403D01*
X35079897Y-60665859D01*
X35084774Y-60683208D01*
X35092998Y-60706940D01*
X35105120Y-60738544D01*
X35121692Y-60779508D01*
X35143265Y-60831321D01*
X35170390Y-60895472D01*
X35203619Y-60973450D01*
X35209081Y-60986236D01*
X35248483Y-61078441D01*
X35281829Y-61156323D01*
X35309717Y-61221128D01*
X35332745Y-61274104D01*
X35351512Y-61316496D01*
X35366614Y-61349553D01*
X35378652Y-61374522D01*
X35388222Y-61392649D01*
X35395923Y-61405181D01*
X35402354Y-61413365D01*
X35408112Y-61418450D01*
X35413797Y-61421681D01*
X35419041Y-61423911D01*
X35431465Y-61427162D01*
X35458977Y-61433158D01*
X35500010Y-61441590D01*
X35552997Y-61452153D01*
X35616371Y-61464539D01*
X35688563Y-61478440D01*
X35768007Y-61493551D01*
X35853135Y-61509564D01*
X35920533Y-61522123D01*
X36008780Y-61538584D01*
X36092417Y-61554347D01*
X36169893Y-61569108D01*
X36239656Y-61582565D01*
X36300156Y-61594414D01*
X36349843Y-61604352D01*
X36387164Y-61612076D01*
X36410569Y-61617282D01*
X36418119Y-61619380D01*
X36435756Y-61633632D01*
X36445636Y-61649681D01*
X36447108Y-61661919D01*
X36448422Y-61689248D01*
X36449577Y-61729826D01*
X36450570Y-61781809D01*
X36451401Y-61843356D01*
X36452068Y-61912625D01*
X36452571Y-61987773D01*
X36452907Y-62066958D01*
X36453075Y-62148338D01*
X36453075Y-62230071D01*
X36452904Y-62310315D01*
X36452562Y-62387227D01*
X36452046Y-62458966D01*
X36451356Y-62523688D01*
X36450491Y-62579552D01*
X36449449Y-62624716D01*
X36448228Y-62657337D01*
X36446828Y-62675574D01*
X36446381Y-62677934D01*
X36434405Y-62697655D01*
X36419708Y-62708828D01*
X36407703Y-62712133D01*
X36380605Y-62718163D01*
X36339979Y-62726610D01*
X36287391Y-62737166D01*
X36224407Y-62749522D01*
X36152592Y-62763371D01*
X36073514Y-62778405D01*
X35988737Y-62794315D01*
X35924766Y-62806193D01*
X35823204Y-62825006D01*
X35736981Y-62841094D01*
X35664775Y-62854749D01*
X35605262Y-62866259D01*
X35557119Y-62875915D01*
X35519022Y-62884006D01*
X35489649Y-62890824D01*
X35467676Y-62896657D01*
X35451780Y-62901795D01*
X35440638Y-62906530D01*
X35432926Y-62911150D01*
X35428295Y-62914999D01*
X35420505Y-62927258D01*
X35407481Y-62953439D01*
X35389994Y-62991633D01*
X35368813Y-63039927D01*
X35344708Y-63096409D01*
X35318447Y-63159170D01*
X35290799Y-63226297D01*
X35262535Y-63295880D01*
X35234422Y-63366007D01*
X35207232Y-63434766D01*
X35181732Y-63500248D01*
X35158693Y-63560540D01*
X35138883Y-63613731D01*
X35123071Y-63657911D01*
X35112028Y-63691167D01*
X35106522Y-63711589D01*
X35106041Y-63715619D01*
X35108087Y-63724400D01*
X35114629Y-63738850D01*
X35126277Y-63759912D01*
X35143638Y-63788527D01*
X35167321Y-63825636D01*
X35197932Y-63872182D01*
X35236081Y-63929106D01*
X35282375Y-63997349D01*
X35337423Y-64077853D01*
X35379389Y-64138952D01*
X35445109Y-64234813D01*
X35501277Y-64317430D01*
X35548223Y-64387312D01*
X35586278Y-64444965D01*
X35615771Y-64490897D01*
X35637033Y-64525615D01*
X35650393Y-64549626D01*
X35656183Y-64563439D01*
X35656429Y-64564743D01*
X35656847Y-64570954D01*
X35655870Y-64577579D01*
X35652619Y-64585578D01*
X35646215Y-64595907D01*
X35635780Y-64609526D01*
X35620433Y-64627394D01*
X35599296Y-64650469D01*
X35571490Y-64679709D01*
X35536136Y-64716073D01*
X35492354Y-64760520D01*
X35439267Y-64814008D01*
X35375994Y-64877496D01*
X35301656Y-64951941D01*
X35297835Y-64955766D01*
X35232443Y-65020983D01*
X35170233Y-65082559D01*
X35112298Y-65139444D01*
X35059729Y-65190587D01*
X35013620Y-65234938D01*
X34975061Y-65271447D01*
X34945145Y-65299064D01*
X34924964Y-65316737D01*
X34915635Y-65323411D01*
X34893370Y-65324029D01*
X34880007Y-65320001D01*
X34870229Y-65313737D01*
X34847828Y-65298782D01*
X34814132Y-65276042D01*
X34770471Y-65246420D01*
X34718175Y-65210821D01*
X34658572Y-65170148D01*
X34592991Y-65125307D01*
X34522763Y-65077202D01*
X34480682Y-65048338D01*
X34408190Y-64998788D01*
X34339352Y-64952116D01*
X34275524Y-64909215D01*
X34218062Y-64870979D01*
X34168323Y-64838302D01*
X34127662Y-64812077D01*
X34097437Y-64793200D01*
X34079003Y-64782562D01*
X34074296Y-64780529D01*
X34063556Y-64780764D01*
X34047038Y-64785335D01*
X34023071Y-64794998D01*
X33989983Y-64810508D01*
X33946102Y-64832619D01*
X33889756Y-64862088D01*
X33866955Y-64874187D01*
X33815311Y-64901368D01*
X33768066Y-64925662D01*
X33727436Y-64945978D01*
X33695636Y-64961220D01*
X33674884Y-64970297D01*
X33667963Y-64972400D01*
X33650144Y-64966415D01*
X33644466Y-64961467D01*
X33638966Y-64950944D01*
X33627677Y-64926068D01*
X33611105Y-64888074D01*
X33589755Y-64838194D01*
X33564133Y-64777662D01*
X33534746Y-64707711D01*
X33502100Y-64629576D01*
X33466699Y-64544490D01*
X33429051Y-64453687D01*
X33389661Y-64358399D01*
X33349036Y-64259862D01*
X33307681Y-64159307D01*
X33266102Y-64057970D01*
X33224805Y-63957084D01*
X33184296Y-63857882D01*
X33145082Y-63761597D01*
X33107668Y-63669464D01*
X33072559Y-63582717D01*
X33040263Y-63502588D01*
X33011285Y-63430311D01*
X32986131Y-63367120D01*
X32965307Y-63314249D01*
X32949319Y-63272931D01*
X32938673Y-63244400D01*
X32933875Y-63229889D01*
X32933653Y-63228438D01*
X32940571Y-63212297D01*
X32959182Y-63193943D01*
X32986833Y-63174291D01*
X33093422Y-63101424D01*
X33185439Y-63031018D01*
X33264693Y-62961250D01*
X33332993Y-62890298D01*
X33392149Y-62816338D01*
X33443970Y-62737547D01*
X33474599Y-62682840D01*
X33529543Y-62561124D01*
X33568623Y-62436256D01*
X33592244Y-62309532D01*
X33600808Y-62182247D01*
X33594721Y-62055698D01*
X33574387Y-61931180D01*
X33540210Y-61809987D01*
X33492595Y-61693417D01*
X33431946Y-61582764D01*
X33358668Y-61479324D01*
X33273165Y-61384392D01*
X33175841Y-61299265D01*
X33067101Y-61225237D01*
X33009680Y-61193360D01*
X32886033Y-61138565D01*
X32759679Y-61099803D01*
X32631862Y-61076673D01*
X32503829Y-61068769D01*
X32376827Y-61075688D01*
X32252102Y-61097028D01*
X32130901Y-61132384D01*
X32014469Y-61181353D01*
X31904053Y-61243531D01*
X31800900Y-61318515D01*
X31706256Y-61405901D01*
X31621367Y-61505286D01*
X31547480Y-61616266D01*
X31514279Y-61677511D01*
X31462769Y-61796893D01*
X31427043Y-61919481D01*
X31406757Y-62046912D01*
X31401563Y-62180824D01*
X31402287Y-62208033D01*
X31409878Y-62315825D01*
X31425036Y-62412847D01*
X31449014Y-62504041D01*
X31483064Y-62594350D01*
X31520114Y-62672644D01*
X31555951Y-62738423D01*
X31593896Y-62798619D01*
X31635635Y-62854920D01*
X31682853Y-62909018D01*
X31737235Y-62962603D01*
X31800467Y-63017364D01*
X31874233Y-63074991D01*
X31960219Y-63137176D01*
X32033961Y-63187970D01*
X32058831Y-63209035D01*
X32068088Y-63228339D01*
X32068200Y-63230672D01*
X32065028Y-63240652D01*
X32055851Y-63265027D01*
X32041178Y-63302565D01*
X32021516Y-63352030D01*
X31997375Y-63412188D01*
X31969262Y-63481804D01*
X31937686Y-63559645D01*
X31903154Y-63644475D01*
X31866175Y-63735061D01*
X31827258Y-63830168D01*
X31786911Y-63928561D01*
X31745642Y-64029006D01*
X31703959Y-64130269D01*
X31662370Y-64231115D01*
X31621385Y-64330310D01*
X31581510Y-64426620D01*
X31543255Y-64518809D01*
X31507127Y-64605644D01*
X31473636Y-64685890D01*
X31443288Y-64758313D01*
X31416593Y-64821678D01*
X31394059Y-64874751D01*
X31376194Y-64916298D01*
X31363506Y-64945084D01*
X31356504Y-64959874D01*
X31355533Y-64961467D01*
X31339537Y-64971228D01*
X31332130Y-64972400D01*
X31320922Y-64968518D01*
X31297092Y-64957613D01*
X31262866Y-64940795D01*
X31220473Y-64919177D01*
X31172142Y-64893869D01*
X31136316Y-64874740D01*
X31076201Y-64842675D01*
X31028999Y-64818227D01*
X30992937Y-64800589D01*
X30966238Y-64788955D01*
X30947128Y-64782519D01*
X30933831Y-64780475D01*
X30929433Y-64780748D01*
X30916221Y-64786484D01*
X30890266Y-64801367D01*
X30852618Y-64824717D01*
X30804327Y-64855858D01*
X30746441Y-64894111D01*
X30680012Y-64938800D01*
X30606087Y-64989246D01*
X30599233Y-64993955D01*
X30504109Y-65059381D01*
X30421977Y-65115896D01*
X30351834Y-65164120D01*
X30292676Y-65204678D01*
X30243501Y-65238191D01*
X30203306Y-65265282D01*
X30171089Y-65286572D01*
X30145845Y-65302685D01*
X30126574Y-65314242D01*
X30112271Y-65321866D01*
X30101934Y-65326179D01*
X30094561Y-65327804D01*
X30089147Y-65327363D01*
X30084692Y-65325478D01*
X30080190Y-65322772D01*
X30074641Y-65319866D01*
X30074300Y-65319719D01*
X30065405Y-65312558D01*
X30045684Y-65294440D01*
X30016230Y-65266433D01*
X29978139Y-65229607D01*
X29932503Y-65185031D01*
X29880418Y-65133772D01*
X29822978Y-65076901D01*
X29761278Y-65015485D01*
X29698623Y-64952813D01*
X29624157Y-64878117D01*
X29560784Y-64814427D01*
X29507622Y-64760781D01*
X29463790Y-64716214D01*
X29428404Y-64679761D01*
X29400583Y-64650459D01*
X29379444Y-64627343D01*
X29364105Y-64609449D01*
X29353683Y-64595813D01*
X29347296Y-64585470D01*
X29344063Y-64577458D01*
X29343099Y-64570810D01*
X29343502Y-64564741D01*
X29348035Y-64552537D01*
X29359974Y-64530417D01*
X29379670Y-64497842D01*
X29407474Y-64454270D01*
X29443737Y-64399161D01*
X29488811Y-64331974D01*
X29543048Y-64252169D01*
X29606797Y-64159206D01*
X29612354Y-64151134D01*
X29662316Y-64078398D01*
X29709591Y-64009250D01*
X29753262Y-63945052D01*
X29792412Y-63887168D01*
X29826124Y-63836961D01*
X29853481Y-63795795D01*
X29873566Y-63765033D01*
X29885462Y-63746038D01*
X29888250Y-63740945D01*
X29891262Y-63733769D01*
X29893410Y-63726756D01*
X29894238Y-63718565D01*
X29893289Y-63707854D01*
X29890109Y-63693281D01*
X29884242Y-63673506D01*
X29875231Y-63647188D01*
X29862622Y-63612984D01*
X29845959Y-63569553D01*
X29824785Y-63515556D01*
X29798646Y-63449649D01*
X29767086Y-63370492D01*
X29735648Y-63291767D01*
X29703040Y-63210749D01*
X29672733Y-63136683D01*
X29645319Y-63070949D01*
X29621390Y-63014926D01*
X29601541Y-62969995D01*
X29586362Y-62937534D01*
X29576448Y-62918924D01*
X29574040Y-62915615D01*
X29568772Y-62911066D01*
X29561033Y-62906592D01*
X29549530Y-62901907D01*
X29532972Y-62896729D01*
X29510066Y-62890773D01*
X29479520Y-62883756D01*
X29440042Y-62875392D01*
X29390340Y-62865398D01*
X29329122Y-62853490D01*
X29255095Y-62839384D01*
X29166967Y-62822795D01*
X29065827Y-62803885D01*
X28949279Y-62781982D01*
X28848992Y-62762799D01*
X28764530Y-62746246D01*
X28695458Y-62732231D01*
X28641339Y-62720663D01*
X28601736Y-62711452D01*
X28576213Y-62704506D01*
X28564333Y-62699735D01*
X28563755Y-62699256D01*
X28560899Y-62694956D01*
X28558451Y-62687348D01*
X28556371Y-62675152D01*
X28554617Y-62657088D01*
X28553152Y-62631877D01*
X28551933Y-62598239D01*
X28550923Y-62554896D01*
X28550079Y-62500568D01*
X28549363Y-62433975D01*
X28548734Y-62353839D01*
X28548152Y-62258879D01*
X28547780Y-62188686D01*
X28547406Y-62097678D01*
X28547216Y-62011119D01*
X28547205Y-61930600D01*
X28547363Y-61857712D01*
X28547683Y-61794045D01*
X28548159Y-61741190D01*
X28548781Y-61700737D01*
X28549543Y-61674277D01*
X28550293Y-61663986D01*
X28559390Y-61640917D01*
X28573979Y-61624616D01*
X28585538Y-61620949D01*
X28612220Y-61614562D01*
X28652488Y-61605764D01*
X28704805Y-61594868D01*
X28767634Y-61582185D01*
X28839437Y-61568024D01*
X28918678Y-61552698D01*
X29003820Y-61536517D01*
X29077874Y-61522660D01*
X29166812Y-61506039D01*
X29251185Y-61490091D01*
X29329448Y-61475119D01*
X29400057Y-61461427D01*
X29461466Y-61449319D01*
X29512131Y-61439099D01*
X29550507Y-61431072D01*
X29575050Y-61425541D01*
X29583795Y-61423070D01*
X29589457Y-61420212D01*
X29594901Y-61416241D01*
X29600721Y-61409907D01*
X29607510Y-61399960D01*
X29615860Y-61385150D01*
X29626365Y-61364224D01*
X29639617Y-61335933D01*
X29656210Y-61299026D01*
X29676737Y-61252253D01*
X29701790Y-61194363D01*
X29731962Y-61124106D01*
X29767846Y-61040230D01*
X29790918Y-60986236D01*
X29825110Y-60906051D01*
X29853114Y-60839915D01*
X29875480Y-60786340D01*
X29892761Y-60743839D01*
X29905507Y-60710926D01*
X29914269Y-60686113D01*
X29919598Y-60667915D01*
X29922046Y-60654844D01*
X29922164Y-60645414D01*
X29920502Y-60638137D01*
X29920228Y-60637388D01*
X29913851Y-60626095D01*
X29898732Y-60602169D01*
X29875744Y-60566919D01*
X29845760Y-60521649D01*
X29809654Y-60467666D01*
X29768299Y-60406277D01*
X29722569Y-60338789D01*
X29673337Y-60266506D01*
X29626454Y-60197993D01*
X29561707Y-60103335D01*
X29506305Y-60021787D01*
X29459792Y-59952646D01*
X29421715Y-59895212D01*
X29391617Y-59848784D01*
X29369046Y-59812660D01*
X29353545Y-59786139D01*
X29344660Y-59768521D01*
X29341933Y-59759309D01*
X29343441Y-59752801D01*
X29348521Y-59743455D01*
X29358006Y-59730384D01*
X29372730Y-59712701D01*
X29393525Y-59689519D01*
X29421227Y-59659952D01*
X29456668Y-59623112D01*
X29500681Y-59578113D01*
X29554100Y-59524068D01*
X29617759Y-59460090D01*
X29692491Y-59385292D01*
X29708343Y-59369452D01*
X29787586Y-59290430D01*
X29855758Y-59222780D01*
X29913632Y-59165775D01*
X29961980Y-59118684D01*
X30001573Y-59080778D01*
X30033184Y-59051327D01*
X30057586Y-59029601D01*
X30075550Y-59014872D01*
X30087849Y-59006409D01*
X30095254Y-59003483D01*
X30095693Y-59003466D01*
X30107656Y-59008382D01*
X30133101Y-59022972D01*
X30171743Y-59047051D01*
X30223299Y-59080431D01*
X30287484Y-59122928D01*
X30364013Y-59174355D01*
X30452603Y-59234524D01*
X30547945Y-59299799D01*
X30640687Y-59363387D01*
X30720497Y-59417834D01*
X30788296Y-59463737D01*
X30845008Y-59501694D01*
X30891553Y-59532301D01*
X30928854Y-59556154D01*
X30957831Y-59573852D01*
X30979408Y-59585990D01*
X30994505Y-59593165D01*
X31004045Y-59595975D01*
X31005509Y-59596067D01*
X31017138Y-59592980D01*
X31042461Y-59584241D01*
X31079509Y-59570632D01*
X31126311Y-59552935D01*
X31180899Y-59531933D01*
X31241303Y-59508407D01*
X31305554Y-59483141D01*
X31371683Y-59456916D01*
X31437719Y-59430515D01*
X31501694Y-59404720D01*
X31561638Y-59380313D01*
X31615582Y-59358076D01*
X31661556Y-59338792D01*
X31697591Y-59323243D01*
X31721717Y-59312211D01*
X31727535Y-59309270D01*
X31742910Y-59295032D01*
X31753776Y-59276774D01*
X31757023Y-59264367D01*
X31763030Y-59236830D01*
X31771498Y-59195687D01*
X31782128Y-59142463D01*
X31794622Y-59078682D01*
X31808681Y-59005867D01*
X31824006Y-58925545D01*
X31840299Y-58839239D01*
X31857076Y-58749471D01*
X31879748Y-58628444D01*
X31899688Y-58523902D01*
X31916940Y-58435628D01*
X31931550Y-58363404D01*
X31943564Y-58307011D01*
X31953025Y-58266232D01*
X31959980Y-58240848D01*
X31964218Y-58230888D01*
X31967841Y-58227829D01*
X31973596Y-58225219D01*
X31982752Y-58223021D01*
X31996579Y-58221202D01*
X32016347Y-58219725D01*
X32043326Y-58218555D01*
X32078785Y-58217657D01*
X32123994Y-58216995D01*
X32180224Y-58216535D01*
X32248745Y-58216241D01*
X32330825Y-58216078D01*
X32427736Y-58216010D01*
X32500000Y-58216000D01*
X32607287Y-58216023D01*
G36*
X35691840Y-66151258D02*
G01*
X35759984Y-66179589D01*
X35795285Y-66201490D01*
X35818205Y-66217635D01*
X35664393Y-66400617D01*
X35621013Y-66376696D01*
X35572221Y-66358324D01*
X35518039Y-66351937D01*
X35464709Y-66357810D01*
X35433227Y-66368436D01*
X35397761Y-66391493D01*
X35364648Y-66424997D01*
X35339113Y-66463007D01*
X35329226Y-66486735D01*
X35326363Y-66504013D01*
X35324013Y-66535352D01*
X35322160Y-66581273D01*
X35320791Y-66642298D01*
X35319894Y-66718950D01*
X35319453Y-66811751D01*
X35319399Y-66863566D01*
X35319399Y-67207600D01*
X35099266Y-67207600D01*
X35099266Y-66149267D01*
X35319399Y-66149267D01*
X35319399Y-66256732D01*
X35354790Y-66224060D01*
X35413021Y-66181352D01*
X35478448Y-66152583D01*
X35548465Y-66137889D01*
X35620465Y-66137403D01*
X35691840Y-66151258D01*
G37*
X35691840Y-66151258D02*
X35759984Y-66179589D01*
X35795285Y-66201490D01*
X35818205Y-66217635D01*
X35664393Y-66400617D01*
X35621013Y-66376696D01*
X35572221Y-66358324D01*
X35518039Y-66351937D01*
X35464709Y-66357810D01*
X35433227Y-66368436D01*
X35397761Y-66391493D01*
X35364648Y-66424997D01*
X35339113Y-66463007D01*
X35329226Y-66486735D01*
X35326363Y-66504013D01*
X35324013Y-66535352D01*
X35322160Y-66581273D01*
X35320791Y-66642298D01*
X35319894Y-66718950D01*
X35319453Y-66811751D01*
X35319399Y-66863566D01*
X35319399Y-67207600D01*
X35099266Y-67207600D01*
X35099266Y-66149267D01*
X35319399Y-66149267D01*
X35319399Y-66256732D01*
X35354790Y-66224060D01*
X35413021Y-66181352D01*
X35478448Y-66152583D01*
X35548465Y-66137889D01*
X35620465Y-66137403D01*
X35691840Y-66151258D01*
G36*
X31101099Y-66148756D02*
G01*
X31165259Y-66172657D01*
X31223934Y-66208162D01*
X31275049Y-66254651D01*
X31316529Y-66311505D01*
X31346298Y-66378103D01*
X31352326Y-66398696D01*
X31355563Y-66413584D01*
X31358242Y-66432182D01*
X31360411Y-66456085D01*
X31362119Y-66486891D01*
X31363416Y-66526197D01*
X31364349Y-66575599D01*
X31364969Y-66636694D01*
X31365323Y-66711078D01*
X31365460Y-66800349D01*
X31365466Y-66828379D01*
X31365466Y-67207600D01*
X31153799Y-67207600D01*
X31153799Y-66879245D01*
X31153641Y-66787670D01*
X31153137Y-66711593D01*
X31152244Y-66649586D01*
X31150917Y-66600217D01*
X31149113Y-66562054D01*
X31146787Y-66533667D01*
X31143897Y-66513625D01*
X31142393Y-66506917D01*
X31120178Y-66449996D01*
X31086708Y-66405585D01*
X31042725Y-66374259D01*
X30988974Y-66356592D01*
X30942587Y-66352653D01*
X30886008Y-66358311D01*
X30839543Y-66375788D01*
X30799968Y-66406470D01*
X30788629Y-66418839D01*
X30776218Y-66433646D01*
X30765920Y-66447564D01*
X30757522Y-66462283D01*
X30750809Y-66479494D01*
X30745568Y-66500889D01*
X30741586Y-66528158D01*
X30738650Y-66562992D01*
X30736545Y-66607082D01*
X30735058Y-66662120D01*
X30733977Y-66729797D01*
X30733087Y-66811803D01*
X30732611Y-66862584D01*
X30729433Y-67207600D01*
X30518800Y-67207600D01*
X30518800Y-66149267D01*
X30730466Y-66149267D01*
X30730466Y-66260773D01*
X30770683Y-66225002D01*
X30831130Y-66181586D01*
X30896471Y-66152874D01*
X30964630Y-66138244D01*
X31033531Y-66137078D01*
X31101099Y-66148756D01*
G37*
X31101099Y-66148756D02*
X31165259Y-66172657D01*
X31223934Y-66208162D01*
X31275049Y-66254651D01*
X31316529Y-66311505D01*
X31346298Y-66378103D01*
X31352326Y-66398696D01*
X31355563Y-66413584D01*
X31358242Y-66432182D01*
X31360411Y-66456085D01*
X31362119Y-66486891D01*
X31363416Y-66526197D01*
X31364349Y-66575599D01*
X31364969Y-66636694D01*
X31365323Y-66711078D01*
X31365460Y-66800349D01*
X31365466Y-66828379D01*
X31365466Y-67207600D01*
X31153799Y-67207600D01*
X31153799Y-66879245D01*
X31153641Y-66787670D01*
X31153137Y-66711593D01*
X31152244Y-66649586D01*
X31150917Y-66600217D01*
X31149113Y-66562054D01*
X31146787Y-66533667D01*
X31143897Y-66513625D01*
X31142393Y-66506917D01*
X31120178Y-66449996D01*
X31086708Y-66405585D01*
X31042725Y-66374259D01*
X30988974Y-66356592D01*
X30942587Y-66352653D01*
X30886008Y-66358311D01*
X30839543Y-66375788D01*
X30799968Y-66406470D01*
X30788629Y-66418839D01*
X30776218Y-66433646D01*
X30765920Y-66447564D01*
X30757522Y-66462283D01*
X30750809Y-66479494D01*
X30745568Y-66500889D01*
X30741586Y-66528158D01*
X30738650Y-66562992D01*
X30736545Y-66607082D01*
X30735058Y-66662120D01*
X30733977Y-66729797D01*
X30733087Y-66811803D01*
X30732611Y-66862584D01*
X30729433Y-67207600D01*
X30518800Y-67207600D01*
X30518800Y-66149267D01*
X30730466Y-66149267D01*
X30730466Y-66260773D01*
X30770683Y-66225002D01*
X30831130Y-66181586D01*
X30896471Y-66152874D01*
X30964630Y-66138244D01*
X31033531Y-66137078D01*
X31101099Y-66148756D01*
G36*
X37197127Y-66138421D02*
G01*
X37276253Y-66155485D01*
X37351142Y-66187168D01*
X37419578Y-66233059D01*
X37462058Y-66272987D01*
X37502728Y-66322365D01*
X37533747Y-66373878D01*
X37556046Y-66430430D01*
X37570553Y-66494927D01*
X37578199Y-66570275D01*
X37580000Y-66641688D01*
X37580000Y-66758867D01*
X36918011Y-66758867D01*
X36923978Y-66803317D01*
X36939795Y-66869201D01*
X36967877Y-66923497D01*
X37007999Y-66965966D01*
X37059941Y-66996367D01*
X37119040Y-67013671D01*
X37181135Y-67017189D01*
X37245928Y-67006710D01*
X37308841Y-66983528D01*
X37365298Y-66948939D01*
X37374698Y-66941369D01*
X37392066Y-66927638D01*
X37403541Y-66920181D01*
X37405001Y-66919734D01*
X37413345Y-66924981D01*
X37430998Y-66938877D01*
X37454762Y-66958649D01*
X37481444Y-66981526D01*
X37507846Y-67004735D01*
X37530774Y-67025504D01*
X37547033Y-67041063D01*
X37553367Y-67048427D01*
X37549291Y-67059293D01*
X37533875Y-67076629D01*
X37510133Y-67097925D01*
X37481082Y-67120668D01*
X37449737Y-67142349D01*
X37419113Y-67160455D01*
X37418350Y-67160858D01*
X37336193Y-67194767D01*
X37247133Y-67214530D01*
X37154340Y-67219614D01*
X37095877Y-67215103D01*
X37010302Y-67196330D01*
X36934054Y-67163561D01*
X36867654Y-67117263D01*
X36811626Y-67057904D01*
X36766490Y-66985954D01*
X36732770Y-66901880D01*
X36727888Y-66885262D01*
X36721793Y-66859184D01*
X36717452Y-66829426D01*
X36714615Y-66792712D01*
X36713032Y-66745762D01*
X36712453Y-66685299D01*
X36712448Y-66682667D01*
X36712591Y-66626175D01*
X36713486Y-66582935D01*
X36713595Y-66581067D01*
X36918562Y-66581067D01*
X37368533Y-66581067D01*
X37363594Y-66545083D01*
X37357153Y-66518595D01*
X37345213Y-66484964D01*
X37331744Y-66454423D01*
X37302587Y-66406953D01*
X37267430Y-66373702D01*
X37222920Y-66352167D01*
X37181538Y-66342224D01*
X37119928Y-66339267D01*
X37063585Y-66351416D01*
X37014377Y-66377749D01*
X36974172Y-66417343D01*
X36950491Y-66456356D01*
X36937259Y-66489657D01*
X36927076Y-66524845D01*
X36924034Y-66540850D01*
X36918562Y-66581067D01*
X36713595Y-66581067D01*
X36715460Y-66549272D01*
X36718841Y-66521510D01*
X36723957Y-66495972D01*
X36731136Y-66468984D01*
X36731689Y-66467064D01*
X36763542Y-66380434D01*
X36805233Y-66307302D01*
X36857244Y-66247052D01*
X36920052Y-66199070D01*
X36956510Y-66179070D01*
X37035039Y-66149802D01*
X37115984Y-66136390D01*
X37197127Y-66138421D01*
G37*
X37197127Y-66138421D02*
X37276253Y-66155485D01*
X37351142Y-66187168D01*
X37419578Y-66233059D01*
X37462058Y-66272987D01*
X37502728Y-66322365D01*
X37533747Y-66373878D01*
X37556046Y-66430430D01*
X37570553Y-66494927D01*
X37578199Y-66570275D01*
X37580000Y-66641688D01*
X37580000Y-66758867D01*
X36918011Y-66758867D01*
X36923978Y-66803317D01*
X36939795Y-66869201D01*
X36967877Y-66923497D01*
X37007999Y-66965966D01*
X37059941Y-66996367D01*
X37119040Y-67013671D01*
X37181135Y-67017189D01*
X37245928Y-67006710D01*
X37308841Y-66983528D01*
X37365298Y-66948939D01*
X37374698Y-66941369D01*
X37392066Y-66927638D01*
X37403541Y-66920181D01*
X37405001Y-66919734D01*
X37413345Y-66924981D01*
X37430998Y-66938877D01*
X37454762Y-66958649D01*
X37481444Y-66981526D01*
X37507846Y-67004735D01*
X37530774Y-67025504D01*
X37547033Y-67041063D01*
X37553367Y-67048427D01*
X37549291Y-67059293D01*
X37533875Y-67076629D01*
X37510133Y-67097925D01*
X37481082Y-67120668D01*
X37449737Y-67142349D01*
X37419113Y-67160455D01*
X37418350Y-67160858D01*
X37336193Y-67194767D01*
X37247133Y-67214530D01*
X37154340Y-67219614D01*
X37095877Y-67215103D01*
X37010302Y-67196330D01*
X36934054Y-67163561D01*
X36867654Y-67117263D01*
X36811626Y-67057904D01*
X36766490Y-66985954D01*
X36732770Y-66901880D01*
X36727888Y-66885262D01*
X36721793Y-66859184D01*
X36717452Y-66829426D01*
X36714615Y-66792712D01*
X36713032Y-66745762D01*
X36712453Y-66685299D01*
X36712448Y-66682667D01*
X36712591Y-66626175D01*
X36713486Y-66582935D01*
X36713595Y-66581067D01*
X36918562Y-66581067D01*
X37368533Y-66581067D01*
X37363594Y-66545083D01*
X37357153Y-66518595D01*
X37345213Y-66484964D01*
X37331744Y-66454423D01*
X37302587Y-66406953D01*
X37267430Y-66373702D01*
X37222920Y-66352167D01*
X37181538Y-66342224D01*
X37119928Y-66339267D01*
X37063585Y-66351416D01*
X37014377Y-66377749D01*
X36974172Y-66417343D01*
X36950491Y-66456356D01*
X36937259Y-66489657D01*
X36927076Y-66524845D01*
X36924034Y-66540850D01*
X36918562Y-66581067D01*
X36713595Y-66581067D01*
X36715460Y-66549272D01*
X36718841Y-66521510D01*
X36723957Y-66495972D01*
X36731136Y-66468984D01*
X36731689Y-66467064D01*
X36763542Y-66380434D01*
X36805233Y-66307302D01*
X36857244Y-66247052D01*
X36920052Y-66199070D01*
X36956510Y-66179070D01*
X37035039Y-66149802D01*
X37115984Y-66136390D01*
X37197127Y-66138421D01*
G36*
X36358232Y-66145193D02*
G01*
X36443501Y-66168417D01*
X36521926Y-66206446D01*
X36591959Y-66258647D01*
X36612048Y-66277939D01*
X36652900Y-66319581D01*
X36593633Y-66374377D01*
X36557888Y-66407336D01*
X36532107Y-66429980D01*
X36513677Y-66443336D01*
X36499985Y-66448428D01*
X36488422Y-66446283D01*
X36476374Y-66437928D01*
X36462774Y-66425779D01*
X36416374Y-66390003D01*
X36369082Y-66367662D01*
X36314862Y-66356231D01*
X36291755Y-66354256D01*
X36220780Y-66356665D01*
X36159204Y-66372762D01*
X36107471Y-66402316D01*
X36066025Y-66445099D01*
X36043407Y-66482722D01*
X36024737Y-66534026D01*
X36012388Y-66596080D01*
X36006977Y-66663686D01*
X36009121Y-66731652D01*
X36011401Y-66751864D01*
X36026515Y-66826656D01*
X36050266Y-66887150D01*
X36083338Y-66933997D01*
X36126414Y-66967847D01*
X36180177Y-66989351D01*
X36245311Y-66999159D01*
X36271900Y-66999953D01*
X36327192Y-66997205D01*
X36372176Y-66987217D01*
X36412676Y-66967899D01*
X36454515Y-66937162D01*
X36460152Y-66932393D01*
X36480715Y-66915905D01*
X36496412Y-66905327D01*
X36501845Y-66903168D01*
X36510487Y-66908793D01*
X36528645Y-66923806D01*
X36553608Y-66945881D01*
X36580933Y-66971062D01*
X36652900Y-67038588D01*
X36604342Y-67084509D01*
X36532008Y-67141839D01*
X36453005Y-67183760D01*
X36368389Y-67209932D01*
X36279217Y-67220013D01*
X36198410Y-67215385D01*
X36122086Y-67198324D01*
X36048644Y-67169010D01*
X35982176Y-67129538D01*
X35926775Y-67082002D01*
X35917097Y-67071385D01*
X35883952Y-67025443D01*
X35853085Y-66968221D01*
X35827082Y-66905369D01*
X35808524Y-66842537D01*
X35805162Y-66826509D01*
X35798614Y-66776203D01*
X35795448Y-66716322D01*
X35795526Y-66652085D01*
X35798709Y-66588712D01*
X35804861Y-66531421D01*
X35813842Y-66485434D01*
X35814233Y-66483992D01*
X35846048Y-66397418D01*
X35890263Y-66321938D01*
X35945887Y-66258308D01*
X36011930Y-66207287D01*
X36087402Y-66169629D01*
X36171313Y-66146093D01*
X36262673Y-66137434D01*
X36267666Y-66137405D01*
X36358232Y-66145193D01*
G37*
X36358232Y-66145193D02*
X36443501Y-66168417D01*
X36521926Y-66206446D01*
X36591959Y-66258647D01*
X36612048Y-66277939D01*
X36652900Y-66319581D01*
X36593633Y-66374377D01*
X36557888Y-66407336D01*
X36532107Y-66429980D01*
X36513677Y-66443336D01*
X36499985Y-66448428D01*
X36488422Y-66446283D01*
X36476374Y-66437928D01*
X36462774Y-66425779D01*
X36416374Y-66390003D01*
X36369082Y-66367662D01*
X36314862Y-66356231D01*
X36291755Y-66354256D01*
X36220780Y-66356665D01*
X36159204Y-66372762D01*
X36107471Y-66402316D01*
X36066025Y-66445099D01*
X36043407Y-66482722D01*
X36024737Y-66534026D01*
X36012388Y-66596080D01*
X36006977Y-66663686D01*
X36009121Y-66731652D01*
X36011401Y-66751864D01*
X36026515Y-66826656D01*
X36050266Y-66887150D01*
X36083338Y-66933997D01*
X36126414Y-66967847D01*
X36180177Y-66989351D01*
X36245311Y-66999159D01*
X36271900Y-66999953D01*
X36327192Y-66997205D01*
X36372176Y-66987217D01*
X36412676Y-66967899D01*
X36454515Y-66937162D01*
X36460152Y-66932393D01*
X36480715Y-66915905D01*
X36496412Y-66905327D01*
X36501845Y-66903168D01*
X36510487Y-66908793D01*
X36528645Y-66923806D01*
X36553608Y-66945881D01*
X36580933Y-66971062D01*
X36652900Y-67038588D01*
X36604342Y-67084509D01*
X36532008Y-67141839D01*
X36453005Y-67183760D01*
X36368389Y-67209932D01*
X36279217Y-67220013D01*
X36198410Y-67215385D01*
X36122086Y-67198324D01*
X36048644Y-67169010D01*
X35982176Y-67129538D01*
X35926775Y-67082002D01*
X35917097Y-67071385D01*
X35883952Y-67025443D01*
X35853085Y-66968221D01*
X35827082Y-66905369D01*
X35808524Y-66842537D01*
X35805162Y-66826509D01*
X35798614Y-66776203D01*
X35795448Y-66716322D01*
X35795526Y-66652085D01*
X35798709Y-66588712D01*
X35804861Y-66531421D01*
X35813842Y-66485434D01*
X35814233Y-66483992D01*
X35846048Y-66397418D01*
X35890263Y-66321938D01*
X35945887Y-66258308D01*
X36011930Y-66207287D01*
X36087402Y-66169629D01*
X36171313Y-66146093D01*
X36262673Y-66137434D01*
X36267666Y-66137405D01*
X36358232Y-66145193D01*
G36*
X34237349Y-66498517D02*
G01*
X34238013Y-66584877D01*
X34238684Y-66656001D01*
X34239451Y-66713582D01*
X34240402Y-66759319D01*
X34241626Y-66794906D01*
X34243211Y-66822040D01*
X34245246Y-66842416D01*
X34247820Y-66857730D01*
X34251021Y-66869679D01*
X34254938Y-66879958D01*
X34257593Y-66885867D01*
X34288024Y-66933615D01*
X34327561Y-66969225D01*
X34373549Y-66992711D01*
X34423336Y-67004085D01*
X34474268Y-67003358D01*
X34523691Y-66990544D01*
X34568952Y-66965654D01*
X34607397Y-66928700D01*
X34634440Y-66884118D01*
X34639439Y-66872697D01*
X34643551Y-66861612D01*
X34646877Y-66849131D01*
X34649520Y-66833520D01*
X34651583Y-66813046D01*
X34653167Y-66785978D01*
X34654375Y-66750581D01*
X34655310Y-66705124D01*
X34656074Y-66647873D01*
X34656769Y-66577095D01*
X34657471Y-66494283D01*
X34660326Y-66149267D01*
X34870666Y-66149267D01*
X34870666Y-67207600D01*
X34658999Y-67207600D01*
X34658999Y-67097339D01*
X34610958Y-67136469D01*
X34558144Y-67173938D01*
X34505216Y-67198750D01*
X34445507Y-67213862D01*
X34431348Y-67216099D01*
X34402387Y-67220090D01*
X34380706Y-67222705D01*
X34371133Y-67223376D01*
X34361090Y-67221673D01*
X34339663Y-67218149D01*
X34320333Y-67215002D01*
X34254159Y-67196454D01*
X34190534Y-67164085D01*
X34133508Y-67120651D01*
X34087131Y-67068909D01*
X34072266Y-67046156D01*
X34061447Y-67026957D01*
X34052374Y-67008350D01*
X34044893Y-66988692D01*
X34038853Y-66966345D01*
X34034099Y-66939666D01*
X34030479Y-66907016D01*
X34027840Y-66866754D01*
X34026029Y-66817239D01*
X34024893Y-66756831D01*
X34024279Y-66683888D01*
X34024033Y-66596770D01*
X34023999Y-66528488D01*
X34023999Y-66149267D01*
X34234798Y-66149267D01*
X34237349Y-66498517D01*
G37*
X34237349Y-66498517D02*
X34238013Y-66584877D01*
X34238684Y-66656001D01*
X34239451Y-66713582D01*
X34240402Y-66759319D01*
X34241626Y-66794906D01*
X34243211Y-66822040D01*
X34245246Y-66842416D01*
X34247820Y-66857730D01*
X34251021Y-66869679D01*
X34254938Y-66879958D01*
X34257593Y-66885867D01*
X34288024Y-66933615D01*
X34327561Y-66969225D01*
X34373549Y-66992711D01*
X34423336Y-67004085D01*
X34474268Y-67003358D01*
X34523691Y-66990544D01*
X34568952Y-66965654D01*
X34607397Y-66928700D01*
X34634440Y-66884118D01*
X34639439Y-66872697D01*
X34643551Y-66861612D01*
X34646877Y-66849131D01*
X34649520Y-66833520D01*
X34651583Y-66813046D01*
X34653167Y-66785978D01*
X34654375Y-66750581D01*
X34655310Y-66705124D01*
X34656074Y-66647873D01*
X34656769Y-66577095D01*
X34657471Y-66494283D01*
X34660326Y-66149267D01*
X34870666Y-66149267D01*
X34870666Y-67207600D01*
X34658999Y-67207600D01*
X34658999Y-67097339D01*
X34610958Y-67136469D01*
X34558144Y-67173938D01*
X34505216Y-67198750D01*
X34445507Y-67213862D01*
X34431348Y-67216099D01*
X34402387Y-67220090D01*
X34380706Y-67222705D01*
X34371133Y-67223376D01*
X34361090Y-67221673D01*
X34339663Y-67218149D01*
X34320333Y-67215002D01*
X34254159Y-67196454D01*
X34190534Y-67164085D01*
X34133508Y-67120651D01*
X34087131Y-67068909D01*
X34072266Y-67046156D01*
X34061447Y-67026957D01*
X34052374Y-67008350D01*
X34044893Y-66988692D01*
X34038853Y-66966345D01*
X34034099Y-66939666D01*
X34030479Y-66907016D01*
X34027840Y-66866754D01*
X34026029Y-66817239D01*
X34024893Y-66756831D01*
X34024279Y-66683888D01*
X34024033Y-66596770D01*
X34023999Y-66528488D01*
X34023999Y-66149267D01*
X34234798Y-66149267D01*
X34237349Y-66498517D01*
G36*
X33494620Y-66144409D02*
G01*
X33568687Y-66163007D01*
X33634688Y-66194773D01*
X33694944Y-66240695D01*
X33726941Y-66272852D01*
X33761036Y-66314321D01*
X33787837Y-66357337D01*
X33808067Y-66404490D01*
X33822449Y-66458370D01*
X33831705Y-66521568D01*
X33836560Y-66596676D01*
X33837763Y-66669967D01*
X33836720Y-66753544D01*
X33833054Y-66822914D01*
X33826208Y-66880677D01*
X33815630Y-66929432D01*
X33800764Y-66971778D01*
X33781057Y-67010314D01*
X33757719Y-67045256D01*
X33700711Y-67109210D01*
X33634494Y-67159022D01*
X33559701Y-67194316D01*
X33476960Y-67214719D01*
X33470937Y-67215573D01*
X33438334Y-67219688D01*
X33411806Y-67222493D01*
X33396185Y-67223491D01*
X33394737Y-67223423D01*
X33381223Y-67221777D01*
X33357145Y-67218732D01*
X33338135Y-67216291D01*
X33256976Y-67197888D01*
X33183308Y-67164440D01*
X33116472Y-67115608D01*
X33086584Y-67086563D01*
X33037348Y-67023596D01*
X33002699Y-66953434D01*
X32986860Y-66900846D01*
X32978292Y-66852236D01*
X32972123Y-66791785D01*
X32968537Y-66724439D01*
X32967892Y-66669698D01*
X33185613Y-66669698D01*
X33185827Y-66723993D01*
X33187581Y-66774430D01*
X33190926Y-66816858D01*
X33194876Y-66842688D01*
X33209256Y-66883982D01*
X33232603Y-66923962D01*
X33260867Y-66956308D01*
X33274608Y-66967019D01*
X33325826Y-66991184D01*
X33383585Y-67002832D01*
X33442343Y-67001309D01*
X33482604Y-66991534D01*
X33531753Y-66967620D01*
X33569423Y-66933394D01*
X33597892Y-66888054D01*
X33606311Y-66870425D01*
X33612481Y-66854884D01*
X33616752Y-66838433D01*
X33619473Y-66818076D01*
X33620993Y-66790816D01*
X33621662Y-66753657D01*
X33621828Y-66703600D01*
X33621833Y-66682667D01*
X33621483Y-66619656D01*
X33620070Y-66570655D01*
X33617048Y-66532751D01*
X33611873Y-66503027D01*
X33603998Y-66478569D01*
X33592879Y-66456462D01*
X33577970Y-66433791D01*
X33574326Y-66428712D01*
X33538795Y-66393454D01*
X33492527Y-66368437D01*
X33438905Y-66354561D01*
X33381315Y-66352726D01*
X33326482Y-66362816D01*
X33288632Y-66381407D01*
X33252183Y-66412091D01*
X33221486Y-66450287D01*
X33200892Y-66491414D01*
X33199136Y-66496897D01*
X33193701Y-66525142D01*
X33189601Y-66566123D01*
X33186888Y-66615691D01*
X33185613Y-66669698D01*
X32967892Y-66669698D01*
X32967720Y-66655147D01*
X32969858Y-66588854D01*
X32973499Y-66544190D01*
X32984867Y-66467838D01*
X33001839Y-66404274D01*
X33026148Y-66349799D01*
X33059525Y-66300718D01*
X33103703Y-66253332D01*
X33114472Y-66243289D01*
X33170246Y-66199047D01*
X33228019Y-66167768D01*
X33291344Y-66148184D01*
X33363777Y-66139030D01*
X33410166Y-66137992D01*
X33494620Y-66144409D01*
G37*
X33494620Y-66144409D02*
X33568687Y-66163007D01*
X33634688Y-66194773D01*
X33694944Y-66240695D01*
X33726941Y-66272852D01*
X33761036Y-66314321D01*
X33787837Y-66357337D01*
X33808067Y-66404490D01*
X33822449Y-66458370D01*
X33831705Y-66521568D01*
X33836560Y-66596676D01*
X33837763Y-66669967D01*
X33836720Y-66753544D01*
X33833054Y-66822914D01*
X33826208Y-66880677D01*
X33815630Y-66929432D01*
X33800764Y-66971778D01*
X33781057Y-67010314D01*
X33757719Y-67045256D01*
X33700711Y-67109210D01*
X33634494Y-67159022D01*
X33559701Y-67194316D01*
X33476960Y-67214719D01*
X33470937Y-67215573D01*
X33438334Y-67219688D01*
X33411806Y-67222493D01*
X33396185Y-67223491D01*
X33394737Y-67223423D01*
X33381223Y-67221777D01*
X33357145Y-67218732D01*
X33338135Y-67216291D01*
X33256976Y-67197888D01*
X33183308Y-67164440D01*
X33116472Y-67115608D01*
X33086584Y-67086563D01*
X33037348Y-67023596D01*
X33002699Y-66953434D01*
X32986860Y-66900846D01*
X32978292Y-66852236D01*
X32972123Y-66791785D01*
X32968537Y-66724439D01*
X32967892Y-66669698D01*
X33185613Y-66669698D01*
X33185827Y-66723993D01*
X33187581Y-66774430D01*
X33190926Y-66816858D01*
X33194876Y-66842688D01*
X33209256Y-66883982D01*
X33232603Y-66923962D01*
X33260867Y-66956308D01*
X33274608Y-66967019D01*
X33325826Y-66991184D01*
X33383585Y-67002832D01*
X33442343Y-67001309D01*
X33482604Y-66991534D01*
X33531753Y-66967620D01*
X33569423Y-66933394D01*
X33597892Y-66888054D01*
X33606311Y-66870425D01*
X33612481Y-66854884D01*
X33616752Y-66838433D01*
X33619473Y-66818076D01*
X33620993Y-66790816D01*
X33621662Y-66753657D01*
X33621828Y-66703600D01*
X33621833Y-66682667D01*
X33621483Y-66619656D01*
X33620070Y-66570655D01*
X33617048Y-66532751D01*
X33611873Y-66503027D01*
X33603998Y-66478569D01*
X33592879Y-66456462D01*
X33577970Y-66433791D01*
X33574326Y-66428712D01*
X33538795Y-66393454D01*
X33492527Y-66368437D01*
X33438905Y-66354561D01*
X33381315Y-66352726D01*
X33326482Y-66362816D01*
X33288632Y-66381407D01*
X33252183Y-66412091D01*
X33221486Y-66450287D01*
X33200892Y-66491414D01*
X33199136Y-66496897D01*
X33193701Y-66525142D01*
X33189601Y-66566123D01*
X33186888Y-66615691D01*
X33185613Y-66669698D01*
X32967892Y-66669698D01*
X32967720Y-66655147D01*
X32969858Y-66588854D01*
X32973499Y-66544190D01*
X32984867Y-66467838D01*
X33001839Y-66404274D01*
X33026148Y-66349799D01*
X33059525Y-66300718D01*
X33103703Y-66253332D01*
X33114472Y-66243289D01*
X33170246Y-66199047D01*
X33228019Y-66167768D01*
X33291344Y-66148184D01*
X33363777Y-66139030D01*
X33410166Y-66137992D01*
X33494620Y-66144409D01*
G36*
X32522786Y-66145171D02*
G01*
X32608819Y-66164380D01*
X32689227Y-66193599D01*
X32760557Y-66232367D01*
X32794641Y-66257573D01*
X32822582Y-66280757D01*
X32757280Y-66356829D01*
X32731329Y-66386309D01*
X32709124Y-66410133D01*
X32693046Y-66425842D01*
X32685509Y-66430990D01*
X32675306Y-66425715D01*
X32655740Y-66414098D01*
X32638203Y-66403170D01*
X32583942Y-66374978D01*
X32524302Y-66354606D01*
X32462586Y-66342289D01*
X32402099Y-66338264D01*
X32346144Y-66342767D01*
X32298026Y-66356034D01*
X32263298Y-66376367D01*
X32245494Y-66394144D01*
X32235994Y-66413787D01*
X32231258Y-66442714D01*
X32231166Y-66443660D01*
X32230324Y-66475379D01*
X32235640Y-66500810D01*
X32248738Y-66520856D01*
X32271244Y-66536420D01*
X32304781Y-66548404D01*
X32350974Y-66557712D01*
X32411448Y-66565245D01*
X32457666Y-66569490D01*
X32508349Y-66574283D01*
X32556578Y-66579832D01*
X32598296Y-66585599D01*
X32629446Y-66591048D01*
X32640749Y-66593756D01*
X32700958Y-66619334D01*
X32753889Y-66657823D01*
X32796737Y-66706515D01*
X32826701Y-66762703D01*
X32832187Y-66778701D01*
X32837128Y-66803665D01*
X32840860Y-66839059D01*
X32842760Y-66878392D01*
X32842880Y-66890100D01*
X32842087Y-66930621D01*
X32838949Y-66960437D01*
X32832343Y-66985731D01*
X32821147Y-67012687D01*
X32820286Y-67014531D01*
X32785867Y-67069822D01*
X32738704Y-67118986D01*
X32682882Y-67157799D01*
X32680480Y-67159102D01*
X32622692Y-67183646D01*
X32553869Y-67202508D01*
X32479201Y-67214866D01*
X32403874Y-67219898D01*
X32333076Y-67216780D01*
X32323832Y-67215648D01*
X32284951Y-67209136D01*
X32243656Y-67200239D01*
X32222232Y-67194652D01*
X32177985Y-67178738D01*
X32127287Y-67155517D01*
X32075579Y-67127926D01*
X32028302Y-67098900D01*
X31990899Y-67071376D01*
X31986098Y-67067223D01*
X31945433Y-67030973D01*
X32091915Y-66883439D01*
X32132974Y-66917604D01*
X32196850Y-66962149D01*
X32265746Y-66992815D01*
X32342224Y-67010466D01*
X32424561Y-67015969D01*
X32464896Y-67015508D01*
X32493934Y-67013195D01*
X32517292Y-67008007D01*
X32540586Y-66998920D01*
X32554637Y-66992265D01*
X32584099Y-66976147D01*
X32602760Y-66960322D01*
X32615917Y-66939827D01*
X32620073Y-66930924D01*
X32631575Y-66888714D01*
X32627350Y-66851422D01*
X32607933Y-66820508D01*
X32573859Y-66797428D01*
X32570517Y-66795963D01*
X32553160Y-66791347D01*
X32522419Y-66785884D01*
X32481789Y-66780089D01*
X32434765Y-66774477D01*
X32401757Y-66771108D01*
X32324736Y-66762584D01*
X32262043Y-66752550D01*
X32211086Y-66740054D01*
X32169269Y-66724145D01*
X32133998Y-66703875D01*
X32102679Y-66678291D01*
X32077960Y-66652494D01*
X32046079Y-66608090D01*
X32025587Y-66558713D01*
X32015293Y-66500696D01*
X32013512Y-66454067D01*
X32014673Y-66413697D01*
X32018690Y-66383107D01*
X32026945Y-66355204D01*
X32037867Y-66329316D01*
X32072089Y-66273275D01*
X32119105Y-66224148D01*
X32175061Y-66185741D01*
X32191468Y-66177581D01*
X32265470Y-66152176D01*
X32347659Y-66138611D01*
X32434582Y-66136429D01*
X32522786Y-66145171D01*
G37*
X32522786Y-66145171D02*
X32608819Y-66164380D01*
X32689227Y-66193599D01*
X32760557Y-66232367D01*
X32794641Y-66257573D01*
X32822582Y-66280757D01*
X32757280Y-66356829D01*
X32731329Y-66386309D01*
X32709124Y-66410133D01*
X32693046Y-66425842D01*
X32685509Y-66430990D01*
X32675306Y-66425715D01*
X32655740Y-66414098D01*
X32638203Y-66403170D01*
X32583942Y-66374978D01*
X32524302Y-66354606D01*
X32462586Y-66342289D01*
X32402099Y-66338264D01*
X32346144Y-66342767D01*
X32298026Y-66356034D01*
X32263298Y-66376367D01*
X32245494Y-66394144D01*
X32235994Y-66413787D01*
X32231258Y-66442714D01*
X32231166Y-66443660D01*
X32230324Y-66475379D01*
X32235640Y-66500810D01*
X32248738Y-66520856D01*
X32271244Y-66536420D01*
X32304781Y-66548404D01*
X32350974Y-66557712D01*
X32411448Y-66565245D01*
X32457666Y-66569490D01*
X32508349Y-66574283D01*
X32556578Y-66579832D01*
X32598296Y-66585599D01*
X32629446Y-66591048D01*
X32640749Y-66593756D01*
X32700958Y-66619334D01*
X32753889Y-66657823D01*
X32796737Y-66706515D01*
X32826701Y-66762703D01*
X32832187Y-66778701D01*
X32837128Y-66803665D01*
X32840860Y-66839059D01*
X32842760Y-66878392D01*
X32842880Y-66890100D01*
X32842087Y-66930621D01*
X32838949Y-66960437D01*
X32832343Y-66985731D01*
X32821147Y-67012687D01*
X32820286Y-67014531D01*
X32785867Y-67069822D01*
X32738704Y-67118986D01*
X32682882Y-67157799D01*
X32680480Y-67159102D01*
X32622692Y-67183646D01*
X32553869Y-67202508D01*
X32479201Y-67214866D01*
X32403874Y-67219898D01*
X32333076Y-67216780D01*
X32323832Y-67215648D01*
X32284951Y-67209136D01*
X32243656Y-67200239D01*
X32222232Y-67194652D01*
X32177985Y-67178738D01*
X32127287Y-67155517D01*
X32075579Y-67127926D01*
X32028302Y-67098900D01*
X31990899Y-67071376D01*
X31986098Y-67067223D01*
X31945433Y-67030973D01*
X32091915Y-66883439D01*
X32132974Y-66917604D01*
X32196850Y-66962149D01*
X32265746Y-66992815D01*
X32342224Y-67010466D01*
X32424561Y-67015969D01*
X32464896Y-67015508D01*
X32493934Y-67013195D01*
X32517292Y-67008007D01*
X32540586Y-66998920D01*
X32554637Y-66992265D01*
X32584099Y-66976147D01*
X32602760Y-66960322D01*
X32615917Y-66939827D01*
X32620073Y-66930924D01*
X32631575Y-66888714D01*
X32627350Y-66851422D01*
X32607933Y-66820508D01*
X32573859Y-66797428D01*
X32570517Y-66795963D01*
X32553160Y-66791347D01*
X32522419Y-66785884D01*
X32481789Y-66780089D01*
X32434765Y-66774477D01*
X32401757Y-66771108D01*
X32324736Y-66762584D01*
X32262043Y-66752550D01*
X32211086Y-66740054D01*
X32169269Y-66724145D01*
X32133998Y-66703875D01*
X32102679Y-66678291D01*
X32077960Y-66652494D01*
X32046079Y-66608090D01*
X32025587Y-66558713D01*
X32015293Y-66500696D01*
X32013512Y-66454067D01*
X32014673Y-66413697D01*
X32018690Y-66383107D01*
X32026945Y-66355204D01*
X32037867Y-66329316D01*
X32072089Y-66273275D01*
X32119105Y-66224148D01*
X32175061Y-66185741D01*
X32191468Y-66177581D01*
X32265470Y-66152176D01*
X32347659Y-66138611D01*
X32434582Y-66136429D01*
X32522786Y-66145171D01*
G36*
X29940330Y-66136237D02*
G01*
X29987905Y-66144818D01*
X29988891Y-66145026D01*
X30073061Y-66170718D01*
X30147376Y-66209846D01*
X30211191Y-66261979D01*
X30263857Y-66326681D01*
X30266432Y-66330619D01*
X30290488Y-66371512D01*
X30308608Y-66412049D01*
X30321674Y-66455821D01*
X30330567Y-66506418D01*
X30336168Y-66567428D01*
X30338850Y-66625517D01*
X30343232Y-66758867D01*
X29680600Y-66758867D01*
X29680600Y-66787528D01*
X29686984Y-66833259D01*
X29704240Y-66881720D01*
X29729519Y-66925716D01*
X29740971Y-66940145D01*
X29784945Y-66977866D01*
X29837616Y-67002957D01*
X29896335Y-67015364D01*
X29958455Y-67015030D01*
X30021330Y-67001899D01*
X30082313Y-66975916D01*
X30124828Y-66948256D01*
X30147790Y-66931646D01*
X30162206Y-66924616D01*
X30172368Y-66925701D01*
X30178570Y-66929937D01*
X30190992Y-66940488D01*
X30212552Y-66959040D01*
X30239622Y-66982465D01*
X30255307Y-66996087D01*
X30317782Y-67050412D01*
X30271964Y-67093023D01*
X30203872Y-67145008D01*
X30126469Y-67183855D01*
X30041846Y-67208945D01*
X29952091Y-67219662D01*
X29859296Y-67215386D01*
X29858393Y-67215270D01*
X29770923Y-67196904D01*
X29694456Y-67165844D01*
X29628923Y-67122008D01*
X29574258Y-67065314D01*
X29530391Y-66995678D01*
X29497256Y-66913019D01*
X29474784Y-66817255D01*
X29464963Y-66737700D01*
X29463484Y-66674890D01*
X29467931Y-66604339D01*
X29474306Y-66556639D01*
X29680600Y-66556639D01*
X29680600Y-66581067D01*
X30120866Y-66581067D01*
X30120866Y-66557204D01*
X30114765Y-66513889D01*
X30098413Y-66467493D01*
X30074735Y-66425573D01*
X30065114Y-66413188D01*
X30027993Y-66376968D01*
X29988266Y-66354189D01*
X29941404Y-66342853D01*
X29900733Y-66340656D01*
X29845538Y-66345088D01*
X29800818Y-66359636D01*
X29762253Y-66386177D01*
X29737818Y-66411476D01*
X29713907Y-66447081D01*
X29694636Y-66489994D01*
X29682870Y-66532947D01*
X29680600Y-66556639D01*
X29474306Y-66556639D01*
X29477492Y-66532804D01*
X29491355Y-66467042D01*
X29501619Y-66432526D01*
X29537456Y-66349701D01*
X29583580Y-66280313D01*
X29640080Y-66224278D01*
X29707047Y-66181514D01*
X29784572Y-66151936D01*
X29814685Y-66144584D01*
X29861492Y-66136140D01*
X29900783Y-66133350D01*
X29940330Y-66136237D01*
G37*
X29940330Y-66136237D02*
X29987905Y-66144818D01*
X29988891Y-66145026D01*
X30073061Y-66170718D01*
X30147376Y-66209846D01*
X30211191Y-66261979D01*
X30263857Y-66326681D01*
X30266432Y-66330619D01*
X30290488Y-66371512D01*
X30308608Y-66412049D01*
X30321674Y-66455821D01*
X30330567Y-66506418D01*
X30336168Y-66567428D01*
X30338850Y-66625517D01*
X30343232Y-66758867D01*
X29680600Y-66758867D01*
X29680600Y-66787528D01*
X29686984Y-66833259D01*
X29704240Y-66881720D01*
X29729519Y-66925716D01*
X29740971Y-66940145D01*
X29784945Y-66977866D01*
X29837616Y-67002957D01*
X29896335Y-67015364D01*
X29958455Y-67015030D01*
X30021330Y-67001899D01*
X30082313Y-66975916D01*
X30124828Y-66948256D01*
X30147790Y-66931646D01*
X30162206Y-66924616D01*
X30172368Y-66925701D01*
X30178570Y-66929937D01*
X30190992Y-66940488D01*
X30212552Y-66959040D01*
X30239622Y-66982465D01*
X30255307Y-66996087D01*
X30317782Y-67050412D01*
X30271964Y-67093023D01*
X30203872Y-67145008D01*
X30126469Y-67183855D01*
X30041846Y-67208945D01*
X29952091Y-67219662D01*
X29859296Y-67215386D01*
X29858393Y-67215270D01*
X29770923Y-67196904D01*
X29694456Y-67165844D01*
X29628923Y-67122008D01*
X29574258Y-67065314D01*
X29530391Y-66995678D01*
X29497256Y-66913019D01*
X29474784Y-66817255D01*
X29464963Y-66737700D01*
X29463484Y-66674890D01*
X29467931Y-66604339D01*
X29474306Y-66556639D01*
X29680600Y-66556639D01*
X29680600Y-66581067D01*
X30120866Y-66581067D01*
X30120866Y-66557204D01*
X30114765Y-66513889D01*
X30098413Y-66467493D01*
X30074735Y-66425573D01*
X30065114Y-66413188D01*
X30027993Y-66376968D01*
X29988266Y-66354189D01*
X29941404Y-66342853D01*
X29900733Y-66340656D01*
X29845538Y-66345088D01*
X29800818Y-66359636D01*
X29762253Y-66386177D01*
X29737818Y-66411476D01*
X29713907Y-66447081D01*
X29694636Y-66489994D01*
X29682870Y-66532947D01*
X29680600Y-66556639D01*
X29474306Y-66556639D01*
X29477492Y-66532804D01*
X29491355Y-66467042D01*
X29501619Y-66432526D01*
X29537456Y-66349701D01*
X29583580Y-66280313D01*
X29640080Y-66224278D01*
X29707047Y-66181514D01*
X29784572Y-66151936D01*
X29814685Y-66144584D01*
X29861492Y-66136140D01*
X29900783Y-66133350D01*
X29940330Y-66136237D01*
G36*
X27924884Y-66139796D02*
G01*
X28008265Y-66160011D01*
X28083301Y-66194514D01*
X28148926Y-66242645D01*
X28204072Y-66303742D01*
X28215181Y-66319588D01*
X28238899Y-66358227D01*
X28256987Y-66396095D01*
X28270253Y-66436537D01*
X28279508Y-66482899D01*
X28285562Y-66538526D01*
X28289224Y-66606763D01*
X28289923Y-66628266D01*
X28291036Y-66720515D01*
X28288216Y-66798588D01*
X28280956Y-66864893D01*
X28268749Y-66921838D01*
X28251089Y-66971831D01*
X28227470Y-67017279D01*
X28199559Y-67057775D01*
X28144934Y-67115412D01*
X28079579Y-67161494D01*
X28005952Y-67195086D01*
X27926511Y-67215254D01*
X27843713Y-67221064D01*
X27783648Y-67215870D01*
X27701692Y-67195298D01*
X27627746Y-67159919D01*
X27561285Y-67109440D01*
X27522588Y-67069247D01*
X27493956Y-67033463D01*
X27471302Y-66998326D01*
X27453976Y-66961245D01*
X27441326Y-66919627D01*
X27432702Y-66870882D01*
X27427452Y-66812418D01*
X27424927Y-66741644D01*
X27424429Y-66678434D01*
X27424459Y-66671274D01*
X27633003Y-66671274D01*
X27634180Y-66735900D01*
X27639618Y-66796650D01*
X27649368Y-66849461D01*
X27663481Y-66890267D01*
X27664458Y-66892226D01*
X27689648Y-66928476D01*
X27724511Y-66961859D01*
X27762808Y-66986787D01*
X27776760Y-66992808D01*
X27814499Y-67001064D01*
X27859929Y-67003281D01*
X27904934Y-66999491D01*
X27935086Y-66992187D01*
X27978627Y-66971837D01*
X28012321Y-66943416D01*
X28040249Y-66903132D01*
X28049048Y-66886279D01*
X28076166Y-66831197D01*
X28076161Y-66682849D01*
X28075593Y-66617992D01*
X28073815Y-66568231D01*
X28070710Y-66531764D01*
X28066160Y-66506786D01*
X28064278Y-66500633D01*
X28037742Y-66443962D01*
X28002497Y-66401621D01*
X27957682Y-66372936D01*
X27902437Y-66357232D01*
X27877764Y-66354472D01*
X27812858Y-66356471D01*
X27757383Y-66372326D01*
X27711616Y-66401901D01*
X27675838Y-66445062D01*
X27669895Y-66455331D01*
X27654533Y-66494802D01*
X27643230Y-66546660D01*
X27636037Y-66606839D01*
X27633003Y-66671274D01*
X27424459Y-66671274D01*
X27424707Y-66613598D01*
X27425663Y-66562862D01*
X27427477Y-66523396D01*
X27430331Y-66492374D01*
X27434405Y-66466967D01*
X27439286Y-66446491D01*
X27469005Y-66368323D01*
X27511760Y-66299667D01*
X27565939Y-66241540D01*
X27629930Y-66194963D01*
X27702120Y-66160952D01*
X27780895Y-66140527D01*
X27864644Y-66134706D01*
X27924884Y-66139796D01*
G37*
X27924884Y-66139796D02*
X28008265Y-66160011D01*
X28083301Y-66194514D01*
X28148926Y-66242645D01*
X28204072Y-66303742D01*
X28215181Y-66319588D01*
X28238899Y-66358227D01*
X28256987Y-66396095D01*
X28270253Y-66436537D01*
X28279508Y-66482899D01*
X28285562Y-66538526D01*
X28289224Y-66606763D01*
X28289923Y-66628266D01*
X28291036Y-66720515D01*
X28288216Y-66798588D01*
X28280956Y-66864893D01*
X28268749Y-66921838D01*
X28251089Y-66971831D01*
X28227470Y-67017279D01*
X28199559Y-67057775D01*
X28144934Y-67115412D01*
X28079579Y-67161494D01*
X28005952Y-67195086D01*
X27926511Y-67215254D01*
X27843713Y-67221064D01*
X27783648Y-67215870D01*
X27701692Y-67195298D01*
X27627746Y-67159919D01*
X27561285Y-67109440D01*
X27522588Y-67069247D01*
X27493956Y-67033463D01*
X27471302Y-66998326D01*
X27453976Y-66961245D01*
X27441326Y-66919627D01*
X27432702Y-66870882D01*
X27427452Y-66812418D01*
X27424927Y-66741644D01*
X27424429Y-66678434D01*
X27424459Y-66671274D01*
X27633003Y-66671274D01*
X27634180Y-66735900D01*
X27639618Y-66796650D01*
X27649368Y-66849461D01*
X27663481Y-66890267D01*
X27664458Y-66892226D01*
X27689648Y-66928476D01*
X27724511Y-66961859D01*
X27762808Y-66986787D01*
X27776760Y-66992808D01*
X27814499Y-67001064D01*
X27859929Y-67003281D01*
X27904934Y-66999491D01*
X27935086Y-66992187D01*
X27978627Y-66971837D01*
X28012321Y-66943416D01*
X28040249Y-66903132D01*
X28049048Y-66886279D01*
X28076166Y-66831197D01*
X28076161Y-66682849D01*
X28075593Y-66617992D01*
X28073815Y-66568231D01*
X28070710Y-66531764D01*
X28066160Y-66506786D01*
X28064278Y-66500633D01*
X28037742Y-66443962D01*
X28002497Y-66401621D01*
X27957682Y-66372936D01*
X27902437Y-66357232D01*
X27877764Y-66354472D01*
X27812858Y-66356471D01*
X27757383Y-66372326D01*
X27711616Y-66401901D01*
X27675838Y-66445062D01*
X27669895Y-66455331D01*
X27654533Y-66494802D01*
X27643230Y-66546660D01*
X27636037Y-66606839D01*
X27633003Y-66671274D01*
X27424459Y-66671274D01*
X27424707Y-66613598D01*
X27425663Y-66562862D01*
X27427477Y-66523396D01*
X27430331Y-66492374D01*
X27434405Y-66466967D01*
X27439286Y-66446491D01*
X27469005Y-66368323D01*
X27511760Y-66299667D01*
X27565939Y-66241540D01*
X27629930Y-66194963D01*
X27702120Y-66160952D01*
X27780895Y-66140527D01*
X27864644Y-66134706D01*
X27924884Y-66139796D01*
G36*
X35399851Y-67817462D02*
G01*
X35430691Y-67825444D01*
X35462977Y-67837344D01*
X35494722Y-67852163D01*
X35522053Y-67867707D01*
X35541100Y-67881779D01*
X35547999Y-67891949D01*
X35542894Y-67900289D01*
X35529232Y-67918433D01*
X35509500Y-67943345D01*
X35486181Y-67971990D01*
X35461760Y-68001332D01*
X35438721Y-68028334D01*
X35419548Y-68049962D01*
X35412678Y-68057304D01*
X35402871Y-68066134D01*
X35393341Y-68067889D01*
X35378731Y-68062013D01*
X35360577Y-68051900D01*
X35309886Y-68030035D01*
X35258615Y-68023515D01*
X35213637Y-68028852D01*
X35161867Y-68047078D01*
X35117485Y-68077411D01*
X35084387Y-68117067D01*
X35080446Y-68124003D01*
X35075755Y-68133164D01*
X35071872Y-68142550D01*
X35068698Y-68153814D01*
X35066135Y-68168611D01*
X35064084Y-68188593D01*
X35062448Y-68215413D01*
X35061129Y-68250725D01*
X35060027Y-68296182D01*
X35059046Y-68353438D01*
X35058086Y-68424145D01*
X35057050Y-68509958D01*
X35056933Y-68519934D01*
X35052699Y-68879767D01*
X34944686Y-68882137D01*
X34836672Y-68884507D01*
X34838852Y-68352970D01*
X34841033Y-67821434D01*
X35052699Y-67821434D01*
X35056933Y-67875121D01*
X35061166Y-67928808D01*
X35081844Y-67906708D01*
X35131953Y-67865031D01*
X35192130Y-67834494D01*
X35259053Y-67815871D01*
X35329400Y-67809936D01*
X35399851Y-67817462D01*
G37*
X35399851Y-67817462D02*
X35430691Y-67825444D01*
X35462977Y-67837344D01*
X35494722Y-67852163D01*
X35522053Y-67867707D01*
X35541100Y-67881779D01*
X35547999Y-67891949D01*
X35542894Y-67900289D01*
X35529232Y-67918433D01*
X35509500Y-67943345D01*
X35486181Y-67971990D01*
X35461760Y-68001332D01*
X35438721Y-68028334D01*
X35419548Y-68049962D01*
X35412678Y-68057304D01*
X35402871Y-68066134D01*
X35393341Y-68067889D01*
X35378731Y-68062013D01*
X35360577Y-68051900D01*
X35309886Y-68030035D01*
X35258615Y-68023515D01*
X35213637Y-68028852D01*
X35161867Y-68047078D01*
X35117485Y-68077411D01*
X35084387Y-68117067D01*
X35080446Y-68124003D01*
X35075755Y-68133164D01*
X35071872Y-68142550D01*
X35068698Y-68153814D01*
X35066135Y-68168611D01*
X35064084Y-68188593D01*
X35062448Y-68215413D01*
X35061129Y-68250725D01*
X35060027Y-68296182D01*
X35059046Y-68353438D01*
X35058086Y-68424145D01*
X35057050Y-68509958D01*
X35056933Y-68519934D01*
X35052699Y-68879767D01*
X34944686Y-68882137D01*
X34836672Y-68884507D01*
X34838852Y-68352970D01*
X34841033Y-67821434D01*
X35052699Y-67821434D01*
X35056933Y-67875121D01*
X35061166Y-67928808D01*
X35081844Y-67906708D01*
X35131953Y-67865031D01*
X35192130Y-67834494D01*
X35259053Y-67815871D01*
X35329400Y-67809936D01*
X35399851Y-67817462D01*
G36*
X33070551Y-67844717D02*
G01*
X33075428Y-67858541D01*
X33084858Y-67886651D01*
X33098238Y-67927200D01*
X33114966Y-67978343D01*
X33134438Y-68038236D01*
X33156053Y-68105034D01*
X33179208Y-68176891D01*
X33190769Y-68212876D01*
X33214109Y-68285263D01*
X33235964Y-68352407D01*
X33255779Y-68412644D01*
X33272995Y-68464311D01*
X33287058Y-68505744D01*
X33297409Y-68535280D01*
X33303492Y-68551256D01*
X33304816Y-68553659D01*
X33307951Y-68545790D01*
X33315003Y-68523231D01*
X33325498Y-68487646D01*
X33338960Y-68440699D01*
X33354917Y-68384055D01*
X33372894Y-68319378D01*
X33392417Y-68248332D01*
X33405496Y-68200317D01*
X33425915Y-68125398D01*
X33445197Y-68055215D01*
X33462847Y-67991525D01*
X33478372Y-67936088D01*
X33491277Y-67890662D01*
X33501068Y-67857007D01*
X33507249Y-67836881D01*
X33509027Y-67832017D01*
X33514027Y-67825884D01*
X33523535Y-67821696D01*
X33540385Y-67819095D01*
X33567407Y-67817725D01*
X33607435Y-67817232D01*
X33626935Y-67817200D01*
X33737274Y-67817200D01*
X33731445Y-67836250D01*
X33727045Y-67850281D01*
X33718080Y-67878585D01*
X33705141Y-67919307D01*
X33688820Y-67970592D01*
X33669710Y-68030584D01*
X33648403Y-68097429D01*
X33625491Y-68169269D01*
X33601565Y-68244251D01*
X33577218Y-68320518D01*
X33553041Y-68396216D01*
X33529628Y-68469489D01*
X33507569Y-68538482D01*
X33487457Y-68601338D01*
X33469884Y-68656204D01*
X33455795Y-68700123D01*
X33396566Y-68884546D01*
X33302181Y-68882157D01*
X33207796Y-68879767D01*
X33097625Y-68509746D01*
X33075039Y-68434072D01*
X33053925Y-68363688D01*
X33034772Y-68300192D01*
X33018066Y-68245181D01*
X33004294Y-68200255D01*
X32993944Y-68167011D01*
X32987501Y-68147048D01*
X32985463Y-68141715D01*
X32982673Y-68149994D01*
X32975597Y-68172701D01*
X32964783Y-68208034D01*
X32950776Y-68254191D01*
X32934124Y-68309370D01*
X32915373Y-68371771D01*
X32895069Y-68439591D01*
X32893751Y-68444003D01*
X32872332Y-68515672D01*
X32851564Y-68585136D01*
X32832158Y-68650013D01*
X32814828Y-68707919D01*
X32800286Y-68756471D01*
X32789247Y-68793287D01*
X32782975Y-68814150D01*
X32761922Y-68884000D01*
X32669560Y-68884000D01*
X32631833Y-68883453D01*
X32600837Y-68881970D01*
X32580187Y-68879791D01*
X32573511Y-68877650D01*
X32570221Y-68868443D01*
X32562364Y-68844784D01*
X32550465Y-68808321D01*
X32535049Y-68760698D01*
X32516640Y-68703563D01*
X32495763Y-68638560D01*
X32472941Y-68567337D01*
X32448701Y-68491538D01*
X32423565Y-68412810D01*
X32398059Y-68332799D01*
X32372707Y-68253151D01*
X32348033Y-68175512D01*
X32324562Y-68101528D01*
X32302819Y-68032844D01*
X32283328Y-67971107D01*
X32266613Y-67917963D01*
X32253199Y-67875057D01*
X32243610Y-67844037D01*
X32238372Y-67826547D01*
X32237533Y-67823256D01*
X32245476Y-67821010D01*
X32267231Y-67819455D01*
X32299688Y-67818709D01*
X32339734Y-67818887D01*
X32349716Y-67819071D01*
X32461900Y-67821434D01*
X32560805Y-68181267D01*
X32581532Y-68256711D01*
X32600919Y-68327355D01*
X32618497Y-68391474D01*
X32633791Y-68447344D01*
X32646332Y-68493239D01*
X32655646Y-68527436D01*
X32661263Y-68548210D01*
X32662732Y-68553800D01*
X32666016Y-68549628D01*
X32673695Y-68531289D01*
X32685053Y-68500762D01*
X32699374Y-68460026D01*
X32715944Y-68411056D01*
X32731630Y-68363300D01*
X32754021Y-68294299D01*
X32778692Y-68218380D01*
X32803886Y-68140948D01*
X32827841Y-68067409D01*
X32848800Y-68003169D01*
X32853544Y-67988650D01*
X32909581Y-67817200D01*
X33059664Y-67817200D01*
X33070551Y-67844717D01*
G37*
X33070551Y-67844717D02*
X33075428Y-67858541D01*
X33084858Y-67886651D01*
X33098238Y-67927200D01*
X33114966Y-67978343D01*
X33134438Y-68038236D01*
X33156053Y-68105034D01*
X33179208Y-68176891D01*
X33190769Y-68212876D01*
X33214109Y-68285263D01*
X33235964Y-68352407D01*
X33255779Y-68412644D01*
X33272995Y-68464311D01*
X33287058Y-68505744D01*
X33297409Y-68535280D01*
X33303492Y-68551256D01*
X33304816Y-68553659D01*
X33307951Y-68545790D01*
X33315003Y-68523231D01*
X33325498Y-68487646D01*
X33338960Y-68440699D01*
X33354917Y-68384055D01*
X33372894Y-68319378D01*
X33392417Y-68248332D01*
X33405496Y-68200317D01*
X33425915Y-68125398D01*
X33445197Y-68055215D01*
X33462847Y-67991525D01*
X33478372Y-67936088D01*
X33491277Y-67890662D01*
X33501068Y-67857007D01*
X33507249Y-67836881D01*
X33509027Y-67832017D01*
X33514027Y-67825884D01*
X33523535Y-67821696D01*
X33540385Y-67819095D01*
X33567407Y-67817725D01*
X33607435Y-67817232D01*
X33626935Y-67817200D01*
X33737274Y-67817200D01*
X33731445Y-67836250D01*
X33727045Y-67850281D01*
X33718080Y-67878585D01*
X33705141Y-67919307D01*
X33688820Y-67970592D01*
X33669710Y-68030584D01*
X33648403Y-68097429D01*
X33625491Y-68169269D01*
X33601565Y-68244251D01*
X33577218Y-68320518D01*
X33553041Y-68396216D01*
X33529628Y-68469489D01*
X33507569Y-68538482D01*
X33487457Y-68601338D01*
X33469884Y-68656204D01*
X33455795Y-68700123D01*
X33396566Y-68884546D01*
X33302181Y-68882157D01*
X33207796Y-68879767D01*
X33097625Y-68509746D01*
X33075039Y-68434072D01*
X33053925Y-68363688D01*
X33034772Y-68300192D01*
X33018066Y-68245181D01*
X33004294Y-68200255D01*
X32993944Y-68167011D01*
X32987501Y-68147048D01*
X32985463Y-68141715D01*
X32982673Y-68149994D01*
X32975597Y-68172701D01*
X32964783Y-68208034D01*
X32950776Y-68254191D01*
X32934124Y-68309370D01*
X32915373Y-68371771D01*
X32895069Y-68439591D01*
X32893751Y-68444003D01*
X32872332Y-68515672D01*
X32851564Y-68585136D01*
X32832158Y-68650013D01*
X32814828Y-68707919D01*
X32800286Y-68756471D01*
X32789247Y-68793287D01*
X32782975Y-68814150D01*
X32761922Y-68884000D01*
X32669560Y-68884000D01*
X32631833Y-68883453D01*
X32600837Y-68881970D01*
X32580187Y-68879791D01*
X32573511Y-68877650D01*
X32570221Y-68868443D01*
X32562364Y-68844784D01*
X32550465Y-68808321D01*
X32535049Y-68760698D01*
X32516640Y-68703563D01*
X32495763Y-68638560D01*
X32472941Y-68567337D01*
X32448701Y-68491538D01*
X32423565Y-68412810D01*
X32398059Y-68332799D01*
X32372707Y-68253151D01*
X32348033Y-68175512D01*
X32324562Y-68101528D01*
X32302819Y-68032844D01*
X32283328Y-67971107D01*
X32266613Y-67917963D01*
X32253199Y-67875057D01*
X32243610Y-67844037D01*
X32238372Y-67826547D01*
X32237533Y-67823256D01*
X32245476Y-67821010D01*
X32267231Y-67819455D01*
X32299688Y-67818709D01*
X32339734Y-67818887D01*
X32349716Y-67819071D01*
X32461900Y-67821434D01*
X32560805Y-68181267D01*
X32581532Y-68256711D01*
X32600919Y-68327355D01*
X32618497Y-68391474D01*
X32633791Y-68447344D01*
X32646332Y-68493239D01*
X32655646Y-68527436D01*
X32661263Y-68548210D01*
X32662732Y-68553800D01*
X32666016Y-68549628D01*
X32673695Y-68531289D01*
X32685053Y-68500762D01*
X32699374Y-68460026D01*
X32715944Y-68411056D01*
X32731630Y-68363300D01*
X32754021Y-68294299D01*
X32778692Y-68218380D01*
X32803886Y-68140948D01*
X32827841Y-68067409D01*
X32848800Y-68003169D01*
X32853544Y-67988650D01*
X32909581Y-67817200D01*
X33059664Y-67817200D01*
X33070551Y-67844717D01*
G36*
X31135191Y-67820266D02*
G01*
X31199247Y-67842830D01*
X31251256Y-67875025D01*
X31271625Y-67891047D01*
X31200262Y-67976236D01*
X31173051Y-68008393D01*
X31149379Y-68035760D01*
X31131535Y-68055734D01*
X31121805Y-68065716D01*
X31121114Y-68066237D01*
X31109999Y-68065078D01*
X31089602Y-68057006D01*
X31072473Y-68048215D01*
X31025329Y-68030284D01*
X30973798Y-68024716D01*
X30922033Y-68030797D01*
X30874189Y-68047813D01*
X30834420Y-68075050D01*
X30819302Y-68091698D01*
X30808324Y-68106603D01*
X30799224Y-68121040D01*
X30791826Y-68136699D01*
X30785955Y-68155268D01*
X30781434Y-68178437D01*
X30778086Y-68207894D01*
X30775737Y-68245327D01*
X30774211Y-68292426D01*
X30773330Y-68350880D01*
X30772920Y-68422377D01*
X30772803Y-68508606D01*
X30772799Y-68537931D01*
X30772799Y-68884000D01*
X30666700Y-68884000D01*
X30618221Y-68883451D01*
X30584900Y-68881693D01*
X30564996Y-68878557D01*
X30556767Y-68873877D01*
X30556555Y-68873417D01*
X30555872Y-68863277D01*
X30555295Y-68837689D01*
X30554830Y-68798137D01*
X30554481Y-68746107D01*
X30554254Y-68683083D01*
X30554155Y-68610550D01*
X30554187Y-68529993D01*
X30554356Y-68442897D01*
X30554668Y-68350746D01*
X30554704Y-68342134D01*
X30556900Y-67821434D01*
X30768566Y-67821434D01*
X30771103Y-67874956D01*
X30773639Y-67928479D01*
X30806782Y-67898536D01*
X30863311Y-67857944D01*
X30927487Y-67829659D01*
X30996240Y-67813842D01*
X31066498Y-67810657D01*
X31135191Y-67820266D01*
G37*
X31135191Y-67820266D02*
X31199247Y-67842830D01*
X31251256Y-67875025D01*
X31271625Y-67891047D01*
X31200262Y-67976236D01*
X31173051Y-68008393D01*
X31149379Y-68035760D01*
X31131535Y-68055734D01*
X31121805Y-68065716D01*
X31121114Y-68066237D01*
X31109999Y-68065078D01*
X31089602Y-68057006D01*
X31072473Y-68048215D01*
X31025329Y-68030284D01*
X30973798Y-68024716D01*
X30922033Y-68030797D01*
X30874189Y-68047813D01*
X30834420Y-68075050D01*
X30819302Y-68091698D01*
X30808324Y-68106603D01*
X30799224Y-68121040D01*
X30791826Y-68136699D01*
X30785955Y-68155268D01*
X30781434Y-68178437D01*
X30778086Y-68207894D01*
X30775737Y-68245327D01*
X30774211Y-68292426D01*
X30773330Y-68350880D01*
X30772920Y-68422377D01*
X30772803Y-68508606D01*
X30772799Y-68537931D01*
X30772799Y-68884000D01*
X30666700Y-68884000D01*
X30618221Y-68883451D01*
X30584900Y-68881693D01*
X30564996Y-68878557D01*
X30556767Y-68873877D01*
X30556555Y-68873417D01*
X30555872Y-68863277D01*
X30555295Y-68837689D01*
X30554830Y-68798137D01*
X30554481Y-68746107D01*
X30554254Y-68683083D01*
X30554155Y-68610550D01*
X30554187Y-68529993D01*
X30554356Y-68442897D01*
X30554668Y-68350746D01*
X30554704Y-68342134D01*
X30556900Y-67821434D01*
X30768566Y-67821434D01*
X30771103Y-67874956D01*
X30773639Y-67928479D01*
X30806782Y-67898536D01*
X30863311Y-67857944D01*
X30927487Y-67829659D01*
X30996240Y-67813842D01*
X31066498Y-67810657D01*
X31135191Y-67820266D01*
G36*
X29064217Y-66150212D02*
G01*
X29127247Y-66175382D01*
X29184313Y-66212210D01*
X29233499Y-66260045D01*
X29272893Y-66318235D01*
X29300581Y-66386129D01*
X29308813Y-66420200D01*
X29312604Y-66449892D01*
X29315572Y-66493186D01*
X29317717Y-66546767D01*
X29319038Y-66607325D01*
X29319537Y-66671546D01*
X29319213Y-66736118D01*
X29318066Y-66797730D01*
X29316095Y-66853067D01*
X29313302Y-66898819D01*
X29309686Y-66931672D01*
X29308813Y-66936667D01*
X29286527Y-67009872D01*
X29250382Y-67074519D01*
X29201890Y-67129151D01*
X29142562Y-67172312D01*
X29073912Y-67202546D01*
X29019156Y-67215557D01*
X28944885Y-67219029D01*
X28871408Y-67206178D01*
X28800702Y-67177573D01*
X28734744Y-67133783D01*
X28734552Y-67133627D01*
X28690000Y-67097339D01*
X28690000Y-67929237D01*
X28723562Y-67898915D01*
X28783629Y-67855468D01*
X28850023Y-67826393D01*
X28920287Y-67811588D01*
X28991963Y-67810949D01*
X29062593Y-67824374D01*
X29129718Y-67851758D01*
X29190881Y-67893000D01*
X29219350Y-67919716D01*
X29263570Y-67975042D01*
X29294164Y-68035337D01*
X29312869Y-68104403D01*
X29317239Y-68133877D01*
X29319017Y-68157709D01*
X29320543Y-68196165D01*
X29321783Y-68246934D01*
X29322703Y-68307709D01*
X29323271Y-68376181D01*
X29323452Y-68450041D01*
X29323214Y-68526979D01*
X29323123Y-68541100D01*
X29320766Y-68879767D01*
X29105560Y-68884501D01*
X29103096Y-68526534D01*
X29102470Y-68439204D01*
X29101849Y-68367158D01*
X29101145Y-68308743D01*
X29100270Y-68262310D01*
X29099138Y-68226208D01*
X29097661Y-68198786D01*
X29095752Y-68178395D01*
X29093323Y-68163383D01*
X29090287Y-68152101D01*
X29086557Y-68142897D01*
X29082358Y-68134700D01*
X29048063Y-68085754D01*
X29005627Y-68051537D01*
X28954347Y-68031634D01*
X28897433Y-68025606D01*
X28837194Y-68032429D01*
X28786462Y-68053175D01*
X28744532Y-68088261D01*
X28712507Y-68134700D01*
X28708047Y-68143457D01*
X28704363Y-68152747D01*
X28701368Y-68164222D01*
X28698974Y-68179534D01*
X28697096Y-68200332D01*
X28695643Y-68228269D01*
X28694531Y-68264995D01*
X28693670Y-68312162D01*
X28692974Y-68371421D01*
X28692355Y-68444423D01*
X28691770Y-68526284D01*
X28689307Y-68884000D01*
X28585231Y-68884000D01*
X28544839Y-68883565D01*
X28510797Y-68882379D01*
X28486575Y-68880621D01*
X28475644Y-68878469D01*
X28475511Y-68878356D01*
X28474887Y-68869407D01*
X28474282Y-68844423D01*
X28473701Y-68804303D01*
X28473146Y-68749946D01*
X28472621Y-68682251D01*
X28472131Y-68602117D01*
X28471679Y-68510441D01*
X28471268Y-68408124D01*
X28470903Y-68296063D01*
X28470586Y-68175158D01*
X28470322Y-68046307D01*
X28470115Y-67910409D01*
X28469968Y-67768362D01*
X28469885Y-67621066D01*
X28469866Y-67510989D01*
X28469866Y-66667328D01*
X28692729Y-66667328D01*
X28693367Y-66725817D01*
X28695965Y-66781087D01*
X28700519Y-66829129D01*
X28707028Y-66865935D01*
X28710068Y-66876302D01*
X28729706Y-66916502D01*
X28757575Y-66952702D01*
X28789683Y-66980551D01*
X28818789Y-66994843D01*
X28856891Y-67001471D01*
X28902636Y-67003224D01*
X28947448Y-67000093D01*
X28973633Y-66995002D01*
X29009441Y-66977688D01*
X29043456Y-66948161D01*
X29071418Y-66910961D01*
X29088554Y-66872463D01*
X29094171Y-66842855D01*
X29098207Y-66800768D01*
X29100688Y-66749949D01*
X29101642Y-66694148D01*
X29101097Y-66637112D01*
X29099080Y-66582590D01*
X29095620Y-66534332D01*
X29090742Y-66496085D01*
X29085626Y-66474594D01*
X29060504Y-66425180D01*
X29024187Y-66388410D01*
X28976918Y-66364438D01*
X28918935Y-66353419D01*
X28895588Y-66352653D01*
X28836124Y-66358635D01*
X28788100Y-66376714D01*
X28750308Y-66407725D01*
X28721543Y-66452504D01*
X28709817Y-66481321D01*
X28702594Y-66512614D01*
X28697339Y-66556719D01*
X28694052Y-66609626D01*
X28692729Y-66667328D01*
X28469866Y-66667328D01*
X28469866Y-66149267D01*
X28690000Y-66149267D01*
X28690000Y-66200634D01*
X28689999Y-66252001D01*
X28726574Y-66222030D01*
X28790723Y-66179139D01*
X28858475Y-66151163D01*
X28927917Y-66137451D01*
X28997136Y-66137351D01*
X29064217Y-66150212D01*
G37*
X29064217Y-66150212D02*
X29127247Y-66175382D01*
X29184313Y-66212210D01*
X29233499Y-66260045D01*
X29272893Y-66318235D01*
X29300581Y-66386129D01*
X29308813Y-66420200D01*
X29312604Y-66449892D01*
X29315572Y-66493186D01*
X29317717Y-66546767D01*
X29319038Y-66607325D01*
X29319537Y-66671546D01*
X29319213Y-66736118D01*
X29318066Y-66797730D01*
X29316095Y-66853067D01*
X29313302Y-66898819D01*
X29309686Y-66931672D01*
X29308813Y-66936667D01*
X29286527Y-67009872D01*
X29250382Y-67074519D01*
X29201890Y-67129151D01*
X29142562Y-67172312D01*
X29073912Y-67202546D01*
X29019156Y-67215557D01*
X28944885Y-67219029D01*
X28871408Y-67206178D01*
X28800702Y-67177573D01*
X28734744Y-67133783D01*
X28734552Y-67133627D01*
X28690000Y-67097339D01*
X28690000Y-67929237D01*
X28723562Y-67898915D01*
X28783629Y-67855468D01*
X28850023Y-67826393D01*
X28920287Y-67811588D01*
X28991963Y-67810949D01*
X29062593Y-67824374D01*
X29129718Y-67851758D01*
X29190881Y-67893000D01*
X29219350Y-67919716D01*
X29263570Y-67975042D01*
X29294164Y-68035337D01*
X29312869Y-68104403D01*
X29317239Y-68133877D01*
X29319017Y-68157709D01*
X29320543Y-68196165D01*
X29321783Y-68246934D01*
X29322703Y-68307709D01*
X29323271Y-68376181D01*
X29323452Y-68450041D01*
X29323214Y-68526979D01*
X29323123Y-68541100D01*
X29320766Y-68879767D01*
X29105560Y-68884501D01*
X29103096Y-68526534D01*
X29102470Y-68439204D01*
X29101849Y-68367158D01*
X29101145Y-68308743D01*
X29100270Y-68262310D01*
X29099138Y-68226208D01*
X29097661Y-68198786D01*
X29095752Y-68178395D01*
X29093323Y-68163383D01*
X29090287Y-68152101D01*
X29086557Y-68142897D01*
X29082358Y-68134700D01*
X29048063Y-68085754D01*
X29005627Y-68051537D01*
X28954347Y-68031634D01*
X28897433Y-68025606D01*
X28837194Y-68032429D01*
X28786462Y-68053175D01*
X28744532Y-68088261D01*
X28712507Y-68134700D01*
X28708047Y-68143457D01*
X28704363Y-68152747D01*
X28701368Y-68164222D01*
X28698974Y-68179534D01*
X28697096Y-68200332D01*
X28695643Y-68228269D01*
X28694531Y-68264995D01*
X28693670Y-68312162D01*
X28692974Y-68371421D01*
X28692355Y-68444423D01*
X28691770Y-68526284D01*
X28689307Y-68884000D01*
X28585231Y-68884000D01*
X28544839Y-68883565D01*
X28510797Y-68882379D01*
X28486575Y-68880621D01*
X28475644Y-68878469D01*
X28475511Y-68878356D01*
X28474887Y-68869407D01*
X28474282Y-68844423D01*
X28473701Y-68804303D01*
X28473146Y-68749946D01*
X28472621Y-68682251D01*
X28472131Y-68602117D01*
X28471679Y-68510441D01*
X28471268Y-68408124D01*
X28470903Y-68296063D01*
X28470586Y-68175158D01*
X28470322Y-68046307D01*
X28470115Y-67910409D01*
X28469968Y-67768362D01*
X28469885Y-67621066D01*
X28469866Y-67510989D01*
X28469866Y-66667328D01*
X28692729Y-66667328D01*
X28693367Y-66725817D01*
X28695965Y-66781087D01*
X28700519Y-66829129D01*
X28707028Y-66865935D01*
X28710068Y-66876302D01*
X28729706Y-66916502D01*
X28757575Y-66952702D01*
X28789683Y-66980551D01*
X28818789Y-66994843D01*
X28856891Y-67001471D01*
X28902636Y-67003224D01*
X28947448Y-67000093D01*
X28973633Y-66995002D01*
X29009441Y-66977688D01*
X29043456Y-66948161D01*
X29071418Y-66910961D01*
X29088554Y-66872463D01*
X29094171Y-66842855D01*
X29098207Y-66800768D01*
X29100688Y-66749949D01*
X29101642Y-66694148D01*
X29101097Y-66637112D01*
X29099080Y-66582590D01*
X29095620Y-66534332D01*
X29090742Y-66496085D01*
X29085626Y-66474594D01*
X29060504Y-66425180D01*
X29024187Y-66388410D01*
X28976918Y-66364438D01*
X28918935Y-66353419D01*
X28895588Y-66352653D01*
X28836124Y-66358635D01*
X28788100Y-66376714D01*
X28750308Y-66407725D01*
X28721543Y-66452504D01*
X28709817Y-66481321D01*
X28702594Y-66512614D01*
X28697339Y-66556719D01*
X28694052Y-66609626D01*
X28692729Y-66667328D01*
X28469866Y-66667328D01*
X28469866Y-66149267D01*
X28690000Y-66149267D01*
X28690000Y-66200634D01*
X28689999Y-66252001D01*
X28726574Y-66222030D01*
X28790723Y-66179139D01*
X28858475Y-66151163D01*
X28927917Y-66137451D01*
X28997136Y-66137351D01*
X29064217Y-66150212D01*
G36*
X36076480Y-67817603D02*
G01*
X36128573Y-67828323D01*
X36144900Y-67833822D01*
X36224162Y-67872878D01*
X36291609Y-67923884D01*
X36346677Y-67986210D01*
X36388799Y-68059226D01*
X36415766Y-68135810D01*
X36422658Y-68174888D01*
X36426890Y-68229309D01*
X36428511Y-68299728D01*
X36428533Y-68310046D01*
X36428533Y-68435267D01*
X36098333Y-68435267D01*
X36025430Y-68435333D01*
X35958106Y-68435522D01*
X35898175Y-68435819D01*
X35847452Y-68436209D01*
X35807752Y-68436677D01*
X35780891Y-68437209D01*
X35768683Y-68437790D01*
X35768133Y-68437945D01*
X35770634Y-68458943D01*
X35777027Y-68489412D01*
X35785643Y-68522825D01*
X35794814Y-68552659D01*
X35802157Y-68571042D01*
X35830366Y-68610731D01*
X35870002Y-68645748D01*
X35915562Y-68671512D01*
X35928892Y-68676531D01*
X35989210Y-68688336D01*
X36054037Y-68686841D01*
X36118742Y-68673003D01*
X36178697Y-68647780D01*
X36225932Y-68615122D01*
X36255391Y-68589256D01*
X36329262Y-68652632D01*
X36358484Y-68678246D01*
X36382246Y-68700112D01*
X36397973Y-68715788D01*
X36403133Y-68722645D01*
X36396874Y-68733069D01*
X36380410Y-68750440D01*
X36357204Y-68771716D01*
X36330725Y-68793855D01*
X36304436Y-68813815D01*
X36283799Y-68827403D01*
X36234601Y-68852991D01*
X36185827Y-68870730D01*
X36132419Y-68881914D01*
X36069320Y-68887836D01*
X36043300Y-68888928D01*
X35981451Y-68889494D01*
X35932960Y-68886652D01*
X35894560Y-68880201D01*
X35892127Y-68879599D01*
X35828238Y-68857669D01*
X35766818Y-68826000D01*
X35713251Y-68787696D01*
X35684194Y-68759600D01*
X35639040Y-68699656D01*
X35604541Y-68632286D01*
X35580020Y-68555504D01*
X35564799Y-68467328D01*
X35559098Y-68392934D01*
X35560200Y-68282012D01*
X35565537Y-68241233D01*
X35773358Y-68241233D01*
X35774916Y-68252946D01*
X35775062Y-68253107D01*
X35784366Y-68254280D01*
X35808318Y-68255334D01*
X35844635Y-68256224D01*
X35891032Y-68256905D01*
X35945223Y-68257334D01*
X35999105Y-68257467D01*
X36218789Y-68257467D01*
X36212833Y-68217250D01*
X36196815Y-68155364D01*
X36169109Y-68101915D01*
X36135754Y-68063905D01*
X36088441Y-68032505D01*
X36036337Y-68015270D01*
X35982324Y-68011571D01*
X35929283Y-68020775D01*
X35880095Y-68042252D01*
X35837641Y-68075373D01*
X35804803Y-68119504D01*
X35795732Y-68138344D01*
X35787729Y-68162026D01*
X35780705Y-68190550D01*
X35775602Y-68218693D01*
X35773358Y-68241233D01*
X35565537Y-68241233D01*
X35573379Y-68181324D01*
X35598392Y-68091340D01*
X35634996Y-68012532D01*
X35682946Y-67945371D01*
X35742001Y-67890329D01*
X35811916Y-67847876D01*
X35848566Y-67832366D01*
X35896694Y-67819971D01*
X35954650Y-67813398D01*
X36016542Y-67812618D01*
X36076480Y-67817603D01*
G37*
X36076480Y-67817603D02*
X36128573Y-67828323D01*
X36144900Y-67833822D01*
X36224162Y-67872878D01*
X36291609Y-67923884D01*
X36346677Y-67986210D01*
X36388799Y-68059226D01*
X36415766Y-68135810D01*
X36422658Y-68174888D01*
X36426890Y-68229309D01*
X36428511Y-68299728D01*
X36428533Y-68310046D01*
X36428533Y-68435267D01*
X36098333Y-68435267D01*
X36025430Y-68435333D01*
X35958106Y-68435522D01*
X35898175Y-68435819D01*
X35847452Y-68436209D01*
X35807752Y-68436677D01*
X35780891Y-68437209D01*
X35768683Y-68437790D01*
X35768133Y-68437945D01*
X35770634Y-68458943D01*
X35777027Y-68489412D01*
X35785643Y-68522825D01*
X35794814Y-68552659D01*
X35802157Y-68571042D01*
X35830366Y-68610731D01*
X35870002Y-68645748D01*
X35915562Y-68671512D01*
X35928892Y-68676531D01*
X35989210Y-68688336D01*
X36054037Y-68686841D01*
X36118742Y-68673003D01*
X36178697Y-68647780D01*
X36225932Y-68615122D01*
X36255391Y-68589256D01*
X36329262Y-68652632D01*
X36358484Y-68678246D01*
X36382246Y-68700112D01*
X36397973Y-68715788D01*
X36403133Y-68722645D01*
X36396874Y-68733069D01*
X36380410Y-68750440D01*
X36357204Y-68771716D01*
X36330725Y-68793855D01*
X36304436Y-68813815D01*
X36283799Y-68827403D01*
X36234601Y-68852991D01*
X36185827Y-68870730D01*
X36132419Y-68881914D01*
X36069320Y-68887836D01*
X36043300Y-68888928D01*
X35981451Y-68889494D01*
X35932960Y-68886652D01*
X35894560Y-68880201D01*
X35892127Y-68879599D01*
X35828238Y-68857669D01*
X35766818Y-68826000D01*
X35713251Y-68787696D01*
X35684194Y-68759600D01*
X35639040Y-68699656D01*
X35604541Y-68632286D01*
X35580020Y-68555504D01*
X35564799Y-68467328D01*
X35559098Y-68392934D01*
X35560200Y-68282012D01*
X35565537Y-68241233D01*
X35773358Y-68241233D01*
X35774916Y-68252946D01*
X35775062Y-68253107D01*
X35784366Y-68254280D01*
X35808318Y-68255334D01*
X35844635Y-68256224D01*
X35891032Y-68256905D01*
X35945223Y-68257334D01*
X35999105Y-68257467D01*
X36218789Y-68257467D01*
X36212833Y-68217250D01*
X36196815Y-68155364D01*
X36169109Y-68101915D01*
X36135754Y-68063905D01*
X36088441Y-68032505D01*
X36036337Y-68015270D01*
X35982324Y-68011571D01*
X35929283Y-68020775D01*
X35880095Y-68042252D01*
X35837641Y-68075373D01*
X35804803Y-68119504D01*
X35795732Y-68138344D01*
X35787729Y-68162026D01*
X35780705Y-68190550D01*
X35775602Y-68218693D01*
X35773358Y-68241233D01*
X35565537Y-68241233D01*
X35573379Y-68181324D01*
X35598392Y-68091340D01*
X35634996Y-68012532D01*
X35682946Y-67945371D01*
X35742001Y-67890329D01*
X35811916Y-67847876D01*
X35848566Y-67832366D01*
X35896694Y-67819971D01*
X35954650Y-67813398D01*
X36016542Y-67812618D01*
X36076480Y-67817603D01*
G36*
X34214499Y-67811460D02*
G01*
X34303833Y-67820363D01*
X34379510Y-67837354D01*
X34443041Y-67862995D01*
X34495939Y-67897850D01*
X34527312Y-67927879D01*
X34544709Y-67948135D01*
X34559456Y-67968325D01*
X34571758Y-67989979D01*
X34581821Y-68014625D01*
X34589850Y-68043793D01*
X34596051Y-68079013D01*
X34600629Y-68121814D01*
X34603790Y-68173725D01*
X34605738Y-68236277D01*
X34606681Y-68310998D01*
X34606822Y-68399418D01*
X34606369Y-68503066D01*
X34606290Y-68515700D01*
X34603966Y-68879767D01*
X34392299Y-68879767D01*
X34389747Y-68835518D01*
X34387195Y-68791270D01*
X34362292Y-68819632D01*
X34331769Y-68847364D01*
X34294410Y-68867373D01*
X34247539Y-68880544D01*
X34188478Y-68887763D01*
X34150999Y-68889486D01*
X34080038Y-68889127D01*
X34025161Y-68883887D01*
X34005035Y-68879773D01*
X33931557Y-68853440D01*
X33869079Y-68814509D01*
X33818098Y-68763358D01*
X33784270Y-68710744D01*
X33772222Y-68686258D01*
X33764491Y-68665514D01*
X33760112Y-68643460D01*
X33758122Y-68615048D01*
X33757558Y-68575230D01*
X33757544Y-68570734D01*
X33757680Y-68555254D01*
X33956748Y-68555254D01*
X33962214Y-68595307D01*
X33981150Y-68632372D01*
X33997046Y-68649760D01*
X34021090Y-68666198D01*
X34052600Y-68677564D01*
X34094054Y-68684323D01*
X34147928Y-68686938D01*
X34193333Y-68686578D01*
X34243394Y-68684754D01*
X34279767Y-68681773D01*
X34305679Y-68677216D01*
X34324359Y-68670664D01*
X34327348Y-68669163D01*
X34354214Y-68647994D01*
X34372826Y-68616326D01*
X34383822Y-68572467D01*
X34387839Y-68514729D01*
X34387880Y-68508726D01*
X34388066Y-68434019D01*
X34216616Y-68436759D01*
X34156404Y-68437916D01*
X34110624Y-68439354D01*
X34076776Y-68441297D01*
X34052359Y-68443973D01*
X34034872Y-68447606D01*
X34021815Y-68452421D01*
X34017275Y-68454728D01*
X33984668Y-68481209D01*
X33964362Y-68515970D01*
X33956748Y-68555254D01*
X33757680Y-68555254D01*
X33757919Y-68528347D01*
X33759859Y-68497836D01*
X33764173Y-68474159D01*
X33771667Y-68452274D01*
X33779265Y-68435267D01*
X33807942Y-68388311D01*
X33846440Y-68344529D01*
X33889556Y-68309421D01*
X33909265Y-68297823D01*
X33936446Y-68285061D01*
X33963644Y-68275254D01*
X33993603Y-68268030D01*
X34029070Y-68263021D01*
X34072788Y-68259857D01*
X34127505Y-68258167D01*
X34195964Y-68257583D01*
X34208149Y-68257567D01*
X34388066Y-68257467D01*
X34388035Y-68179150D01*
X34385827Y-68127875D01*
X34378051Y-68088291D01*
X34362906Y-68058982D01*
X34338591Y-68038535D01*
X34303306Y-68025534D01*
X34255251Y-68018565D01*
X34192625Y-68016212D01*
X34180633Y-68016169D01*
X34133902Y-68016470D01*
X34100362Y-68017697D01*
X34076276Y-68020338D01*
X34057906Y-68024878D01*
X34041515Y-68031805D01*
X34035142Y-68035103D01*
X34010733Y-68050576D01*
X33991399Y-68067002D01*
X33986850Y-68072412D01*
X33981003Y-68079856D01*
X33974615Y-68082981D01*
X33965064Y-68080602D01*
X33949729Y-68071532D01*
X33925988Y-68054586D01*
X33893157Y-68030033D01*
X33861699Y-68005614D01*
X33835960Y-67984161D01*
X33818614Y-67968006D01*
X33812333Y-67959523D01*
X33819024Y-67945707D01*
X33836802Y-67926082D01*
X33862222Y-67903535D01*
X33891839Y-67880951D01*
X33922207Y-67861216D01*
X33942648Y-67850369D01*
X34009323Y-67826852D01*
X34087061Y-67813502D01*
X34177026Y-67810153D01*
X34214499Y-67811460D01*
G37*
X34214499Y-67811460D02*
X34303833Y-67820363D01*
X34379510Y-67837354D01*
X34443041Y-67862995D01*
X34495939Y-67897850D01*
X34527312Y-67927879D01*
X34544709Y-67948135D01*
X34559456Y-67968325D01*
X34571758Y-67989979D01*
X34581821Y-68014625D01*
X34589850Y-68043793D01*
X34596051Y-68079013D01*
X34600629Y-68121814D01*
X34603790Y-68173725D01*
X34605738Y-68236277D01*
X34606681Y-68310998D01*
X34606822Y-68399418D01*
X34606369Y-68503066D01*
X34606290Y-68515700D01*
X34603966Y-68879767D01*
X34392299Y-68879767D01*
X34389747Y-68835518D01*
X34387195Y-68791270D01*
X34362292Y-68819632D01*
X34331769Y-68847364D01*
X34294410Y-68867373D01*
X34247539Y-68880544D01*
X34188478Y-68887763D01*
X34150999Y-68889486D01*
X34080038Y-68889127D01*
X34025161Y-68883887D01*
X34005035Y-68879773D01*
X33931557Y-68853440D01*
X33869079Y-68814509D01*
X33818098Y-68763358D01*
X33784270Y-68710744D01*
X33772222Y-68686258D01*
X33764491Y-68665514D01*
X33760112Y-68643460D01*
X33758122Y-68615048D01*
X33757558Y-68575230D01*
X33757544Y-68570734D01*
X33757680Y-68555254D01*
X33956748Y-68555254D01*
X33962214Y-68595307D01*
X33981150Y-68632372D01*
X33997046Y-68649760D01*
X34021090Y-68666198D01*
X34052600Y-68677564D01*
X34094054Y-68684323D01*
X34147928Y-68686938D01*
X34193333Y-68686578D01*
X34243394Y-68684754D01*
X34279767Y-68681773D01*
X34305679Y-68677216D01*
X34324359Y-68670664D01*
X34327348Y-68669163D01*
X34354214Y-68647994D01*
X34372826Y-68616326D01*
X34383822Y-68572467D01*
X34387839Y-68514729D01*
X34387880Y-68508726D01*
X34388066Y-68434019D01*
X34216616Y-68436759D01*
X34156404Y-68437916D01*
X34110624Y-68439354D01*
X34076776Y-68441297D01*
X34052359Y-68443973D01*
X34034872Y-68447606D01*
X34021815Y-68452421D01*
X34017275Y-68454728D01*
X33984668Y-68481209D01*
X33964362Y-68515970D01*
X33956748Y-68555254D01*
X33757680Y-68555254D01*
X33757919Y-68528347D01*
X33759859Y-68497836D01*
X33764173Y-68474159D01*
X33771667Y-68452274D01*
X33779265Y-68435267D01*
X33807942Y-68388311D01*
X33846440Y-68344529D01*
X33889556Y-68309421D01*
X33909265Y-68297823D01*
X33936446Y-68285061D01*
X33963644Y-68275254D01*
X33993603Y-68268030D01*
X34029070Y-68263021D01*
X34072788Y-68259857D01*
X34127505Y-68258167D01*
X34195964Y-68257583D01*
X34208149Y-68257567D01*
X34388066Y-68257467D01*
X34388035Y-68179150D01*
X34385827Y-68127875D01*
X34378051Y-68088291D01*
X34362906Y-68058982D01*
X34338591Y-68038535D01*
X34303306Y-68025534D01*
X34255251Y-68018565D01*
X34192625Y-68016212D01*
X34180633Y-68016169D01*
X34133902Y-68016470D01*
X34100362Y-68017697D01*
X34076276Y-68020338D01*
X34057906Y-68024878D01*
X34041515Y-68031805D01*
X34035142Y-68035103D01*
X34010733Y-68050576D01*
X33991399Y-68067002D01*
X33986850Y-68072412D01*
X33981003Y-68079856D01*
X33974615Y-68082981D01*
X33965064Y-68080602D01*
X33949729Y-68071532D01*
X33925988Y-68054586D01*
X33893157Y-68030033D01*
X33861699Y-68005614D01*
X33835960Y-67984161D01*
X33818614Y-67968006D01*
X33812333Y-67959523D01*
X33819024Y-67945707D01*
X33836802Y-67926082D01*
X33862222Y-67903535D01*
X33891839Y-67880951D01*
X33922207Y-67861216D01*
X33942648Y-67850369D01*
X34009323Y-67826852D01*
X34087061Y-67813502D01*
X34177026Y-67810153D01*
X34214499Y-67811460D01*
G36*
X32119000Y-68884000D02*
G01*
X31907333Y-68884000D01*
X31907333Y-68771963D01*
X31873848Y-68802215D01*
X31816089Y-68843484D01*
X31749270Y-68872772D01*
X31677101Y-68889222D01*
X31603294Y-68891972D01*
X31534201Y-68880890D01*
X31468472Y-68854712D01*
X31409321Y-68814649D01*
X31359049Y-68763200D01*
X31319953Y-68702865D01*
X31294332Y-68636141D01*
X31289553Y-68614918D01*
X31284380Y-68577096D01*
X31280219Y-68526247D01*
X31277160Y-68466253D01*
X31275290Y-68400993D01*
X31274920Y-68359067D01*
X31496699Y-68359067D01*
X31496821Y-68416635D01*
X31497363Y-68460108D01*
X31498591Y-68492320D01*
X31500770Y-68516110D01*
X31504165Y-68534313D01*
X31509042Y-68549766D01*
X31515666Y-68565305D01*
X31516073Y-68566191D01*
X31535767Y-68603820D01*
X31555904Y-68629606D01*
X31580469Y-68648267D01*
X31589813Y-68653450D01*
X31647860Y-68674494D01*
X31709149Y-68679015D01*
X31768444Y-68668332D01*
X31810707Y-68649988D01*
X31844616Y-68621875D01*
X31870669Y-68582851D01*
X31889366Y-68531777D01*
X31901203Y-68467510D01*
X31906681Y-68388909D01*
X31907205Y-68350600D01*
X31905079Y-68272276D01*
X31898306Y-68208262D01*
X31886297Y-68156428D01*
X31868459Y-68114643D01*
X31844201Y-68080778D01*
X31827908Y-68064755D01*
X31787974Y-68039898D01*
X31740534Y-68026286D01*
X31689511Y-68023495D01*
X31638823Y-68031101D01*
X31592393Y-68048680D01*
X31554140Y-68075808D01*
X31536927Y-68096220D01*
X31523783Y-68117847D01*
X31513786Y-68140424D01*
X31506529Y-68166626D01*
X31501600Y-68199125D01*
X31498592Y-68240597D01*
X31497095Y-68293713D01*
X31496699Y-68359067D01*
X31274920Y-68359067D01*
X31274701Y-68334350D01*
X31275481Y-68270205D01*
X31277719Y-68212439D01*
X31279648Y-68184249D01*
X31286877Y-68116482D01*
X31296761Y-68062116D01*
X31310361Y-68017696D01*
X31328737Y-67979765D01*
X31352950Y-67944867D01*
X31353192Y-67944564D01*
X31407562Y-67888823D01*
X31469049Y-67847699D01*
X31535935Y-67821363D01*
X31606505Y-67809985D01*
X31679042Y-67813734D01*
X31751829Y-67832782D01*
X31823151Y-67867298D01*
X31862613Y-67894051D01*
X31907333Y-67927815D01*
X31907333Y-67393867D01*
X32119000Y-67393867D01*
X32119000Y-68884000D01*
G37*
X32119000Y-68884000D02*
X31907333Y-68884000D01*
X31907333Y-68771963D01*
X31873848Y-68802215D01*
X31816089Y-68843484D01*
X31749270Y-68872772D01*
X31677101Y-68889222D01*
X31603294Y-68891972D01*
X31534201Y-68880890D01*
X31468472Y-68854712D01*
X31409321Y-68814649D01*
X31359049Y-68763200D01*
X31319953Y-68702865D01*
X31294332Y-68636141D01*
X31289553Y-68614918D01*
X31284380Y-68577096D01*
X31280219Y-68526247D01*
X31277160Y-68466253D01*
X31275290Y-68400993D01*
X31274920Y-68359067D01*
X31496699Y-68359067D01*
X31496821Y-68416635D01*
X31497363Y-68460108D01*
X31498591Y-68492320D01*
X31500770Y-68516110D01*
X31504165Y-68534313D01*
X31509042Y-68549766D01*
X31515666Y-68565305D01*
X31516073Y-68566191D01*
X31535767Y-68603820D01*
X31555904Y-68629606D01*
X31580469Y-68648267D01*
X31589813Y-68653450D01*
X31647860Y-68674494D01*
X31709149Y-68679015D01*
X31768444Y-68668332D01*
X31810707Y-68649988D01*
X31844616Y-68621875D01*
X31870669Y-68582851D01*
X31889366Y-68531777D01*
X31901203Y-68467510D01*
X31906681Y-68388909D01*
X31907205Y-68350600D01*
X31905079Y-68272276D01*
X31898306Y-68208262D01*
X31886297Y-68156428D01*
X31868459Y-68114643D01*
X31844201Y-68080778D01*
X31827908Y-68064755D01*
X31787974Y-68039898D01*
X31740534Y-68026286D01*
X31689511Y-68023495D01*
X31638823Y-68031101D01*
X31592393Y-68048680D01*
X31554140Y-68075808D01*
X31536927Y-68096220D01*
X31523783Y-68117847D01*
X31513786Y-68140424D01*
X31506529Y-68166626D01*
X31501600Y-68199125D01*
X31498592Y-68240597D01*
X31497095Y-68293713D01*
X31496699Y-68359067D01*
X31274920Y-68359067D01*
X31274701Y-68334350D01*
X31275481Y-68270205D01*
X31277719Y-68212439D01*
X31279648Y-68184249D01*
X31286877Y-68116482D01*
X31296761Y-68062116D01*
X31310361Y-68017696D01*
X31328737Y-67979765D01*
X31352950Y-67944867D01*
X31353192Y-67944564D01*
X31407562Y-67888823D01*
X31469049Y-67847699D01*
X31535935Y-67821363D01*
X31606505Y-67809985D01*
X31679042Y-67813734D01*
X31751829Y-67832782D01*
X31823151Y-67867298D01*
X31862613Y-67894051D01*
X31907333Y-67927815D01*
X31907333Y-67393867D01*
X32119000Y-67393867D01*
X32119000Y-68884000D01*
G36*
X29954494Y-67811942D02*
G01*
X30043706Y-67823424D01*
X30121273Y-67845508D01*
X30186661Y-67877980D01*
X30239340Y-67920626D01*
X30278777Y-67973232D01*
X30284914Y-67984700D01*
X30293704Y-68003094D01*
X30301077Y-68021474D01*
X30307157Y-68041466D01*
X30312067Y-68064691D01*
X30315930Y-68092774D01*
X30318870Y-68127337D01*
X30321011Y-68170006D01*
X30322476Y-68222402D01*
X30323389Y-68286150D01*
X30323873Y-68362873D01*
X30324052Y-68454195D01*
X30324066Y-68499184D01*
X30324066Y-68884000D01*
X30112400Y-68884000D01*
X30112400Y-68789298D01*
X30071075Y-68826452D01*
X30043680Y-68848173D01*
X30015282Y-68866172D01*
X29996991Y-68874638D01*
X29968266Y-68880941D01*
X29927638Y-68885543D01*
X29880065Y-68888326D01*
X29830504Y-68889168D01*
X29783912Y-68887952D01*
X29745246Y-68884557D01*
X29726815Y-68881152D01*
X29657466Y-68856666D01*
X29596469Y-68821434D01*
X29546411Y-68777304D01*
X29509889Y-68726143D01*
X29483061Y-68659784D01*
X29471330Y-68591807D01*
X29472076Y-68572414D01*
X29674998Y-68572414D01*
X29681452Y-68599200D01*
X29697736Y-68631255D01*
X29722124Y-68655404D01*
X29756360Y-68672320D01*
X29802190Y-68682679D01*
X29861359Y-68687153D01*
X29909200Y-68687198D01*
X29956152Y-68685813D01*
X29989801Y-68683555D01*
X30013773Y-68679906D01*
X30031696Y-68674349D01*
X30044666Y-68667864D01*
X30069270Y-68648691D01*
X30087088Y-68622211D01*
X30099275Y-68585646D01*
X30106991Y-68536221D01*
X30108985Y-68513584D01*
X30114829Y-68435267D01*
X29954864Y-68435314D01*
X29902240Y-68435782D01*
X29853436Y-68437052D01*
X29811781Y-68438974D01*
X29780602Y-68441396D01*
X29763816Y-68443995D01*
X29723021Y-68463050D01*
X29693591Y-68492743D01*
X29677068Y-68530168D01*
X29674998Y-68572414D01*
X29472076Y-68572414D01*
X29473922Y-68524476D01*
X29490066Y-68460052D01*
X29518990Y-68400801D01*
X29559920Y-68348985D01*
X29612085Y-68306867D01*
X29661578Y-68281601D01*
X29678499Y-68275332D01*
X29695585Y-68270469D01*
X29715405Y-68266762D01*
X29740528Y-68263966D01*
X29773524Y-68261831D01*
X29816961Y-68260110D01*
X29873409Y-68258555D01*
X29909200Y-68257720D01*
X30108166Y-68253234D01*
X30107490Y-68174633D01*
X30106475Y-68134556D01*
X30103767Y-68107161D01*
X30098640Y-68088224D01*
X30090366Y-68073523D01*
X30090011Y-68073033D01*
X30067632Y-68049609D01*
X30038195Y-68032811D01*
X29998943Y-68021688D01*
X29947124Y-68015290D01*
X29917982Y-68013659D01*
X29859106Y-68012929D01*
X29813254Y-68016702D01*
X29776921Y-68025806D01*
X29746601Y-68041069D01*
X29722579Y-68059827D01*
X29689319Y-68089876D01*
X29608759Y-68028524D01*
X29577546Y-68004489D01*
X29551965Y-67984288D01*
X29534641Y-67970030D01*
X29528200Y-67963823D01*
X29528200Y-67963810D01*
X29534356Y-67950806D01*
X29550402Y-67931390D01*
X29572699Y-67909340D01*
X29597611Y-67888433D01*
X29608207Y-67880743D01*
X29654080Y-67853385D01*
X29702224Y-67833785D01*
X29756794Y-67820771D01*
X29821944Y-67813170D01*
X29854166Y-67811276D01*
X29954494Y-67811942D01*
G37*
X29954494Y-67811942D02*
X30043706Y-67823424D01*
X30121273Y-67845508D01*
X30186661Y-67877980D01*
X30239340Y-67920626D01*
X30278777Y-67973232D01*
X30284914Y-67984700D01*
X30293704Y-68003094D01*
X30301077Y-68021474D01*
X30307157Y-68041466D01*
X30312067Y-68064691D01*
X30315930Y-68092774D01*
X30318870Y-68127337D01*
X30321011Y-68170006D01*
X30322476Y-68222402D01*
X30323389Y-68286150D01*
X30323873Y-68362873D01*
X30324052Y-68454195D01*
X30324066Y-68499184D01*
X30324066Y-68884000D01*
X30112400Y-68884000D01*
X30112400Y-68789298D01*
X30071075Y-68826452D01*
X30043680Y-68848173D01*
X30015282Y-68866172D01*
X29996991Y-68874638D01*
X29968266Y-68880941D01*
X29927638Y-68885543D01*
X29880065Y-68888326D01*
X29830504Y-68889168D01*
X29783912Y-68887952D01*
X29745246Y-68884557D01*
X29726815Y-68881152D01*
X29657466Y-68856666D01*
X29596469Y-68821434D01*
X29546411Y-68777304D01*
X29509889Y-68726143D01*
X29483061Y-68659784D01*
X29471330Y-68591807D01*
X29472076Y-68572414D01*
X29674998Y-68572414D01*
X29681452Y-68599200D01*
X29697736Y-68631255D01*
X29722124Y-68655404D01*
X29756360Y-68672320D01*
X29802190Y-68682679D01*
X29861359Y-68687153D01*
X29909200Y-68687198D01*
X29956152Y-68685813D01*
X29989801Y-68683555D01*
X30013773Y-68679906D01*
X30031696Y-68674349D01*
X30044666Y-68667864D01*
X30069270Y-68648691D01*
X30087088Y-68622211D01*
X30099275Y-68585646D01*
X30106991Y-68536221D01*
X30108985Y-68513584D01*
X30114829Y-68435267D01*
X29954864Y-68435314D01*
X29902240Y-68435782D01*
X29853436Y-68437052D01*
X29811781Y-68438974D01*
X29780602Y-68441396D01*
X29763816Y-68443995D01*
X29723021Y-68463050D01*
X29693591Y-68492743D01*
X29677068Y-68530168D01*
X29674998Y-68572414D01*
X29472076Y-68572414D01*
X29473922Y-68524476D01*
X29490066Y-68460052D01*
X29518990Y-68400801D01*
X29559920Y-68348985D01*
X29612085Y-68306867D01*
X29661578Y-68281601D01*
X29678499Y-68275332D01*
X29695585Y-68270469D01*
X29715405Y-68266762D01*
X29740528Y-68263966D01*
X29773524Y-68261831D01*
X29816961Y-68260110D01*
X29873409Y-68258555D01*
X29909200Y-68257720D01*
X30108166Y-68253234D01*
X30107490Y-68174633D01*
X30106475Y-68134556D01*
X30103767Y-68107161D01*
X30098640Y-68088224D01*
X30090366Y-68073523D01*
X30090011Y-68073033D01*
X30067632Y-68049609D01*
X30038195Y-68032811D01*
X29998943Y-68021688D01*
X29947124Y-68015290D01*
X29917982Y-68013659D01*
X29859106Y-68012929D01*
X29813254Y-68016702D01*
X29776921Y-68025806D01*
X29746601Y-68041069D01*
X29722579Y-68059827D01*
X29689319Y-68089876D01*
X29608759Y-68028524D01*
X29577546Y-68004489D01*
X29551965Y-67984288D01*
X29534641Y-67970030D01*
X29528200Y-67963823D01*
X29528200Y-67963810D01*
X29534356Y-67950806D01*
X29550402Y-67931390D01*
X29572699Y-67909340D01*
X29597611Y-67888433D01*
X29608207Y-67880743D01*
X29654080Y-67853385D01*
X29702224Y-67833785D01*
X29756794Y-67820771D01*
X29821944Y-67813170D01*
X29854166Y-67811276D01*
X29954494Y-67811942D01*
D11*
G04 #@! TO.C,J4*
X68725000Y-44060000D02*
X63425000Y-44060000D01*
X67725000Y-45330000D02*
X64425000Y-45330000D01*
X64425000Y-52320000D02*
X67725000Y-52320000D01*
X68725000Y-45650000D02*
X68725000Y-44060000D01*
X67725000Y-45650000D02*
X67725000Y-45330000D01*
X67725000Y-52320000D02*
X67725000Y-52000000D01*
X64425000Y-45330000D02*
X64425000Y-45650000D01*
X64425000Y-52000000D02*
X64425000Y-52320000D01*
D12*
G04 #@! TO.C,C9*
X57515000Y-31611252D02*
X57515000Y-31088748D01*
X58985000Y-31611252D02*
X58985000Y-31088748D01*
G04 #@! TO.C,C5*
X55340000Y-31586252D02*
X55340000Y-31063748D01*
X56810000Y-31586252D02*
X56810000Y-31063748D01*
G04 #@! TO.C,C2*
X48215556Y-51059130D02*
X48063053Y-50906627D01*
X47706439Y-51568247D02*
X47553936Y-51415744D01*
G04 #@! TO.C,C3*
X41405810Y-38821693D02*
X41253307Y-38669190D01*
X40896693Y-39330810D02*
X40744190Y-39178307D01*
G04 #@! TO.C,C4*
X52653307Y-46294190D02*
X52805810Y-46446693D01*
X52144190Y-46803307D02*
X52296693Y-46955810D01*
G04 #@! TO.C,C6*
X43335000Y-36717164D02*
X43335000Y-36932836D01*
X42615000Y-36717164D02*
X42615000Y-36932836D01*
G04 #@! TO.C,C7*
X43615000Y-35742164D02*
X43615000Y-35957836D01*
X44335000Y-35742164D02*
X44335000Y-35957836D01*
G04 #@! TO.C,C8*
X39346693Y-37705810D02*
X39194190Y-37553307D01*
X39855810Y-37196693D02*
X39703307Y-37044190D01*
G04 #@! TO.C,C10*
X46410000Y-35957836D02*
X46410000Y-35742164D01*
X45690000Y-35957836D02*
X45690000Y-35742164D01*
G04 #@! TO.C,C11*
X61210000Y-31611252D02*
X61210000Y-31088748D01*
X59740000Y-31611252D02*
X59740000Y-31088748D01*
G04 #@! TO.C,C12*
X48883046Y-39496819D02*
X49035549Y-39344316D01*
X49392163Y-40005936D02*
X49544666Y-39853433D01*
G04 #@! TO.C,C13*
X48819190Y-46303307D02*
X48971693Y-46455810D01*
X49328307Y-45794190D02*
X49480810Y-45946693D01*
G04 #@! TO.C,C14*
X43155810Y-48578307D02*
X43003307Y-48730810D01*
X42646693Y-48069190D02*
X42494190Y-48221693D01*
G04 #@! TO.C,C15*
X39029988Y-43834444D02*
X38877485Y-43986947D01*
X39539105Y-44343561D02*
X39386602Y-44496064D01*
G04 #@! TO.C,C16*
X40221693Y-36830810D02*
X40069190Y-36678307D01*
X40730810Y-36321693D02*
X40578307Y-36169190D01*
G04 #@! TO.C,C17*
X28582836Y-48515000D02*
X28367164Y-48515000D01*
X28582836Y-49235000D02*
X28367164Y-49235000D01*
G04 #@! TO.C,C18*
X42135000Y-28882836D02*
X42135000Y-28667164D01*
X41415000Y-28882836D02*
X41415000Y-28667164D01*
G04 #@! TO.C,D1*
X60735000Y-69735000D02*
X60735000Y-67450000D01*
X59265000Y-69735000D02*
X60735000Y-69735000D01*
X59265000Y-67450000D02*
X59265000Y-69735000D01*
G04 #@! TO.C,D2*
X54015000Y-67450000D02*
X54015000Y-69735000D01*
X54015000Y-69735000D02*
X55485000Y-69735000D01*
X55485000Y-69735000D02*
X55485000Y-67450000D01*
G04 #@! TO.C,J2*
X26830000Y-32510000D02*
X26895000Y-32510000D01*
X26830000Y-36040000D02*
X26895000Y-36040000D01*
X25505000Y-32510000D02*
X25570000Y-32510000D01*
X25505000Y-36040000D02*
X25570000Y-36040000D01*
X25570000Y-37365000D02*
X25570000Y-36040000D01*
X26895000Y-36040000D02*
X26895000Y-32510000D01*
X25505000Y-36040000D02*
X25505000Y-32510000D01*
D13*
G04 #@! TO.C,J3*
X49318000Y-69681000D02*
X49318000Y-69300000D01*
X40682000Y-69681000D02*
X40682000Y-69300000D01*
X42206000Y-65363000D02*
X40682000Y-65363000D01*
X49318000Y-65363000D02*
X47794000Y-65363000D01*
X49318000Y-65617000D02*
X49318000Y-65363000D01*
X40682000Y-65617000D02*
X40682000Y-65363000D01*
D12*
G04 #@! TO.C,Q1*
X41220000Y-58410000D02*
X42150000Y-58410000D01*
X44380000Y-58410000D02*
X43450000Y-58410000D01*
X44380000Y-58410000D02*
X44380000Y-56250000D01*
X41220000Y-58410000D02*
X41220000Y-56950000D01*
G04 #@! TO.C,Q2*
X37570000Y-58410001D02*
X38500000Y-58410001D01*
X40730000Y-58410001D02*
X39800000Y-58410001D01*
X40730000Y-58410001D02*
X40730000Y-56250001D01*
X37570000Y-58410001D02*
X37570000Y-56950001D01*
G04 #@! TO.C,Q3*
X48420000Y-58410000D02*
X48420000Y-56950000D01*
X51580000Y-58410000D02*
X51580000Y-56250000D01*
X51580000Y-58410000D02*
X50650000Y-58410000D01*
X48420000Y-58410000D02*
X49350000Y-58410000D01*
G04 #@! TO.C,Q4*
X44820000Y-58410001D02*
X44820000Y-56950001D01*
X47980000Y-58410001D02*
X47980000Y-56250001D01*
X47980000Y-58410001D02*
X47050000Y-58410001D01*
X44820000Y-58410001D02*
X45750000Y-58410001D01*
G04 #@! TO.C,R1*
X47599079Y-47153741D02*
X47816360Y-47371022D01*
X48136480Y-46616340D02*
X48353761Y-46833621D01*
G04 #@! TO.C,R2*
X43255000Y-28621359D02*
X43255000Y-28928641D01*
X42495000Y-28621359D02*
X42495000Y-28928641D01*
G04 #@! TO.C,R3*
X46140000Y-28953641D02*
X46140000Y-28646359D01*
X46900000Y-28953641D02*
X46900000Y-28646359D01*
G04 #@! TO.C,R4*
X57727500Y-68012742D02*
X57727500Y-68487258D01*
X58772500Y-68012742D02*
X58772500Y-68487258D01*
G04 #@! TO.C,R5*
X57022500Y-68012742D02*
X57022500Y-68487258D01*
X55977500Y-68012742D02*
X55977500Y-68487258D01*
G04 #@! TO.C,R6*
X44600000Y-30516359D02*
X44600000Y-30823641D01*
X43840000Y-30516359D02*
X43840000Y-30823641D01*
G04 #@! TO.C,R7*
X44920000Y-30516359D02*
X44920000Y-30823641D01*
X45680000Y-30516359D02*
X45680000Y-30823641D01*
G04 #@! TO.C,R8*
X26230000Y-39596359D02*
X26230000Y-39903641D01*
X25470000Y-39596359D02*
X25470000Y-39903641D01*
G04 #@! TO.C,R9*
X27330000Y-39903641D02*
X27330000Y-39596359D01*
X26570000Y-39903641D02*
X26570000Y-39596359D01*
G04 #@! TO.C,R10*
X43753641Y-55019999D02*
X43446359Y-55019999D01*
X43753641Y-55779999D02*
X43446359Y-55779999D01*
G04 #@! TO.C,R11*
X40103641Y-55780000D02*
X39796359Y-55780000D01*
X40103641Y-55020000D02*
X39796359Y-55020000D01*
G04 #@! TO.C,R12*
X43753641Y-59520000D02*
X43446359Y-59520000D01*
X43753641Y-60280000D02*
X43446359Y-60280000D01*
G04 #@! TO.C,R13*
X40093642Y-59570000D02*
X39786360Y-59570000D01*
X40093642Y-60330000D02*
X39786360Y-60330000D01*
G04 #@! TO.C,R14*
X50953641Y-55779999D02*
X50646359Y-55779999D01*
X50953641Y-55019999D02*
X50646359Y-55019999D01*
G04 #@! TO.C,R15*
X47353641Y-55780000D02*
X47046359Y-55780000D01*
X47353641Y-55020000D02*
X47046359Y-55020000D01*
G04 #@! TO.C,R16*
X30296359Y-48280000D02*
X30603641Y-48280000D01*
X30296359Y-47520000D02*
X30603641Y-47520000D01*
G04 #@! TO.C,R17*
X30296359Y-43770000D02*
X30603641Y-43770000D01*
X30296359Y-44530000D02*
X30603641Y-44530000D01*
G04 #@! TO.C,R18*
X49046359Y-60330000D02*
X49353641Y-60330000D01*
X49046359Y-59570000D02*
X49353641Y-59570000D01*
G04 #@! TO.C,R19*
X45421359Y-60280000D02*
X45728641Y-60280000D01*
X45421359Y-59520000D02*
X45728641Y-59520000D01*
G04 #@! TO.C,U1*
X62235000Y-33850000D02*
X62235000Y-39860000D01*
X55415000Y-36100000D02*
X55415000Y-39860000D01*
X62235000Y-39860000D02*
X60975000Y-39860000D01*
X55415000Y-39860000D02*
X56675000Y-39860000D01*
G04 #@! TO.C,U2*
X40354308Y-42165381D02*
X39894689Y-42625000D01*
X50105311Y-42625000D02*
X49645692Y-42165381D01*
X49645692Y-43084619D02*
X50105311Y-42625000D01*
X45000000Y-47730311D02*
X44540381Y-47270692D01*
X45459619Y-47270692D02*
X45000000Y-47730311D01*
X45000000Y-37519689D02*
X45459619Y-37979308D01*
X44540381Y-37979308D02*
X45000000Y-37519689D01*
D14*
G04 #@! TO.C,U3*
X29275000Y-44900000D02*
X30775000Y-44900000D01*
X27775000Y-47150000D02*
X30775000Y-47150000D01*
D12*
G04 #@! TO.C,U4*
X27985000Y-38775000D02*
X27985000Y-40450000D01*
X27725000Y-38775000D02*
X27985000Y-38775000D01*
X27725000Y-36050000D02*
X27725000Y-38775000D01*
X27725000Y-33325000D02*
X27985000Y-33325000D01*
X27725000Y-36050000D02*
X27725000Y-33325000D01*
X33175000Y-38775000D02*
X32915000Y-38775000D01*
X33175000Y-36050000D02*
X33175000Y-38775000D01*
X33175000Y-33325000D02*
X32915000Y-33325000D01*
X33175000Y-36050000D02*
X33175000Y-33325000D01*
G04 #@! TO.C,Y1*
X50076776Y-46711953D02*
X47248349Y-49540380D01*
X52410229Y-49045406D02*
X50076776Y-46711953D01*
G04 #@! TO.C,C1*
X51443023Y-47526657D02*
X51595526Y-47679160D01*
X51952140Y-47017540D02*
X52104643Y-47170043D01*
D11*
G04 #@! TO.C,J1*
X49400000Y-26250001D02*
X49400000Y-19150001D01*
X40600000Y-26250001D02*
X40600000Y-19150001D01*
X40600000Y-19150001D02*
X49400000Y-19150001D01*
X49400000Y-26250001D02*
X40600000Y-26250001D01*
X40800000Y-20250001D02*
X49200000Y-20250001D01*
D15*
X45000000Y-25770001D02*
X45000000Y-19450001D01*
D11*
X44733333Y-23461905D02*
X44733333Y-24033334D01*
X44695238Y-24147620D01*
X44619047Y-24223810D01*
X44504761Y-24261905D01*
X44428571Y-24261905D01*
X45533333Y-24261905D02*
X45076190Y-24261905D01*
X45304761Y-24261905D02*
X45304761Y-23461905D01*
X45228571Y-23576191D01*
X45152380Y-23652381D01*
X45076190Y-23690477D01*
G04 #@! TD*
M02*
