G04 #@! TF.GenerationSoftware,KiCad,Pcbnew,5.1.10*
G04 #@! TF.CreationDate,2021-06-17T07:00:03-06:00*
G04 #@! TF.ProjectId,cable-link,6361626c-652d-46c6-996e-6b2e6b696361,rev?*
G04 #@! TF.SameCoordinates,Original*
G04 #@! TF.FileFunction,Soldermask,Bot*
G04 #@! TF.FilePolarity,Negative*
%FSLAX46Y46*%
G04 Gerber Fmt 4.6, Leading zero omitted, Abs format (unit mm)*
G04 Created by KiCad (PCBNEW 5.1.10) date 2021-06-17 07:00:03*
%MOMM*%
%LPD*%
G01*
G04 APERTURE LIST*
%ADD10C,0.800000*%
%ADD11C,6.400000*%
%ADD12O,1.270000X2.540000*%
%ADD13C,3.500000*%
%ADD14C,0.670000*%
G04 APERTURE END LIST*
D10*
G04 #@! TO.C,H4*
X25394112Y-64605888D03*
X23697056Y-63902944D03*
X22000000Y-64605888D03*
X21297056Y-66302944D03*
X22000000Y-68000000D03*
X23697056Y-68702944D03*
X25394112Y-68000000D03*
X26097056Y-66302944D03*
D11*
X23697056Y-66302944D03*
G04 #@! TD*
D10*
G04 #@! TO.C,H3*
X67947056Y-64552944D03*
X66250000Y-63850000D03*
X64552944Y-64552944D03*
X63850000Y-66250000D03*
X64552944Y-67947056D03*
X66250000Y-68650000D03*
X67947056Y-67947056D03*
X68650000Y-66250000D03*
D11*
X66250000Y-66250000D03*
G04 #@! TD*
D10*
G04 #@! TO.C,H2*
X67947056Y-22052944D03*
X66250000Y-21350000D03*
X64552944Y-22052944D03*
X63850000Y-23750000D03*
X64552944Y-25447056D03*
X66250000Y-26150000D03*
X67947056Y-25447056D03*
X68650000Y-23750000D03*
D11*
X66250000Y-23750000D03*
G04 #@! TD*
D10*
G04 #@! TO.C,H1*
X25447056Y-22052944D03*
X23750000Y-21350000D03*
X22052944Y-22052944D03*
X21350000Y-23750000D03*
X22052944Y-25447056D03*
X23750000Y-26150000D03*
X25447056Y-25447056D03*
X26150000Y-23750000D03*
D11*
X23750000Y-23750000D03*
G04 #@! TD*
D12*
G04 #@! TO.C,J3*
X46930000Y-64890000D03*
X45000000Y-64890000D03*
X43070000Y-64890000D03*
X46930000Y-67700000D03*
X45000000Y-67700000D03*
X43070000Y-67700000D03*
D13*
X50250000Y-67395000D03*
X39780000Y-67395000D03*
G04 #@! TD*
G04 #@! TO.C,J1*
G36*
G01*
X49820000Y-25630001D02*
X49820000Y-26230001D01*
G75*
G02*
X49320000Y-26730001I-500000J0D01*
G01*
X49320000Y-26730001D01*
G75*
G02*
X48820000Y-26230001I0J500000D01*
G01*
X48820000Y-25630001D01*
G75*
G02*
X49320000Y-25130001I500000J0D01*
G01*
X49320000Y-25130001D01*
G75*
G02*
X49820000Y-25630001I0J-500000D01*
G01*
G37*
G36*
G01*
X41180000Y-25630001D02*
X41180000Y-26230001D01*
G75*
G02*
X40680000Y-26730001I-500000J0D01*
G01*
X40680000Y-26730001D01*
G75*
G02*
X40180000Y-26230001I0J500000D01*
G01*
X40180000Y-25630001D01*
G75*
G02*
X40680000Y-25130001I500000J0D01*
G01*
X40680000Y-25130001D01*
G75*
G02*
X41180000Y-25630001I0J-500000D01*
G01*
G37*
G36*
G01*
X41180000Y-21450001D02*
X41180000Y-22050001D01*
G75*
G02*
X40680000Y-22550001I-500000J0D01*
G01*
X40680000Y-22550001D01*
G75*
G02*
X40180000Y-22050001I0J500000D01*
G01*
X40180000Y-21450001D01*
G75*
G02*
X40680000Y-20950001I500000J0D01*
G01*
X40680000Y-20950001D01*
G75*
G02*
X41180000Y-21450001I0J-500000D01*
G01*
G37*
G36*
G01*
X49820000Y-21450001D02*
X49820000Y-22050001D01*
G75*
G02*
X49320000Y-22550001I-500000J0D01*
G01*
X49320000Y-22550001D01*
G75*
G02*
X48820000Y-22050001I0J500000D01*
G01*
X48820000Y-21450001D01*
G75*
G02*
X49320000Y-20950001I500000J0D01*
G01*
X49320000Y-20950001D01*
G75*
G02*
X49820000Y-21450001I0J-500000D01*
G01*
G37*
D14*
X47900000Y-25400001D03*
X42100000Y-25400001D03*
G04 #@! TD*
M02*
