%FSLAX45Y45*%
G04 Gerber Fmt 4.5, Leading zero omitted, Abs format (unit mm)*
G04 Created by KiCad (PCBNEW (5.1.10)-1) date 2021-06-26 18:26:51*
%MOMM*%
%LPD*%
G01*
G04 APERTURE LIST*
%TA.AperFunction,Profile*%
%ADD10C,0.100000*%
%TD*%
%ADD11C,0.200000*%
%ADD12C,0.300000*%
G04 APERTURE END LIST*
D10*
X2100000Y-6100000D02*
X1500000Y-5500000D01*
X5100000Y-5500000D02*
X4500000Y-6100000D01*
X4500000Y-1500000D02*
X5100000Y-2030000D01*
X2100000Y-1500000D02*
X1500000Y-2030000D01*
X5100000Y-2030000D02*
X5100000Y-5500000D01*
X2100000Y-1500000D02*
X4500000Y-1500000D01*
X1500000Y-5500000D02*
X1500000Y-2030000D01*
X4500000Y-6100000D02*
X2100000Y-6100000D01*
D11*
X4552500Y-3527500D02*
X4617500Y-3592500D01*
X4617500Y-3527500D02*
X4552500Y-3592500D01*
X4552500Y-4107500D02*
X4617500Y-4172500D01*
X4617500Y-4107500D02*
X4552500Y-4172500D01*
D12*
X1781428Y-6570714D02*
X1781428Y-6270714D01*
X1852857Y-6270714D01*
X1895714Y-6285000D01*
X1924286Y-6313571D01*
X1938571Y-6342143D01*
X1952857Y-6399286D01*
X1952857Y-6442143D01*
X1938571Y-6499286D01*
X1924286Y-6527857D01*
X1895714Y-6556429D01*
X1852857Y-6570714D01*
X1781428Y-6570714D01*
X2081428Y-6570714D02*
X2081428Y-6370714D01*
X2081428Y-6427857D02*
X2095714Y-6399286D01*
X2110000Y-6385000D01*
X2138571Y-6370714D01*
X2167143Y-6370714D01*
X2267143Y-6570714D02*
X2267143Y-6370714D01*
X2267143Y-6270714D02*
X2252857Y-6285000D01*
X2267143Y-6299286D01*
X2281428Y-6285000D01*
X2267143Y-6270714D01*
X2267143Y-6299286D01*
X2452857Y-6570714D02*
X2424286Y-6556429D01*
X2410000Y-6527857D01*
X2410000Y-6270714D01*
X2610000Y-6570714D02*
X2581428Y-6556429D01*
X2567143Y-6527857D01*
X2567143Y-6270714D01*
X2952857Y-6570714D02*
X2952857Y-6270714D01*
X3052857Y-6485000D01*
X3152857Y-6270714D01*
X3152857Y-6570714D01*
X3424286Y-6570714D02*
X3424286Y-6413571D01*
X3410000Y-6385000D01*
X3381428Y-6370714D01*
X3324286Y-6370714D01*
X3295714Y-6385000D01*
X3424286Y-6556429D02*
X3395714Y-6570714D01*
X3324286Y-6570714D01*
X3295714Y-6556429D01*
X3281428Y-6527857D01*
X3281428Y-6499286D01*
X3295714Y-6470714D01*
X3324286Y-6456429D01*
X3395714Y-6456429D01*
X3424286Y-6442143D01*
X3567143Y-6370714D02*
X3567143Y-6670714D01*
X3567143Y-6385000D02*
X3595714Y-6370714D01*
X3652857Y-6370714D01*
X3681428Y-6385000D01*
X3695714Y-6399286D01*
X3710000Y-6427857D01*
X3710000Y-6513571D01*
X3695714Y-6542143D01*
X3681428Y-6556429D01*
X3652857Y-6570714D01*
X3595714Y-6570714D01*
X3567143Y-6556429D01*
X3838571Y-6542143D02*
X3852857Y-6556429D01*
X3838571Y-6570714D01*
X3824286Y-6556429D01*
X3838571Y-6542143D01*
X3838571Y-6570714D01*
X3838571Y-6385000D02*
X3852857Y-6399286D01*
X3838571Y-6413571D01*
X3824286Y-6399286D01*
X3838571Y-6385000D01*
X3838571Y-6413571D01*
X1430000Y-7032500D02*
X1495000Y-7097500D01*
X1495000Y-7032500D02*
X1430000Y-7097500D01*
X1838571Y-6900714D02*
X1867143Y-6900714D01*
X1895714Y-6915000D01*
X1910000Y-6929286D01*
X1924286Y-6957857D01*
X1938571Y-7015000D01*
X1938571Y-7086429D01*
X1924286Y-7143571D01*
X1910000Y-7172143D01*
X1895714Y-7186429D01*
X1867143Y-7200714D01*
X1838571Y-7200714D01*
X1810000Y-7186429D01*
X1795714Y-7172143D01*
X1781428Y-7143571D01*
X1767143Y-7086429D01*
X1767143Y-7015000D01*
X1781428Y-6957857D01*
X1795714Y-6929286D01*
X1810000Y-6915000D01*
X1838571Y-6900714D01*
X2067143Y-7172143D02*
X2081428Y-7186429D01*
X2067143Y-7200714D01*
X2052857Y-7186429D01*
X2067143Y-7172143D01*
X2067143Y-7200714D01*
X2338571Y-6900714D02*
X2281428Y-6900714D01*
X2252857Y-6915000D01*
X2238571Y-6929286D01*
X2210000Y-6972143D01*
X2195714Y-7029286D01*
X2195714Y-7143571D01*
X2210000Y-7172143D01*
X2224286Y-7186429D01*
X2252857Y-7200714D01*
X2310000Y-7200714D01*
X2338571Y-7186429D01*
X2352857Y-7172143D01*
X2367143Y-7143571D01*
X2367143Y-7072143D01*
X2352857Y-7043571D01*
X2338571Y-7029286D01*
X2310000Y-7015000D01*
X2252857Y-7015000D01*
X2224286Y-7029286D01*
X2210000Y-7043571D01*
X2195714Y-7072143D01*
X2638571Y-6900714D02*
X2495714Y-6900714D01*
X2481428Y-7043571D01*
X2495714Y-7029286D01*
X2524286Y-7015000D01*
X2595714Y-7015000D01*
X2624286Y-7029286D01*
X2638571Y-7043571D01*
X2652857Y-7072143D01*
X2652857Y-7143571D01*
X2638571Y-7172143D01*
X2624286Y-7186429D01*
X2595714Y-7200714D01*
X2524286Y-7200714D01*
X2495714Y-7186429D01*
X2481428Y-7172143D01*
X2838571Y-6900714D02*
X2867143Y-6900714D01*
X2895714Y-6915000D01*
X2910000Y-6929286D01*
X2924286Y-6957857D01*
X2938571Y-7015000D01*
X2938571Y-7086429D01*
X2924286Y-7143571D01*
X2910000Y-7172143D01*
X2895714Y-7186429D01*
X2867143Y-7200714D01*
X2838571Y-7200714D01*
X2810000Y-7186429D01*
X2795714Y-7172143D01*
X2781428Y-7143571D01*
X2767143Y-7086429D01*
X2767143Y-7015000D01*
X2781428Y-6957857D01*
X2795714Y-6929286D01*
X2810000Y-6915000D01*
X2838571Y-6900714D01*
X3067143Y-7200714D02*
X3067143Y-7000714D01*
X3067143Y-7029286D02*
X3081428Y-7015000D01*
X3110000Y-7000714D01*
X3152857Y-7000714D01*
X3181428Y-7015000D01*
X3195714Y-7043571D01*
X3195714Y-7200714D01*
X3195714Y-7043571D02*
X3210000Y-7015000D01*
X3238571Y-7000714D01*
X3281428Y-7000714D01*
X3310000Y-7015000D01*
X3324286Y-7043571D01*
X3324286Y-7200714D01*
X3467143Y-7200714D02*
X3467143Y-7000714D01*
X3467143Y-7029286D02*
X3481428Y-7015000D01*
X3510000Y-7000714D01*
X3552857Y-7000714D01*
X3581428Y-7015000D01*
X3595714Y-7043571D01*
X3595714Y-7200714D01*
X3595714Y-7043571D02*
X3610000Y-7015000D01*
X3638571Y-7000714D01*
X3681428Y-7000714D01*
X3710000Y-7015000D01*
X3724286Y-7043571D01*
X3724286Y-7200714D01*
X4310000Y-6886429D02*
X4052857Y-7272143D01*
X4695714Y-6900714D02*
X4724286Y-6900714D01*
X4752857Y-6915000D01*
X4767143Y-6929286D01*
X4781428Y-6957857D01*
X4795714Y-7015000D01*
X4795714Y-7086429D01*
X4781428Y-7143571D01*
X4767143Y-7172143D01*
X4752857Y-7186429D01*
X4724286Y-7200714D01*
X4695714Y-7200714D01*
X4667143Y-7186429D01*
X4652857Y-7172143D01*
X4638571Y-7143571D01*
X4624286Y-7086429D01*
X4624286Y-7015000D01*
X4638571Y-6957857D01*
X4652857Y-6929286D01*
X4667143Y-6915000D01*
X4695714Y-6900714D01*
X4924286Y-7172143D02*
X4938571Y-7186429D01*
X4924286Y-7200714D01*
X4910000Y-7186429D01*
X4924286Y-7172143D01*
X4924286Y-7200714D01*
X5124286Y-6900714D02*
X5152857Y-6900714D01*
X5181428Y-6915000D01*
X5195714Y-6929286D01*
X5210000Y-6957857D01*
X5224286Y-7015000D01*
X5224286Y-7086429D01*
X5210000Y-7143571D01*
X5195714Y-7172143D01*
X5181428Y-7186429D01*
X5152857Y-7200714D01*
X5124286Y-7200714D01*
X5095714Y-7186429D01*
X5081428Y-7172143D01*
X5067143Y-7143571D01*
X5052857Y-7086429D01*
X5052857Y-7015000D01*
X5067143Y-6957857D01*
X5081428Y-6929286D01*
X5095714Y-6915000D01*
X5124286Y-6900714D01*
X5338571Y-6929286D02*
X5352857Y-6915000D01*
X5381428Y-6900714D01*
X5452857Y-6900714D01*
X5481428Y-6915000D01*
X5495714Y-6929286D01*
X5510000Y-6957857D01*
X5510000Y-6986429D01*
X5495714Y-7029286D01*
X5324286Y-7200714D01*
X5510000Y-7200714D01*
X5781428Y-6900714D02*
X5638571Y-6900714D01*
X5624286Y-7043571D01*
X5638571Y-7029286D01*
X5667143Y-7015000D01*
X5738571Y-7015000D01*
X5767143Y-7029286D01*
X5781428Y-7043571D01*
X5795714Y-7072143D01*
X5795714Y-7143571D01*
X5781428Y-7172143D01*
X5767143Y-7186429D01*
X5738571Y-7200714D01*
X5667143Y-7200714D01*
X5638571Y-7186429D01*
X5624286Y-7172143D01*
X6052857Y-6900714D02*
X5995714Y-6900714D01*
X5967143Y-6915000D01*
X5952857Y-6929286D01*
X5924286Y-6972143D01*
X5910000Y-7029286D01*
X5910000Y-7143571D01*
X5924286Y-7172143D01*
X5938571Y-7186429D01*
X5967143Y-7200714D01*
X6024286Y-7200714D01*
X6052857Y-7186429D01*
X6067143Y-7172143D01*
X6081428Y-7143571D01*
X6081428Y-7072143D01*
X6067143Y-7043571D01*
X6052857Y-7029286D01*
X6024286Y-7015000D01*
X5967143Y-7015000D01*
X5938571Y-7029286D01*
X5924286Y-7043571D01*
X5910000Y-7072143D01*
X6195714Y-6900714D02*
X6195714Y-6957857D01*
X6310000Y-6900714D02*
X6310000Y-6957857D01*
X6752857Y-7315000D02*
X6738571Y-7300714D01*
X6710000Y-7257857D01*
X6695714Y-7229286D01*
X6681428Y-7186429D01*
X6667143Y-7115000D01*
X6667143Y-7057857D01*
X6681428Y-6986429D01*
X6695714Y-6943571D01*
X6710000Y-6915000D01*
X6738571Y-6872143D01*
X6752857Y-6857857D01*
X6852857Y-6929286D02*
X6867143Y-6915000D01*
X6895714Y-6900714D01*
X6967143Y-6900714D01*
X6995714Y-6915000D01*
X7010000Y-6929286D01*
X7024286Y-6957857D01*
X7024286Y-6986429D01*
X7010000Y-7029286D01*
X6838571Y-7200714D01*
X7024286Y-7200714D01*
X7381428Y-7200714D02*
X7381428Y-6900714D01*
X7510000Y-7200714D02*
X7510000Y-7043571D01*
X7495714Y-7015000D01*
X7467143Y-7000714D01*
X7424286Y-7000714D01*
X7395714Y-7015000D01*
X7381428Y-7029286D01*
X7695714Y-7200714D02*
X7667143Y-7186429D01*
X7652857Y-7172143D01*
X7638571Y-7143571D01*
X7638571Y-7057857D01*
X7652857Y-7029286D01*
X7667143Y-7015000D01*
X7695714Y-7000714D01*
X7738571Y-7000714D01*
X7767143Y-7015000D01*
X7781428Y-7029286D01*
X7795714Y-7057857D01*
X7795714Y-7143571D01*
X7781428Y-7172143D01*
X7767143Y-7186429D01*
X7738571Y-7200714D01*
X7695714Y-7200714D01*
X7967143Y-7200714D02*
X7938571Y-7186429D01*
X7924286Y-7157857D01*
X7924286Y-6900714D01*
X8195714Y-7186429D02*
X8167143Y-7200714D01*
X8110000Y-7200714D01*
X8081428Y-7186429D01*
X8067143Y-7157857D01*
X8067143Y-7043571D01*
X8081428Y-7015000D01*
X8110000Y-7000714D01*
X8167143Y-7000714D01*
X8195714Y-7015000D01*
X8210000Y-7043571D01*
X8210000Y-7072143D01*
X8067143Y-7100714D01*
X8324286Y-7186429D02*
X8352857Y-7200714D01*
X8410000Y-7200714D01*
X8438571Y-7186429D01*
X8452857Y-7157857D01*
X8452857Y-7143571D01*
X8438571Y-7115000D01*
X8410000Y-7100714D01*
X8367143Y-7100714D01*
X8338571Y-7086429D01*
X8324286Y-7057857D01*
X8324286Y-7043571D01*
X8338571Y-7015000D01*
X8367143Y-7000714D01*
X8410000Y-7000714D01*
X8438571Y-7015000D01*
X8552857Y-7315000D02*
X8567143Y-7300714D01*
X8595714Y-7257857D01*
X8610000Y-7229286D01*
X8624286Y-7186429D01*
X8638571Y-7115000D01*
X8638571Y-7057857D01*
X8624286Y-6986429D01*
X8610000Y-6943571D01*
X8595714Y-6915000D01*
X8567143Y-6872143D01*
X8552857Y-6857857D01*
X9095714Y-7315000D02*
X9081428Y-7300714D01*
X9052857Y-7257857D01*
X9038571Y-7229286D01*
X9024286Y-7186429D01*
X9010000Y-7115000D01*
X9010000Y-7057857D01*
X9024286Y-6986429D01*
X9038571Y-6943571D01*
X9052857Y-6915000D01*
X9081428Y-6872143D01*
X9095714Y-6857857D01*
X9210000Y-7000714D02*
X9210000Y-7200714D01*
X9210000Y-7029286D02*
X9224286Y-7015000D01*
X9252857Y-7000714D01*
X9295714Y-7000714D01*
X9324286Y-7015000D01*
X9338571Y-7043571D01*
X9338571Y-7200714D01*
X9524286Y-7200714D02*
X9495714Y-7186429D01*
X9481428Y-7172143D01*
X9467143Y-7143571D01*
X9467143Y-7057857D01*
X9481428Y-7029286D01*
X9495714Y-7015000D01*
X9524286Y-7000714D01*
X9567143Y-7000714D01*
X9595714Y-7015000D01*
X9610000Y-7029286D01*
X9624286Y-7057857D01*
X9624286Y-7143571D01*
X9610000Y-7172143D01*
X9595714Y-7186429D01*
X9567143Y-7200714D01*
X9524286Y-7200714D01*
X9710000Y-7000714D02*
X9824286Y-7000714D01*
X9752857Y-6900714D02*
X9752857Y-7157857D01*
X9767143Y-7186429D01*
X9795714Y-7200714D01*
X9824286Y-7200714D01*
X10152857Y-7000714D02*
X10152857Y-7300714D01*
X10152857Y-7015000D02*
X10181428Y-7000714D01*
X10238571Y-7000714D01*
X10267143Y-7015000D01*
X10281428Y-7029286D01*
X10295714Y-7057857D01*
X10295714Y-7143571D01*
X10281428Y-7172143D01*
X10267143Y-7186429D01*
X10238571Y-7200714D01*
X10181428Y-7200714D01*
X10152857Y-7186429D01*
X10467143Y-7200714D02*
X10438571Y-7186429D01*
X10424286Y-7157857D01*
X10424286Y-6900714D01*
X10710000Y-7200714D02*
X10710000Y-7043571D01*
X10695714Y-7015000D01*
X10667143Y-7000714D01*
X10610000Y-7000714D01*
X10581428Y-7015000D01*
X10710000Y-7186429D02*
X10681428Y-7200714D01*
X10610000Y-7200714D01*
X10581428Y-7186429D01*
X10567143Y-7157857D01*
X10567143Y-7129286D01*
X10581428Y-7100714D01*
X10610000Y-7086429D01*
X10681428Y-7086429D01*
X10710000Y-7072143D01*
X10810000Y-7000714D02*
X10924286Y-7000714D01*
X10852857Y-6900714D02*
X10852857Y-7157857D01*
X10867143Y-7186429D01*
X10895714Y-7200714D01*
X10924286Y-7200714D01*
X11138571Y-7186429D02*
X11110000Y-7200714D01*
X11052857Y-7200714D01*
X11024286Y-7186429D01*
X11010000Y-7157857D01*
X11010000Y-7043571D01*
X11024286Y-7015000D01*
X11052857Y-7000714D01*
X11110000Y-7000714D01*
X11138571Y-7015000D01*
X11152857Y-7043571D01*
X11152857Y-7072143D01*
X11010000Y-7100714D01*
X11410000Y-7200714D02*
X11410000Y-6900714D01*
X11410000Y-7186429D02*
X11381428Y-7200714D01*
X11324286Y-7200714D01*
X11295714Y-7186429D01*
X11281428Y-7172143D01*
X11267143Y-7143571D01*
X11267143Y-7057857D01*
X11281428Y-7029286D01*
X11295714Y-7015000D01*
X11324286Y-7000714D01*
X11381428Y-7000714D01*
X11410000Y-7015000D01*
X11524286Y-7315000D02*
X11538571Y-7300714D01*
X11567143Y-7257857D01*
X11581428Y-7229286D01*
X11595714Y-7186429D01*
X11610000Y-7115000D01*
X11610000Y-7057857D01*
X11595714Y-6986429D01*
X11581428Y-6943571D01*
X11567143Y-6915000D01*
X11538571Y-6872143D01*
X11524286Y-6857857D01*
M02*
