M48
; DRILL file {KiCad (5.1.10)-1} date 06/26/21 18:26:35
; FORMAT={-:-/ absolute / metric / decimal}
; #@! TF.CreationDate,2021-06-26T18:26:35-06:00
; #@! TF.GenerationSoftware,Kicad,Pcbnew,(5.1.10)-1
; #@! TF.FileFunction,Plated,1,4,PTH
FMAT,2
METRIC
T1C0.350
T2C0.400
T3C0.600
T4C0.900
T5C1.000
T6C2.200
%
G90
G05
T1
X31.497Y-40.5
X32.398Y-39.598
X32.398Y-41.402
X33.3Y-38.697
X33.3Y-40.5
X33.3Y-42.303
X34.202Y-39.598
X34.202Y-41.402
X35.103Y-40.5
T2
X19.5Y-51.2
X21.6Y-48.2
X21.6Y-53.1
X24.4Y-59.3
X24.6Y-47.4
X24.6Y-48.4
X24.6Y-49.4
X24.6Y-50.4
X25.7Y-54.2
X26.9Y-59.3
X26.914Y-42.714
X27.725Y-50.5
X28.8Y-19.5
X29.249Y-36.141
X29.9Y-36.9
X30.293Y-35.193
X30.9Y-50.2
X30.9Y-59.3
X31.0Y-35.9
X32.7Y-46.7
X33.9Y-46.7
X34.9Y-25.2
X34.9Y-46.7
X35.2Y-52.5
X35.9Y-46.7
X36.7Y-19.4
X36.9Y-46.7
X37.7Y-42.9
X37.803Y-21.9
X37.9Y-20.4
X37.9Y-46.7
X38.5Y-43.6
X38.9Y-46.7
X39.9Y-46.7
X40.9Y-41.2
X40.9Y-42.7
X41.0Y-46.7
X41.6Y-39.8
X41.8Y-57.5
X41.8Y-58.5
X42.0Y-53.8
X42.0Y-54.8
X42.2Y-24.3
X43.3Y-24.3
X43.6Y-46.6
X43.7Y-19.6
X43.7Y-20.6
X44.3Y-24.3
X47.4Y-26.6
X47.5Y-28.5
X47.5Y-30.2
T4
X18.79Y-36.07
X18.79Y-38.0
X18.79Y-39.93
X20.4Y-36.07
X20.4Y-38.0
X20.4Y-39.93
T5
X24.0Y-16.5
X26.54Y-16.5
X29.08Y-16.5
X31.62Y-16.5
X34.16Y-16.5
X36.7Y-16.5
X39.24Y-16.5
X41.78Y-16.5
T6
X18.0Y-22.0
X18.1Y-54.7
X18.495Y-32.78
X18.495Y-43.25
X48.0Y-22.0
X48.0Y-54.7
T3
X45.02Y-34.18G85X45.62Y-34.18
G05
X45.02Y-42.82G85X45.62Y-42.82
G05
X49.2Y-34.18G85X49.8Y-34.18
G05
X49.2Y-42.82G85X49.8Y-42.82
G05
T0
M30
