G04 #@! TF.GenerationSoftware,KiCad,Pcbnew,(5.1.10)-1*
G04 #@! TF.CreationDate,2021-06-26T18:25:47-06:00*
G04 #@! TF.ProjectId,cable-link,6361626c-652d-46c6-996e-6b2e6b696361,rev?*
G04 #@! TF.SameCoordinates,Original*
G04 #@! TF.FileFunction,Legend,Bot*
G04 #@! TF.FilePolarity,Positive*
%FSLAX46Y46*%
G04 Gerber Fmt 4.6, Leading zero omitted, Abs format (unit mm)*
G04 Created by KiCad (PCBNEW (5.1.10)-1) date 2021-06-26 18:25:47*
%MOMM*%
%LPD*%
G01*
G04 APERTURE LIST*
%ADD10C,0.670000*%
%ADD11O,2.540000X1.270000*%
%ADD12C,3.500000*%
%ADD13R,1.700000X1.700000*%
%ADD14O,1.700000X1.700000*%
%ADD15C,3.800000*%
G04 APERTURE END LIST*
%LPC*%
G36*
G01*
X45620000Y-43320000D02*
X45020000Y-43320000D01*
G75*
G02*
X44520000Y-42820000I0J500000D01*
G01*
X44520000Y-42820000D01*
G75*
G02*
X45020000Y-42320000I500000J0D01*
G01*
X45620000Y-42320000D01*
G75*
G02*
X46120000Y-42820000I0J-500000D01*
G01*
X46120000Y-42820000D01*
G75*
G02*
X45620000Y-43320000I-500000J0D01*
G01*
G37*
G36*
G01*
X45620000Y-34680000D02*
X45020000Y-34680000D01*
G75*
G02*
X44520000Y-34180000I0J500000D01*
G01*
X44520000Y-34180000D01*
G75*
G02*
X45020000Y-33680000I500000J0D01*
G01*
X45620000Y-33680000D01*
G75*
G02*
X46120000Y-34180000I0J-500000D01*
G01*
X46120000Y-34180000D01*
G75*
G02*
X45620000Y-34680000I-500000J0D01*
G01*
G37*
G36*
G01*
X49800000Y-34680000D02*
X49200000Y-34680000D01*
G75*
G02*
X48700000Y-34180000I0J500000D01*
G01*
X48700000Y-34180000D01*
G75*
G02*
X49200000Y-33680000I500000J0D01*
G01*
X49800000Y-33680000D01*
G75*
G02*
X50300000Y-34180000I0J-500000D01*
G01*
X50300000Y-34180000D01*
G75*
G02*
X49800000Y-34680000I-500000J0D01*
G01*
G37*
G36*
G01*
X49800000Y-43320000D02*
X49200000Y-43320000D01*
G75*
G02*
X48700000Y-42820000I0J500000D01*
G01*
X48700000Y-42820000D01*
G75*
G02*
X49200000Y-42320000I500000J0D01*
G01*
X49800000Y-42320000D01*
G75*
G02*
X50300000Y-42820000I0J-500000D01*
G01*
X50300000Y-42820000D01*
G75*
G02*
X49800000Y-43320000I-500000J0D01*
G01*
G37*
D10*
X45850000Y-41400000D03*
X45850000Y-35600000D03*
D11*
X21000000Y-39930000D03*
X21000000Y-38000000D03*
X21000000Y-36070000D03*
X18190000Y-39930000D03*
X18190000Y-38000000D03*
X18190000Y-36070000D03*
D12*
X18495000Y-43250000D03*
X18495000Y-32780000D03*
D13*
X24000000Y-16500000D03*
D14*
X26540000Y-16500000D03*
X29080000Y-16500000D03*
X31620000Y-16500000D03*
X34160000Y-16500000D03*
X36700000Y-16500000D03*
X39240000Y-16500000D03*
X41780000Y-16500000D03*
D15*
X18000000Y-22000000D03*
X48000000Y-22000000D03*
X18100000Y-54700000D03*
X48000000Y-54700000D03*
M02*
