G04 #@! TF.GenerationSoftware,KiCad,Pcbnew,(5.1.10)-1*
G04 #@! TF.CreationDate,2021-06-26T18:25:47-06:00*
G04 #@! TF.ProjectId,cable-link,6361626c-652d-46c6-996e-6b2e6b696361,rev?*
G04 #@! TF.SameCoordinates,Original*
G04 #@! TF.FileFunction,Copper,L2,Inr*
G04 #@! TF.FilePolarity,Positive*
%FSLAX46Y46*%
G04 Gerber Fmt 4.6, Leading zero omitted, Abs format (unit mm)*
G04 Created by KiCad (PCBNEW (5.1.10)-1) date 2021-06-26 18:25:47*
%MOMM*%
%LPD*%
G01*
G04 APERTURE LIST*
G04 #@! TA.AperFunction,ComponentPad*
%ADD10O,2.540000X1.270000*%
G04 #@! TD*
G04 #@! TA.AperFunction,ComponentPad*
%ADD11C,3.500000*%
G04 #@! TD*
G04 #@! TA.AperFunction,ComponentPad*
%ADD12C,0.600000*%
G04 #@! TD*
G04 #@! TA.AperFunction,ComponentPad*
%ADD13R,1.700000X1.700000*%
G04 #@! TD*
G04 #@! TA.AperFunction,ComponentPad*
%ADD14O,1.700000X1.700000*%
G04 #@! TD*
G04 #@! TA.AperFunction,ComponentPad*
%ADD15C,3.800000*%
G04 #@! TD*
G04 #@! TA.AperFunction,ViaPad*
%ADD16C,0.800000*%
G04 #@! TD*
G04 #@! TA.AperFunction,Conductor*
%ADD17C,0.254000*%
G04 #@! TD*
G04 #@! TA.AperFunction,Conductor*
%ADD18C,0.100000*%
G04 #@! TD*
G04 APERTURE END LIST*
G04 #@! TA.AperFunction,ComponentPad*
G36*
G01*
X45620000Y-43320000D02*
X45020000Y-43320000D01*
G75*
G02*
X44520000Y-42820000I0J500000D01*
G01*
X44520000Y-42820000D01*
G75*
G02*
X45020000Y-42320000I500000J0D01*
G01*
X45620000Y-42320000D01*
G75*
G02*
X46120000Y-42820000I0J-500000D01*
G01*
X46120000Y-42820000D01*
G75*
G02*
X45620000Y-43320000I-500000J0D01*
G01*
G37*
G04 #@! TD.AperFunction*
G04 #@! TA.AperFunction,ComponentPad*
G36*
G01*
X45620000Y-34680000D02*
X45020000Y-34680000D01*
G75*
G02*
X44520000Y-34180000I0J500000D01*
G01*
X44520000Y-34180000D01*
G75*
G02*
X45020000Y-33680000I500000J0D01*
G01*
X45620000Y-33680000D01*
G75*
G02*
X46120000Y-34180000I0J-500000D01*
G01*
X46120000Y-34180000D01*
G75*
G02*
X45620000Y-34680000I-500000J0D01*
G01*
G37*
G04 #@! TD.AperFunction*
G04 #@! TA.AperFunction,ComponentPad*
G36*
G01*
X49800000Y-34680000D02*
X49200000Y-34680000D01*
G75*
G02*
X48700000Y-34180000I0J500000D01*
G01*
X48700000Y-34180000D01*
G75*
G02*
X49200000Y-33680000I500000J0D01*
G01*
X49800000Y-33680000D01*
G75*
G02*
X50300000Y-34180000I0J-500000D01*
G01*
X50300000Y-34180000D01*
G75*
G02*
X49800000Y-34680000I-500000J0D01*
G01*
G37*
G04 #@! TD.AperFunction*
G04 #@! TA.AperFunction,ComponentPad*
G36*
G01*
X49800000Y-43320000D02*
X49200000Y-43320000D01*
G75*
G02*
X48700000Y-42820000I0J500000D01*
G01*
X48700000Y-42820000D01*
G75*
G02*
X49200000Y-42320000I500000J0D01*
G01*
X49800000Y-42320000D01*
G75*
G02*
X50300000Y-42820000I0J-500000D01*
G01*
X50300000Y-42820000D01*
G75*
G02*
X49800000Y-43320000I-500000J0D01*
G01*
G37*
G04 #@! TD.AperFunction*
D10*
X21000000Y-39930000D03*
X21000000Y-38000000D03*
X21000000Y-36070000D03*
X18190000Y-39930000D03*
X18190000Y-38000000D03*
X18190000Y-36070000D03*
D11*
X18495000Y-43250000D03*
X18495000Y-32780000D03*
D12*
X33300000Y-38696878D03*
X34201561Y-39598439D03*
X35103122Y-40500000D03*
X32398439Y-39598439D03*
X33300000Y-40500000D03*
X34201561Y-41401561D03*
X31496878Y-40500000D03*
X32398439Y-41401561D03*
X33300000Y-42303122D03*
D13*
X24000000Y-16500000D03*
D14*
X26540000Y-16500000D03*
X29080000Y-16500000D03*
X31620000Y-16500000D03*
X34160000Y-16500000D03*
X36700000Y-16500000D03*
X39240000Y-16500000D03*
X41780000Y-16500000D03*
D15*
X18000000Y-22000000D03*
X48000000Y-22000000D03*
X18100000Y-54700000D03*
X48000000Y-54700000D03*
D16*
X37900009Y-46700000D03*
X43700000Y-19600000D03*
X34900000Y-25200000D03*
X43300000Y-24300000D03*
X44300000Y-24300000D03*
X42200000Y-24300000D03*
X30900000Y-50200000D03*
X38500000Y-43600000D03*
X41600000Y-39800000D03*
X30292892Y-35192892D03*
X29249208Y-36140742D03*
X26913633Y-42713633D03*
X43600000Y-46600000D03*
X35200000Y-52500000D03*
X41800000Y-58500000D03*
X24400000Y-59300000D03*
X24600000Y-47400000D03*
X40900000Y-42700000D03*
X19500000Y-51200000D03*
X43700000Y-20600000D03*
X41800000Y-57500000D03*
X37700000Y-42900000D03*
X28800000Y-19500000D03*
X29900000Y-36900000D03*
X31000000Y-35900000D03*
X30900000Y-59300000D03*
X26900000Y-59300000D03*
X40900000Y-41200000D03*
X47400000Y-26600000D03*
X47500000Y-30200000D03*
X47500000Y-28500000D03*
X21600000Y-48200000D03*
X21600000Y-53100000D03*
X25700000Y-54200000D03*
X24600000Y-49400000D03*
X24600000Y-50400000D03*
X24600000Y-48400000D03*
X27725000Y-50500000D03*
X33900000Y-46700000D03*
X36900006Y-46700000D03*
X37803143Y-21900000D03*
X34900000Y-46700000D03*
X35900003Y-46700000D03*
X36700000Y-19400000D03*
X42000000Y-53800000D03*
X39900015Y-46700000D03*
X42000000Y-54800003D03*
X41000000Y-46700000D03*
X32700000Y-46700000D03*
X38900012Y-46700000D03*
X37900000Y-20400000D03*
D17*
X22511928Y-17350000D02*
X22524188Y-17474482D01*
X22560498Y-17594180D01*
X22619463Y-17704494D01*
X22698815Y-17801185D01*
X22795506Y-17880537D01*
X22905820Y-17939502D01*
X23025518Y-17975812D01*
X23150000Y-17988072D01*
X24850000Y-17988072D01*
X24974482Y-17975812D01*
X25094180Y-17939502D01*
X25204494Y-17880537D01*
X25301185Y-17801185D01*
X25380537Y-17704494D01*
X25439502Y-17594180D01*
X25463966Y-17513534D01*
X25539731Y-17597588D01*
X25773080Y-17771641D01*
X26035901Y-17896825D01*
X26183110Y-17941476D01*
X26413000Y-17820155D01*
X26413000Y-16627000D01*
X26393000Y-16627000D01*
X26393000Y-16373000D01*
X26413000Y-16373000D01*
X26413000Y-16353000D01*
X26667000Y-16353000D01*
X26667000Y-16373000D01*
X26687000Y-16373000D01*
X26687000Y-16627000D01*
X26667000Y-16627000D01*
X26667000Y-17820155D01*
X26896890Y-17941476D01*
X27044099Y-17896825D01*
X27306920Y-17771641D01*
X27540269Y-17597588D01*
X27735178Y-17381355D01*
X27804805Y-17264466D01*
X27926525Y-17446632D01*
X28133368Y-17653475D01*
X28376589Y-17815990D01*
X28646842Y-17927932D01*
X28933740Y-17985000D01*
X29226260Y-17985000D01*
X29513158Y-17927932D01*
X29783411Y-17815990D01*
X30026632Y-17653475D01*
X30233475Y-17446632D01*
X30350000Y-17272240D01*
X30466525Y-17446632D01*
X30673368Y-17653475D01*
X30916589Y-17815990D01*
X31186842Y-17927932D01*
X31473740Y-17985000D01*
X31766260Y-17985000D01*
X32053158Y-17927932D01*
X32323411Y-17815990D01*
X32566632Y-17653475D01*
X32773475Y-17446632D01*
X32890000Y-17272240D01*
X33006525Y-17446632D01*
X33213368Y-17653475D01*
X33456589Y-17815990D01*
X33726842Y-17927932D01*
X34013740Y-17985000D01*
X34306260Y-17985000D01*
X34593158Y-17927932D01*
X34863411Y-17815990D01*
X35106632Y-17653475D01*
X35313475Y-17446632D01*
X35430000Y-17272240D01*
X35546525Y-17446632D01*
X35753368Y-17653475D01*
X35996589Y-17815990D01*
X36266842Y-17927932D01*
X36553740Y-17985000D01*
X36846260Y-17985000D01*
X37133158Y-17927932D01*
X37403411Y-17815990D01*
X37646632Y-17653475D01*
X37853475Y-17446632D01*
X37970000Y-17272240D01*
X38086525Y-17446632D01*
X38293368Y-17653475D01*
X38536589Y-17815990D01*
X38806842Y-17927932D01*
X39093740Y-17985000D01*
X39386260Y-17985000D01*
X39673158Y-17927932D01*
X39943411Y-17815990D01*
X40186632Y-17653475D01*
X40393475Y-17446632D01*
X40510000Y-17272240D01*
X40626525Y-17446632D01*
X40833368Y-17653475D01*
X41076589Y-17815990D01*
X41346842Y-17927932D01*
X41633740Y-17985000D01*
X41926260Y-17985000D01*
X42213158Y-17927932D01*
X42483411Y-17815990D01*
X42726632Y-17653475D01*
X42933475Y-17446632D01*
X43095990Y-17203411D01*
X43207932Y-16933158D01*
X43265000Y-16646260D01*
X43265000Y-16353740D01*
X43207932Y-16066842D01*
X43095990Y-15796589D01*
X43021429Y-15685000D01*
X44740784Y-15685000D01*
X50315000Y-20608892D01*
X50315000Y-20964629D01*
X50246488Y-20799227D01*
X49969063Y-20384032D01*
X49615968Y-20030937D01*
X49200773Y-19753512D01*
X48739432Y-19562418D01*
X48249676Y-19465000D01*
X47750324Y-19465000D01*
X47260568Y-19562418D01*
X46799227Y-19753512D01*
X46384032Y-20030937D01*
X46030937Y-20384032D01*
X45753512Y-20799227D01*
X45562418Y-21260568D01*
X45465000Y-21750324D01*
X45465000Y-22249676D01*
X45562418Y-22739432D01*
X45753512Y-23200773D01*
X46030937Y-23615968D01*
X46384032Y-23969063D01*
X46799227Y-24246488D01*
X47260568Y-24437582D01*
X47750324Y-24535000D01*
X48249676Y-24535000D01*
X48739432Y-24437582D01*
X49200773Y-24246488D01*
X49615968Y-23969063D01*
X49969063Y-23615968D01*
X50246488Y-23200773D01*
X50315000Y-23035371D01*
X50315000Y-33171040D01*
X50235521Y-33128558D01*
X50022027Y-33063795D01*
X49800000Y-33041927D01*
X49200000Y-33041927D01*
X48977973Y-33063795D01*
X48764479Y-33128558D01*
X48567721Y-33233727D01*
X48395262Y-33375261D01*
X48253728Y-33547720D01*
X48148559Y-33744478D01*
X48083796Y-33957972D01*
X48061928Y-34179999D01*
X48061928Y-34180001D01*
X48083796Y-34402028D01*
X48148559Y-34615522D01*
X48253728Y-34812280D01*
X48395262Y-34984739D01*
X48567721Y-35126273D01*
X48764479Y-35231442D01*
X48977973Y-35296205D01*
X49200000Y-35318073D01*
X49800000Y-35318073D01*
X50022027Y-35296205D01*
X50235521Y-35231442D01*
X50315000Y-35188959D01*
X50315001Y-41811041D01*
X50235521Y-41768558D01*
X50022027Y-41703795D01*
X49800000Y-41681927D01*
X49200000Y-41681927D01*
X48977973Y-41703795D01*
X48764479Y-41768558D01*
X48567721Y-41873727D01*
X48395262Y-42015261D01*
X48253728Y-42187720D01*
X48148559Y-42384478D01*
X48083796Y-42597972D01*
X48061928Y-42819999D01*
X48061928Y-42820001D01*
X48083796Y-43042028D01*
X48148559Y-43255522D01*
X48253728Y-43452280D01*
X48395262Y-43624739D01*
X48567721Y-43766273D01*
X48764479Y-43871442D01*
X48977973Y-43936205D01*
X49200000Y-43958073D01*
X49800000Y-43958073D01*
X50022027Y-43936205D01*
X50235521Y-43871442D01*
X50315001Y-43828959D01*
X50315001Y-53664632D01*
X50246488Y-53499227D01*
X49969063Y-53084032D01*
X49615968Y-52730937D01*
X49200773Y-52453512D01*
X48739432Y-52262418D01*
X48249676Y-52165000D01*
X47750324Y-52165000D01*
X47260568Y-52262418D01*
X46799227Y-52453512D01*
X46384032Y-52730937D01*
X46030937Y-53084032D01*
X45753512Y-53499227D01*
X45562418Y-53960568D01*
X45465000Y-54450324D01*
X45465000Y-54949676D01*
X45562418Y-55439432D01*
X45753512Y-55900773D01*
X46030937Y-56315968D01*
X46384032Y-56669063D01*
X46799227Y-56946488D01*
X47260568Y-57137582D01*
X47750324Y-57235000D01*
X47796264Y-57235000D01*
X44716264Y-60315000D01*
X24602487Y-60315000D01*
X24701898Y-60295226D01*
X24890256Y-60217205D01*
X25059774Y-60103937D01*
X25203937Y-59959774D01*
X25317205Y-59790256D01*
X25395226Y-59601898D01*
X25435000Y-59401939D01*
X25435000Y-59198061D01*
X25395226Y-58998102D01*
X25317205Y-58809744D01*
X25203937Y-58640226D01*
X25059774Y-58496063D01*
X24913104Y-58398061D01*
X40765000Y-58398061D01*
X40765000Y-58601939D01*
X40804774Y-58801898D01*
X40882795Y-58990256D01*
X40996063Y-59159774D01*
X41140226Y-59303937D01*
X41309744Y-59417205D01*
X41498102Y-59495226D01*
X41698061Y-59535000D01*
X41901939Y-59535000D01*
X42101898Y-59495226D01*
X42290256Y-59417205D01*
X42459774Y-59303937D01*
X42603937Y-59159774D01*
X42717205Y-58990256D01*
X42795226Y-58801898D01*
X42835000Y-58601939D01*
X42835000Y-58398061D01*
X42795226Y-58198102D01*
X42717205Y-58009744D01*
X42603937Y-57840226D01*
X42459774Y-57696063D01*
X42290256Y-57582795D01*
X42101898Y-57504774D01*
X41901939Y-57465000D01*
X41698061Y-57465000D01*
X41498102Y-57504774D01*
X41309744Y-57582795D01*
X41140226Y-57696063D01*
X40996063Y-57840226D01*
X40882795Y-58009744D01*
X40804774Y-58198102D01*
X40765000Y-58398061D01*
X24913104Y-58398061D01*
X24890256Y-58382795D01*
X24701898Y-58304774D01*
X24501939Y-58265000D01*
X24298061Y-58265000D01*
X24098102Y-58304774D01*
X23909744Y-58382795D01*
X23740226Y-58496063D01*
X23596063Y-58640226D01*
X23482795Y-58809744D01*
X23404774Y-58998102D01*
X23365000Y-59198061D01*
X23365000Y-59401939D01*
X23404774Y-59601898D01*
X23482795Y-59790256D01*
X23596063Y-59959774D01*
X23740226Y-60103937D01*
X23909744Y-60217205D01*
X24098102Y-60295226D01*
X24197513Y-60315000D01*
X21283736Y-60315000D01*
X18203736Y-57235000D01*
X18349676Y-57235000D01*
X18839432Y-57137582D01*
X19300773Y-56946488D01*
X19715968Y-56669063D01*
X20069063Y-56315968D01*
X20346488Y-55900773D01*
X20537582Y-55439432D01*
X20635000Y-54949676D01*
X20635000Y-54450324D01*
X20537582Y-53960568D01*
X20346488Y-53499227D01*
X20069063Y-53084032D01*
X19983092Y-52998061D01*
X20565000Y-52998061D01*
X20565000Y-53201939D01*
X20604774Y-53401898D01*
X20682795Y-53590256D01*
X20796063Y-53759774D01*
X20940226Y-53903937D01*
X21109744Y-54017205D01*
X21298102Y-54095226D01*
X21498061Y-54135000D01*
X21701939Y-54135000D01*
X21887645Y-54098061D01*
X24665000Y-54098061D01*
X24665000Y-54301939D01*
X24704774Y-54501898D01*
X24782795Y-54690256D01*
X24896063Y-54859774D01*
X25040226Y-55003937D01*
X25209744Y-55117205D01*
X25398102Y-55195226D01*
X25598061Y-55235000D01*
X25801939Y-55235000D01*
X26001898Y-55195226D01*
X26190256Y-55117205D01*
X26359774Y-55003937D01*
X26503937Y-54859774D01*
X26617205Y-54690256D01*
X26695226Y-54501898D01*
X26735000Y-54301939D01*
X26735000Y-54098061D01*
X26695226Y-53898102D01*
X26617205Y-53709744D01*
X26609399Y-53698061D01*
X40965000Y-53698061D01*
X40965000Y-53901939D01*
X41004774Y-54101898D01*
X41082795Y-54290256D01*
X41089307Y-54300002D01*
X41082795Y-54309747D01*
X41004774Y-54498105D01*
X40965000Y-54698064D01*
X40965000Y-54901942D01*
X41004774Y-55101901D01*
X41082795Y-55290259D01*
X41196063Y-55459777D01*
X41340226Y-55603940D01*
X41509744Y-55717208D01*
X41698102Y-55795229D01*
X41898061Y-55835003D01*
X42101939Y-55835003D01*
X42301898Y-55795229D01*
X42490256Y-55717208D01*
X42659774Y-55603940D01*
X42803937Y-55459777D01*
X42917205Y-55290259D01*
X42995226Y-55101901D01*
X43035000Y-54901942D01*
X43035000Y-54698064D01*
X42995226Y-54498105D01*
X42917205Y-54309747D01*
X42910693Y-54300002D01*
X42917205Y-54290256D01*
X42995226Y-54101898D01*
X43035000Y-53901939D01*
X43035000Y-53698061D01*
X42995226Y-53498102D01*
X42917205Y-53309744D01*
X42803937Y-53140226D01*
X42659774Y-52996063D01*
X42490256Y-52882795D01*
X42301898Y-52804774D01*
X42101939Y-52765000D01*
X41898061Y-52765000D01*
X41698102Y-52804774D01*
X41509744Y-52882795D01*
X41340226Y-52996063D01*
X41196063Y-53140226D01*
X41082795Y-53309744D01*
X41004774Y-53498102D01*
X40965000Y-53698061D01*
X26609399Y-53698061D01*
X26503937Y-53540226D01*
X26359774Y-53396063D01*
X26190256Y-53282795D01*
X26001898Y-53204774D01*
X25801939Y-53165000D01*
X25598061Y-53165000D01*
X25398102Y-53204774D01*
X25209744Y-53282795D01*
X25040226Y-53396063D01*
X24896063Y-53540226D01*
X24782795Y-53709744D01*
X24704774Y-53898102D01*
X24665000Y-54098061D01*
X21887645Y-54098061D01*
X21901898Y-54095226D01*
X22090256Y-54017205D01*
X22259774Y-53903937D01*
X22403937Y-53759774D01*
X22517205Y-53590256D01*
X22595226Y-53401898D01*
X22635000Y-53201939D01*
X22635000Y-52998061D01*
X22595226Y-52798102D01*
X22517205Y-52609744D01*
X22403937Y-52440226D01*
X22361772Y-52398061D01*
X34165000Y-52398061D01*
X34165000Y-52601939D01*
X34204774Y-52801898D01*
X34282795Y-52990256D01*
X34396063Y-53159774D01*
X34540226Y-53303937D01*
X34709744Y-53417205D01*
X34898102Y-53495226D01*
X35098061Y-53535000D01*
X35301939Y-53535000D01*
X35501898Y-53495226D01*
X35690256Y-53417205D01*
X35859774Y-53303937D01*
X36003937Y-53159774D01*
X36117205Y-52990256D01*
X36195226Y-52801898D01*
X36235000Y-52601939D01*
X36235000Y-52398061D01*
X36195226Y-52198102D01*
X36117205Y-52009744D01*
X36003937Y-51840226D01*
X35859774Y-51696063D01*
X35690256Y-51582795D01*
X35501898Y-51504774D01*
X35301939Y-51465000D01*
X35098061Y-51465000D01*
X34898102Y-51504774D01*
X34709744Y-51582795D01*
X34540226Y-51696063D01*
X34396063Y-51840226D01*
X34282795Y-52009744D01*
X34204774Y-52198102D01*
X34165000Y-52398061D01*
X22361772Y-52398061D01*
X22259774Y-52296063D01*
X22090256Y-52182795D01*
X21901898Y-52104774D01*
X21701939Y-52065000D01*
X21498061Y-52065000D01*
X21298102Y-52104774D01*
X21109744Y-52182795D01*
X20940226Y-52296063D01*
X20796063Y-52440226D01*
X20682795Y-52609744D01*
X20604774Y-52798102D01*
X20565000Y-52998061D01*
X19983092Y-52998061D01*
X19715968Y-52730937D01*
X19300773Y-52453512D01*
X18839432Y-52262418D01*
X18349676Y-52165000D01*
X17850324Y-52165000D01*
X17360568Y-52262418D01*
X16899227Y-52453512D01*
X16484032Y-52730937D01*
X16130937Y-53084032D01*
X15853512Y-53499227D01*
X15685000Y-53906050D01*
X15685000Y-51098061D01*
X18465000Y-51098061D01*
X18465000Y-51301939D01*
X18504774Y-51501898D01*
X18582795Y-51690256D01*
X18696063Y-51859774D01*
X18840226Y-52003937D01*
X19009744Y-52117205D01*
X19198102Y-52195226D01*
X19398061Y-52235000D01*
X19601939Y-52235000D01*
X19801898Y-52195226D01*
X19990256Y-52117205D01*
X20159774Y-52003937D01*
X20303937Y-51859774D01*
X20417205Y-51690256D01*
X20495226Y-51501898D01*
X20535000Y-51301939D01*
X20535000Y-51098061D01*
X20495226Y-50898102D01*
X20417205Y-50709744D01*
X20303937Y-50540226D01*
X20159774Y-50396063D01*
X19990256Y-50282795D01*
X19801898Y-50204774D01*
X19601939Y-50165000D01*
X19398061Y-50165000D01*
X19198102Y-50204774D01*
X19009744Y-50282795D01*
X18840226Y-50396063D01*
X18696063Y-50540226D01*
X18582795Y-50709744D01*
X18504774Y-50898102D01*
X18465000Y-51098061D01*
X15685000Y-51098061D01*
X15685000Y-48098061D01*
X20565000Y-48098061D01*
X20565000Y-48301939D01*
X20604774Y-48501898D01*
X20682795Y-48690256D01*
X20796063Y-48859774D01*
X20940226Y-49003937D01*
X21109744Y-49117205D01*
X21298102Y-49195226D01*
X21498061Y-49235000D01*
X21701939Y-49235000D01*
X21901898Y-49195226D01*
X22090256Y-49117205D01*
X22259774Y-49003937D01*
X22403937Y-48859774D01*
X22517205Y-48690256D01*
X22595226Y-48501898D01*
X22635000Y-48301939D01*
X22635000Y-48098061D01*
X22595226Y-47898102D01*
X22517205Y-47709744D01*
X22403937Y-47540226D01*
X22259774Y-47396063D01*
X22113104Y-47298061D01*
X23565000Y-47298061D01*
X23565000Y-47501939D01*
X23604774Y-47701898D01*
X23682795Y-47890256D01*
X23689306Y-47900000D01*
X23682795Y-47909744D01*
X23604774Y-48098102D01*
X23565000Y-48298061D01*
X23565000Y-48501939D01*
X23604774Y-48701898D01*
X23682795Y-48890256D01*
X23689306Y-48900000D01*
X23682795Y-48909744D01*
X23604774Y-49098102D01*
X23565000Y-49298061D01*
X23565000Y-49501939D01*
X23604774Y-49701898D01*
X23682795Y-49890256D01*
X23689306Y-49900000D01*
X23682795Y-49909744D01*
X23604774Y-50098102D01*
X23565000Y-50298061D01*
X23565000Y-50501939D01*
X23604774Y-50701898D01*
X23682795Y-50890256D01*
X23796063Y-51059774D01*
X23940226Y-51203937D01*
X24109744Y-51317205D01*
X24298102Y-51395226D01*
X24498061Y-51435000D01*
X24701939Y-51435000D01*
X24901898Y-51395226D01*
X25090256Y-51317205D01*
X25259774Y-51203937D01*
X25403937Y-51059774D01*
X25517205Y-50890256D01*
X25595226Y-50701898D01*
X25635000Y-50501939D01*
X25635000Y-50398061D01*
X26690000Y-50398061D01*
X26690000Y-50601939D01*
X26729774Y-50801898D01*
X26807795Y-50990256D01*
X26921063Y-51159774D01*
X27065226Y-51303937D01*
X27234744Y-51417205D01*
X27423102Y-51495226D01*
X27623061Y-51535000D01*
X27826939Y-51535000D01*
X28026898Y-51495226D01*
X28215256Y-51417205D01*
X28384774Y-51303937D01*
X28528937Y-51159774D01*
X28642205Y-50990256D01*
X28720226Y-50801898D01*
X28760000Y-50601939D01*
X28760000Y-50398061D01*
X28720226Y-50198102D01*
X28678788Y-50098061D01*
X29865000Y-50098061D01*
X29865000Y-50301939D01*
X29904774Y-50501898D01*
X29982795Y-50690256D01*
X30096063Y-50859774D01*
X30240226Y-51003937D01*
X30409744Y-51117205D01*
X30598102Y-51195226D01*
X30798061Y-51235000D01*
X31001939Y-51235000D01*
X31201898Y-51195226D01*
X31390256Y-51117205D01*
X31559774Y-51003937D01*
X31703937Y-50859774D01*
X31817205Y-50690256D01*
X31895226Y-50501898D01*
X31935000Y-50301939D01*
X31935000Y-50098061D01*
X31895226Y-49898102D01*
X31817205Y-49709744D01*
X31703937Y-49540226D01*
X31559774Y-49396063D01*
X31390256Y-49282795D01*
X31201898Y-49204774D01*
X31001939Y-49165000D01*
X30798061Y-49165000D01*
X30598102Y-49204774D01*
X30409744Y-49282795D01*
X30240226Y-49396063D01*
X30096063Y-49540226D01*
X29982795Y-49709744D01*
X29904774Y-49898102D01*
X29865000Y-50098061D01*
X28678788Y-50098061D01*
X28642205Y-50009744D01*
X28528937Y-49840226D01*
X28384774Y-49696063D01*
X28215256Y-49582795D01*
X28026898Y-49504774D01*
X27826939Y-49465000D01*
X27623061Y-49465000D01*
X27423102Y-49504774D01*
X27234744Y-49582795D01*
X27065226Y-49696063D01*
X26921063Y-49840226D01*
X26807795Y-50009744D01*
X26729774Y-50198102D01*
X26690000Y-50398061D01*
X25635000Y-50398061D01*
X25635000Y-50298061D01*
X25595226Y-50098102D01*
X25517205Y-49909744D01*
X25510694Y-49900000D01*
X25517205Y-49890256D01*
X25595226Y-49701898D01*
X25635000Y-49501939D01*
X25635000Y-49298061D01*
X25595226Y-49098102D01*
X25517205Y-48909744D01*
X25510694Y-48900000D01*
X25517205Y-48890256D01*
X25595226Y-48701898D01*
X25635000Y-48501939D01*
X25635000Y-48298061D01*
X25595226Y-48098102D01*
X25517205Y-47909744D01*
X25510694Y-47900000D01*
X25517205Y-47890256D01*
X25595226Y-47701898D01*
X25635000Y-47501939D01*
X25635000Y-47298061D01*
X25595226Y-47098102D01*
X25517205Y-46909744D01*
X25403937Y-46740226D01*
X25261772Y-46598061D01*
X31665000Y-46598061D01*
X31665000Y-46801939D01*
X31704774Y-47001898D01*
X31782795Y-47190256D01*
X31896063Y-47359774D01*
X32040226Y-47503937D01*
X32209744Y-47617205D01*
X32398102Y-47695226D01*
X32598061Y-47735000D01*
X32801939Y-47735000D01*
X33001898Y-47695226D01*
X33190256Y-47617205D01*
X33300000Y-47543877D01*
X33409744Y-47617205D01*
X33598102Y-47695226D01*
X33798061Y-47735000D01*
X34001939Y-47735000D01*
X34201898Y-47695226D01*
X34390256Y-47617205D01*
X34400000Y-47610694D01*
X34409744Y-47617205D01*
X34598102Y-47695226D01*
X34798061Y-47735000D01*
X35001939Y-47735000D01*
X35201898Y-47695226D01*
X35390256Y-47617205D01*
X35400002Y-47610693D01*
X35409747Y-47617205D01*
X35598105Y-47695226D01*
X35798064Y-47735000D01*
X36001942Y-47735000D01*
X36201901Y-47695226D01*
X36390259Y-47617205D01*
X36400005Y-47610693D01*
X36409750Y-47617205D01*
X36598108Y-47695226D01*
X36798067Y-47735000D01*
X37001945Y-47735000D01*
X37201904Y-47695226D01*
X37390262Y-47617205D01*
X37400008Y-47610693D01*
X37409753Y-47617205D01*
X37598111Y-47695226D01*
X37798070Y-47735000D01*
X38001948Y-47735000D01*
X38201907Y-47695226D01*
X38390265Y-47617205D01*
X38400011Y-47610693D01*
X38409756Y-47617205D01*
X38598114Y-47695226D01*
X38798073Y-47735000D01*
X39001951Y-47735000D01*
X39201910Y-47695226D01*
X39390268Y-47617205D01*
X39400014Y-47610693D01*
X39409759Y-47617205D01*
X39598117Y-47695226D01*
X39798076Y-47735000D01*
X40001954Y-47735000D01*
X40201913Y-47695226D01*
X40390271Y-47617205D01*
X40450008Y-47577290D01*
X40509744Y-47617205D01*
X40698102Y-47695226D01*
X40898061Y-47735000D01*
X41101939Y-47735000D01*
X41301898Y-47695226D01*
X41490256Y-47617205D01*
X41659774Y-47503937D01*
X41803937Y-47359774D01*
X41917205Y-47190256D01*
X41995226Y-47001898D01*
X42035000Y-46801939D01*
X42035000Y-46598061D01*
X42015109Y-46498061D01*
X42565000Y-46498061D01*
X42565000Y-46701939D01*
X42604774Y-46901898D01*
X42682795Y-47090256D01*
X42796063Y-47259774D01*
X42940226Y-47403937D01*
X43109744Y-47517205D01*
X43298102Y-47595226D01*
X43498061Y-47635000D01*
X43701939Y-47635000D01*
X43901898Y-47595226D01*
X44090256Y-47517205D01*
X44259774Y-47403937D01*
X44403937Y-47259774D01*
X44517205Y-47090256D01*
X44595226Y-46901898D01*
X44635000Y-46701939D01*
X44635000Y-46498061D01*
X44595226Y-46298102D01*
X44517205Y-46109744D01*
X44403937Y-45940226D01*
X44259774Y-45796063D01*
X44090256Y-45682795D01*
X43901898Y-45604774D01*
X43701939Y-45565000D01*
X43498061Y-45565000D01*
X43298102Y-45604774D01*
X43109744Y-45682795D01*
X42940226Y-45796063D01*
X42796063Y-45940226D01*
X42682795Y-46109744D01*
X42604774Y-46298102D01*
X42565000Y-46498061D01*
X42015109Y-46498061D01*
X41995226Y-46398102D01*
X41917205Y-46209744D01*
X41803937Y-46040226D01*
X41659774Y-45896063D01*
X41490256Y-45782795D01*
X41301898Y-45704774D01*
X41101939Y-45665000D01*
X40898061Y-45665000D01*
X40698102Y-45704774D01*
X40509744Y-45782795D01*
X40450008Y-45822710D01*
X40390271Y-45782795D01*
X40201913Y-45704774D01*
X40001954Y-45665000D01*
X39798076Y-45665000D01*
X39598117Y-45704774D01*
X39409759Y-45782795D01*
X39400014Y-45789307D01*
X39390268Y-45782795D01*
X39201910Y-45704774D01*
X39001951Y-45665000D01*
X38798073Y-45665000D01*
X38598114Y-45704774D01*
X38409756Y-45782795D01*
X38400011Y-45789307D01*
X38390265Y-45782795D01*
X38201907Y-45704774D01*
X38001948Y-45665000D01*
X37798070Y-45665000D01*
X37598111Y-45704774D01*
X37409753Y-45782795D01*
X37400008Y-45789307D01*
X37390262Y-45782795D01*
X37201904Y-45704774D01*
X37001945Y-45665000D01*
X36798067Y-45665000D01*
X36598108Y-45704774D01*
X36409750Y-45782795D01*
X36400005Y-45789307D01*
X36390259Y-45782795D01*
X36201901Y-45704774D01*
X36001942Y-45665000D01*
X35798064Y-45665000D01*
X35598105Y-45704774D01*
X35409747Y-45782795D01*
X35400002Y-45789307D01*
X35390256Y-45782795D01*
X35201898Y-45704774D01*
X35001939Y-45665000D01*
X34798061Y-45665000D01*
X34598102Y-45704774D01*
X34409744Y-45782795D01*
X34400000Y-45789306D01*
X34390256Y-45782795D01*
X34201898Y-45704774D01*
X34001939Y-45665000D01*
X33798061Y-45665000D01*
X33598102Y-45704774D01*
X33409744Y-45782795D01*
X33300000Y-45856123D01*
X33190256Y-45782795D01*
X33001898Y-45704774D01*
X32801939Y-45665000D01*
X32598061Y-45665000D01*
X32398102Y-45704774D01*
X32209744Y-45782795D01*
X32040226Y-45896063D01*
X31896063Y-46040226D01*
X31782795Y-46209744D01*
X31704774Y-46398102D01*
X31665000Y-46598061D01*
X25261772Y-46598061D01*
X25259774Y-46596063D01*
X25090256Y-46482795D01*
X24901898Y-46404774D01*
X24701939Y-46365000D01*
X24498061Y-46365000D01*
X24298102Y-46404774D01*
X24109744Y-46482795D01*
X23940226Y-46596063D01*
X23796063Y-46740226D01*
X23682795Y-46909744D01*
X23604774Y-47098102D01*
X23565000Y-47298061D01*
X22113104Y-47298061D01*
X22090256Y-47282795D01*
X21901898Y-47204774D01*
X21701939Y-47165000D01*
X21498061Y-47165000D01*
X21298102Y-47204774D01*
X21109744Y-47282795D01*
X20940226Y-47396063D01*
X20796063Y-47540226D01*
X20682795Y-47709744D01*
X20604774Y-47898102D01*
X20565000Y-48098061D01*
X15685000Y-48098061D01*
X15685000Y-32545098D01*
X16110000Y-32545098D01*
X16110000Y-33014902D01*
X16201654Y-33475679D01*
X16381440Y-33909721D01*
X16642450Y-34300349D01*
X16974651Y-34632550D01*
X17269395Y-34829492D01*
X17066641Y-34890997D01*
X16846012Y-35008925D01*
X16652630Y-35167630D01*
X16493925Y-35361012D01*
X16375997Y-35581641D01*
X16303377Y-35821037D01*
X16278856Y-36070000D01*
X16303377Y-36318963D01*
X16375997Y-36558359D01*
X16493925Y-36778988D01*
X16652630Y-36972370D01*
X16728945Y-37035000D01*
X16652630Y-37097630D01*
X16493925Y-37291012D01*
X16375997Y-37511641D01*
X16303377Y-37751037D01*
X16278856Y-38000000D01*
X16303377Y-38248963D01*
X16375997Y-38488359D01*
X16493925Y-38708988D01*
X16652630Y-38902370D01*
X16728945Y-38965000D01*
X16652630Y-39027630D01*
X16493925Y-39221012D01*
X16375997Y-39441641D01*
X16303377Y-39681037D01*
X16278856Y-39930000D01*
X16303377Y-40178963D01*
X16375997Y-40418359D01*
X16493925Y-40638988D01*
X16652630Y-40832370D01*
X16846012Y-40991075D01*
X17066641Y-41109003D01*
X17300274Y-41179875D01*
X16974651Y-41397450D01*
X16642450Y-41729651D01*
X16381440Y-42120279D01*
X16201654Y-42554321D01*
X16110000Y-43015098D01*
X16110000Y-43484902D01*
X16201654Y-43945679D01*
X16381440Y-44379721D01*
X16642450Y-44770349D01*
X16974651Y-45102550D01*
X17365279Y-45363560D01*
X17799321Y-45543346D01*
X18260098Y-45635000D01*
X18729902Y-45635000D01*
X19190679Y-45543346D01*
X19624721Y-45363560D01*
X20015349Y-45102550D01*
X20347550Y-44770349D01*
X20608560Y-44379721D01*
X20788346Y-43945679D01*
X20880000Y-43484902D01*
X20880000Y-43015098D01*
X20799759Y-42611694D01*
X25878633Y-42611694D01*
X25878633Y-42815572D01*
X25918407Y-43015531D01*
X25996428Y-43203889D01*
X26109696Y-43373407D01*
X26253859Y-43517570D01*
X26423377Y-43630838D01*
X26611735Y-43708859D01*
X26811694Y-43748633D01*
X27015572Y-43748633D01*
X27215531Y-43708859D01*
X27403889Y-43630838D01*
X27573407Y-43517570D01*
X27592916Y-43498061D01*
X37465000Y-43498061D01*
X37465000Y-43701939D01*
X37504774Y-43901898D01*
X37582795Y-44090256D01*
X37696063Y-44259774D01*
X37840226Y-44403937D01*
X38009744Y-44517205D01*
X38198102Y-44595226D01*
X38398061Y-44635000D01*
X38601939Y-44635000D01*
X38801898Y-44595226D01*
X38990256Y-44517205D01*
X39159774Y-44403937D01*
X39303937Y-44259774D01*
X39417205Y-44090256D01*
X39495226Y-43901898D01*
X39535000Y-43701939D01*
X39535000Y-43498061D01*
X39495226Y-43298102D01*
X39417205Y-43109744D01*
X39303937Y-42940226D01*
X39159774Y-42796063D01*
X38990256Y-42682795D01*
X38801898Y-42604774D01*
X38768150Y-42598061D01*
X39865000Y-42598061D01*
X39865000Y-42801939D01*
X39904774Y-43001898D01*
X39982795Y-43190256D01*
X40096063Y-43359774D01*
X40240226Y-43503937D01*
X40409744Y-43617205D01*
X40598102Y-43695226D01*
X40798061Y-43735000D01*
X41001939Y-43735000D01*
X41201898Y-43695226D01*
X41390256Y-43617205D01*
X41559774Y-43503937D01*
X41703937Y-43359774D01*
X41817205Y-43190256D01*
X41895226Y-43001898D01*
X41931407Y-42819999D01*
X43881928Y-42819999D01*
X43881928Y-42820001D01*
X43903796Y-43042028D01*
X43968559Y-43255522D01*
X44073728Y-43452280D01*
X44215262Y-43624739D01*
X44387721Y-43766273D01*
X44584479Y-43871442D01*
X44797973Y-43936205D01*
X45020000Y-43958073D01*
X45620000Y-43958073D01*
X45842027Y-43936205D01*
X46055521Y-43871442D01*
X46252279Y-43766273D01*
X46424738Y-43624739D01*
X46566272Y-43452280D01*
X46671441Y-43255522D01*
X46736204Y-43042028D01*
X46758072Y-42820001D01*
X46758072Y-42819999D01*
X46736204Y-42597972D01*
X46671441Y-42384478D01*
X46566272Y-42187720D01*
X46500305Y-42107340D01*
X46595681Y-42011964D01*
X46700741Y-41854731D01*
X46773108Y-41680022D01*
X46810000Y-41494552D01*
X46810000Y-41305448D01*
X46773108Y-41119978D01*
X46700741Y-40945269D01*
X46595681Y-40788036D01*
X46461964Y-40654319D01*
X46304731Y-40549259D01*
X46130022Y-40476892D01*
X45944552Y-40440000D01*
X45755448Y-40440000D01*
X45569978Y-40476892D01*
X45395269Y-40549259D01*
X45238036Y-40654319D01*
X45104319Y-40788036D01*
X44999259Y-40945269D01*
X44926892Y-41119978D01*
X44890000Y-41305448D01*
X44890000Y-41494552D01*
X44926892Y-41680022D01*
X44931300Y-41690663D01*
X44797973Y-41703795D01*
X44584479Y-41768558D01*
X44387721Y-41873727D01*
X44215262Y-42015261D01*
X44073728Y-42187720D01*
X43968559Y-42384478D01*
X43903796Y-42597972D01*
X43881928Y-42819999D01*
X41931407Y-42819999D01*
X41935000Y-42801939D01*
X41935000Y-42598061D01*
X41895226Y-42398102D01*
X41817205Y-42209744D01*
X41703937Y-42040226D01*
X41559774Y-41896063D01*
X41390256Y-41782795D01*
X41201898Y-41704774D01*
X41001939Y-41665000D01*
X40798061Y-41665000D01*
X40598102Y-41704774D01*
X40409744Y-41782795D01*
X40240226Y-41896063D01*
X40096063Y-42040226D01*
X39982795Y-42209744D01*
X39904774Y-42398102D01*
X39865000Y-42598061D01*
X38768150Y-42598061D01*
X38601939Y-42565000D01*
X38398061Y-42565000D01*
X38198102Y-42604774D01*
X38009744Y-42682795D01*
X37840226Y-42796063D01*
X37696063Y-42940226D01*
X37582795Y-43109744D01*
X37504774Y-43298102D01*
X37465000Y-43498061D01*
X27592916Y-43498061D01*
X27717570Y-43373407D01*
X27830838Y-43203889D01*
X27908859Y-43015531D01*
X27948633Y-42815572D01*
X27948633Y-42611694D01*
X27908859Y-42411735D01*
X27830838Y-42223377D01*
X27717570Y-42053859D01*
X27573407Y-41909696D01*
X27403889Y-41796428D01*
X27215531Y-41718407D01*
X27015572Y-41678633D01*
X26811694Y-41678633D01*
X26611735Y-41718407D01*
X26423377Y-41796428D01*
X26253859Y-41909696D01*
X26109696Y-42053859D01*
X25996428Y-42223377D01*
X25918407Y-42411735D01*
X25878633Y-42611694D01*
X20799759Y-42611694D01*
X20788346Y-42554321D01*
X20608560Y-42120279D01*
X20347550Y-41729651D01*
X20015349Y-41397450D01*
X19624721Y-41136440D01*
X19420380Y-41051799D01*
X19533988Y-40991075D01*
X19595000Y-40941004D01*
X19656012Y-40991075D01*
X19876641Y-41109003D01*
X20116037Y-41181623D01*
X20302620Y-41200000D01*
X21697380Y-41200000D01*
X21883963Y-41181623D01*
X22123359Y-41109003D01*
X22343988Y-40991075D01*
X22537370Y-40832370D01*
X22696075Y-40638988D01*
X22814003Y-40418359D01*
X22817172Y-40407911D01*
X30561878Y-40407911D01*
X30561878Y-40592089D01*
X30597810Y-40772729D01*
X30668292Y-40942889D01*
X30770616Y-41096028D01*
X30900850Y-41226262D01*
X31053989Y-41328586D01*
X31224149Y-41399068D01*
X31404789Y-41435000D01*
X31463439Y-41435000D01*
X31463439Y-41493650D01*
X31499371Y-41674290D01*
X31569853Y-41844450D01*
X31672177Y-41997589D01*
X31802411Y-42127823D01*
X31955550Y-42230147D01*
X32125710Y-42300629D01*
X32306350Y-42336561D01*
X32365000Y-42336561D01*
X32365000Y-42395211D01*
X32400932Y-42575851D01*
X32471414Y-42746011D01*
X32573738Y-42899150D01*
X32703972Y-43029384D01*
X32857111Y-43131708D01*
X33027271Y-43202190D01*
X33207911Y-43238122D01*
X33392089Y-43238122D01*
X33572729Y-43202190D01*
X33742889Y-43131708D01*
X33896028Y-43029384D01*
X34026262Y-42899150D01*
X34128586Y-42746011D01*
X34199068Y-42575851D01*
X34235000Y-42395211D01*
X34235000Y-42336561D01*
X34293650Y-42336561D01*
X34474290Y-42300629D01*
X34644450Y-42230147D01*
X34797589Y-42127823D01*
X34927823Y-41997589D01*
X35030147Y-41844450D01*
X35100629Y-41674290D01*
X35136561Y-41493650D01*
X35136561Y-41435000D01*
X35195211Y-41435000D01*
X35375851Y-41399068D01*
X35546011Y-41328586D01*
X35699150Y-41226262D01*
X35829384Y-41096028D01*
X35931708Y-40942889D01*
X36002190Y-40772729D01*
X36038122Y-40592089D01*
X36038122Y-40407911D01*
X36002190Y-40227271D01*
X35931708Y-40057111D01*
X35829384Y-39903972D01*
X35699150Y-39773738D01*
X35585892Y-39698061D01*
X40565000Y-39698061D01*
X40565000Y-39901939D01*
X40604774Y-40101898D01*
X40682795Y-40290256D01*
X40796063Y-40459774D01*
X40940226Y-40603937D01*
X41109744Y-40717205D01*
X41298102Y-40795226D01*
X41498061Y-40835000D01*
X41701939Y-40835000D01*
X41901898Y-40795226D01*
X42090256Y-40717205D01*
X42259774Y-40603937D01*
X42403937Y-40459774D01*
X42517205Y-40290256D01*
X42595226Y-40101898D01*
X42635000Y-39901939D01*
X42635000Y-39698061D01*
X42595226Y-39498102D01*
X42517205Y-39309744D01*
X42403937Y-39140226D01*
X42259774Y-38996063D01*
X42090256Y-38882795D01*
X41901898Y-38804774D01*
X41701939Y-38765000D01*
X41498061Y-38765000D01*
X41298102Y-38804774D01*
X41109744Y-38882795D01*
X40940226Y-38996063D01*
X40796063Y-39140226D01*
X40682795Y-39309744D01*
X40604774Y-39498102D01*
X40565000Y-39698061D01*
X35585892Y-39698061D01*
X35546011Y-39671414D01*
X35375851Y-39600932D01*
X35195211Y-39565000D01*
X35136561Y-39565000D01*
X35136561Y-39506350D01*
X35100629Y-39325710D01*
X35030147Y-39155550D01*
X34927823Y-39002411D01*
X34797589Y-38872177D01*
X34644450Y-38769853D01*
X34474290Y-38699371D01*
X34293650Y-38663439D01*
X34235000Y-38663439D01*
X34235000Y-38604789D01*
X34199068Y-38424149D01*
X34128586Y-38253989D01*
X34026262Y-38100850D01*
X33896028Y-37970616D01*
X33742889Y-37868292D01*
X33572729Y-37797810D01*
X33392089Y-37761878D01*
X33207911Y-37761878D01*
X33027271Y-37797810D01*
X32857111Y-37868292D01*
X32703972Y-37970616D01*
X32573738Y-38100850D01*
X32471414Y-38253989D01*
X32400932Y-38424149D01*
X32365000Y-38604789D01*
X32365000Y-38663439D01*
X32306350Y-38663439D01*
X32125710Y-38699371D01*
X31955550Y-38769853D01*
X31802411Y-38872177D01*
X31672177Y-39002411D01*
X31569853Y-39155550D01*
X31499371Y-39325710D01*
X31463439Y-39506350D01*
X31463439Y-39565000D01*
X31404789Y-39565000D01*
X31224149Y-39600932D01*
X31053989Y-39671414D01*
X30900850Y-39773738D01*
X30770616Y-39903972D01*
X30668292Y-40057111D01*
X30597810Y-40227271D01*
X30561878Y-40407911D01*
X22817172Y-40407911D01*
X22886623Y-40178963D01*
X22911144Y-39930000D01*
X22886623Y-39681037D01*
X22814003Y-39441641D01*
X22696075Y-39221012D01*
X22537370Y-39027630D01*
X22461055Y-38965000D01*
X22537370Y-38902370D01*
X22696075Y-38708988D01*
X22814003Y-38488359D01*
X22886623Y-38248963D01*
X22911144Y-38000000D01*
X22886623Y-37751037D01*
X22814003Y-37511641D01*
X22696075Y-37291012D01*
X22537370Y-37097630D01*
X22461055Y-37035000D01*
X22537370Y-36972370D01*
X22696075Y-36778988D01*
X22814003Y-36558359D01*
X22886623Y-36318963D01*
X22911144Y-36070000D01*
X22908072Y-36038803D01*
X28214208Y-36038803D01*
X28214208Y-36242681D01*
X28253982Y-36442640D01*
X28332003Y-36630998D01*
X28445271Y-36800516D01*
X28589434Y-36944679D01*
X28758952Y-37057947D01*
X28947310Y-37135968D01*
X29147269Y-37175742D01*
X29351147Y-37175742D01*
X29551106Y-37135968D01*
X29739464Y-37057947D01*
X29908982Y-36944679D01*
X30053145Y-36800516D01*
X30166413Y-36630998D01*
X30244434Y-36442640D01*
X30284208Y-36242681D01*
X30284208Y-36227892D01*
X30394831Y-36227892D01*
X30594790Y-36188118D01*
X30783148Y-36110097D01*
X30952666Y-35996829D01*
X31096829Y-35852666D01*
X31210097Y-35683148D01*
X31288118Y-35494790D01*
X31327892Y-35294831D01*
X31327892Y-35090953D01*
X31288118Y-34890994D01*
X31210097Y-34702636D01*
X31096829Y-34533118D01*
X30952666Y-34388955D01*
X30783148Y-34275687D01*
X30594790Y-34197666D01*
X30505972Y-34179999D01*
X43881928Y-34179999D01*
X43881928Y-34180001D01*
X43903796Y-34402028D01*
X43968559Y-34615522D01*
X44073728Y-34812280D01*
X44215262Y-34984739D01*
X44387721Y-35126273D01*
X44584479Y-35231442D01*
X44797973Y-35296205D01*
X44931300Y-35309337D01*
X44926892Y-35319978D01*
X44890000Y-35505448D01*
X44890000Y-35694552D01*
X44926892Y-35880022D01*
X44999259Y-36054731D01*
X45104319Y-36211964D01*
X45238036Y-36345681D01*
X45395269Y-36450741D01*
X45569978Y-36523108D01*
X45755448Y-36560000D01*
X45944552Y-36560000D01*
X46130022Y-36523108D01*
X46304731Y-36450741D01*
X46461964Y-36345681D01*
X46595681Y-36211964D01*
X46700741Y-36054731D01*
X46773108Y-35880022D01*
X46810000Y-35694552D01*
X46810000Y-35505448D01*
X46773108Y-35319978D01*
X46700741Y-35145269D01*
X46595681Y-34988036D01*
X46500305Y-34892660D01*
X46566272Y-34812280D01*
X46671441Y-34615522D01*
X46736204Y-34402028D01*
X46758072Y-34180001D01*
X46758072Y-34179999D01*
X46736204Y-33957972D01*
X46671441Y-33744478D01*
X46566272Y-33547720D01*
X46424738Y-33375261D01*
X46252279Y-33233727D01*
X46055521Y-33128558D01*
X45842027Y-33063795D01*
X45620000Y-33041927D01*
X45020000Y-33041927D01*
X44797973Y-33063795D01*
X44584479Y-33128558D01*
X44387721Y-33233727D01*
X44215262Y-33375261D01*
X44073728Y-33547720D01*
X43968559Y-33744478D01*
X43903796Y-33957972D01*
X43881928Y-34179999D01*
X30505972Y-34179999D01*
X30394831Y-34157892D01*
X30190953Y-34157892D01*
X29990994Y-34197666D01*
X29802636Y-34275687D01*
X29633118Y-34388955D01*
X29488955Y-34533118D01*
X29375687Y-34702636D01*
X29297666Y-34890994D01*
X29257892Y-35090953D01*
X29257892Y-35105742D01*
X29147269Y-35105742D01*
X28947310Y-35145516D01*
X28758952Y-35223537D01*
X28589434Y-35336805D01*
X28445271Y-35480968D01*
X28332003Y-35650486D01*
X28253982Y-35838844D01*
X28214208Y-36038803D01*
X22908072Y-36038803D01*
X22886623Y-35821037D01*
X22814003Y-35581641D01*
X22696075Y-35361012D01*
X22537370Y-35167630D01*
X22343988Y-35008925D01*
X22123359Y-34890997D01*
X21883963Y-34818377D01*
X21697380Y-34800000D01*
X20302620Y-34800000D01*
X20116037Y-34818377D01*
X19876641Y-34890997D01*
X19656012Y-35008925D01*
X19595000Y-35058996D01*
X19533988Y-35008925D01*
X19452002Y-34965103D01*
X19624721Y-34893560D01*
X20015349Y-34632550D01*
X20347550Y-34300349D01*
X20608560Y-33909721D01*
X20788346Y-33475679D01*
X20880000Y-33014902D01*
X20880000Y-32545098D01*
X20788346Y-32084321D01*
X20608560Y-31650279D01*
X20347550Y-31259651D01*
X20015349Y-30927450D01*
X19624721Y-30666440D01*
X19190679Y-30486654D01*
X18729902Y-30395000D01*
X18260098Y-30395000D01*
X17799321Y-30486654D01*
X17365279Y-30666440D01*
X16974651Y-30927450D01*
X16642450Y-31259651D01*
X16381440Y-31650279D01*
X16201654Y-32084321D01*
X16110000Y-32545098D01*
X15685000Y-32545098D01*
X15685000Y-25098061D01*
X33865000Y-25098061D01*
X33865000Y-25301939D01*
X33904774Y-25501898D01*
X33982795Y-25690256D01*
X34096063Y-25859774D01*
X34240226Y-26003937D01*
X34409744Y-26117205D01*
X34598102Y-26195226D01*
X34798061Y-26235000D01*
X35001939Y-26235000D01*
X35201898Y-26195226D01*
X35390256Y-26117205D01*
X35559774Y-26003937D01*
X35703937Y-25859774D01*
X35817205Y-25690256D01*
X35895226Y-25501898D01*
X35935000Y-25301939D01*
X35935000Y-25098061D01*
X35895226Y-24898102D01*
X35817205Y-24709744D01*
X35703937Y-24540226D01*
X35559774Y-24396063D01*
X35390256Y-24282795D01*
X35201898Y-24204774D01*
X35168150Y-24198061D01*
X41165000Y-24198061D01*
X41165000Y-24401939D01*
X41204774Y-24601898D01*
X41282795Y-24790256D01*
X41396063Y-24959774D01*
X41540226Y-25103937D01*
X41709744Y-25217205D01*
X41898102Y-25295226D01*
X42098061Y-25335000D01*
X42301939Y-25335000D01*
X42501898Y-25295226D01*
X42690256Y-25217205D01*
X42750000Y-25177285D01*
X42809744Y-25217205D01*
X42998102Y-25295226D01*
X43198061Y-25335000D01*
X43401939Y-25335000D01*
X43601898Y-25295226D01*
X43790256Y-25217205D01*
X43800000Y-25210694D01*
X43809744Y-25217205D01*
X43998102Y-25295226D01*
X44198061Y-25335000D01*
X44401939Y-25335000D01*
X44601898Y-25295226D01*
X44790256Y-25217205D01*
X44959774Y-25103937D01*
X45103937Y-24959774D01*
X45217205Y-24790256D01*
X45295226Y-24601898D01*
X45335000Y-24401939D01*
X45335000Y-24198061D01*
X45295226Y-23998102D01*
X45217205Y-23809744D01*
X45103937Y-23640226D01*
X44959774Y-23496063D01*
X44790256Y-23382795D01*
X44601898Y-23304774D01*
X44401939Y-23265000D01*
X44198061Y-23265000D01*
X43998102Y-23304774D01*
X43809744Y-23382795D01*
X43800000Y-23389306D01*
X43790256Y-23382795D01*
X43601898Y-23304774D01*
X43401939Y-23265000D01*
X43198061Y-23265000D01*
X42998102Y-23304774D01*
X42809744Y-23382795D01*
X42750000Y-23422715D01*
X42690256Y-23382795D01*
X42501898Y-23304774D01*
X42301939Y-23265000D01*
X42098061Y-23265000D01*
X41898102Y-23304774D01*
X41709744Y-23382795D01*
X41540226Y-23496063D01*
X41396063Y-23640226D01*
X41282795Y-23809744D01*
X41204774Y-23998102D01*
X41165000Y-24198061D01*
X35168150Y-24198061D01*
X35001939Y-24165000D01*
X34798061Y-24165000D01*
X34598102Y-24204774D01*
X34409744Y-24282795D01*
X34240226Y-24396063D01*
X34096063Y-24540226D01*
X33982795Y-24709744D01*
X33904774Y-24898102D01*
X33865000Y-25098061D01*
X15685000Y-25098061D01*
X15685000Y-23035371D01*
X15753512Y-23200773D01*
X16030937Y-23615968D01*
X16384032Y-23969063D01*
X16799227Y-24246488D01*
X17260568Y-24437582D01*
X17750324Y-24535000D01*
X18249676Y-24535000D01*
X18739432Y-24437582D01*
X19200773Y-24246488D01*
X19615968Y-23969063D01*
X19969063Y-23615968D01*
X20246488Y-23200773D01*
X20437582Y-22739432D01*
X20535000Y-22249676D01*
X20535000Y-21750324D01*
X20437582Y-21260568D01*
X20246488Y-20799227D01*
X19969063Y-20384032D01*
X19615968Y-20030937D01*
X19200773Y-19753512D01*
X18739432Y-19562418D01*
X18249676Y-19465000D01*
X17750324Y-19465000D01*
X17260568Y-19562418D01*
X16799227Y-19753512D01*
X16384032Y-20030937D01*
X16030937Y-20384032D01*
X15753512Y-20799227D01*
X15685000Y-20964629D01*
X15685000Y-20608891D01*
X17168958Y-19298061D01*
X35665000Y-19298061D01*
X35665000Y-19501939D01*
X35704774Y-19701898D01*
X35782795Y-19890256D01*
X35896063Y-20059774D01*
X36040226Y-20203937D01*
X36209744Y-20317205D01*
X36398102Y-20395226D01*
X36598061Y-20435000D01*
X36801939Y-20435000D01*
X36865000Y-20422456D01*
X36865000Y-20501939D01*
X36904774Y-20701898D01*
X36982795Y-20890256D01*
X37096063Y-21059774D01*
X37137861Y-21101572D01*
X36999206Y-21240226D01*
X36885938Y-21409744D01*
X36807917Y-21598102D01*
X36768143Y-21798061D01*
X36768143Y-22001939D01*
X36807917Y-22201898D01*
X36885938Y-22390256D01*
X36999206Y-22559774D01*
X37143369Y-22703937D01*
X37312887Y-22817205D01*
X37501245Y-22895226D01*
X37701204Y-22935000D01*
X37905082Y-22935000D01*
X38105041Y-22895226D01*
X38293399Y-22817205D01*
X38462917Y-22703937D01*
X38607080Y-22559774D01*
X38720348Y-22390256D01*
X38798369Y-22201898D01*
X38838143Y-22001939D01*
X38838143Y-21798061D01*
X38798369Y-21598102D01*
X38720348Y-21409744D01*
X38607080Y-21240226D01*
X38565283Y-21198429D01*
X38703937Y-21059774D01*
X38817205Y-20890256D01*
X38895226Y-20701898D01*
X38935000Y-20501939D01*
X38935000Y-20298061D01*
X38895226Y-20098102D01*
X38817205Y-19909744D01*
X38703937Y-19740226D01*
X38559774Y-19596063D01*
X38413104Y-19498061D01*
X42665000Y-19498061D01*
X42665000Y-19701939D01*
X42704774Y-19901898D01*
X42782795Y-20090256D01*
X42896063Y-20259774D01*
X43040226Y-20403937D01*
X43209744Y-20517205D01*
X43398102Y-20595226D01*
X43598061Y-20635000D01*
X43801939Y-20635000D01*
X44001898Y-20595226D01*
X44190256Y-20517205D01*
X44359774Y-20403937D01*
X44503937Y-20259774D01*
X44617205Y-20090256D01*
X44695226Y-19901898D01*
X44735000Y-19701939D01*
X44735000Y-19498061D01*
X44695226Y-19298102D01*
X44617205Y-19109744D01*
X44503937Y-18940226D01*
X44359774Y-18796063D01*
X44190256Y-18682795D01*
X44001898Y-18604774D01*
X43801939Y-18565000D01*
X43598061Y-18565000D01*
X43398102Y-18604774D01*
X43209744Y-18682795D01*
X43040226Y-18796063D01*
X42896063Y-18940226D01*
X42782795Y-19109744D01*
X42704774Y-19298102D01*
X42665000Y-19498061D01*
X38413104Y-19498061D01*
X38390256Y-19482795D01*
X38201898Y-19404774D01*
X38001939Y-19365000D01*
X37798061Y-19365000D01*
X37735000Y-19377544D01*
X37735000Y-19298061D01*
X37695226Y-19098102D01*
X37617205Y-18909744D01*
X37503937Y-18740226D01*
X37359774Y-18596063D01*
X37190256Y-18482795D01*
X37001898Y-18404774D01*
X36801939Y-18365000D01*
X36598061Y-18365000D01*
X36398102Y-18404774D01*
X36209744Y-18482795D01*
X36040226Y-18596063D01*
X35896063Y-18740226D01*
X35782795Y-18909744D01*
X35704774Y-19098102D01*
X35665000Y-19298061D01*
X17168958Y-19298061D01*
X21259217Y-15685000D01*
X22511928Y-15685000D01*
X22511928Y-17350000D01*
G04 #@! TA.AperFunction,Conductor*
D18*
G36*
X22511928Y-17350000D02*
G01*
X22524188Y-17474482D01*
X22560498Y-17594180D01*
X22619463Y-17704494D01*
X22698815Y-17801185D01*
X22795506Y-17880537D01*
X22905820Y-17939502D01*
X23025518Y-17975812D01*
X23150000Y-17988072D01*
X24850000Y-17988072D01*
X24974482Y-17975812D01*
X25094180Y-17939502D01*
X25204494Y-17880537D01*
X25301185Y-17801185D01*
X25380537Y-17704494D01*
X25439502Y-17594180D01*
X25463966Y-17513534D01*
X25539731Y-17597588D01*
X25773080Y-17771641D01*
X26035901Y-17896825D01*
X26183110Y-17941476D01*
X26413000Y-17820155D01*
X26413000Y-16627000D01*
X26393000Y-16627000D01*
X26393000Y-16373000D01*
X26413000Y-16373000D01*
X26413000Y-16353000D01*
X26667000Y-16353000D01*
X26667000Y-16373000D01*
X26687000Y-16373000D01*
X26687000Y-16627000D01*
X26667000Y-16627000D01*
X26667000Y-17820155D01*
X26896890Y-17941476D01*
X27044099Y-17896825D01*
X27306920Y-17771641D01*
X27540269Y-17597588D01*
X27735178Y-17381355D01*
X27804805Y-17264466D01*
X27926525Y-17446632D01*
X28133368Y-17653475D01*
X28376589Y-17815990D01*
X28646842Y-17927932D01*
X28933740Y-17985000D01*
X29226260Y-17985000D01*
X29513158Y-17927932D01*
X29783411Y-17815990D01*
X30026632Y-17653475D01*
X30233475Y-17446632D01*
X30350000Y-17272240D01*
X30466525Y-17446632D01*
X30673368Y-17653475D01*
X30916589Y-17815990D01*
X31186842Y-17927932D01*
X31473740Y-17985000D01*
X31766260Y-17985000D01*
X32053158Y-17927932D01*
X32323411Y-17815990D01*
X32566632Y-17653475D01*
X32773475Y-17446632D01*
X32890000Y-17272240D01*
X33006525Y-17446632D01*
X33213368Y-17653475D01*
X33456589Y-17815990D01*
X33726842Y-17927932D01*
X34013740Y-17985000D01*
X34306260Y-17985000D01*
X34593158Y-17927932D01*
X34863411Y-17815990D01*
X35106632Y-17653475D01*
X35313475Y-17446632D01*
X35430000Y-17272240D01*
X35546525Y-17446632D01*
X35753368Y-17653475D01*
X35996589Y-17815990D01*
X36266842Y-17927932D01*
X36553740Y-17985000D01*
X36846260Y-17985000D01*
X37133158Y-17927932D01*
X37403411Y-17815990D01*
X37646632Y-17653475D01*
X37853475Y-17446632D01*
X37970000Y-17272240D01*
X38086525Y-17446632D01*
X38293368Y-17653475D01*
X38536589Y-17815990D01*
X38806842Y-17927932D01*
X39093740Y-17985000D01*
X39386260Y-17985000D01*
X39673158Y-17927932D01*
X39943411Y-17815990D01*
X40186632Y-17653475D01*
X40393475Y-17446632D01*
X40510000Y-17272240D01*
X40626525Y-17446632D01*
X40833368Y-17653475D01*
X41076589Y-17815990D01*
X41346842Y-17927932D01*
X41633740Y-17985000D01*
X41926260Y-17985000D01*
X42213158Y-17927932D01*
X42483411Y-17815990D01*
X42726632Y-17653475D01*
X42933475Y-17446632D01*
X43095990Y-17203411D01*
X43207932Y-16933158D01*
X43265000Y-16646260D01*
X43265000Y-16353740D01*
X43207932Y-16066842D01*
X43095990Y-15796589D01*
X43021429Y-15685000D01*
X44740784Y-15685000D01*
X50315000Y-20608892D01*
X50315000Y-20964629D01*
X50246488Y-20799227D01*
X49969063Y-20384032D01*
X49615968Y-20030937D01*
X49200773Y-19753512D01*
X48739432Y-19562418D01*
X48249676Y-19465000D01*
X47750324Y-19465000D01*
X47260568Y-19562418D01*
X46799227Y-19753512D01*
X46384032Y-20030937D01*
X46030937Y-20384032D01*
X45753512Y-20799227D01*
X45562418Y-21260568D01*
X45465000Y-21750324D01*
X45465000Y-22249676D01*
X45562418Y-22739432D01*
X45753512Y-23200773D01*
X46030937Y-23615968D01*
X46384032Y-23969063D01*
X46799227Y-24246488D01*
X47260568Y-24437582D01*
X47750324Y-24535000D01*
X48249676Y-24535000D01*
X48739432Y-24437582D01*
X49200773Y-24246488D01*
X49615968Y-23969063D01*
X49969063Y-23615968D01*
X50246488Y-23200773D01*
X50315000Y-23035371D01*
X50315000Y-33171040D01*
X50235521Y-33128558D01*
X50022027Y-33063795D01*
X49800000Y-33041927D01*
X49200000Y-33041927D01*
X48977973Y-33063795D01*
X48764479Y-33128558D01*
X48567721Y-33233727D01*
X48395262Y-33375261D01*
X48253728Y-33547720D01*
X48148559Y-33744478D01*
X48083796Y-33957972D01*
X48061928Y-34179999D01*
X48061928Y-34180001D01*
X48083796Y-34402028D01*
X48148559Y-34615522D01*
X48253728Y-34812280D01*
X48395262Y-34984739D01*
X48567721Y-35126273D01*
X48764479Y-35231442D01*
X48977973Y-35296205D01*
X49200000Y-35318073D01*
X49800000Y-35318073D01*
X50022027Y-35296205D01*
X50235521Y-35231442D01*
X50315000Y-35188959D01*
X50315001Y-41811041D01*
X50235521Y-41768558D01*
X50022027Y-41703795D01*
X49800000Y-41681927D01*
X49200000Y-41681927D01*
X48977973Y-41703795D01*
X48764479Y-41768558D01*
X48567721Y-41873727D01*
X48395262Y-42015261D01*
X48253728Y-42187720D01*
X48148559Y-42384478D01*
X48083796Y-42597972D01*
X48061928Y-42819999D01*
X48061928Y-42820001D01*
X48083796Y-43042028D01*
X48148559Y-43255522D01*
X48253728Y-43452280D01*
X48395262Y-43624739D01*
X48567721Y-43766273D01*
X48764479Y-43871442D01*
X48977973Y-43936205D01*
X49200000Y-43958073D01*
X49800000Y-43958073D01*
X50022027Y-43936205D01*
X50235521Y-43871442D01*
X50315001Y-43828959D01*
X50315001Y-53664632D01*
X50246488Y-53499227D01*
X49969063Y-53084032D01*
X49615968Y-52730937D01*
X49200773Y-52453512D01*
X48739432Y-52262418D01*
X48249676Y-52165000D01*
X47750324Y-52165000D01*
X47260568Y-52262418D01*
X46799227Y-52453512D01*
X46384032Y-52730937D01*
X46030937Y-53084032D01*
X45753512Y-53499227D01*
X45562418Y-53960568D01*
X45465000Y-54450324D01*
X45465000Y-54949676D01*
X45562418Y-55439432D01*
X45753512Y-55900773D01*
X46030937Y-56315968D01*
X46384032Y-56669063D01*
X46799227Y-56946488D01*
X47260568Y-57137582D01*
X47750324Y-57235000D01*
X47796264Y-57235000D01*
X44716264Y-60315000D01*
X24602487Y-60315000D01*
X24701898Y-60295226D01*
X24890256Y-60217205D01*
X25059774Y-60103937D01*
X25203937Y-59959774D01*
X25317205Y-59790256D01*
X25395226Y-59601898D01*
X25435000Y-59401939D01*
X25435000Y-59198061D01*
X25395226Y-58998102D01*
X25317205Y-58809744D01*
X25203937Y-58640226D01*
X25059774Y-58496063D01*
X24913104Y-58398061D01*
X40765000Y-58398061D01*
X40765000Y-58601939D01*
X40804774Y-58801898D01*
X40882795Y-58990256D01*
X40996063Y-59159774D01*
X41140226Y-59303937D01*
X41309744Y-59417205D01*
X41498102Y-59495226D01*
X41698061Y-59535000D01*
X41901939Y-59535000D01*
X42101898Y-59495226D01*
X42290256Y-59417205D01*
X42459774Y-59303937D01*
X42603937Y-59159774D01*
X42717205Y-58990256D01*
X42795226Y-58801898D01*
X42835000Y-58601939D01*
X42835000Y-58398061D01*
X42795226Y-58198102D01*
X42717205Y-58009744D01*
X42603937Y-57840226D01*
X42459774Y-57696063D01*
X42290256Y-57582795D01*
X42101898Y-57504774D01*
X41901939Y-57465000D01*
X41698061Y-57465000D01*
X41498102Y-57504774D01*
X41309744Y-57582795D01*
X41140226Y-57696063D01*
X40996063Y-57840226D01*
X40882795Y-58009744D01*
X40804774Y-58198102D01*
X40765000Y-58398061D01*
X24913104Y-58398061D01*
X24890256Y-58382795D01*
X24701898Y-58304774D01*
X24501939Y-58265000D01*
X24298061Y-58265000D01*
X24098102Y-58304774D01*
X23909744Y-58382795D01*
X23740226Y-58496063D01*
X23596063Y-58640226D01*
X23482795Y-58809744D01*
X23404774Y-58998102D01*
X23365000Y-59198061D01*
X23365000Y-59401939D01*
X23404774Y-59601898D01*
X23482795Y-59790256D01*
X23596063Y-59959774D01*
X23740226Y-60103937D01*
X23909744Y-60217205D01*
X24098102Y-60295226D01*
X24197513Y-60315000D01*
X21283736Y-60315000D01*
X18203736Y-57235000D01*
X18349676Y-57235000D01*
X18839432Y-57137582D01*
X19300773Y-56946488D01*
X19715968Y-56669063D01*
X20069063Y-56315968D01*
X20346488Y-55900773D01*
X20537582Y-55439432D01*
X20635000Y-54949676D01*
X20635000Y-54450324D01*
X20537582Y-53960568D01*
X20346488Y-53499227D01*
X20069063Y-53084032D01*
X19983092Y-52998061D01*
X20565000Y-52998061D01*
X20565000Y-53201939D01*
X20604774Y-53401898D01*
X20682795Y-53590256D01*
X20796063Y-53759774D01*
X20940226Y-53903937D01*
X21109744Y-54017205D01*
X21298102Y-54095226D01*
X21498061Y-54135000D01*
X21701939Y-54135000D01*
X21887645Y-54098061D01*
X24665000Y-54098061D01*
X24665000Y-54301939D01*
X24704774Y-54501898D01*
X24782795Y-54690256D01*
X24896063Y-54859774D01*
X25040226Y-55003937D01*
X25209744Y-55117205D01*
X25398102Y-55195226D01*
X25598061Y-55235000D01*
X25801939Y-55235000D01*
X26001898Y-55195226D01*
X26190256Y-55117205D01*
X26359774Y-55003937D01*
X26503937Y-54859774D01*
X26617205Y-54690256D01*
X26695226Y-54501898D01*
X26735000Y-54301939D01*
X26735000Y-54098061D01*
X26695226Y-53898102D01*
X26617205Y-53709744D01*
X26609399Y-53698061D01*
X40965000Y-53698061D01*
X40965000Y-53901939D01*
X41004774Y-54101898D01*
X41082795Y-54290256D01*
X41089307Y-54300002D01*
X41082795Y-54309747D01*
X41004774Y-54498105D01*
X40965000Y-54698064D01*
X40965000Y-54901942D01*
X41004774Y-55101901D01*
X41082795Y-55290259D01*
X41196063Y-55459777D01*
X41340226Y-55603940D01*
X41509744Y-55717208D01*
X41698102Y-55795229D01*
X41898061Y-55835003D01*
X42101939Y-55835003D01*
X42301898Y-55795229D01*
X42490256Y-55717208D01*
X42659774Y-55603940D01*
X42803937Y-55459777D01*
X42917205Y-55290259D01*
X42995226Y-55101901D01*
X43035000Y-54901942D01*
X43035000Y-54698064D01*
X42995226Y-54498105D01*
X42917205Y-54309747D01*
X42910693Y-54300002D01*
X42917205Y-54290256D01*
X42995226Y-54101898D01*
X43035000Y-53901939D01*
X43035000Y-53698061D01*
X42995226Y-53498102D01*
X42917205Y-53309744D01*
X42803937Y-53140226D01*
X42659774Y-52996063D01*
X42490256Y-52882795D01*
X42301898Y-52804774D01*
X42101939Y-52765000D01*
X41898061Y-52765000D01*
X41698102Y-52804774D01*
X41509744Y-52882795D01*
X41340226Y-52996063D01*
X41196063Y-53140226D01*
X41082795Y-53309744D01*
X41004774Y-53498102D01*
X40965000Y-53698061D01*
X26609399Y-53698061D01*
X26503937Y-53540226D01*
X26359774Y-53396063D01*
X26190256Y-53282795D01*
X26001898Y-53204774D01*
X25801939Y-53165000D01*
X25598061Y-53165000D01*
X25398102Y-53204774D01*
X25209744Y-53282795D01*
X25040226Y-53396063D01*
X24896063Y-53540226D01*
X24782795Y-53709744D01*
X24704774Y-53898102D01*
X24665000Y-54098061D01*
X21887645Y-54098061D01*
X21901898Y-54095226D01*
X22090256Y-54017205D01*
X22259774Y-53903937D01*
X22403937Y-53759774D01*
X22517205Y-53590256D01*
X22595226Y-53401898D01*
X22635000Y-53201939D01*
X22635000Y-52998061D01*
X22595226Y-52798102D01*
X22517205Y-52609744D01*
X22403937Y-52440226D01*
X22361772Y-52398061D01*
X34165000Y-52398061D01*
X34165000Y-52601939D01*
X34204774Y-52801898D01*
X34282795Y-52990256D01*
X34396063Y-53159774D01*
X34540226Y-53303937D01*
X34709744Y-53417205D01*
X34898102Y-53495226D01*
X35098061Y-53535000D01*
X35301939Y-53535000D01*
X35501898Y-53495226D01*
X35690256Y-53417205D01*
X35859774Y-53303937D01*
X36003937Y-53159774D01*
X36117205Y-52990256D01*
X36195226Y-52801898D01*
X36235000Y-52601939D01*
X36235000Y-52398061D01*
X36195226Y-52198102D01*
X36117205Y-52009744D01*
X36003937Y-51840226D01*
X35859774Y-51696063D01*
X35690256Y-51582795D01*
X35501898Y-51504774D01*
X35301939Y-51465000D01*
X35098061Y-51465000D01*
X34898102Y-51504774D01*
X34709744Y-51582795D01*
X34540226Y-51696063D01*
X34396063Y-51840226D01*
X34282795Y-52009744D01*
X34204774Y-52198102D01*
X34165000Y-52398061D01*
X22361772Y-52398061D01*
X22259774Y-52296063D01*
X22090256Y-52182795D01*
X21901898Y-52104774D01*
X21701939Y-52065000D01*
X21498061Y-52065000D01*
X21298102Y-52104774D01*
X21109744Y-52182795D01*
X20940226Y-52296063D01*
X20796063Y-52440226D01*
X20682795Y-52609744D01*
X20604774Y-52798102D01*
X20565000Y-52998061D01*
X19983092Y-52998061D01*
X19715968Y-52730937D01*
X19300773Y-52453512D01*
X18839432Y-52262418D01*
X18349676Y-52165000D01*
X17850324Y-52165000D01*
X17360568Y-52262418D01*
X16899227Y-52453512D01*
X16484032Y-52730937D01*
X16130937Y-53084032D01*
X15853512Y-53499227D01*
X15685000Y-53906050D01*
X15685000Y-51098061D01*
X18465000Y-51098061D01*
X18465000Y-51301939D01*
X18504774Y-51501898D01*
X18582795Y-51690256D01*
X18696063Y-51859774D01*
X18840226Y-52003937D01*
X19009744Y-52117205D01*
X19198102Y-52195226D01*
X19398061Y-52235000D01*
X19601939Y-52235000D01*
X19801898Y-52195226D01*
X19990256Y-52117205D01*
X20159774Y-52003937D01*
X20303937Y-51859774D01*
X20417205Y-51690256D01*
X20495226Y-51501898D01*
X20535000Y-51301939D01*
X20535000Y-51098061D01*
X20495226Y-50898102D01*
X20417205Y-50709744D01*
X20303937Y-50540226D01*
X20159774Y-50396063D01*
X19990256Y-50282795D01*
X19801898Y-50204774D01*
X19601939Y-50165000D01*
X19398061Y-50165000D01*
X19198102Y-50204774D01*
X19009744Y-50282795D01*
X18840226Y-50396063D01*
X18696063Y-50540226D01*
X18582795Y-50709744D01*
X18504774Y-50898102D01*
X18465000Y-51098061D01*
X15685000Y-51098061D01*
X15685000Y-48098061D01*
X20565000Y-48098061D01*
X20565000Y-48301939D01*
X20604774Y-48501898D01*
X20682795Y-48690256D01*
X20796063Y-48859774D01*
X20940226Y-49003937D01*
X21109744Y-49117205D01*
X21298102Y-49195226D01*
X21498061Y-49235000D01*
X21701939Y-49235000D01*
X21901898Y-49195226D01*
X22090256Y-49117205D01*
X22259774Y-49003937D01*
X22403937Y-48859774D01*
X22517205Y-48690256D01*
X22595226Y-48501898D01*
X22635000Y-48301939D01*
X22635000Y-48098061D01*
X22595226Y-47898102D01*
X22517205Y-47709744D01*
X22403937Y-47540226D01*
X22259774Y-47396063D01*
X22113104Y-47298061D01*
X23565000Y-47298061D01*
X23565000Y-47501939D01*
X23604774Y-47701898D01*
X23682795Y-47890256D01*
X23689306Y-47900000D01*
X23682795Y-47909744D01*
X23604774Y-48098102D01*
X23565000Y-48298061D01*
X23565000Y-48501939D01*
X23604774Y-48701898D01*
X23682795Y-48890256D01*
X23689306Y-48900000D01*
X23682795Y-48909744D01*
X23604774Y-49098102D01*
X23565000Y-49298061D01*
X23565000Y-49501939D01*
X23604774Y-49701898D01*
X23682795Y-49890256D01*
X23689306Y-49900000D01*
X23682795Y-49909744D01*
X23604774Y-50098102D01*
X23565000Y-50298061D01*
X23565000Y-50501939D01*
X23604774Y-50701898D01*
X23682795Y-50890256D01*
X23796063Y-51059774D01*
X23940226Y-51203937D01*
X24109744Y-51317205D01*
X24298102Y-51395226D01*
X24498061Y-51435000D01*
X24701939Y-51435000D01*
X24901898Y-51395226D01*
X25090256Y-51317205D01*
X25259774Y-51203937D01*
X25403937Y-51059774D01*
X25517205Y-50890256D01*
X25595226Y-50701898D01*
X25635000Y-50501939D01*
X25635000Y-50398061D01*
X26690000Y-50398061D01*
X26690000Y-50601939D01*
X26729774Y-50801898D01*
X26807795Y-50990256D01*
X26921063Y-51159774D01*
X27065226Y-51303937D01*
X27234744Y-51417205D01*
X27423102Y-51495226D01*
X27623061Y-51535000D01*
X27826939Y-51535000D01*
X28026898Y-51495226D01*
X28215256Y-51417205D01*
X28384774Y-51303937D01*
X28528937Y-51159774D01*
X28642205Y-50990256D01*
X28720226Y-50801898D01*
X28760000Y-50601939D01*
X28760000Y-50398061D01*
X28720226Y-50198102D01*
X28678788Y-50098061D01*
X29865000Y-50098061D01*
X29865000Y-50301939D01*
X29904774Y-50501898D01*
X29982795Y-50690256D01*
X30096063Y-50859774D01*
X30240226Y-51003937D01*
X30409744Y-51117205D01*
X30598102Y-51195226D01*
X30798061Y-51235000D01*
X31001939Y-51235000D01*
X31201898Y-51195226D01*
X31390256Y-51117205D01*
X31559774Y-51003937D01*
X31703937Y-50859774D01*
X31817205Y-50690256D01*
X31895226Y-50501898D01*
X31935000Y-50301939D01*
X31935000Y-50098061D01*
X31895226Y-49898102D01*
X31817205Y-49709744D01*
X31703937Y-49540226D01*
X31559774Y-49396063D01*
X31390256Y-49282795D01*
X31201898Y-49204774D01*
X31001939Y-49165000D01*
X30798061Y-49165000D01*
X30598102Y-49204774D01*
X30409744Y-49282795D01*
X30240226Y-49396063D01*
X30096063Y-49540226D01*
X29982795Y-49709744D01*
X29904774Y-49898102D01*
X29865000Y-50098061D01*
X28678788Y-50098061D01*
X28642205Y-50009744D01*
X28528937Y-49840226D01*
X28384774Y-49696063D01*
X28215256Y-49582795D01*
X28026898Y-49504774D01*
X27826939Y-49465000D01*
X27623061Y-49465000D01*
X27423102Y-49504774D01*
X27234744Y-49582795D01*
X27065226Y-49696063D01*
X26921063Y-49840226D01*
X26807795Y-50009744D01*
X26729774Y-50198102D01*
X26690000Y-50398061D01*
X25635000Y-50398061D01*
X25635000Y-50298061D01*
X25595226Y-50098102D01*
X25517205Y-49909744D01*
X25510694Y-49900000D01*
X25517205Y-49890256D01*
X25595226Y-49701898D01*
X25635000Y-49501939D01*
X25635000Y-49298061D01*
X25595226Y-49098102D01*
X25517205Y-48909744D01*
X25510694Y-48900000D01*
X25517205Y-48890256D01*
X25595226Y-48701898D01*
X25635000Y-48501939D01*
X25635000Y-48298061D01*
X25595226Y-48098102D01*
X25517205Y-47909744D01*
X25510694Y-47900000D01*
X25517205Y-47890256D01*
X25595226Y-47701898D01*
X25635000Y-47501939D01*
X25635000Y-47298061D01*
X25595226Y-47098102D01*
X25517205Y-46909744D01*
X25403937Y-46740226D01*
X25261772Y-46598061D01*
X31665000Y-46598061D01*
X31665000Y-46801939D01*
X31704774Y-47001898D01*
X31782795Y-47190256D01*
X31896063Y-47359774D01*
X32040226Y-47503937D01*
X32209744Y-47617205D01*
X32398102Y-47695226D01*
X32598061Y-47735000D01*
X32801939Y-47735000D01*
X33001898Y-47695226D01*
X33190256Y-47617205D01*
X33300000Y-47543877D01*
X33409744Y-47617205D01*
X33598102Y-47695226D01*
X33798061Y-47735000D01*
X34001939Y-47735000D01*
X34201898Y-47695226D01*
X34390256Y-47617205D01*
X34400000Y-47610694D01*
X34409744Y-47617205D01*
X34598102Y-47695226D01*
X34798061Y-47735000D01*
X35001939Y-47735000D01*
X35201898Y-47695226D01*
X35390256Y-47617205D01*
X35400002Y-47610693D01*
X35409747Y-47617205D01*
X35598105Y-47695226D01*
X35798064Y-47735000D01*
X36001942Y-47735000D01*
X36201901Y-47695226D01*
X36390259Y-47617205D01*
X36400005Y-47610693D01*
X36409750Y-47617205D01*
X36598108Y-47695226D01*
X36798067Y-47735000D01*
X37001945Y-47735000D01*
X37201904Y-47695226D01*
X37390262Y-47617205D01*
X37400008Y-47610693D01*
X37409753Y-47617205D01*
X37598111Y-47695226D01*
X37798070Y-47735000D01*
X38001948Y-47735000D01*
X38201907Y-47695226D01*
X38390265Y-47617205D01*
X38400011Y-47610693D01*
X38409756Y-47617205D01*
X38598114Y-47695226D01*
X38798073Y-47735000D01*
X39001951Y-47735000D01*
X39201910Y-47695226D01*
X39390268Y-47617205D01*
X39400014Y-47610693D01*
X39409759Y-47617205D01*
X39598117Y-47695226D01*
X39798076Y-47735000D01*
X40001954Y-47735000D01*
X40201913Y-47695226D01*
X40390271Y-47617205D01*
X40450008Y-47577290D01*
X40509744Y-47617205D01*
X40698102Y-47695226D01*
X40898061Y-47735000D01*
X41101939Y-47735000D01*
X41301898Y-47695226D01*
X41490256Y-47617205D01*
X41659774Y-47503937D01*
X41803937Y-47359774D01*
X41917205Y-47190256D01*
X41995226Y-47001898D01*
X42035000Y-46801939D01*
X42035000Y-46598061D01*
X42015109Y-46498061D01*
X42565000Y-46498061D01*
X42565000Y-46701939D01*
X42604774Y-46901898D01*
X42682795Y-47090256D01*
X42796063Y-47259774D01*
X42940226Y-47403937D01*
X43109744Y-47517205D01*
X43298102Y-47595226D01*
X43498061Y-47635000D01*
X43701939Y-47635000D01*
X43901898Y-47595226D01*
X44090256Y-47517205D01*
X44259774Y-47403937D01*
X44403937Y-47259774D01*
X44517205Y-47090256D01*
X44595226Y-46901898D01*
X44635000Y-46701939D01*
X44635000Y-46498061D01*
X44595226Y-46298102D01*
X44517205Y-46109744D01*
X44403937Y-45940226D01*
X44259774Y-45796063D01*
X44090256Y-45682795D01*
X43901898Y-45604774D01*
X43701939Y-45565000D01*
X43498061Y-45565000D01*
X43298102Y-45604774D01*
X43109744Y-45682795D01*
X42940226Y-45796063D01*
X42796063Y-45940226D01*
X42682795Y-46109744D01*
X42604774Y-46298102D01*
X42565000Y-46498061D01*
X42015109Y-46498061D01*
X41995226Y-46398102D01*
X41917205Y-46209744D01*
X41803937Y-46040226D01*
X41659774Y-45896063D01*
X41490256Y-45782795D01*
X41301898Y-45704774D01*
X41101939Y-45665000D01*
X40898061Y-45665000D01*
X40698102Y-45704774D01*
X40509744Y-45782795D01*
X40450008Y-45822710D01*
X40390271Y-45782795D01*
X40201913Y-45704774D01*
X40001954Y-45665000D01*
X39798076Y-45665000D01*
X39598117Y-45704774D01*
X39409759Y-45782795D01*
X39400014Y-45789307D01*
X39390268Y-45782795D01*
X39201910Y-45704774D01*
X39001951Y-45665000D01*
X38798073Y-45665000D01*
X38598114Y-45704774D01*
X38409756Y-45782795D01*
X38400011Y-45789307D01*
X38390265Y-45782795D01*
X38201907Y-45704774D01*
X38001948Y-45665000D01*
X37798070Y-45665000D01*
X37598111Y-45704774D01*
X37409753Y-45782795D01*
X37400008Y-45789307D01*
X37390262Y-45782795D01*
X37201904Y-45704774D01*
X37001945Y-45665000D01*
X36798067Y-45665000D01*
X36598108Y-45704774D01*
X36409750Y-45782795D01*
X36400005Y-45789307D01*
X36390259Y-45782795D01*
X36201901Y-45704774D01*
X36001942Y-45665000D01*
X35798064Y-45665000D01*
X35598105Y-45704774D01*
X35409747Y-45782795D01*
X35400002Y-45789307D01*
X35390256Y-45782795D01*
X35201898Y-45704774D01*
X35001939Y-45665000D01*
X34798061Y-45665000D01*
X34598102Y-45704774D01*
X34409744Y-45782795D01*
X34400000Y-45789306D01*
X34390256Y-45782795D01*
X34201898Y-45704774D01*
X34001939Y-45665000D01*
X33798061Y-45665000D01*
X33598102Y-45704774D01*
X33409744Y-45782795D01*
X33300000Y-45856123D01*
X33190256Y-45782795D01*
X33001898Y-45704774D01*
X32801939Y-45665000D01*
X32598061Y-45665000D01*
X32398102Y-45704774D01*
X32209744Y-45782795D01*
X32040226Y-45896063D01*
X31896063Y-46040226D01*
X31782795Y-46209744D01*
X31704774Y-46398102D01*
X31665000Y-46598061D01*
X25261772Y-46598061D01*
X25259774Y-46596063D01*
X25090256Y-46482795D01*
X24901898Y-46404774D01*
X24701939Y-46365000D01*
X24498061Y-46365000D01*
X24298102Y-46404774D01*
X24109744Y-46482795D01*
X23940226Y-46596063D01*
X23796063Y-46740226D01*
X23682795Y-46909744D01*
X23604774Y-47098102D01*
X23565000Y-47298061D01*
X22113104Y-47298061D01*
X22090256Y-47282795D01*
X21901898Y-47204774D01*
X21701939Y-47165000D01*
X21498061Y-47165000D01*
X21298102Y-47204774D01*
X21109744Y-47282795D01*
X20940226Y-47396063D01*
X20796063Y-47540226D01*
X20682795Y-47709744D01*
X20604774Y-47898102D01*
X20565000Y-48098061D01*
X15685000Y-48098061D01*
X15685000Y-32545098D01*
X16110000Y-32545098D01*
X16110000Y-33014902D01*
X16201654Y-33475679D01*
X16381440Y-33909721D01*
X16642450Y-34300349D01*
X16974651Y-34632550D01*
X17269395Y-34829492D01*
X17066641Y-34890997D01*
X16846012Y-35008925D01*
X16652630Y-35167630D01*
X16493925Y-35361012D01*
X16375997Y-35581641D01*
X16303377Y-35821037D01*
X16278856Y-36070000D01*
X16303377Y-36318963D01*
X16375997Y-36558359D01*
X16493925Y-36778988D01*
X16652630Y-36972370D01*
X16728945Y-37035000D01*
X16652630Y-37097630D01*
X16493925Y-37291012D01*
X16375997Y-37511641D01*
X16303377Y-37751037D01*
X16278856Y-38000000D01*
X16303377Y-38248963D01*
X16375997Y-38488359D01*
X16493925Y-38708988D01*
X16652630Y-38902370D01*
X16728945Y-38965000D01*
X16652630Y-39027630D01*
X16493925Y-39221012D01*
X16375997Y-39441641D01*
X16303377Y-39681037D01*
X16278856Y-39930000D01*
X16303377Y-40178963D01*
X16375997Y-40418359D01*
X16493925Y-40638988D01*
X16652630Y-40832370D01*
X16846012Y-40991075D01*
X17066641Y-41109003D01*
X17300274Y-41179875D01*
X16974651Y-41397450D01*
X16642450Y-41729651D01*
X16381440Y-42120279D01*
X16201654Y-42554321D01*
X16110000Y-43015098D01*
X16110000Y-43484902D01*
X16201654Y-43945679D01*
X16381440Y-44379721D01*
X16642450Y-44770349D01*
X16974651Y-45102550D01*
X17365279Y-45363560D01*
X17799321Y-45543346D01*
X18260098Y-45635000D01*
X18729902Y-45635000D01*
X19190679Y-45543346D01*
X19624721Y-45363560D01*
X20015349Y-45102550D01*
X20347550Y-44770349D01*
X20608560Y-44379721D01*
X20788346Y-43945679D01*
X20880000Y-43484902D01*
X20880000Y-43015098D01*
X20799759Y-42611694D01*
X25878633Y-42611694D01*
X25878633Y-42815572D01*
X25918407Y-43015531D01*
X25996428Y-43203889D01*
X26109696Y-43373407D01*
X26253859Y-43517570D01*
X26423377Y-43630838D01*
X26611735Y-43708859D01*
X26811694Y-43748633D01*
X27015572Y-43748633D01*
X27215531Y-43708859D01*
X27403889Y-43630838D01*
X27573407Y-43517570D01*
X27592916Y-43498061D01*
X37465000Y-43498061D01*
X37465000Y-43701939D01*
X37504774Y-43901898D01*
X37582795Y-44090256D01*
X37696063Y-44259774D01*
X37840226Y-44403937D01*
X38009744Y-44517205D01*
X38198102Y-44595226D01*
X38398061Y-44635000D01*
X38601939Y-44635000D01*
X38801898Y-44595226D01*
X38990256Y-44517205D01*
X39159774Y-44403937D01*
X39303937Y-44259774D01*
X39417205Y-44090256D01*
X39495226Y-43901898D01*
X39535000Y-43701939D01*
X39535000Y-43498061D01*
X39495226Y-43298102D01*
X39417205Y-43109744D01*
X39303937Y-42940226D01*
X39159774Y-42796063D01*
X38990256Y-42682795D01*
X38801898Y-42604774D01*
X38768150Y-42598061D01*
X39865000Y-42598061D01*
X39865000Y-42801939D01*
X39904774Y-43001898D01*
X39982795Y-43190256D01*
X40096063Y-43359774D01*
X40240226Y-43503937D01*
X40409744Y-43617205D01*
X40598102Y-43695226D01*
X40798061Y-43735000D01*
X41001939Y-43735000D01*
X41201898Y-43695226D01*
X41390256Y-43617205D01*
X41559774Y-43503937D01*
X41703937Y-43359774D01*
X41817205Y-43190256D01*
X41895226Y-43001898D01*
X41931407Y-42819999D01*
X43881928Y-42819999D01*
X43881928Y-42820001D01*
X43903796Y-43042028D01*
X43968559Y-43255522D01*
X44073728Y-43452280D01*
X44215262Y-43624739D01*
X44387721Y-43766273D01*
X44584479Y-43871442D01*
X44797973Y-43936205D01*
X45020000Y-43958073D01*
X45620000Y-43958073D01*
X45842027Y-43936205D01*
X46055521Y-43871442D01*
X46252279Y-43766273D01*
X46424738Y-43624739D01*
X46566272Y-43452280D01*
X46671441Y-43255522D01*
X46736204Y-43042028D01*
X46758072Y-42820001D01*
X46758072Y-42819999D01*
X46736204Y-42597972D01*
X46671441Y-42384478D01*
X46566272Y-42187720D01*
X46500305Y-42107340D01*
X46595681Y-42011964D01*
X46700741Y-41854731D01*
X46773108Y-41680022D01*
X46810000Y-41494552D01*
X46810000Y-41305448D01*
X46773108Y-41119978D01*
X46700741Y-40945269D01*
X46595681Y-40788036D01*
X46461964Y-40654319D01*
X46304731Y-40549259D01*
X46130022Y-40476892D01*
X45944552Y-40440000D01*
X45755448Y-40440000D01*
X45569978Y-40476892D01*
X45395269Y-40549259D01*
X45238036Y-40654319D01*
X45104319Y-40788036D01*
X44999259Y-40945269D01*
X44926892Y-41119978D01*
X44890000Y-41305448D01*
X44890000Y-41494552D01*
X44926892Y-41680022D01*
X44931300Y-41690663D01*
X44797973Y-41703795D01*
X44584479Y-41768558D01*
X44387721Y-41873727D01*
X44215262Y-42015261D01*
X44073728Y-42187720D01*
X43968559Y-42384478D01*
X43903796Y-42597972D01*
X43881928Y-42819999D01*
X41931407Y-42819999D01*
X41935000Y-42801939D01*
X41935000Y-42598061D01*
X41895226Y-42398102D01*
X41817205Y-42209744D01*
X41703937Y-42040226D01*
X41559774Y-41896063D01*
X41390256Y-41782795D01*
X41201898Y-41704774D01*
X41001939Y-41665000D01*
X40798061Y-41665000D01*
X40598102Y-41704774D01*
X40409744Y-41782795D01*
X40240226Y-41896063D01*
X40096063Y-42040226D01*
X39982795Y-42209744D01*
X39904774Y-42398102D01*
X39865000Y-42598061D01*
X38768150Y-42598061D01*
X38601939Y-42565000D01*
X38398061Y-42565000D01*
X38198102Y-42604774D01*
X38009744Y-42682795D01*
X37840226Y-42796063D01*
X37696063Y-42940226D01*
X37582795Y-43109744D01*
X37504774Y-43298102D01*
X37465000Y-43498061D01*
X27592916Y-43498061D01*
X27717570Y-43373407D01*
X27830838Y-43203889D01*
X27908859Y-43015531D01*
X27948633Y-42815572D01*
X27948633Y-42611694D01*
X27908859Y-42411735D01*
X27830838Y-42223377D01*
X27717570Y-42053859D01*
X27573407Y-41909696D01*
X27403889Y-41796428D01*
X27215531Y-41718407D01*
X27015572Y-41678633D01*
X26811694Y-41678633D01*
X26611735Y-41718407D01*
X26423377Y-41796428D01*
X26253859Y-41909696D01*
X26109696Y-42053859D01*
X25996428Y-42223377D01*
X25918407Y-42411735D01*
X25878633Y-42611694D01*
X20799759Y-42611694D01*
X20788346Y-42554321D01*
X20608560Y-42120279D01*
X20347550Y-41729651D01*
X20015349Y-41397450D01*
X19624721Y-41136440D01*
X19420380Y-41051799D01*
X19533988Y-40991075D01*
X19595000Y-40941004D01*
X19656012Y-40991075D01*
X19876641Y-41109003D01*
X20116037Y-41181623D01*
X20302620Y-41200000D01*
X21697380Y-41200000D01*
X21883963Y-41181623D01*
X22123359Y-41109003D01*
X22343988Y-40991075D01*
X22537370Y-40832370D01*
X22696075Y-40638988D01*
X22814003Y-40418359D01*
X22817172Y-40407911D01*
X30561878Y-40407911D01*
X30561878Y-40592089D01*
X30597810Y-40772729D01*
X30668292Y-40942889D01*
X30770616Y-41096028D01*
X30900850Y-41226262D01*
X31053989Y-41328586D01*
X31224149Y-41399068D01*
X31404789Y-41435000D01*
X31463439Y-41435000D01*
X31463439Y-41493650D01*
X31499371Y-41674290D01*
X31569853Y-41844450D01*
X31672177Y-41997589D01*
X31802411Y-42127823D01*
X31955550Y-42230147D01*
X32125710Y-42300629D01*
X32306350Y-42336561D01*
X32365000Y-42336561D01*
X32365000Y-42395211D01*
X32400932Y-42575851D01*
X32471414Y-42746011D01*
X32573738Y-42899150D01*
X32703972Y-43029384D01*
X32857111Y-43131708D01*
X33027271Y-43202190D01*
X33207911Y-43238122D01*
X33392089Y-43238122D01*
X33572729Y-43202190D01*
X33742889Y-43131708D01*
X33896028Y-43029384D01*
X34026262Y-42899150D01*
X34128586Y-42746011D01*
X34199068Y-42575851D01*
X34235000Y-42395211D01*
X34235000Y-42336561D01*
X34293650Y-42336561D01*
X34474290Y-42300629D01*
X34644450Y-42230147D01*
X34797589Y-42127823D01*
X34927823Y-41997589D01*
X35030147Y-41844450D01*
X35100629Y-41674290D01*
X35136561Y-41493650D01*
X35136561Y-41435000D01*
X35195211Y-41435000D01*
X35375851Y-41399068D01*
X35546011Y-41328586D01*
X35699150Y-41226262D01*
X35829384Y-41096028D01*
X35931708Y-40942889D01*
X36002190Y-40772729D01*
X36038122Y-40592089D01*
X36038122Y-40407911D01*
X36002190Y-40227271D01*
X35931708Y-40057111D01*
X35829384Y-39903972D01*
X35699150Y-39773738D01*
X35585892Y-39698061D01*
X40565000Y-39698061D01*
X40565000Y-39901939D01*
X40604774Y-40101898D01*
X40682795Y-40290256D01*
X40796063Y-40459774D01*
X40940226Y-40603937D01*
X41109744Y-40717205D01*
X41298102Y-40795226D01*
X41498061Y-40835000D01*
X41701939Y-40835000D01*
X41901898Y-40795226D01*
X42090256Y-40717205D01*
X42259774Y-40603937D01*
X42403937Y-40459774D01*
X42517205Y-40290256D01*
X42595226Y-40101898D01*
X42635000Y-39901939D01*
X42635000Y-39698061D01*
X42595226Y-39498102D01*
X42517205Y-39309744D01*
X42403937Y-39140226D01*
X42259774Y-38996063D01*
X42090256Y-38882795D01*
X41901898Y-38804774D01*
X41701939Y-38765000D01*
X41498061Y-38765000D01*
X41298102Y-38804774D01*
X41109744Y-38882795D01*
X40940226Y-38996063D01*
X40796063Y-39140226D01*
X40682795Y-39309744D01*
X40604774Y-39498102D01*
X40565000Y-39698061D01*
X35585892Y-39698061D01*
X35546011Y-39671414D01*
X35375851Y-39600932D01*
X35195211Y-39565000D01*
X35136561Y-39565000D01*
X35136561Y-39506350D01*
X35100629Y-39325710D01*
X35030147Y-39155550D01*
X34927823Y-39002411D01*
X34797589Y-38872177D01*
X34644450Y-38769853D01*
X34474290Y-38699371D01*
X34293650Y-38663439D01*
X34235000Y-38663439D01*
X34235000Y-38604789D01*
X34199068Y-38424149D01*
X34128586Y-38253989D01*
X34026262Y-38100850D01*
X33896028Y-37970616D01*
X33742889Y-37868292D01*
X33572729Y-37797810D01*
X33392089Y-37761878D01*
X33207911Y-37761878D01*
X33027271Y-37797810D01*
X32857111Y-37868292D01*
X32703972Y-37970616D01*
X32573738Y-38100850D01*
X32471414Y-38253989D01*
X32400932Y-38424149D01*
X32365000Y-38604789D01*
X32365000Y-38663439D01*
X32306350Y-38663439D01*
X32125710Y-38699371D01*
X31955550Y-38769853D01*
X31802411Y-38872177D01*
X31672177Y-39002411D01*
X31569853Y-39155550D01*
X31499371Y-39325710D01*
X31463439Y-39506350D01*
X31463439Y-39565000D01*
X31404789Y-39565000D01*
X31224149Y-39600932D01*
X31053989Y-39671414D01*
X30900850Y-39773738D01*
X30770616Y-39903972D01*
X30668292Y-40057111D01*
X30597810Y-40227271D01*
X30561878Y-40407911D01*
X22817172Y-40407911D01*
X22886623Y-40178963D01*
X22911144Y-39930000D01*
X22886623Y-39681037D01*
X22814003Y-39441641D01*
X22696075Y-39221012D01*
X22537370Y-39027630D01*
X22461055Y-38965000D01*
X22537370Y-38902370D01*
X22696075Y-38708988D01*
X22814003Y-38488359D01*
X22886623Y-38248963D01*
X22911144Y-38000000D01*
X22886623Y-37751037D01*
X22814003Y-37511641D01*
X22696075Y-37291012D01*
X22537370Y-37097630D01*
X22461055Y-37035000D01*
X22537370Y-36972370D01*
X22696075Y-36778988D01*
X22814003Y-36558359D01*
X22886623Y-36318963D01*
X22911144Y-36070000D01*
X22908072Y-36038803D01*
X28214208Y-36038803D01*
X28214208Y-36242681D01*
X28253982Y-36442640D01*
X28332003Y-36630998D01*
X28445271Y-36800516D01*
X28589434Y-36944679D01*
X28758952Y-37057947D01*
X28947310Y-37135968D01*
X29147269Y-37175742D01*
X29351147Y-37175742D01*
X29551106Y-37135968D01*
X29739464Y-37057947D01*
X29908982Y-36944679D01*
X30053145Y-36800516D01*
X30166413Y-36630998D01*
X30244434Y-36442640D01*
X30284208Y-36242681D01*
X30284208Y-36227892D01*
X30394831Y-36227892D01*
X30594790Y-36188118D01*
X30783148Y-36110097D01*
X30952666Y-35996829D01*
X31096829Y-35852666D01*
X31210097Y-35683148D01*
X31288118Y-35494790D01*
X31327892Y-35294831D01*
X31327892Y-35090953D01*
X31288118Y-34890994D01*
X31210097Y-34702636D01*
X31096829Y-34533118D01*
X30952666Y-34388955D01*
X30783148Y-34275687D01*
X30594790Y-34197666D01*
X30505972Y-34179999D01*
X43881928Y-34179999D01*
X43881928Y-34180001D01*
X43903796Y-34402028D01*
X43968559Y-34615522D01*
X44073728Y-34812280D01*
X44215262Y-34984739D01*
X44387721Y-35126273D01*
X44584479Y-35231442D01*
X44797973Y-35296205D01*
X44931300Y-35309337D01*
X44926892Y-35319978D01*
X44890000Y-35505448D01*
X44890000Y-35694552D01*
X44926892Y-35880022D01*
X44999259Y-36054731D01*
X45104319Y-36211964D01*
X45238036Y-36345681D01*
X45395269Y-36450741D01*
X45569978Y-36523108D01*
X45755448Y-36560000D01*
X45944552Y-36560000D01*
X46130022Y-36523108D01*
X46304731Y-36450741D01*
X46461964Y-36345681D01*
X46595681Y-36211964D01*
X46700741Y-36054731D01*
X46773108Y-35880022D01*
X46810000Y-35694552D01*
X46810000Y-35505448D01*
X46773108Y-35319978D01*
X46700741Y-35145269D01*
X46595681Y-34988036D01*
X46500305Y-34892660D01*
X46566272Y-34812280D01*
X46671441Y-34615522D01*
X46736204Y-34402028D01*
X46758072Y-34180001D01*
X46758072Y-34179999D01*
X46736204Y-33957972D01*
X46671441Y-33744478D01*
X46566272Y-33547720D01*
X46424738Y-33375261D01*
X46252279Y-33233727D01*
X46055521Y-33128558D01*
X45842027Y-33063795D01*
X45620000Y-33041927D01*
X45020000Y-33041927D01*
X44797973Y-33063795D01*
X44584479Y-33128558D01*
X44387721Y-33233727D01*
X44215262Y-33375261D01*
X44073728Y-33547720D01*
X43968559Y-33744478D01*
X43903796Y-33957972D01*
X43881928Y-34179999D01*
X30505972Y-34179999D01*
X30394831Y-34157892D01*
X30190953Y-34157892D01*
X29990994Y-34197666D01*
X29802636Y-34275687D01*
X29633118Y-34388955D01*
X29488955Y-34533118D01*
X29375687Y-34702636D01*
X29297666Y-34890994D01*
X29257892Y-35090953D01*
X29257892Y-35105742D01*
X29147269Y-35105742D01*
X28947310Y-35145516D01*
X28758952Y-35223537D01*
X28589434Y-35336805D01*
X28445271Y-35480968D01*
X28332003Y-35650486D01*
X28253982Y-35838844D01*
X28214208Y-36038803D01*
X22908072Y-36038803D01*
X22886623Y-35821037D01*
X22814003Y-35581641D01*
X22696075Y-35361012D01*
X22537370Y-35167630D01*
X22343988Y-35008925D01*
X22123359Y-34890997D01*
X21883963Y-34818377D01*
X21697380Y-34800000D01*
X20302620Y-34800000D01*
X20116037Y-34818377D01*
X19876641Y-34890997D01*
X19656012Y-35008925D01*
X19595000Y-35058996D01*
X19533988Y-35008925D01*
X19452002Y-34965103D01*
X19624721Y-34893560D01*
X20015349Y-34632550D01*
X20347550Y-34300349D01*
X20608560Y-33909721D01*
X20788346Y-33475679D01*
X20880000Y-33014902D01*
X20880000Y-32545098D01*
X20788346Y-32084321D01*
X20608560Y-31650279D01*
X20347550Y-31259651D01*
X20015349Y-30927450D01*
X19624721Y-30666440D01*
X19190679Y-30486654D01*
X18729902Y-30395000D01*
X18260098Y-30395000D01*
X17799321Y-30486654D01*
X17365279Y-30666440D01*
X16974651Y-30927450D01*
X16642450Y-31259651D01*
X16381440Y-31650279D01*
X16201654Y-32084321D01*
X16110000Y-32545098D01*
X15685000Y-32545098D01*
X15685000Y-25098061D01*
X33865000Y-25098061D01*
X33865000Y-25301939D01*
X33904774Y-25501898D01*
X33982795Y-25690256D01*
X34096063Y-25859774D01*
X34240226Y-26003937D01*
X34409744Y-26117205D01*
X34598102Y-26195226D01*
X34798061Y-26235000D01*
X35001939Y-26235000D01*
X35201898Y-26195226D01*
X35390256Y-26117205D01*
X35559774Y-26003937D01*
X35703937Y-25859774D01*
X35817205Y-25690256D01*
X35895226Y-25501898D01*
X35935000Y-25301939D01*
X35935000Y-25098061D01*
X35895226Y-24898102D01*
X35817205Y-24709744D01*
X35703937Y-24540226D01*
X35559774Y-24396063D01*
X35390256Y-24282795D01*
X35201898Y-24204774D01*
X35168150Y-24198061D01*
X41165000Y-24198061D01*
X41165000Y-24401939D01*
X41204774Y-24601898D01*
X41282795Y-24790256D01*
X41396063Y-24959774D01*
X41540226Y-25103937D01*
X41709744Y-25217205D01*
X41898102Y-25295226D01*
X42098061Y-25335000D01*
X42301939Y-25335000D01*
X42501898Y-25295226D01*
X42690256Y-25217205D01*
X42750000Y-25177285D01*
X42809744Y-25217205D01*
X42998102Y-25295226D01*
X43198061Y-25335000D01*
X43401939Y-25335000D01*
X43601898Y-25295226D01*
X43790256Y-25217205D01*
X43800000Y-25210694D01*
X43809744Y-25217205D01*
X43998102Y-25295226D01*
X44198061Y-25335000D01*
X44401939Y-25335000D01*
X44601898Y-25295226D01*
X44790256Y-25217205D01*
X44959774Y-25103937D01*
X45103937Y-24959774D01*
X45217205Y-24790256D01*
X45295226Y-24601898D01*
X45335000Y-24401939D01*
X45335000Y-24198061D01*
X45295226Y-23998102D01*
X45217205Y-23809744D01*
X45103937Y-23640226D01*
X44959774Y-23496063D01*
X44790256Y-23382795D01*
X44601898Y-23304774D01*
X44401939Y-23265000D01*
X44198061Y-23265000D01*
X43998102Y-23304774D01*
X43809744Y-23382795D01*
X43800000Y-23389306D01*
X43790256Y-23382795D01*
X43601898Y-23304774D01*
X43401939Y-23265000D01*
X43198061Y-23265000D01*
X42998102Y-23304774D01*
X42809744Y-23382795D01*
X42750000Y-23422715D01*
X42690256Y-23382795D01*
X42501898Y-23304774D01*
X42301939Y-23265000D01*
X42098061Y-23265000D01*
X41898102Y-23304774D01*
X41709744Y-23382795D01*
X41540226Y-23496063D01*
X41396063Y-23640226D01*
X41282795Y-23809744D01*
X41204774Y-23998102D01*
X41165000Y-24198061D01*
X35168150Y-24198061D01*
X35001939Y-24165000D01*
X34798061Y-24165000D01*
X34598102Y-24204774D01*
X34409744Y-24282795D01*
X34240226Y-24396063D01*
X34096063Y-24540226D01*
X33982795Y-24709744D01*
X33904774Y-24898102D01*
X33865000Y-25098061D01*
X15685000Y-25098061D01*
X15685000Y-23035371D01*
X15753512Y-23200773D01*
X16030937Y-23615968D01*
X16384032Y-23969063D01*
X16799227Y-24246488D01*
X17260568Y-24437582D01*
X17750324Y-24535000D01*
X18249676Y-24535000D01*
X18739432Y-24437582D01*
X19200773Y-24246488D01*
X19615968Y-23969063D01*
X19969063Y-23615968D01*
X20246488Y-23200773D01*
X20437582Y-22739432D01*
X20535000Y-22249676D01*
X20535000Y-21750324D01*
X20437582Y-21260568D01*
X20246488Y-20799227D01*
X19969063Y-20384032D01*
X19615968Y-20030937D01*
X19200773Y-19753512D01*
X18739432Y-19562418D01*
X18249676Y-19465000D01*
X17750324Y-19465000D01*
X17260568Y-19562418D01*
X16799227Y-19753512D01*
X16384032Y-20030937D01*
X16030937Y-20384032D01*
X15753512Y-20799227D01*
X15685000Y-20964629D01*
X15685000Y-20608891D01*
X17168958Y-19298061D01*
X35665000Y-19298061D01*
X35665000Y-19501939D01*
X35704774Y-19701898D01*
X35782795Y-19890256D01*
X35896063Y-20059774D01*
X36040226Y-20203937D01*
X36209744Y-20317205D01*
X36398102Y-20395226D01*
X36598061Y-20435000D01*
X36801939Y-20435000D01*
X36865000Y-20422456D01*
X36865000Y-20501939D01*
X36904774Y-20701898D01*
X36982795Y-20890256D01*
X37096063Y-21059774D01*
X37137861Y-21101572D01*
X36999206Y-21240226D01*
X36885938Y-21409744D01*
X36807917Y-21598102D01*
X36768143Y-21798061D01*
X36768143Y-22001939D01*
X36807917Y-22201898D01*
X36885938Y-22390256D01*
X36999206Y-22559774D01*
X37143369Y-22703937D01*
X37312887Y-22817205D01*
X37501245Y-22895226D01*
X37701204Y-22935000D01*
X37905082Y-22935000D01*
X38105041Y-22895226D01*
X38293399Y-22817205D01*
X38462917Y-22703937D01*
X38607080Y-22559774D01*
X38720348Y-22390256D01*
X38798369Y-22201898D01*
X38838143Y-22001939D01*
X38838143Y-21798061D01*
X38798369Y-21598102D01*
X38720348Y-21409744D01*
X38607080Y-21240226D01*
X38565283Y-21198429D01*
X38703937Y-21059774D01*
X38817205Y-20890256D01*
X38895226Y-20701898D01*
X38935000Y-20501939D01*
X38935000Y-20298061D01*
X38895226Y-20098102D01*
X38817205Y-19909744D01*
X38703937Y-19740226D01*
X38559774Y-19596063D01*
X38413104Y-19498061D01*
X42665000Y-19498061D01*
X42665000Y-19701939D01*
X42704774Y-19901898D01*
X42782795Y-20090256D01*
X42896063Y-20259774D01*
X43040226Y-20403937D01*
X43209744Y-20517205D01*
X43398102Y-20595226D01*
X43598061Y-20635000D01*
X43801939Y-20635000D01*
X44001898Y-20595226D01*
X44190256Y-20517205D01*
X44359774Y-20403937D01*
X44503937Y-20259774D01*
X44617205Y-20090256D01*
X44695226Y-19901898D01*
X44735000Y-19701939D01*
X44735000Y-19498061D01*
X44695226Y-19298102D01*
X44617205Y-19109744D01*
X44503937Y-18940226D01*
X44359774Y-18796063D01*
X44190256Y-18682795D01*
X44001898Y-18604774D01*
X43801939Y-18565000D01*
X43598061Y-18565000D01*
X43398102Y-18604774D01*
X43209744Y-18682795D01*
X43040226Y-18796063D01*
X42896063Y-18940226D01*
X42782795Y-19109744D01*
X42704774Y-19298102D01*
X42665000Y-19498061D01*
X38413104Y-19498061D01*
X38390256Y-19482795D01*
X38201898Y-19404774D01*
X38001939Y-19365000D01*
X37798061Y-19365000D01*
X37735000Y-19377544D01*
X37735000Y-19298061D01*
X37695226Y-19098102D01*
X37617205Y-18909744D01*
X37503937Y-18740226D01*
X37359774Y-18596063D01*
X37190256Y-18482795D01*
X37001898Y-18404774D01*
X36801939Y-18365000D01*
X36598061Y-18365000D01*
X36398102Y-18404774D01*
X36209744Y-18482795D01*
X36040226Y-18596063D01*
X35896063Y-18740226D01*
X35782795Y-18909744D01*
X35704774Y-19098102D01*
X35665000Y-19298061D01*
X17168958Y-19298061D01*
X21259217Y-15685000D01*
X22511928Y-15685000D01*
X22511928Y-17350000D01*
G37*
G04 #@! TD.AperFunction*
M02*
