G04 #@! TF.GenerationSoftware,KiCad,Pcbnew,(5.1.10)-1*
G04 #@! TF.CreationDate,2021-06-26T18:25:47-06:00*
G04 #@! TF.ProjectId,cable-link,6361626c-652d-46c6-996e-6b2e6b696361,rev?*
G04 #@! TF.SameCoordinates,Original*
G04 #@! TF.FileFunction,Copper,L4,Bot*
G04 #@! TF.FilePolarity,Positive*
%FSLAX46Y46*%
G04 Gerber Fmt 4.6, Leading zero omitted, Abs format (unit mm)*
G04 Created by KiCad (PCBNEW (5.1.10)-1) date 2021-06-26 18:25:47*
%MOMM*%
%LPD*%
G01*
G04 APERTURE LIST*
G04 #@! TA.AperFunction,ComponentPad*
%ADD10O,2.540000X1.270000*%
G04 #@! TD*
G04 #@! TA.AperFunction,ComponentPad*
%ADD11C,3.500000*%
G04 #@! TD*
G04 #@! TA.AperFunction,ComponentPad*
%ADD12C,0.600000*%
G04 #@! TD*
G04 #@! TA.AperFunction,ComponentPad*
%ADD13R,1.700000X1.700000*%
G04 #@! TD*
G04 #@! TA.AperFunction,ComponentPad*
%ADD14O,1.700000X1.700000*%
G04 #@! TD*
G04 #@! TA.AperFunction,ComponentPad*
%ADD15C,3.800000*%
G04 #@! TD*
G04 #@! TA.AperFunction,ViaPad*
%ADD16C,0.800000*%
G04 #@! TD*
G04 #@! TA.AperFunction,Conductor*
%ADD17C,0.400000*%
G04 #@! TD*
G04 #@! TA.AperFunction,Conductor*
%ADD18C,0.300000*%
G04 #@! TD*
G04 APERTURE END LIST*
G04 #@! TA.AperFunction,ComponentPad*
G36*
G01*
X45620000Y-43320000D02*
X45020000Y-43320000D01*
G75*
G02*
X44520000Y-42820000I0J500000D01*
G01*
X44520000Y-42820000D01*
G75*
G02*
X45020000Y-42320000I500000J0D01*
G01*
X45620000Y-42320000D01*
G75*
G02*
X46120000Y-42820000I0J-500000D01*
G01*
X46120000Y-42820000D01*
G75*
G02*
X45620000Y-43320000I-500000J0D01*
G01*
G37*
G04 #@! TD.AperFunction*
G04 #@! TA.AperFunction,ComponentPad*
G36*
G01*
X45620000Y-34680000D02*
X45020000Y-34680000D01*
G75*
G02*
X44520000Y-34180000I0J500000D01*
G01*
X44520000Y-34180000D01*
G75*
G02*
X45020000Y-33680000I500000J0D01*
G01*
X45620000Y-33680000D01*
G75*
G02*
X46120000Y-34180000I0J-500000D01*
G01*
X46120000Y-34180000D01*
G75*
G02*
X45620000Y-34680000I-500000J0D01*
G01*
G37*
G04 #@! TD.AperFunction*
G04 #@! TA.AperFunction,ComponentPad*
G36*
G01*
X49800000Y-34680000D02*
X49200000Y-34680000D01*
G75*
G02*
X48700000Y-34180000I0J500000D01*
G01*
X48700000Y-34180000D01*
G75*
G02*
X49200000Y-33680000I500000J0D01*
G01*
X49800000Y-33680000D01*
G75*
G02*
X50300000Y-34180000I0J-500000D01*
G01*
X50300000Y-34180000D01*
G75*
G02*
X49800000Y-34680000I-500000J0D01*
G01*
G37*
G04 #@! TD.AperFunction*
G04 #@! TA.AperFunction,ComponentPad*
G36*
G01*
X49800000Y-43320000D02*
X49200000Y-43320000D01*
G75*
G02*
X48700000Y-42820000I0J500000D01*
G01*
X48700000Y-42820000D01*
G75*
G02*
X49200000Y-42320000I500000J0D01*
G01*
X49800000Y-42320000D01*
G75*
G02*
X50300000Y-42820000I0J-500000D01*
G01*
X50300000Y-42820000D01*
G75*
G02*
X49800000Y-43320000I-500000J0D01*
G01*
G37*
G04 #@! TD.AperFunction*
D10*
X21000000Y-39930000D03*
X21000000Y-38000000D03*
X21000000Y-36070000D03*
X18190000Y-39930000D03*
X18190000Y-38000000D03*
X18190000Y-36070000D03*
D11*
X18495000Y-43250000D03*
X18495000Y-32780000D03*
D12*
X33300000Y-38696878D03*
X34201561Y-39598439D03*
X35103122Y-40500000D03*
X32398439Y-39598439D03*
X33300000Y-40500000D03*
X34201561Y-41401561D03*
X31496878Y-40500000D03*
X32398439Y-41401561D03*
X33300000Y-42303122D03*
D13*
X24000000Y-16500000D03*
D14*
X26540000Y-16500000D03*
X29080000Y-16500000D03*
X31620000Y-16500000D03*
X34160000Y-16500000D03*
X36700000Y-16500000D03*
X39240000Y-16500000D03*
X41780000Y-16500000D03*
D15*
X18000000Y-22000000D03*
X48000000Y-22000000D03*
X18100000Y-54700000D03*
X48000000Y-54700000D03*
D16*
X37900009Y-46700000D03*
X43700000Y-19600000D03*
X34900000Y-25200000D03*
X43300000Y-24300000D03*
X44300000Y-24300000D03*
X42200000Y-24300000D03*
X30900000Y-50200000D03*
X38500000Y-43600000D03*
X41600000Y-39800000D03*
X30292892Y-35192892D03*
X29249208Y-36140742D03*
X26913633Y-42713633D03*
X43600000Y-46600000D03*
X35200000Y-52500000D03*
X41800000Y-58500000D03*
X24400000Y-59300000D03*
X24600000Y-47400000D03*
X40900000Y-42700000D03*
X19500000Y-51200000D03*
X43700000Y-20600000D03*
X41800000Y-57500000D03*
X37700000Y-42900000D03*
X28800000Y-19500000D03*
X29900000Y-36900000D03*
X31000000Y-35900000D03*
X30900000Y-59300000D03*
X26900000Y-59300000D03*
X40900000Y-41200000D03*
X47400000Y-26600000D03*
X47500000Y-30200000D03*
X47500000Y-28500000D03*
X21600000Y-48200000D03*
X21600000Y-53100000D03*
X25700000Y-54200000D03*
X24600000Y-49400000D03*
X24600000Y-50400000D03*
X24600000Y-48400000D03*
X27725000Y-50500000D03*
X33900000Y-46700000D03*
X36900006Y-46700000D03*
X37803143Y-21900000D03*
X34900000Y-46700000D03*
X35900003Y-46700000D03*
X36700000Y-19400000D03*
X42000000Y-53800000D03*
X39900015Y-46700000D03*
X42000000Y-54800003D03*
X41000000Y-46700000D03*
X32700000Y-46700000D03*
X38900012Y-46700000D03*
X37900000Y-20400000D03*
D17*
X21600000Y-41130000D02*
X21600000Y-48200000D01*
X20400000Y-39930000D02*
X21600000Y-41130000D01*
X24600000Y-53100000D02*
X25700000Y-54200000D01*
X21600000Y-53100000D02*
X24600000Y-53100000D01*
X24784002Y-49400000D02*
X24600000Y-49400000D01*
X25400001Y-50784001D02*
X25400001Y-50015999D01*
X23985774Y-51200001D02*
X24984001Y-51200001D01*
X24984001Y-51200001D02*
X25400001Y-50784001D01*
X22670010Y-49884237D02*
X23985774Y-51200001D01*
X22670010Y-39501285D02*
X22670010Y-49884237D01*
X21168725Y-38000000D02*
X22670010Y-39501285D01*
X20400000Y-38000000D02*
X21168725Y-38000000D01*
X25400001Y-50015999D02*
X24784002Y-49400000D01*
X24034315Y-50400000D02*
X23500000Y-49865685D01*
X24600000Y-50400000D02*
X24034315Y-50400000D01*
X21168725Y-36070000D02*
X20400000Y-36070000D01*
X23500000Y-38401275D02*
X21168725Y-36070000D01*
X23500000Y-49865685D02*
X23500000Y-38401275D01*
X25232533Y-51800011D02*
X23737241Y-51800010D01*
X26000010Y-49234325D02*
X26000010Y-51032534D01*
X23737241Y-51800010D02*
X20800000Y-48862769D01*
X26000010Y-51032534D02*
X25232533Y-51800011D01*
X25165685Y-48400000D02*
X26000010Y-49234325D01*
X24600000Y-48400000D02*
X25165685Y-48400000D01*
X18790000Y-40362998D02*
X18790000Y-39930000D01*
X20800000Y-42372998D02*
X18790000Y-40362998D01*
X20800000Y-48862769D02*
X20800000Y-42372998D01*
X25481066Y-52400020D02*
X27000000Y-50881086D01*
X23488710Y-52400019D02*
X25481066Y-52400020D01*
X16344999Y-45256310D02*
X23488710Y-52400019D01*
X16344999Y-39676276D02*
X16344999Y-45256310D01*
X18021275Y-38000000D02*
X16344999Y-39676276D01*
X18790000Y-38000000D02*
X18021275Y-38000000D01*
X27343914Y-50881086D02*
X27725000Y-50500000D01*
X27000000Y-50881086D02*
X27343914Y-50881086D01*
X33900000Y-42739124D02*
X35803123Y-40836001D01*
X35803123Y-40836001D02*
X35803123Y-37003123D01*
X33900000Y-46700000D02*
X33900000Y-42739124D01*
X29600001Y-17020001D02*
X29080000Y-16500000D01*
X29600001Y-30800001D02*
X29600001Y-17020001D01*
X35803123Y-37003123D02*
X29600001Y-30800001D01*
X37803143Y-41612855D02*
X37803143Y-21900000D01*
X36899999Y-42515999D02*
X37803143Y-41612855D01*
X36899999Y-46699993D02*
X36899999Y-42515999D01*
X36900006Y-46700000D02*
X36899999Y-46699993D01*
X31620000Y-16500000D02*
X31620000Y-31920000D01*
X36403133Y-41084533D02*
X34500010Y-42987656D01*
X36403133Y-36703133D02*
X36403133Y-41084533D01*
X31620000Y-31920000D02*
X36403133Y-36703133D01*
X34900000Y-43387646D02*
X34900000Y-46700000D01*
X34500010Y-42987656D02*
X34900000Y-43387646D01*
X37003143Y-19703143D02*
X36700000Y-19400000D01*
X37003143Y-41333065D02*
X37003143Y-19703143D01*
X35900003Y-42436205D02*
X37003143Y-41333065D01*
X35900003Y-46700000D02*
X35900003Y-42436205D01*
D18*
X42000000Y-48799985D02*
X39900015Y-46700000D01*
X42000000Y-53800000D02*
X42000000Y-48799985D01*
X42750001Y-48450001D02*
X41000000Y-46700000D01*
X42750001Y-54615687D02*
X42750001Y-48450001D01*
X42565685Y-54800003D02*
X42750001Y-54615687D01*
X42000000Y-54800003D02*
X42565685Y-54800003D01*
D17*
X40089999Y-17349999D02*
X39240000Y-16500000D01*
X40089999Y-44422521D02*
X40089999Y-17349999D01*
X43400000Y-47732522D02*
X40089999Y-44422521D01*
X43400000Y-54743519D02*
X43400000Y-47732522D01*
X42543515Y-55600004D02*
X43400000Y-54743519D01*
X41600004Y-55600004D02*
X42543515Y-55600004D01*
X32700000Y-46700000D02*
X41600004Y-55600004D01*
X39300001Y-21800001D02*
X37900000Y-20400000D01*
X39300001Y-43984001D02*
X39300001Y-21800001D01*
X38900012Y-44383990D02*
X39300001Y-43984001D01*
X38900012Y-46700000D02*
X38900012Y-44383990D01*
M02*
