G04 #@! TF.GenerationSoftware,KiCad,Pcbnew,5.1.10*
G04 #@! TF.CreationDate,2021-06-17T07:00:03-06:00*
G04 #@! TF.ProjectId,cable-link,6361626c-652d-46c6-996e-6b2e6b696361,rev?*
G04 #@! TF.SameCoordinates,Original*
G04 #@! TF.FileFunction,Copper,L2,Inr*
G04 #@! TF.FilePolarity,Positive*
%FSLAX46Y46*%
G04 Gerber Fmt 4.6, Leading zero omitted, Abs format (unit mm)*
G04 Created by KiCad (PCBNEW 5.1.10) date 2021-06-17 07:00:03*
%MOMM*%
%LPD*%
G01*
G04 APERTURE LIST*
G04 #@! TA.AperFunction,ComponentPad*
%ADD10C,0.800000*%
G04 #@! TD*
G04 #@! TA.AperFunction,ComponentPad*
%ADD11C,6.400000*%
G04 #@! TD*
G04 #@! TA.AperFunction,ComponentPad*
%ADD12O,1.270000X2.540000*%
G04 #@! TD*
G04 #@! TA.AperFunction,ComponentPad*
%ADD13C,3.500000*%
G04 #@! TD*
G04 #@! TA.AperFunction,ComponentPad*
%ADD14C,0.600000*%
G04 #@! TD*
G04 #@! TA.AperFunction,ViaPad*
%ADD15C,0.600000*%
G04 #@! TD*
G04 #@! TA.AperFunction,Conductor*
%ADD16C,0.254000*%
G04 #@! TD*
G04 #@! TA.AperFunction,Conductor*
%ADD17C,0.150000*%
G04 #@! TD*
G04 APERTURE END LIST*
D10*
G04 #@! TO.N,GND*
G04 #@! TO.C,H4*
X25394112Y-64605888D03*
X23697056Y-63902944D03*
X22000000Y-64605888D03*
X21297056Y-66302944D03*
X22000000Y-68000000D03*
X23697056Y-68702944D03*
X25394112Y-68000000D03*
X26097056Y-66302944D03*
D11*
X23697056Y-66302944D03*
G04 #@! TD*
D10*
G04 #@! TO.N,GND*
G04 #@! TO.C,H3*
X67947056Y-64552944D03*
X66250000Y-63850000D03*
X64552944Y-64552944D03*
X63850000Y-66250000D03*
X64552944Y-67947056D03*
X66250000Y-68650000D03*
X67947056Y-67947056D03*
X68650000Y-66250000D03*
D11*
X66250000Y-66250000D03*
G04 #@! TD*
D10*
G04 #@! TO.N,GND*
G04 #@! TO.C,H2*
X67947056Y-22052944D03*
X66250000Y-21350000D03*
X64552944Y-22052944D03*
X63850000Y-23750000D03*
X64552944Y-25447056D03*
X66250000Y-26150000D03*
X67947056Y-25447056D03*
X68650000Y-23750000D03*
D11*
X66250000Y-23750000D03*
G04 #@! TD*
D10*
G04 #@! TO.N,GND*
G04 #@! TO.C,H1*
X25447056Y-22052944D03*
X23750000Y-21350000D03*
X22052944Y-22052944D03*
X21350000Y-23750000D03*
X22052944Y-25447056D03*
X23750000Y-26150000D03*
X25447056Y-25447056D03*
X26150000Y-23750000D03*
D11*
X23750000Y-23750000D03*
G04 #@! TD*
D12*
G04 #@! TO.N,+5V*
G04 #@! TO.C,J3*
X46930000Y-64890000D03*
G04 #@! TO.N,/GB_SI*
X45000000Y-64890000D03*
G04 #@! TO.N,/GB_SC*
X43070000Y-64890000D03*
G04 #@! TO.N,/GB_SO*
X46930000Y-67700000D03*
G04 #@! TO.N,/GB_SD*
X45000000Y-67700000D03*
G04 #@! TO.N,GND*
X43070000Y-67700000D03*
D13*
X50250000Y-67395000D03*
X39780000Y-67395000D03*
G04 #@! TD*
D14*
G04 #@! TO.N,GND*
G04 #@! TO.C,U2*
X43196878Y-42625000D03*
X44098439Y-41723439D03*
X45000000Y-40821878D03*
X44098439Y-43526561D03*
X45000000Y-42625000D03*
X45901561Y-41723439D03*
X45000000Y-44428122D03*
X45901561Y-43526561D03*
X46803122Y-42625000D03*
G04 #@! TD*
G04 #@! TO.N,GND*
G04 #@! TO.C,J1*
G04 #@! TA.AperFunction,ComponentPad*
G36*
G01*
X49820000Y-25630001D02*
X49820000Y-26230001D01*
G75*
G02*
X49320000Y-26730001I-500000J0D01*
G01*
X49320000Y-26730001D01*
G75*
G02*
X48820000Y-26230001I0J500000D01*
G01*
X48820000Y-25630001D01*
G75*
G02*
X49320000Y-25130001I500000J0D01*
G01*
X49320000Y-25130001D01*
G75*
G02*
X49820000Y-25630001I0J-500000D01*
G01*
G37*
G04 #@! TD.AperFunction*
G04 #@! TA.AperFunction,ComponentPad*
G36*
G01*
X41180000Y-25630001D02*
X41180000Y-26230001D01*
G75*
G02*
X40680000Y-26730001I-500000J0D01*
G01*
X40680000Y-26730001D01*
G75*
G02*
X40180000Y-26230001I0J500000D01*
G01*
X40180000Y-25630001D01*
G75*
G02*
X40680000Y-25130001I500000J0D01*
G01*
X40680000Y-25130001D01*
G75*
G02*
X41180000Y-25630001I0J-500000D01*
G01*
G37*
G04 #@! TD.AperFunction*
G04 #@! TA.AperFunction,ComponentPad*
G36*
G01*
X41180000Y-21450001D02*
X41180000Y-22050001D01*
G75*
G02*
X40680000Y-22550001I-500000J0D01*
G01*
X40680000Y-22550001D01*
G75*
G02*
X40180000Y-22050001I0J500000D01*
G01*
X40180000Y-21450001D01*
G75*
G02*
X40680000Y-20950001I500000J0D01*
G01*
X40680000Y-20950001D01*
G75*
G02*
X41180000Y-21450001I0J-500000D01*
G01*
G37*
G04 #@! TD.AperFunction*
G04 #@! TA.AperFunction,ComponentPad*
G36*
G01*
X49820000Y-21450001D02*
X49820000Y-22050001D01*
G75*
G02*
X49320000Y-22550001I-500000J0D01*
G01*
X49320000Y-22550001D01*
G75*
G02*
X48820000Y-22050001I0J500000D01*
G01*
X48820000Y-21450001D01*
G75*
G02*
X49320000Y-20950001I500000J0D01*
G01*
X49320000Y-20950001D01*
G75*
G02*
X49820000Y-21450001I0J-500000D01*
G01*
G37*
G04 #@! TD.AperFunction*
G04 #@! TD*
D15*
G04 #@! TO.N,GND*
X42875000Y-30225000D03*
X46550000Y-30250000D03*
X42975000Y-35250000D03*
X38500000Y-37725000D03*
X34075000Y-39650000D03*
X38500000Y-37725000D03*
X43300000Y-49500000D03*
X38275000Y-43900000D03*
X46925000Y-50250000D03*
X52900000Y-48475000D03*
X50350000Y-40125000D03*
X50700000Y-46250000D03*
X62250000Y-51375000D03*
G04 #@! TO.N,+3V3*
X41750000Y-30225000D03*
X39175000Y-38400000D03*
X41175000Y-35250000D03*
X38875000Y-43175000D03*
X43900000Y-48800000D03*
X31950000Y-45275000D03*
X28950000Y-44150000D03*
X28975000Y-47900000D03*
X26950000Y-41175000D03*
X40025000Y-54325000D03*
X42150000Y-54325000D03*
X42150000Y-54325000D03*
X54775000Y-66225000D03*
X60025000Y-66225000D03*
X57000000Y-43000000D03*
X60000000Y-43000000D03*
X59000000Y-43000000D03*
X58000000Y-43000000D03*
X49750000Y-40750000D03*
X28550000Y-30575000D03*
X47025000Y-36325000D03*
G04 #@! TO.N,+1V1*
X40000000Y-39398624D03*
G04 #@! TO.N,/VBUS*
X47575000Y-30275000D03*
G04 #@! TO.N,/GB_SI*
X41875000Y-59875000D03*
G04 #@! TO.N,/GB_SD*
X47375000Y-59850000D03*
G04 #@! TO.N,/I2C0_SDA*
X40350000Y-47350000D03*
X31950000Y-46775000D03*
G04 #@! TO.N,/I2C0_SCL*
X40389419Y-48098965D03*
X31950000Y-47550000D03*
G04 #@! TD*
D16*
G04 #@! TO.N,GND*
X39590498Y-20705821D02*
X39554188Y-20825519D01*
X39541928Y-20950001D01*
X39545000Y-21464251D01*
X39703750Y-21623001D01*
X40553000Y-21623001D01*
X40553000Y-21603001D01*
X40807000Y-21603001D01*
X40807000Y-21623001D01*
X41656250Y-21623001D01*
X41815000Y-21464251D01*
X41818072Y-20950001D01*
X41805812Y-20825519D01*
X41769502Y-20705821D01*
X41758373Y-20685000D01*
X48241627Y-20685000D01*
X48230498Y-20705821D01*
X48194188Y-20825519D01*
X48181928Y-20950001D01*
X48185000Y-21464251D01*
X48343750Y-21623001D01*
X49193000Y-21623001D01*
X49193000Y-21603001D01*
X49447000Y-21603001D01*
X49447000Y-21623001D01*
X50296250Y-21623001D01*
X50455000Y-21464251D01*
X50458072Y-20950001D01*
X50445812Y-20825519D01*
X50409502Y-20705821D01*
X50398373Y-20685000D01*
X63996562Y-20685000D01*
X63728724Y-21049119D01*
X66250000Y-23570395D01*
X66264143Y-23556253D01*
X66443748Y-23735858D01*
X66429605Y-23750000D01*
X68950881Y-26271276D01*
X69315000Y-26003438D01*
X69315001Y-63996562D01*
X68950881Y-63728724D01*
X66429605Y-66250000D01*
X66443748Y-66264143D01*
X66264143Y-66443748D01*
X66250000Y-66429605D01*
X63728724Y-68950881D01*
X63996562Y-69315000D01*
X51603433Y-69315000D01*
X51740003Y-69064609D01*
X50250000Y-67574605D01*
X48759997Y-69064609D01*
X48896567Y-69315000D01*
X47737778Y-69315000D01*
X47832370Y-69237370D01*
X47991075Y-69043988D01*
X48109003Y-68823359D01*
X48180233Y-68588544D01*
X48239234Y-68698927D01*
X48580391Y-68885003D01*
X50070395Y-67395000D01*
X50429605Y-67395000D01*
X51919609Y-68885003D01*
X52260766Y-68698927D01*
X52476513Y-68281591D01*
X52606696Y-67830185D01*
X52646313Y-67362054D01*
X52593842Y-66895189D01*
X52451297Y-66447532D01*
X52283129Y-66132911D01*
X53840000Y-66132911D01*
X53840000Y-66317089D01*
X53875932Y-66497729D01*
X53946414Y-66667889D01*
X54048738Y-66821028D01*
X54178972Y-66951262D01*
X54332111Y-67053586D01*
X54502271Y-67124068D01*
X54682911Y-67160000D01*
X54867089Y-67160000D01*
X55047729Y-67124068D01*
X55217889Y-67053586D01*
X55371028Y-66951262D01*
X55501262Y-66821028D01*
X55603586Y-66667889D01*
X55674068Y-66497729D01*
X55710000Y-66317089D01*
X55710000Y-66132911D01*
X59090000Y-66132911D01*
X59090000Y-66317089D01*
X59125932Y-66497729D01*
X59196414Y-66667889D01*
X59298738Y-66821028D01*
X59428972Y-66951262D01*
X59582111Y-67053586D01*
X59752271Y-67124068D01*
X59932911Y-67160000D01*
X60117089Y-67160000D01*
X60297729Y-67124068D01*
X60467889Y-67053586D01*
X60621028Y-66951262D01*
X60751262Y-66821028D01*
X60853586Y-66667889D01*
X60924068Y-66497729D01*
X60960000Y-66317089D01*
X60960000Y-66225695D01*
X62396520Y-66225695D01*
X62465822Y-66977938D01*
X62680548Y-67702208D01*
X63032445Y-68370670D01*
X63059452Y-68411088D01*
X63549119Y-68771276D01*
X66070395Y-66250000D01*
X63549119Y-63728724D01*
X63059452Y-64088912D01*
X62699151Y-64752882D01*
X62475306Y-65474385D01*
X62396520Y-66225695D01*
X60960000Y-66225695D01*
X60960000Y-66132911D01*
X60924068Y-65952271D01*
X60853586Y-65782111D01*
X60751262Y-65628972D01*
X60621028Y-65498738D01*
X60467889Y-65396414D01*
X60297729Y-65325932D01*
X60117089Y-65290000D01*
X59932911Y-65290000D01*
X59752271Y-65325932D01*
X59582111Y-65396414D01*
X59428972Y-65498738D01*
X59298738Y-65628972D01*
X59196414Y-65782111D01*
X59125932Y-65952271D01*
X59090000Y-66132911D01*
X55710000Y-66132911D01*
X55674068Y-65952271D01*
X55603586Y-65782111D01*
X55501262Y-65628972D01*
X55371028Y-65498738D01*
X55217889Y-65396414D01*
X55047729Y-65325932D01*
X54867089Y-65290000D01*
X54682911Y-65290000D01*
X54502271Y-65325932D01*
X54332111Y-65396414D01*
X54178972Y-65498738D01*
X54048738Y-65628972D01*
X53946414Y-65782111D01*
X53875932Y-65952271D01*
X53840000Y-66132911D01*
X52283129Y-66132911D01*
X52260766Y-66091073D01*
X51919609Y-65904997D01*
X50429605Y-67395000D01*
X50070395Y-67395000D01*
X48580391Y-65904997D01*
X48239234Y-66091073D01*
X48047601Y-66461764D01*
X47991075Y-66356012D01*
X47941004Y-66295000D01*
X47991075Y-66233988D01*
X48109003Y-66013359D01*
X48181623Y-65773963D01*
X48186406Y-65725391D01*
X48759997Y-65725391D01*
X50250000Y-67215395D01*
X51740003Y-65725391D01*
X51553927Y-65384234D01*
X51136591Y-65168487D01*
X50685185Y-65038304D01*
X50217054Y-64998687D01*
X49750189Y-65051158D01*
X49302532Y-65193703D01*
X48946073Y-65384234D01*
X48759997Y-65725391D01*
X48186406Y-65725391D01*
X48200000Y-65587380D01*
X48200000Y-64192620D01*
X48181623Y-64006037D01*
X48109003Y-63766641D01*
X47992736Y-63549119D01*
X63728724Y-63549119D01*
X66250000Y-66070395D01*
X68771276Y-63549119D01*
X68411088Y-63059452D01*
X67747118Y-62699151D01*
X67025615Y-62475306D01*
X66274305Y-62396520D01*
X65522062Y-62465822D01*
X64797792Y-62680548D01*
X64129330Y-63032445D01*
X64088912Y-63059452D01*
X63728724Y-63549119D01*
X47992736Y-63549119D01*
X47991075Y-63546012D01*
X47832370Y-63352630D01*
X47638987Y-63193925D01*
X47418358Y-63075997D01*
X47178962Y-63003377D01*
X46930000Y-62978856D01*
X46681037Y-63003377D01*
X46441641Y-63075997D01*
X46221012Y-63193925D01*
X46027630Y-63352630D01*
X45965000Y-63428945D01*
X45902370Y-63352630D01*
X45708987Y-63193925D01*
X45488358Y-63075997D01*
X45248962Y-63003377D01*
X45000000Y-62978856D01*
X44751037Y-63003377D01*
X44511641Y-63075997D01*
X44291012Y-63193925D01*
X44097630Y-63352630D01*
X44035000Y-63428945D01*
X43972370Y-63352630D01*
X43778987Y-63193925D01*
X43558358Y-63075997D01*
X43318962Y-63003377D01*
X43070000Y-62978856D01*
X42821037Y-63003377D01*
X42581641Y-63075997D01*
X42361012Y-63193925D01*
X42167630Y-63352630D01*
X42008925Y-63546013D01*
X41890997Y-63766642D01*
X41818377Y-64006038D01*
X41800000Y-64192621D01*
X41800000Y-65587380D01*
X41818377Y-65773963D01*
X41890997Y-66013359D01*
X42008926Y-66233988D01*
X42057894Y-66293656D01*
X41969518Y-66425494D01*
X41790766Y-66091073D01*
X41449609Y-65904997D01*
X39959605Y-67395000D01*
X41449609Y-68885003D01*
X41790766Y-68698927D01*
X41831644Y-68619853D01*
X41849179Y-68707324D01*
X41945274Y-68938340D01*
X42084591Y-69146170D01*
X42253927Y-69315000D01*
X41133433Y-69315000D01*
X41270003Y-69064609D01*
X39780000Y-67574605D01*
X38289997Y-69064609D01*
X38426567Y-69315000D01*
X25989439Y-69315000D01*
X26218332Y-69003825D01*
X23697056Y-66482549D01*
X23682914Y-66496692D01*
X23503309Y-66317087D01*
X23517451Y-66302944D01*
X23876661Y-66302944D01*
X26397937Y-68824220D01*
X26887604Y-68464032D01*
X27247905Y-67800062D01*
X27363353Y-67427946D01*
X37383687Y-67427946D01*
X37436158Y-67894811D01*
X37578703Y-68342468D01*
X37769234Y-68698927D01*
X38110391Y-68885003D01*
X39600395Y-67395000D01*
X38110391Y-65904997D01*
X37769234Y-66091073D01*
X37553487Y-66508409D01*
X37423304Y-66959815D01*
X37383687Y-67427946D01*
X27363353Y-67427946D01*
X27471750Y-67078559D01*
X27550536Y-66327249D01*
X27495089Y-65725391D01*
X38289997Y-65725391D01*
X39780000Y-67215395D01*
X41270003Y-65725391D01*
X41083927Y-65384234D01*
X40666591Y-65168487D01*
X40215185Y-65038304D01*
X39747054Y-64998687D01*
X39280189Y-65051158D01*
X38832532Y-65193703D01*
X38476073Y-65384234D01*
X38289997Y-65725391D01*
X27495089Y-65725391D01*
X27481234Y-65575006D01*
X27266508Y-64850736D01*
X26914611Y-64182274D01*
X26887604Y-64141856D01*
X26397937Y-63781668D01*
X23876661Y-66302944D01*
X23517451Y-66302944D01*
X20996175Y-63781668D01*
X20685000Y-64010561D01*
X20685000Y-63602063D01*
X21175780Y-63602063D01*
X23697056Y-66123339D01*
X26218332Y-63602063D01*
X25858144Y-63112396D01*
X25194174Y-62752095D01*
X24472671Y-62528250D01*
X23721361Y-62449464D01*
X22969118Y-62518766D01*
X22244848Y-62733492D01*
X21576386Y-63085389D01*
X21535968Y-63112396D01*
X21175780Y-63602063D01*
X20685000Y-63602063D01*
X20685000Y-59782911D01*
X40940000Y-59782911D01*
X40940000Y-59967089D01*
X40975932Y-60147729D01*
X41046414Y-60317889D01*
X41148738Y-60471028D01*
X41278972Y-60601262D01*
X41432111Y-60703586D01*
X41602271Y-60774068D01*
X41782911Y-60810000D01*
X41967089Y-60810000D01*
X42147729Y-60774068D01*
X42317889Y-60703586D01*
X42471028Y-60601262D01*
X42601262Y-60471028D01*
X42703586Y-60317889D01*
X42774068Y-60147729D01*
X42810000Y-59967089D01*
X42810000Y-59782911D01*
X42805028Y-59757911D01*
X46440000Y-59757911D01*
X46440000Y-59942089D01*
X46475932Y-60122729D01*
X46546414Y-60292889D01*
X46648738Y-60446028D01*
X46778972Y-60576262D01*
X46932111Y-60678586D01*
X47102271Y-60749068D01*
X47282911Y-60785000D01*
X47467089Y-60785000D01*
X47647729Y-60749068D01*
X47817889Y-60678586D01*
X47971028Y-60576262D01*
X48101262Y-60446028D01*
X48203586Y-60292889D01*
X48274068Y-60122729D01*
X48310000Y-59942089D01*
X48310000Y-59757911D01*
X48274068Y-59577271D01*
X48203586Y-59407111D01*
X48101262Y-59253972D01*
X47971028Y-59123738D01*
X47817889Y-59021414D01*
X47647729Y-58950932D01*
X47467089Y-58915000D01*
X47282911Y-58915000D01*
X47102271Y-58950932D01*
X46932111Y-59021414D01*
X46778972Y-59123738D01*
X46648738Y-59253972D01*
X46546414Y-59407111D01*
X46475932Y-59577271D01*
X46440000Y-59757911D01*
X42805028Y-59757911D01*
X42774068Y-59602271D01*
X42703586Y-59432111D01*
X42601262Y-59278972D01*
X42471028Y-59148738D01*
X42317889Y-59046414D01*
X42147729Y-58975932D01*
X41967089Y-58940000D01*
X41782911Y-58940000D01*
X41602271Y-58975932D01*
X41432111Y-59046414D01*
X41278972Y-59148738D01*
X41148738Y-59278972D01*
X41046414Y-59432111D01*
X40975932Y-59602271D01*
X40940000Y-59782911D01*
X20685000Y-59782911D01*
X20685000Y-54232911D01*
X39090000Y-54232911D01*
X39090000Y-54417089D01*
X39125932Y-54597729D01*
X39196414Y-54767889D01*
X39298738Y-54921028D01*
X39428972Y-55051262D01*
X39582111Y-55153586D01*
X39752271Y-55224068D01*
X39932911Y-55260000D01*
X40117089Y-55260000D01*
X40297729Y-55224068D01*
X40467889Y-55153586D01*
X40621028Y-55051262D01*
X40751262Y-54921028D01*
X40853586Y-54767889D01*
X40924068Y-54597729D01*
X40960000Y-54417089D01*
X40960000Y-54232911D01*
X41215000Y-54232911D01*
X41215000Y-54417089D01*
X41250932Y-54597729D01*
X41321414Y-54767889D01*
X41423738Y-54921028D01*
X41553972Y-55051262D01*
X41707111Y-55153586D01*
X41877271Y-55224068D01*
X42057911Y-55260000D01*
X42242089Y-55260000D01*
X42422729Y-55224068D01*
X42592889Y-55153586D01*
X42746028Y-55051262D01*
X42876262Y-54921028D01*
X42978586Y-54767889D01*
X43049068Y-54597729D01*
X43085000Y-54417089D01*
X43085000Y-54232911D01*
X43049068Y-54052271D01*
X42978586Y-53882111D01*
X42876262Y-53728972D01*
X42746028Y-53598738D01*
X42592889Y-53496414D01*
X42422729Y-53425932D01*
X42242089Y-53390000D01*
X42057911Y-53390000D01*
X41877271Y-53425932D01*
X41707111Y-53496414D01*
X41553972Y-53598738D01*
X41423738Y-53728972D01*
X41321414Y-53882111D01*
X41250932Y-54052271D01*
X41215000Y-54232911D01*
X40960000Y-54232911D01*
X40924068Y-54052271D01*
X40853586Y-53882111D01*
X40751262Y-53728972D01*
X40621028Y-53598738D01*
X40467889Y-53496414D01*
X40297729Y-53425932D01*
X40117089Y-53390000D01*
X39932911Y-53390000D01*
X39752271Y-53425932D01*
X39582111Y-53496414D01*
X39428972Y-53598738D01*
X39298738Y-53728972D01*
X39196414Y-53882111D01*
X39125932Y-54052271D01*
X39090000Y-54232911D01*
X20685000Y-54232911D01*
X20685000Y-47807911D01*
X28040000Y-47807911D01*
X28040000Y-47992089D01*
X28075932Y-48172729D01*
X28146414Y-48342889D01*
X28248738Y-48496028D01*
X28378972Y-48626262D01*
X28532111Y-48728586D01*
X28702271Y-48799068D01*
X28882911Y-48835000D01*
X29067089Y-48835000D01*
X29247729Y-48799068D01*
X29417889Y-48728586D01*
X29571028Y-48626262D01*
X29701262Y-48496028D01*
X29803586Y-48342889D01*
X29874068Y-48172729D01*
X29910000Y-47992089D01*
X29910000Y-47807911D01*
X29874068Y-47627271D01*
X29803586Y-47457111D01*
X29701262Y-47303972D01*
X29571028Y-47173738D01*
X29417889Y-47071414D01*
X29247729Y-47000932D01*
X29067089Y-46965000D01*
X28882911Y-46965000D01*
X28702271Y-47000932D01*
X28532111Y-47071414D01*
X28378972Y-47173738D01*
X28248738Y-47303972D01*
X28146414Y-47457111D01*
X28075932Y-47627271D01*
X28040000Y-47807911D01*
X20685000Y-47807911D01*
X20685000Y-45182911D01*
X31015000Y-45182911D01*
X31015000Y-45367089D01*
X31050932Y-45547729D01*
X31121414Y-45717889D01*
X31223738Y-45871028D01*
X31353972Y-46001262D01*
X31389498Y-46025000D01*
X31353972Y-46048738D01*
X31223738Y-46178972D01*
X31121414Y-46332111D01*
X31050932Y-46502271D01*
X31015000Y-46682911D01*
X31015000Y-46867089D01*
X31050932Y-47047729D01*
X31098471Y-47162500D01*
X31050932Y-47277271D01*
X31015000Y-47457911D01*
X31015000Y-47642089D01*
X31050932Y-47822729D01*
X31121414Y-47992889D01*
X31223738Y-48146028D01*
X31353972Y-48276262D01*
X31507111Y-48378586D01*
X31677271Y-48449068D01*
X31857911Y-48485000D01*
X32042089Y-48485000D01*
X32222729Y-48449068D01*
X32392889Y-48378586D01*
X32546028Y-48276262D01*
X32676262Y-48146028D01*
X32778586Y-47992889D01*
X32849068Y-47822729D01*
X32885000Y-47642089D01*
X32885000Y-47457911D01*
X32849068Y-47277271D01*
X32841049Y-47257911D01*
X39415000Y-47257911D01*
X39415000Y-47442089D01*
X39450932Y-47622729D01*
X39512789Y-47772066D01*
X39490351Y-47826236D01*
X39454419Y-48006876D01*
X39454419Y-48191054D01*
X39490351Y-48371694D01*
X39560833Y-48541854D01*
X39663157Y-48694993D01*
X39793391Y-48825227D01*
X39946530Y-48927551D01*
X40116690Y-48998033D01*
X40297330Y-49033965D01*
X40481508Y-49033965D01*
X40662148Y-48998033D01*
X40832308Y-48927551D01*
X40985447Y-48825227D01*
X41102763Y-48707911D01*
X42965000Y-48707911D01*
X42965000Y-48892089D01*
X43000932Y-49072729D01*
X43071414Y-49242889D01*
X43173738Y-49396028D01*
X43303972Y-49526262D01*
X43457111Y-49628586D01*
X43627271Y-49699068D01*
X43807911Y-49735000D01*
X43992089Y-49735000D01*
X44172729Y-49699068D01*
X44342889Y-49628586D01*
X44496028Y-49526262D01*
X44626262Y-49396028D01*
X44728586Y-49242889D01*
X44799068Y-49072729D01*
X44835000Y-48892089D01*
X44835000Y-48707911D01*
X44799068Y-48527271D01*
X44728586Y-48357111D01*
X44626262Y-48203972D01*
X44496028Y-48073738D01*
X44342889Y-47971414D01*
X44172729Y-47900932D01*
X43992089Y-47865000D01*
X43807911Y-47865000D01*
X43627271Y-47900932D01*
X43457111Y-47971414D01*
X43303972Y-48073738D01*
X43173738Y-48203972D01*
X43071414Y-48357111D01*
X43000932Y-48527271D01*
X42965000Y-48707911D01*
X41102763Y-48707911D01*
X41115681Y-48694993D01*
X41218005Y-48541854D01*
X41288487Y-48371694D01*
X41324419Y-48191054D01*
X41324419Y-48006876D01*
X41288487Y-47826236D01*
X41226630Y-47676899D01*
X41249068Y-47622729D01*
X41285000Y-47442089D01*
X41285000Y-47257911D01*
X41249068Y-47077271D01*
X41178586Y-46907111D01*
X41076262Y-46753972D01*
X40946028Y-46623738D01*
X40792889Y-46521414D01*
X40622729Y-46450932D01*
X40442089Y-46415000D01*
X40257911Y-46415000D01*
X40077271Y-46450932D01*
X39907111Y-46521414D01*
X39753972Y-46623738D01*
X39623738Y-46753972D01*
X39521414Y-46907111D01*
X39450932Y-47077271D01*
X39415000Y-47257911D01*
X32841049Y-47257911D01*
X32801529Y-47162500D01*
X32849068Y-47047729D01*
X32885000Y-46867089D01*
X32885000Y-46682911D01*
X32849068Y-46502271D01*
X32778586Y-46332111D01*
X32676262Y-46178972D01*
X32546028Y-46048738D01*
X32510502Y-46025000D01*
X32546028Y-46001262D01*
X32676262Y-45871028D01*
X32778586Y-45717889D01*
X32849068Y-45547729D01*
X32885000Y-45367089D01*
X32885000Y-45182911D01*
X32849068Y-45002271D01*
X32778586Y-44832111D01*
X32689767Y-44699183D01*
X44100427Y-44699183D01*
X44170593Y-44869473D01*
X44272633Y-45022802D01*
X44402625Y-45153278D01*
X44555574Y-45255886D01*
X44725602Y-45326684D01*
X44728939Y-45327695D01*
X44873000Y-45198498D01*
X44873000Y-44555122D01*
X45127000Y-44555122D01*
X45127000Y-45198498D01*
X45271061Y-45327695D01*
X45441351Y-45257529D01*
X45594680Y-45155489D01*
X45725156Y-45025497D01*
X45827764Y-44872548D01*
X45898562Y-44702520D01*
X45899573Y-44699183D01*
X45770376Y-44555122D01*
X45127000Y-44555122D01*
X44873000Y-44555122D01*
X44229624Y-44555122D01*
X44100427Y-44699183D01*
X32689767Y-44699183D01*
X32676262Y-44678972D01*
X32546028Y-44548738D01*
X32392889Y-44446414D01*
X32222729Y-44375932D01*
X32042089Y-44340000D01*
X31857911Y-44340000D01*
X31677271Y-44375932D01*
X31507111Y-44446414D01*
X31353972Y-44548738D01*
X31223738Y-44678972D01*
X31121414Y-44832111D01*
X31050932Y-45002271D01*
X31015000Y-45182911D01*
X20685000Y-45182911D01*
X20685000Y-44057911D01*
X28015000Y-44057911D01*
X28015000Y-44242089D01*
X28050932Y-44422729D01*
X28121414Y-44592889D01*
X28223738Y-44746028D01*
X28353972Y-44876262D01*
X28507111Y-44978586D01*
X28677271Y-45049068D01*
X28857911Y-45085000D01*
X29042089Y-45085000D01*
X29222729Y-45049068D01*
X29392889Y-44978586D01*
X29546028Y-44876262D01*
X29676262Y-44746028D01*
X29778586Y-44592889D01*
X29849068Y-44422729D01*
X29885000Y-44242089D01*
X29885000Y-44057911D01*
X29849068Y-43877271D01*
X29778586Y-43707111D01*
X29676262Y-43553972D01*
X29546028Y-43423738D01*
X29392889Y-43321414D01*
X29222729Y-43250932D01*
X29042089Y-43215000D01*
X28857911Y-43215000D01*
X28677271Y-43250932D01*
X28507111Y-43321414D01*
X28353972Y-43423738D01*
X28223738Y-43553972D01*
X28121414Y-43707111D01*
X28050932Y-43877271D01*
X28015000Y-44057911D01*
X20685000Y-44057911D01*
X20685000Y-43082911D01*
X37940000Y-43082911D01*
X37940000Y-43267089D01*
X37975932Y-43447729D01*
X38046414Y-43617889D01*
X38148738Y-43771028D01*
X38278972Y-43901262D01*
X38432111Y-44003586D01*
X38602271Y-44074068D01*
X38782911Y-44110000D01*
X38967089Y-44110000D01*
X39147729Y-44074068D01*
X39317889Y-44003586D01*
X39471028Y-43901262D01*
X39574668Y-43797622D01*
X43198866Y-43797622D01*
X43269032Y-43967912D01*
X43371072Y-44121241D01*
X43501064Y-44251717D01*
X43654013Y-44354325D01*
X43824041Y-44425123D01*
X43827378Y-44426134D01*
X43971439Y-44296937D01*
X43971439Y-44157061D01*
X44100427Y-44157061D01*
X44225439Y-44296456D01*
X44225439Y-44296937D01*
X44227645Y-44298916D01*
X44229624Y-44301122D01*
X44230105Y-44301122D01*
X44369500Y-44426134D01*
X44539790Y-44355968D01*
X44622204Y-44301122D01*
X44693392Y-44301122D01*
X44806251Y-44413981D01*
X44985859Y-44234373D01*
X44873000Y-44121514D01*
X44873000Y-44050292D01*
X44926203Y-43970987D01*
X44997001Y-43800959D01*
X44998012Y-43797622D01*
X45001988Y-43797622D01*
X45072154Y-43967912D01*
X45127000Y-44050326D01*
X45127000Y-44121514D01*
X45014141Y-44234373D01*
X45193749Y-44413981D01*
X45306608Y-44301122D01*
X45377830Y-44301122D01*
X45457135Y-44354325D01*
X45627163Y-44425123D01*
X45630500Y-44426134D01*
X45769895Y-44301122D01*
X45770376Y-44301122D01*
X45772355Y-44298916D01*
X45774561Y-44296937D01*
X45774561Y-44296456D01*
X45899573Y-44157061D01*
X45829407Y-43986771D01*
X45774561Y-43904357D01*
X45774561Y-43833169D01*
X45887420Y-43720310D01*
X45820671Y-43653561D01*
X46028561Y-43653561D01*
X46028561Y-44296937D01*
X46172622Y-44426134D01*
X46342912Y-44355968D01*
X46496241Y-44253928D01*
X46626717Y-44123936D01*
X46729325Y-43970987D01*
X46800123Y-43800959D01*
X46801134Y-43797622D01*
X46671937Y-43653561D01*
X46028561Y-43653561D01*
X45820671Y-43653561D01*
X45707812Y-43540702D01*
X45594953Y-43653561D01*
X45523731Y-43653561D01*
X45444426Y-43600358D01*
X45274398Y-43529560D01*
X45271061Y-43528549D01*
X45131666Y-43653561D01*
X45131185Y-43653561D01*
X45129206Y-43655767D01*
X45127000Y-43657746D01*
X45127000Y-43658227D01*
X45001988Y-43797622D01*
X44998012Y-43797622D01*
X44873000Y-43658227D01*
X44873000Y-43657746D01*
X44870794Y-43655767D01*
X44868815Y-43653561D01*
X44868334Y-43653561D01*
X44728939Y-43528549D01*
X44558649Y-43598715D01*
X44476235Y-43653561D01*
X44405047Y-43653561D01*
X44292188Y-43540702D01*
X44112580Y-43720310D01*
X44225439Y-43833169D01*
X44225439Y-43904391D01*
X44172236Y-43983696D01*
X44101438Y-44153724D01*
X44100427Y-44157061D01*
X43971439Y-44157061D01*
X43971439Y-43653561D01*
X43328063Y-43653561D01*
X43198866Y-43797622D01*
X39574668Y-43797622D01*
X39601262Y-43771028D01*
X39703586Y-43617889D01*
X39774068Y-43447729D01*
X39810000Y-43267089D01*
X39810000Y-43082911D01*
X39774068Y-42902271D01*
X39771496Y-42896061D01*
X42297305Y-42896061D01*
X42367471Y-43066351D01*
X42469511Y-43219680D01*
X42599503Y-43350156D01*
X42752452Y-43452764D01*
X42922480Y-43523562D01*
X42925817Y-43524573D01*
X43069878Y-43395376D01*
X43069878Y-43255500D01*
X43198866Y-43255500D01*
X43323878Y-43394895D01*
X43323878Y-43395376D01*
X43326084Y-43397355D01*
X43328063Y-43399561D01*
X43328544Y-43399561D01*
X43467939Y-43524573D01*
X43638229Y-43454407D01*
X43720643Y-43399561D01*
X43791831Y-43399561D01*
X43904690Y-43512420D01*
X44084298Y-43332812D01*
X43971439Y-43219953D01*
X43971439Y-43148731D01*
X44024642Y-43069426D01*
X44095440Y-42899398D01*
X44096451Y-42896061D01*
X44100427Y-42896061D01*
X44170593Y-43066351D01*
X44225439Y-43148765D01*
X44225439Y-43219953D01*
X44112580Y-43332812D01*
X44292188Y-43512420D01*
X44405047Y-43399561D01*
X44476269Y-43399561D01*
X44555574Y-43452764D01*
X44725602Y-43523562D01*
X44728939Y-43524573D01*
X44868334Y-43399561D01*
X44868815Y-43399561D01*
X44870794Y-43397355D01*
X44873000Y-43395376D01*
X44873000Y-43394895D01*
X44998012Y-43255500D01*
X45001988Y-43255500D01*
X45127000Y-43394895D01*
X45127000Y-43395376D01*
X45129206Y-43397355D01*
X45131185Y-43399561D01*
X45131666Y-43399561D01*
X45271061Y-43524573D01*
X45441351Y-43454407D01*
X45523765Y-43399561D01*
X45594953Y-43399561D01*
X45707812Y-43512420D01*
X45887420Y-43332812D01*
X45774561Y-43219953D01*
X45774561Y-43148731D01*
X45827764Y-43069426D01*
X45898562Y-42899398D01*
X45899573Y-42896061D01*
X45903549Y-42896061D01*
X45973715Y-43066351D01*
X46028561Y-43148765D01*
X46028561Y-43219953D01*
X45915702Y-43332812D01*
X46095310Y-43512420D01*
X46208169Y-43399561D01*
X46279391Y-43399561D01*
X46358696Y-43452764D01*
X46528724Y-43523562D01*
X46532061Y-43524573D01*
X46671456Y-43399561D01*
X46671937Y-43399561D01*
X46673916Y-43397355D01*
X46676122Y-43395376D01*
X46676122Y-43394895D01*
X46801134Y-43255500D01*
X46730968Y-43085210D01*
X46676122Y-43002796D01*
X46676122Y-42931608D01*
X46788981Y-42818749D01*
X46722232Y-42752000D01*
X46930122Y-42752000D01*
X46930122Y-43395376D01*
X47074183Y-43524573D01*
X47244473Y-43454407D01*
X47397802Y-43352367D01*
X47528278Y-43222375D01*
X47630886Y-43069426D01*
X47698139Y-42907911D01*
X56065000Y-42907911D01*
X56065000Y-43092089D01*
X56100932Y-43272729D01*
X56171414Y-43442889D01*
X56273738Y-43596028D01*
X56403972Y-43726262D01*
X56557111Y-43828586D01*
X56727271Y-43899068D01*
X56907911Y-43935000D01*
X57092089Y-43935000D01*
X57272729Y-43899068D01*
X57442889Y-43828586D01*
X57500000Y-43790426D01*
X57557111Y-43828586D01*
X57727271Y-43899068D01*
X57907911Y-43935000D01*
X58092089Y-43935000D01*
X58272729Y-43899068D01*
X58442889Y-43828586D01*
X58500000Y-43790426D01*
X58557111Y-43828586D01*
X58727271Y-43899068D01*
X58907911Y-43935000D01*
X59092089Y-43935000D01*
X59272729Y-43899068D01*
X59442889Y-43828586D01*
X59500000Y-43790426D01*
X59557111Y-43828586D01*
X59727271Y-43899068D01*
X59907911Y-43935000D01*
X60092089Y-43935000D01*
X60272729Y-43899068D01*
X60442889Y-43828586D01*
X60596028Y-43726262D01*
X60726262Y-43596028D01*
X60828586Y-43442889D01*
X60899068Y-43272729D01*
X60935000Y-43092089D01*
X60935000Y-42907911D01*
X60899068Y-42727271D01*
X60828586Y-42557111D01*
X60726262Y-42403972D01*
X60596028Y-42273738D01*
X60442889Y-42171414D01*
X60272729Y-42100932D01*
X60092089Y-42065000D01*
X59907911Y-42065000D01*
X59727271Y-42100932D01*
X59557111Y-42171414D01*
X59500000Y-42209574D01*
X59442889Y-42171414D01*
X59272729Y-42100932D01*
X59092089Y-42065000D01*
X58907911Y-42065000D01*
X58727271Y-42100932D01*
X58557111Y-42171414D01*
X58500000Y-42209574D01*
X58442889Y-42171414D01*
X58272729Y-42100932D01*
X58092089Y-42065000D01*
X57907911Y-42065000D01*
X57727271Y-42100932D01*
X57557111Y-42171414D01*
X57500000Y-42209574D01*
X57442889Y-42171414D01*
X57272729Y-42100932D01*
X57092089Y-42065000D01*
X56907911Y-42065000D01*
X56727271Y-42100932D01*
X56557111Y-42171414D01*
X56403972Y-42273738D01*
X56273738Y-42403972D01*
X56171414Y-42557111D01*
X56100932Y-42727271D01*
X56065000Y-42907911D01*
X47698139Y-42907911D01*
X47701684Y-42899398D01*
X47702695Y-42896061D01*
X47573498Y-42752000D01*
X46930122Y-42752000D01*
X46722232Y-42752000D01*
X46609373Y-42639141D01*
X46496514Y-42752000D01*
X46425292Y-42752000D01*
X46345987Y-42698797D01*
X46175959Y-42627999D01*
X46172622Y-42626988D01*
X46033227Y-42752000D01*
X46032746Y-42752000D01*
X46030767Y-42754206D01*
X46028561Y-42756185D01*
X46028561Y-42756666D01*
X45903549Y-42896061D01*
X45899573Y-42896061D01*
X45774561Y-42756666D01*
X45774561Y-42756185D01*
X45772355Y-42754206D01*
X45770376Y-42752000D01*
X45769895Y-42752000D01*
X45630500Y-42626988D01*
X45460210Y-42697154D01*
X45377796Y-42752000D01*
X45306608Y-42752000D01*
X45193749Y-42639141D01*
X45014141Y-42818749D01*
X45127000Y-42931608D01*
X45127000Y-43002830D01*
X45073797Y-43082135D01*
X45002999Y-43252163D01*
X45001988Y-43255500D01*
X44998012Y-43255500D01*
X44927846Y-43085210D01*
X44873000Y-43002796D01*
X44873000Y-42931608D01*
X44985859Y-42818749D01*
X44806251Y-42639141D01*
X44693392Y-42752000D01*
X44622170Y-42752000D01*
X44542865Y-42698797D01*
X44372837Y-42627999D01*
X44369500Y-42626988D01*
X44230105Y-42752000D01*
X44229624Y-42752000D01*
X44227645Y-42754206D01*
X44225439Y-42756185D01*
X44225439Y-42756666D01*
X44100427Y-42896061D01*
X44096451Y-42896061D01*
X43971439Y-42756666D01*
X43971439Y-42756185D01*
X43969233Y-42754206D01*
X43967254Y-42752000D01*
X43966773Y-42752000D01*
X43827378Y-42626988D01*
X43657088Y-42697154D01*
X43574674Y-42752000D01*
X43503486Y-42752000D01*
X43390627Y-42639141D01*
X43211019Y-42818749D01*
X43323878Y-42931608D01*
X43323878Y-43002830D01*
X43270675Y-43082135D01*
X43199877Y-43252163D01*
X43198866Y-43255500D01*
X43069878Y-43255500D01*
X43069878Y-42752000D01*
X42426502Y-42752000D01*
X42297305Y-42896061D01*
X39771496Y-42896061D01*
X39703586Y-42732111D01*
X39601262Y-42578972D01*
X39471028Y-42448738D01*
X39329151Y-42353939D01*
X42297305Y-42353939D01*
X42426502Y-42498000D01*
X43069878Y-42498000D01*
X43069878Y-41994500D01*
X43198866Y-41994500D01*
X43269032Y-42164790D01*
X43323878Y-42247204D01*
X43323878Y-42318392D01*
X43211019Y-42431251D01*
X43390627Y-42610859D01*
X43503486Y-42498000D01*
X43574708Y-42498000D01*
X43654013Y-42551203D01*
X43824041Y-42622001D01*
X43827378Y-42623012D01*
X43966773Y-42498000D01*
X43967254Y-42498000D01*
X43969233Y-42495794D01*
X43971439Y-42493815D01*
X43971439Y-42493334D01*
X44096451Y-42353939D01*
X44100427Y-42353939D01*
X44225439Y-42493334D01*
X44225439Y-42493815D01*
X44227645Y-42495794D01*
X44229624Y-42498000D01*
X44230105Y-42498000D01*
X44369500Y-42623012D01*
X44539790Y-42552846D01*
X44622204Y-42498000D01*
X44693392Y-42498000D01*
X44806251Y-42610859D01*
X44985859Y-42431251D01*
X44873000Y-42318392D01*
X44873000Y-42247170D01*
X44926203Y-42167865D01*
X44997001Y-41997837D01*
X44998012Y-41994500D01*
X45001988Y-41994500D01*
X45072154Y-42164790D01*
X45127000Y-42247204D01*
X45127000Y-42318392D01*
X45014141Y-42431251D01*
X45193749Y-42610859D01*
X45306608Y-42498000D01*
X45377830Y-42498000D01*
X45457135Y-42551203D01*
X45627163Y-42622001D01*
X45630500Y-42623012D01*
X45769895Y-42498000D01*
X45770376Y-42498000D01*
X45772355Y-42495794D01*
X45774561Y-42493815D01*
X45774561Y-42493334D01*
X45899573Y-42353939D01*
X45903549Y-42353939D01*
X46028561Y-42493334D01*
X46028561Y-42493815D01*
X46030767Y-42495794D01*
X46032746Y-42498000D01*
X46033227Y-42498000D01*
X46172622Y-42623012D01*
X46342912Y-42552846D01*
X46425326Y-42498000D01*
X46496514Y-42498000D01*
X46609373Y-42610859D01*
X46788981Y-42431251D01*
X46676122Y-42318392D01*
X46676122Y-42247170D01*
X46729325Y-42167865D01*
X46800123Y-41997837D01*
X46801134Y-41994500D01*
X46676122Y-41855105D01*
X46676122Y-41854624D01*
X46930122Y-41854624D01*
X46930122Y-42498000D01*
X47573498Y-42498000D01*
X47702695Y-42353939D01*
X47632529Y-42183649D01*
X47530489Y-42030320D01*
X47400497Y-41899844D01*
X47247548Y-41797236D01*
X47077520Y-41726438D01*
X47074183Y-41725427D01*
X46930122Y-41854624D01*
X46676122Y-41854624D01*
X46673916Y-41852645D01*
X46671937Y-41850439D01*
X46671456Y-41850439D01*
X46532061Y-41725427D01*
X46361771Y-41795593D01*
X46279357Y-41850439D01*
X46208169Y-41850439D01*
X46095310Y-41737580D01*
X45915702Y-41917188D01*
X46028561Y-42030047D01*
X46028561Y-42101269D01*
X45975358Y-42180574D01*
X45904560Y-42350602D01*
X45903549Y-42353939D01*
X45899573Y-42353939D01*
X45829407Y-42183649D01*
X45774561Y-42101235D01*
X45774561Y-42030047D01*
X45887420Y-41917188D01*
X45707812Y-41737580D01*
X45594953Y-41850439D01*
X45523731Y-41850439D01*
X45444426Y-41797236D01*
X45274398Y-41726438D01*
X45271061Y-41725427D01*
X45131666Y-41850439D01*
X45131185Y-41850439D01*
X45129206Y-41852645D01*
X45127000Y-41854624D01*
X45127000Y-41855105D01*
X45001988Y-41994500D01*
X44998012Y-41994500D01*
X44873000Y-41855105D01*
X44873000Y-41854624D01*
X44870794Y-41852645D01*
X44868815Y-41850439D01*
X44868334Y-41850439D01*
X44728939Y-41725427D01*
X44558649Y-41795593D01*
X44476235Y-41850439D01*
X44405047Y-41850439D01*
X44292188Y-41737580D01*
X44112580Y-41917188D01*
X44225439Y-42030047D01*
X44225439Y-42101269D01*
X44172236Y-42180574D01*
X44101438Y-42350602D01*
X44100427Y-42353939D01*
X44096451Y-42353939D01*
X44026285Y-42183649D01*
X43971439Y-42101235D01*
X43971439Y-42030047D01*
X44084298Y-41917188D01*
X43904690Y-41737580D01*
X43791831Y-41850439D01*
X43720609Y-41850439D01*
X43641304Y-41797236D01*
X43471276Y-41726438D01*
X43467939Y-41725427D01*
X43328544Y-41850439D01*
X43328063Y-41850439D01*
X43326084Y-41852645D01*
X43323878Y-41854624D01*
X43323878Y-41855105D01*
X43198866Y-41994500D01*
X43069878Y-41994500D01*
X43069878Y-41854624D01*
X42925817Y-41725427D01*
X42755527Y-41795593D01*
X42602198Y-41897633D01*
X42471722Y-42027625D01*
X42369114Y-42180574D01*
X42298316Y-42350602D01*
X42297305Y-42353939D01*
X39329151Y-42353939D01*
X39317889Y-42346414D01*
X39147729Y-42275932D01*
X38967089Y-42240000D01*
X38782911Y-42240000D01*
X38602271Y-42275932D01*
X38432111Y-42346414D01*
X38278972Y-42448738D01*
X38148738Y-42578972D01*
X38046414Y-42732111D01*
X37975932Y-42902271D01*
X37940000Y-43082911D01*
X20685000Y-43082911D01*
X20685000Y-41082911D01*
X26015000Y-41082911D01*
X26015000Y-41267089D01*
X26050932Y-41447729D01*
X26121414Y-41617889D01*
X26223738Y-41771028D01*
X26353972Y-41901262D01*
X26507111Y-42003586D01*
X26677271Y-42074068D01*
X26857911Y-42110000D01*
X27042089Y-42110000D01*
X27222729Y-42074068D01*
X27392889Y-42003586D01*
X27546028Y-41901262D01*
X27676262Y-41771028D01*
X27778586Y-41617889D01*
X27847142Y-41452378D01*
X43198866Y-41452378D01*
X43328063Y-41596439D01*
X43971439Y-41596439D01*
X43971439Y-41092939D01*
X44100427Y-41092939D01*
X44170593Y-41263229D01*
X44225439Y-41345643D01*
X44225439Y-41416831D01*
X44112580Y-41529690D01*
X44292188Y-41709298D01*
X44405047Y-41596439D01*
X44476269Y-41596439D01*
X44555574Y-41649642D01*
X44725602Y-41720440D01*
X44728939Y-41721451D01*
X44868334Y-41596439D01*
X44868815Y-41596439D01*
X44870794Y-41594233D01*
X44873000Y-41592254D01*
X44873000Y-41591773D01*
X44998012Y-41452378D01*
X45001988Y-41452378D01*
X45127000Y-41591773D01*
X45127000Y-41592254D01*
X45129206Y-41594233D01*
X45131185Y-41596439D01*
X45131666Y-41596439D01*
X45271061Y-41721451D01*
X45441351Y-41651285D01*
X45523765Y-41596439D01*
X45594953Y-41596439D01*
X45707812Y-41709298D01*
X45887420Y-41529690D01*
X45774561Y-41416831D01*
X45774561Y-41345609D01*
X45827764Y-41266304D01*
X45898562Y-41096276D01*
X45899573Y-41092939D01*
X45774561Y-40953544D01*
X45774561Y-40953063D01*
X46028561Y-40953063D01*
X46028561Y-41596439D01*
X46671937Y-41596439D01*
X46801134Y-41452378D01*
X46730968Y-41282088D01*
X46628928Y-41128759D01*
X46498936Y-40998283D01*
X46345987Y-40895675D01*
X46175959Y-40824877D01*
X46172622Y-40823866D01*
X46028561Y-40953063D01*
X45774561Y-40953063D01*
X45772355Y-40951084D01*
X45770376Y-40948878D01*
X45769895Y-40948878D01*
X45630500Y-40823866D01*
X45460210Y-40894032D01*
X45377796Y-40948878D01*
X45306608Y-40948878D01*
X45193749Y-40836019D01*
X45014141Y-41015627D01*
X45127000Y-41128486D01*
X45127000Y-41199708D01*
X45073797Y-41279013D01*
X45002999Y-41449041D01*
X45001988Y-41452378D01*
X44998012Y-41452378D01*
X44927846Y-41282088D01*
X44873000Y-41199674D01*
X44873000Y-41128486D01*
X44985859Y-41015627D01*
X44806251Y-40836019D01*
X44693392Y-40948878D01*
X44622170Y-40948878D01*
X44542865Y-40895675D01*
X44372837Y-40824877D01*
X44369500Y-40823866D01*
X44230105Y-40948878D01*
X44229624Y-40948878D01*
X44227645Y-40951084D01*
X44225439Y-40953063D01*
X44225439Y-40953544D01*
X44100427Y-41092939D01*
X43971439Y-41092939D01*
X43971439Y-40953063D01*
X43827378Y-40823866D01*
X43657088Y-40894032D01*
X43503759Y-40996072D01*
X43373283Y-41126064D01*
X43270675Y-41279013D01*
X43199877Y-41449041D01*
X43198866Y-41452378D01*
X27847142Y-41452378D01*
X27849068Y-41447729D01*
X27885000Y-41267089D01*
X27885000Y-41082911D01*
X27849068Y-40902271D01*
X27778586Y-40732111D01*
X27676262Y-40578972D01*
X27648107Y-40550817D01*
X44100427Y-40550817D01*
X44229624Y-40694878D01*
X44873000Y-40694878D01*
X44873000Y-40051502D01*
X45127000Y-40051502D01*
X45127000Y-40694878D01*
X45770376Y-40694878D01*
X45803528Y-40657911D01*
X48815000Y-40657911D01*
X48815000Y-40842089D01*
X48850932Y-41022729D01*
X48921414Y-41192889D01*
X49023738Y-41346028D01*
X49153972Y-41476262D01*
X49307111Y-41578586D01*
X49477271Y-41649068D01*
X49657911Y-41685000D01*
X49842089Y-41685000D01*
X50022729Y-41649068D01*
X50192889Y-41578586D01*
X50346028Y-41476262D01*
X50476262Y-41346028D01*
X50578586Y-41192889D01*
X50649068Y-41022729D01*
X50685000Y-40842089D01*
X50685000Y-40657911D01*
X50649068Y-40477271D01*
X50578586Y-40307111D01*
X50476262Y-40153972D01*
X50346028Y-40023738D01*
X50192889Y-39921414D01*
X50022729Y-39850932D01*
X49842089Y-39815000D01*
X49657911Y-39815000D01*
X49477271Y-39850932D01*
X49307111Y-39921414D01*
X49153972Y-40023738D01*
X49023738Y-40153972D01*
X48921414Y-40307111D01*
X48850932Y-40477271D01*
X48815000Y-40657911D01*
X45803528Y-40657911D01*
X45899573Y-40550817D01*
X45829407Y-40380527D01*
X45727367Y-40227198D01*
X45597375Y-40096722D01*
X45444426Y-39994114D01*
X45274398Y-39923316D01*
X45271061Y-39922305D01*
X45127000Y-40051502D01*
X44873000Y-40051502D01*
X44728939Y-39922305D01*
X44558649Y-39992471D01*
X44405320Y-40094511D01*
X44274844Y-40224503D01*
X44172236Y-40377452D01*
X44101438Y-40547480D01*
X44100427Y-40550817D01*
X27648107Y-40550817D01*
X27546028Y-40448738D01*
X27392889Y-40346414D01*
X27222729Y-40275932D01*
X27042089Y-40240000D01*
X26857911Y-40240000D01*
X26677271Y-40275932D01*
X26507111Y-40346414D01*
X26353972Y-40448738D01*
X26223738Y-40578972D01*
X26121414Y-40732111D01*
X26050932Y-40902271D01*
X26015000Y-41082911D01*
X20685000Y-41082911D01*
X20685000Y-38307911D01*
X38240000Y-38307911D01*
X38240000Y-38492089D01*
X38275932Y-38672729D01*
X38346414Y-38842889D01*
X38448738Y-38996028D01*
X38578972Y-39126262D01*
X38732111Y-39228586D01*
X38902271Y-39299068D01*
X39065000Y-39331437D01*
X39065000Y-39490713D01*
X39100932Y-39671353D01*
X39171414Y-39841513D01*
X39273738Y-39994652D01*
X39403972Y-40124886D01*
X39557111Y-40227210D01*
X39727271Y-40297692D01*
X39907911Y-40333624D01*
X40092089Y-40333624D01*
X40272729Y-40297692D01*
X40442889Y-40227210D01*
X40596028Y-40124886D01*
X40726262Y-39994652D01*
X40828586Y-39841513D01*
X40899068Y-39671353D01*
X40935000Y-39490713D01*
X40935000Y-39306535D01*
X40899068Y-39125895D01*
X40828586Y-38955735D01*
X40726262Y-38802596D01*
X40596028Y-38672362D01*
X40442889Y-38570038D01*
X40272729Y-38499556D01*
X40110000Y-38467187D01*
X40110000Y-38307911D01*
X40074068Y-38127271D01*
X40003586Y-37957111D01*
X39901262Y-37803972D01*
X39771028Y-37673738D01*
X39617889Y-37571414D01*
X39447729Y-37500932D01*
X39267089Y-37465000D01*
X39082911Y-37465000D01*
X38902271Y-37500932D01*
X38732111Y-37571414D01*
X38578972Y-37673738D01*
X38448738Y-37803972D01*
X38346414Y-37957111D01*
X38275932Y-38127271D01*
X38240000Y-38307911D01*
X20685000Y-38307911D01*
X20685000Y-36232911D01*
X46090000Y-36232911D01*
X46090000Y-36417089D01*
X46125932Y-36597729D01*
X46196414Y-36767889D01*
X46298738Y-36921028D01*
X46428972Y-37051262D01*
X46582111Y-37153586D01*
X46752271Y-37224068D01*
X46932911Y-37260000D01*
X47117089Y-37260000D01*
X47297729Y-37224068D01*
X47467889Y-37153586D01*
X47621028Y-37051262D01*
X47751262Y-36921028D01*
X47853586Y-36767889D01*
X47924068Y-36597729D01*
X47960000Y-36417089D01*
X47960000Y-36232911D01*
X47924068Y-36052271D01*
X47853586Y-35882111D01*
X47751262Y-35728972D01*
X47621028Y-35598738D01*
X47467889Y-35496414D01*
X47297729Y-35425932D01*
X47117089Y-35390000D01*
X46932911Y-35390000D01*
X46752271Y-35425932D01*
X46582111Y-35496414D01*
X46428972Y-35598738D01*
X46298738Y-35728972D01*
X46196414Y-35882111D01*
X46125932Y-36052271D01*
X46090000Y-36232911D01*
X20685000Y-36232911D01*
X20685000Y-35157911D01*
X40240000Y-35157911D01*
X40240000Y-35342089D01*
X40275932Y-35522729D01*
X40346414Y-35692889D01*
X40448738Y-35846028D01*
X40578972Y-35976262D01*
X40732111Y-36078586D01*
X40902271Y-36149068D01*
X41082911Y-36185000D01*
X41267089Y-36185000D01*
X41447729Y-36149068D01*
X41617889Y-36078586D01*
X41771028Y-35976262D01*
X41901262Y-35846028D01*
X42003586Y-35692889D01*
X42074068Y-35522729D01*
X42110000Y-35342089D01*
X42110000Y-35157911D01*
X42074068Y-34977271D01*
X42003586Y-34807111D01*
X41901262Y-34653972D01*
X41771028Y-34523738D01*
X41617889Y-34421414D01*
X41447729Y-34350932D01*
X41267089Y-34315000D01*
X41082911Y-34315000D01*
X40902271Y-34350932D01*
X40732111Y-34421414D01*
X40578972Y-34523738D01*
X40448738Y-34653972D01*
X40346414Y-34807111D01*
X40275932Y-34977271D01*
X40240000Y-35157911D01*
X20685000Y-35157911D01*
X20685000Y-30482911D01*
X27615000Y-30482911D01*
X27615000Y-30667089D01*
X27650932Y-30847729D01*
X27721414Y-31017889D01*
X27823738Y-31171028D01*
X27953972Y-31301262D01*
X28107111Y-31403586D01*
X28277271Y-31474068D01*
X28457911Y-31510000D01*
X28642089Y-31510000D01*
X28822729Y-31474068D01*
X28992889Y-31403586D01*
X29146028Y-31301262D01*
X29276262Y-31171028D01*
X29378586Y-31017889D01*
X29449068Y-30847729D01*
X29485000Y-30667089D01*
X29485000Y-30482911D01*
X29449068Y-30302271D01*
X29378918Y-30132911D01*
X40815000Y-30132911D01*
X40815000Y-30317089D01*
X40850932Y-30497729D01*
X40921414Y-30667889D01*
X41023738Y-30821028D01*
X41153972Y-30951262D01*
X41307111Y-31053586D01*
X41477271Y-31124068D01*
X41657911Y-31160000D01*
X41842089Y-31160000D01*
X42022729Y-31124068D01*
X42192889Y-31053586D01*
X42346028Y-30951262D01*
X42476262Y-30821028D01*
X42578586Y-30667889D01*
X42649068Y-30497729D01*
X42685000Y-30317089D01*
X42685000Y-30182911D01*
X46640000Y-30182911D01*
X46640000Y-30367089D01*
X46675932Y-30547729D01*
X46746414Y-30717889D01*
X46848738Y-30871028D01*
X46978972Y-31001262D01*
X47132111Y-31103586D01*
X47302271Y-31174068D01*
X47482911Y-31210000D01*
X47667089Y-31210000D01*
X47847729Y-31174068D01*
X48017889Y-31103586D01*
X48171028Y-31001262D01*
X48301262Y-30871028D01*
X48403586Y-30717889D01*
X48474068Y-30547729D01*
X48510000Y-30367089D01*
X48510000Y-30182911D01*
X48474068Y-30002271D01*
X48403586Y-29832111D01*
X48301262Y-29678972D01*
X48171028Y-29548738D01*
X48017889Y-29446414D01*
X47847729Y-29375932D01*
X47667089Y-29340000D01*
X47482911Y-29340000D01*
X47302271Y-29375932D01*
X47132111Y-29446414D01*
X46978972Y-29548738D01*
X46848738Y-29678972D01*
X46746414Y-29832111D01*
X46675932Y-30002271D01*
X46640000Y-30182911D01*
X42685000Y-30182911D01*
X42685000Y-30132911D01*
X42649068Y-29952271D01*
X42578586Y-29782111D01*
X42476262Y-29628972D01*
X42346028Y-29498738D01*
X42192889Y-29396414D01*
X42022729Y-29325932D01*
X41842089Y-29290000D01*
X41657911Y-29290000D01*
X41477271Y-29325932D01*
X41307111Y-29396414D01*
X41153972Y-29498738D01*
X41023738Y-29628972D01*
X40921414Y-29782111D01*
X40850932Y-29952271D01*
X40815000Y-30132911D01*
X29378918Y-30132911D01*
X29378586Y-30132111D01*
X29276262Y-29978972D01*
X29146028Y-29848738D01*
X28992889Y-29746414D01*
X28822729Y-29675932D01*
X28642089Y-29640000D01*
X28457911Y-29640000D01*
X28277271Y-29675932D01*
X28107111Y-29746414D01*
X27953972Y-29848738D01*
X27823738Y-29978972D01*
X27721414Y-30132111D01*
X27650932Y-30302271D01*
X27615000Y-30482911D01*
X20685000Y-30482911D01*
X20685000Y-26450881D01*
X21228724Y-26450881D01*
X21588912Y-26940548D01*
X22252882Y-27300849D01*
X22974385Y-27524694D01*
X23725695Y-27603480D01*
X24477938Y-27534178D01*
X25202208Y-27319452D01*
X25870670Y-26967555D01*
X25911088Y-26940548D01*
X26065961Y-26730001D01*
X39541928Y-26730001D01*
X39554188Y-26854483D01*
X39590498Y-26974181D01*
X39649463Y-27084495D01*
X39728815Y-27181186D01*
X39825506Y-27260538D01*
X39935820Y-27319503D01*
X40055518Y-27355813D01*
X40180000Y-27368073D01*
X40394250Y-27365001D01*
X40553000Y-27206251D01*
X40553000Y-26057001D01*
X39703750Y-26057001D01*
X39545000Y-26215751D01*
X39541928Y-26730001D01*
X26065961Y-26730001D01*
X26271276Y-26450881D01*
X23750000Y-23929605D01*
X21228724Y-26450881D01*
X20685000Y-26450881D01*
X20685000Y-26003438D01*
X21049119Y-26271276D01*
X23570395Y-23750000D01*
X23929605Y-23750000D01*
X26450881Y-26271276D01*
X26940548Y-25911088D01*
X27300849Y-25247118D01*
X27337184Y-25130001D01*
X39541928Y-25130001D01*
X39545000Y-25644251D01*
X39703750Y-25803001D01*
X40553000Y-25803001D01*
X40553000Y-24653751D01*
X40807000Y-24653751D01*
X40807000Y-25803001D01*
X40827000Y-25803001D01*
X40827000Y-26057001D01*
X40807000Y-26057001D01*
X40807000Y-27206251D01*
X40965750Y-27365001D01*
X41180000Y-27368073D01*
X41304482Y-27355813D01*
X41424180Y-27319503D01*
X41534494Y-27260538D01*
X41631185Y-27181186D01*
X41710537Y-27084495D01*
X41769502Y-26974181D01*
X41805812Y-26854483D01*
X41818072Y-26730001D01*
X41815631Y-26321308D01*
X41819978Y-26323109D01*
X42005448Y-26360001D01*
X42194552Y-26360001D01*
X42380022Y-26323109D01*
X42554731Y-26250742D01*
X42711964Y-26145682D01*
X42845681Y-26011965D01*
X42950741Y-25854732D01*
X43023108Y-25680023D01*
X43060000Y-25494553D01*
X43060000Y-25305449D01*
X46940000Y-25305449D01*
X46940000Y-25494553D01*
X46976892Y-25680023D01*
X47049259Y-25854732D01*
X47154319Y-26011965D01*
X47288036Y-26145682D01*
X47445269Y-26250742D01*
X47619978Y-26323109D01*
X47805448Y-26360001D01*
X47994552Y-26360001D01*
X48180022Y-26323109D01*
X48184369Y-26321308D01*
X48181928Y-26730001D01*
X48194188Y-26854483D01*
X48230498Y-26974181D01*
X48289463Y-27084495D01*
X48368815Y-27181186D01*
X48465506Y-27260538D01*
X48575820Y-27319503D01*
X48695518Y-27355813D01*
X48820000Y-27368073D01*
X49034250Y-27365001D01*
X49193000Y-27206251D01*
X49193000Y-26057001D01*
X49447000Y-26057001D01*
X49447000Y-27206251D01*
X49605750Y-27365001D01*
X49820000Y-27368073D01*
X49944482Y-27355813D01*
X50064180Y-27319503D01*
X50174494Y-27260538D01*
X50271185Y-27181186D01*
X50350537Y-27084495D01*
X50409502Y-26974181D01*
X50445812Y-26854483D01*
X50458072Y-26730001D01*
X50456405Y-26450881D01*
X63728724Y-26450881D01*
X64088912Y-26940548D01*
X64752882Y-27300849D01*
X65474385Y-27524694D01*
X66225695Y-27603480D01*
X66977938Y-27534178D01*
X67702208Y-27319452D01*
X68370670Y-26967555D01*
X68411088Y-26940548D01*
X68771276Y-26450881D01*
X66250000Y-23929605D01*
X63728724Y-26450881D01*
X50456405Y-26450881D01*
X50455000Y-26215751D01*
X50296250Y-26057001D01*
X49447000Y-26057001D01*
X49193000Y-26057001D01*
X49173000Y-26057001D01*
X49173000Y-25803001D01*
X49193000Y-25803001D01*
X49193000Y-24653751D01*
X49447000Y-24653751D01*
X49447000Y-25803001D01*
X50296250Y-25803001D01*
X50455000Y-25644251D01*
X50458072Y-25130001D01*
X50445812Y-25005519D01*
X50409502Y-24885821D01*
X50350537Y-24775507D01*
X50271185Y-24678816D01*
X50174494Y-24599464D01*
X50064180Y-24540499D01*
X49944482Y-24504189D01*
X49820000Y-24491929D01*
X49605750Y-24495001D01*
X49447000Y-24653751D01*
X49193000Y-24653751D01*
X49034250Y-24495001D01*
X48820000Y-24491929D01*
X48695518Y-24504189D01*
X48575820Y-24540499D01*
X48465506Y-24599464D01*
X48449511Y-24612590D01*
X48354731Y-24549260D01*
X48180022Y-24476893D01*
X47994552Y-24440001D01*
X47805448Y-24440001D01*
X47619978Y-24476893D01*
X47445269Y-24549260D01*
X47288036Y-24654320D01*
X47154319Y-24788037D01*
X47049259Y-24945270D01*
X46976892Y-25119979D01*
X46940000Y-25305449D01*
X43060000Y-25305449D01*
X43023108Y-25119979D01*
X42950741Y-24945270D01*
X42845681Y-24788037D01*
X42711964Y-24654320D01*
X42554731Y-24549260D01*
X42380022Y-24476893D01*
X42194552Y-24440001D01*
X42005448Y-24440001D01*
X41819978Y-24476893D01*
X41645269Y-24549260D01*
X41550489Y-24612590D01*
X41534494Y-24599464D01*
X41424180Y-24540499D01*
X41304482Y-24504189D01*
X41180000Y-24491929D01*
X40965750Y-24495001D01*
X40807000Y-24653751D01*
X40553000Y-24653751D01*
X40394250Y-24495001D01*
X40180000Y-24491929D01*
X40055518Y-24504189D01*
X39935820Y-24540499D01*
X39825506Y-24599464D01*
X39728815Y-24678816D01*
X39649463Y-24775507D01*
X39590498Y-24885821D01*
X39554188Y-25005519D01*
X39541928Y-25130001D01*
X27337184Y-25130001D01*
X27524694Y-24525615D01*
X27603480Y-23774305D01*
X27599002Y-23725695D01*
X62396520Y-23725695D01*
X62465822Y-24477938D01*
X62680548Y-25202208D01*
X63032445Y-25870670D01*
X63059452Y-25911088D01*
X63549119Y-26271276D01*
X66070395Y-23750000D01*
X63549119Y-21228724D01*
X63059452Y-21588912D01*
X62699151Y-22252882D01*
X62475306Y-22974385D01*
X62396520Y-23725695D01*
X27599002Y-23725695D01*
X27534178Y-23022062D01*
X27394225Y-22550001D01*
X39541928Y-22550001D01*
X39554188Y-22674483D01*
X39590498Y-22794181D01*
X39649463Y-22904495D01*
X39728815Y-23001186D01*
X39825506Y-23080538D01*
X39935820Y-23139503D01*
X40055518Y-23175813D01*
X40180000Y-23188073D01*
X40394250Y-23185001D01*
X40553000Y-23026251D01*
X40553000Y-21877001D01*
X40807000Y-21877001D01*
X40807000Y-23026251D01*
X40965750Y-23185001D01*
X41180000Y-23188073D01*
X41304482Y-23175813D01*
X41424180Y-23139503D01*
X41534494Y-23080538D01*
X41631185Y-23001186D01*
X41710537Y-22904495D01*
X41769502Y-22794181D01*
X41805812Y-22674483D01*
X41818072Y-22550001D01*
X48181928Y-22550001D01*
X48194188Y-22674483D01*
X48230498Y-22794181D01*
X48289463Y-22904495D01*
X48368815Y-23001186D01*
X48465506Y-23080538D01*
X48575820Y-23139503D01*
X48695518Y-23175813D01*
X48820000Y-23188073D01*
X49034250Y-23185001D01*
X49193000Y-23026251D01*
X49193000Y-21877001D01*
X49447000Y-21877001D01*
X49447000Y-23026251D01*
X49605750Y-23185001D01*
X49820000Y-23188073D01*
X49944482Y-23175813D01*
X50064180Y-23139503D01*
X50174494Y-23080538D01*
X50271185Y-23001186D01*
X50350537Y-22904495D01*
X50409502Y-22794181D01*
X50445812Y-22674483D01*
X50458072Y-22550001D01*
X50455000Y-22035751D01*
X50296250Y-21877001D01*
X49447000Y-21877001D01*
X49193000Y-21877001D01*
X48343750Y-21877001D01*
X48185000Y-22035751D01*
X48181928Y-22550001D01*
X41818072Y-22550001D01*
X41815000Y-22035751D01*
X41656250Y-21877001D01*
X40807000Y-21877001D01*
X40553000Y-21877001D01*
X39703750Y-21877001D01*
X39545000Y-22035751D01*
X39541928Y-22550001D01*
X27394225Y-22550001D01*
X27319452Y-22297792D01*
X26967555Y-21629330D01*
X26940548Y-21588912D01*
X26450881Y-21228724D01*
X23929605Y-23750000D01*
X23570395Y-23750000D01*
X23556253Y-23735858D01*
X23735858Y-23556253D01*
X23750000Y-23570395D01*
X26271276Y-21049119D01*
X26003438Y-20685000D01*
X39601627Y-20685000D01*
X39590498Y-20705821D01*
G04 #@! TA.AperFunction,Conductor*
D17*
G36*
X39590498Y-20705821D02*
G01*
X39554188Y-20825519D01*
X39541928Y-20950001D01*
X39545000Y-21464251D01*
X39703750Y-21623001D01*
X40553000Y-21623001D01*
X40553000Y-21603001D01*
X40807000Y-21603001D01*
X40807000Y-21623001D01*
X41656250Y-21623001D01*
X41815000Y-21464251D01*
X41818072Y-20950001D01*
X41805812Y-20825519D01*
X41769502Y-20705821D01*
X41758373Y-20685000D01*
X48241627Y-20685000D01*
X48230498Y-20705821D01*
X48194188Y-20825519D01*
X48181928Y-20950001D01*
X48185000Y-21464251D01*
X48343750Y-21623001D01*
X49193000Y-21623001D01*
X49193000Y-21603001D01*
X49447000Y-21603001D01*
X49447000Y-21623001D01*
X50296250Y-21623001D01*
X50455000Y-21464251D01*
X50458072Y-20950001D01*
X50445812Y-20825519D01*
X50409502Y-20705821D01*
X50398373Y-20685000D01*
X63996562Y-20685000D01*
X63728724Y-21049119D01*
X66250000Y-23570395D01*
X66264143Y-23556253D01*
X66443748Y-23735858D01*
X66429605Y-23750000D01*
X68950881Y-26271276D01*
X69315000Y-26003438D01*
X69315001Y-63996562D01*
X68950881Y-63728724D01*
X66429605Y-66250000D01*
X66443748Y-66264143D01*
X66264143Y-66443748D01*
X66250000Y-66429605D01*
X63728724Y-68950881D01*
X63996562Y-69315000D01*
X51603433Y-69315000D01*
X51740003Y-69064609D01*
X50250000Y-67574605D01*
X48759997Y-69064609D01*
X48896567Y-69315000D01*
X47737778Y-69315000D01*
X47832370Y-69237370D01*
X47991075Y-69043988D01*
X48109003Y-68823359D01*
X48180233Y-68588544D01*
X48239234Y-68698927D01*
X48580391Y-68885003D01*
X50070395Y-67395000D01*
X50429605Y-67395000D01*
X51919609Y-68885003D01*
X52260766Y-68698927D01*
X52476513Y-68281591D01*
X52606696Y-67830185D01*
X52646313Y-67362054D01*
X52593842Y-66895189D01*
X52451297Y-66447532D01*
X52283129Y-66132911D01*
X53840000Y-66132911D01*
X53840000Y-66317089D01*
X53875932Y-66497729D01*
X53946414Y-66667889D01*
X54048738Y-66821028D01*
X54178972Y-66951262D01*
X54332111Y-67053586D01*
X54502271Y-67124068D01*
X54682911Y-67160000D01*
X54867089Y-67160000D01*
X55047729Y-67124068D01*
X55217889Y-67053586D01*
X55371028Y-66951262D01*
X55501262Y-66821028D01*
X55603586Y-66667889D01*
X55674068Y-66497729D01*
X55710000Y-66317089D01*
X55710000Y-66132911D01*
X59090000Y-66132911D01*
X59090000Y-66317089D01*
X59125932Y-66497729D01*
X59196414Y-66667889D01*
X59298738Y-66821028D01*
X59428972Y-66951262D01*
X59582111Y-67053586D01*
X59752271Y-67124068D01*
X59932911Y-67160000D01*
X60117089Y-67160000D01*
X60297729Y-67124068D01*
X60467889Y-67053586D01*
X60621028Y-66951262D01*
X60751262Y-66821028D01*
X60853586Y-66667889D01*
X60924068Y-66497729D01*
X60960000Y-66317089D01*
X60960000Y-66225695D01*
X62396520Y-66225695D01*
X62465822Y-66977938D01*
X62680548Y-67702208D01*
X63032445Y-68370670D01*
X63059452Y-68411088D01*
X63549119Y-68771276D01*
X66070395Y-66250000D01*
X63549119Y-63728724D01*
X63059452Y-64088912D01*
X62699151Y-64752882D01*
X62475306Y-65474385D01*
X62396520Y-66225695D01*
X60960000Y-66225695D01*
X60960000Y-66132911D01*
X60924068Y-65952271D01*
X60853586Y-65782111D01*
X60751262Y-65628972D01*
X60621028Y-65498738D01*
X60467889Y-65396414D01*
X60297729Y-65325932D01*
X60117089Y-65290000D01*
X59932911Y-65290000D01*
X59752271Y-65325932D01*
X59582111Y-65396414D01*
X59428972Y-65498738D01*
X59298738Y-65628972D01*
X59196414Y-65782111D01*
X59125932Y-65952271D01*
X59090000Y-66132911D01*
X55710000Y-66132911D01*
X55674068Y-65952271D01*
X55603586Y-65782111D01*
X55501262Y-65628972D01*
X55371028Y-65498738D01*
X55217889Y-65396414D01*
X55047729Y-65325932D01*
X54867089Y-65290000D01*
X54682911Y-65290000D01*
X54502271Y-65325932D01*
X54332111Y-65396414D01*
X54178972Y-65498738D01*
X54048738Y-65628972D01*
X53946414Y-65782111D01*
X53875932Y-65952271D01*
X53840000Y-66132911D01*
X52283129Y-66132911D01*
X52260766Y-66091073D01*
X51919609Y-65904997D01*
X50429605Y-67395000D01*
X50070395Y-67395000D01*
X48580391Y-65904997D01*
X48239234Y-66091073D01*
X48047601Y-66461764D01*
X47991075Y-66356012D01*
X47941004Y-66295000D01*
X47991075Y-66233988D01*
X48109003Y-66013359D01*
X48181623Y-65773963D01*
X48186406Y-65725391D01*
X48759997Y-65725391D01*
X50250000Y-67215395D01*
X51740003Y-65725391D01*
X51553927Y-65384234D01*
X51136591Y-65168487D01*
X50685185Y-65038304D01*
X50217054Y-64998687D01*
X49750189Y-65051158D01*
X49302532Y-65193703D01*
X48946073Y-65384234D01*
X48759997Y-65725391D01*
X48186406Y-65725391D01*
X48200000Y-65587380D01*
X48200000Y-64192620D01*
X48181623Y-64006037D01*
X48109003Y-63766641D01*
X47992736Y-63549119D01*
X63728724Y-63549119D01*
X66250000Y-66070395D01*
X68771276Y-63549119D01*
X68411088Y-63059452D01*
X67747118Y-62699151D01*
X67025615Y-62475306D01*
X66274305Y-62396520D01*
X65522062Y-62465822D01*
X64797792Y-62680548D01*
X64129330Y-63032445D01*
X64088912Y-63059452D01*
X63728724Y-63549119D01*
X47992736Y-63549119D01*
X47991075Y-63546012D01*
X47832370Y-63352630D01*
X47638987Y-63193925D01*
X47418358Y-63075997D01*
X47178962Y-63003377D01*
X46930000Y-62978856D01*
X46681037Y-63003377D01*
X46441641Y-63075997D01*
X46221012Y-63193925D01*
X46027630Y-63352630D01*
X45965000Y-63428945D01*
X45902370Y-63352630D01*
X45708987Y-63193925D01*
X45488358Y-63075997D01*
X45248962Y-63003377D01*
X45000000Y-62978856D01*
X44751037Y-63003377D01*
X44511641Y-63075997D01*
X44291012Y-63193925D01*
X44097630Y-63352630D01*
X44035000Y-63428945D01*
X43972370Y-63352630D01*
X43778987Y-63193925D01*
X43558358Y-63075997D01*
X43318962Y-63003377D01*
X43070000Y-62978856D01*
X42821037Y-63003377D01*
X42581641Y-63075997D01*
X42361012Y-63193925D01*
X42167630Y-63352630D01*
X42008925Y-63546013D01*
X41890997Y-63766642D01*
X41818377Y-64006038D01*
X41800000Y-64192621D01*
X41800000Y-65587380D01*
X41818377Y-65773963D01*
X41890997Y-66013359D01*
X42008926Y-66233988D01*
X42057894Y-66293656D01*
X41969518Y-66425494D01*
X41790766Y-66091073D01*
X41449609Y-65904997D01*
X39959605Y-67395000D01*
X41449609Y-68885003D01*
X41790766Y-68698927D01*
X41831644Y-68619853D01*
X41849179Y-68707324D01*
X41945274Y-68938340D01*
X42084591Y-69146170D01*
X42253927Y-69315000D01*
X41133433Y-69315000D01*
X41270003Y-69064609D01*
X39780000Y-67574605D01*
X38289997Y-69064609D01*
X38426567Y-69315000D01*
X25989439Y-69315000D01*
X26218332Y-69003825D01*
X23697056Y-66482549D01*
X23682914Y-66496692D01*
X23503309Y-66317087D01*
X23517451Y-66302944D01*
X23876661Y-66302944D01*
X26397937Y-68824220D01*
X26887604Y-68464032D01*
X27247905Y-67800062D01*
X27363353Y-67427946D01*
X37383687Y-67427946D01*
X37436158Y-67894811D01*
X37578703Y-68342468D01*
X37769234Y-68698927D01*
X38110391Y-68885003D01*
X39600395Y-67395000D01*
X38110391Y-65904997D01*
X37769234Y-66091073D01*
X37553487Y-66508409D01*
X37423304Y-66959815D01*
X37383687Y-67427946D01*
X27363353Y-67427946D01*
X27471750Y-67078559D01*
X27550536Y-66327249D01*
X27495089Y-65725391D01*
X38289997Y-65725391D01*
X39780000Y-67215395D01*
X41270003Y-65725391D01*
X41083927Y-65384234D01*
X40666591Y-65168487D01*
X40215185Y-65038304D01*
X39747054Y-64998687D01*
X39280189Y-65051158D01*
X38832532Y-65193703D01*
X38476073Y-65384234D01*
X38289997Y-65725391D01*
X27495089Y-65725391D01*
X27481234Y-65575006D01*
X27266508Y-64850736D01*
X26914611Y-64182274D01*
X26887604Y-64141856D01*
X26397937Y-63781668D01*
X23876661Y-66302944D01*
X23517451Y-66302944D01*
X20996175Y-63781668D01*
X20685000Y-64010561D01*
X20685000Y-63602063D01*
X21175780Y-63602063D01*
X23697056Y-66123339D01*
X26218332Y-63602063D01*
X25858144Y-63112396D01*
X25194174Y-62752095D01*
X24472671Y-62528250D01*
X23721361Y-62449464D01*
X22969118Y-62518766D01*
X22244848Y-62733492D01*
X21576386Y-63085389D01*
X21535968Y-63112396D01*
X21175780Y-63602063D01*
X20685000Y-63602063D01*
X20685000Y-59782911D01*
X40940000Y-59782911D01*
X40940000Y-59967089D01*
X40975932Y-60147729D01*
X41046414Y-60317889D01*
X41148738Y-60471028D01*
X41278972Y-60601262D01*
X41432111Y-60703586D01*
X41602271Y-60774068D01*
X41782911Y-60810000D01*
X41967089Y-60810000D01*
X42147729Y-60774068D01*
X42317889Y-60703586D01*
X42471028Y-60601262D01*
X42601262Y-60471028D01*
X42703586Y-60317889D01*
X42774068Y-60147729D01*
X42810000Y-59967089D01*
X42810000Y-59782911D01*
X42805028Y-59757911D01*
X46440000Y-59757911D01*
X46440000Y-59942089D01*
X46475932Y-60122729D01*
X46546414Y-60292889D01*
X46648738Y-60446028D01*
X46778972Y-60576262D01*
X46932111Y-60678586D01*
X47102271Y-60749068D01*
X47282911Y-60785000D01*
X47467089Y-60785000D01*
X47647729Y-60749068D01*
X47817889Y-60678586D01*
X47971028Y-60576262D01*
X48101262Y-60446028D01*
X48203586Y-60292889D01*
X48274068Y-60122729D01*
X48310000Y-59942089D01*
X48310000Y-59757911D01*
X48274068Y-59577271D01*
X48203586Y-59407111D01*
X48101262Y-59253972D01*
X47971028Y-59123738D01*
X47817889Y-59021414D01*
X47647729Y-58950932D01*
X47467089Y-58915000D01*
X47282911Y-58915000D01*
X47102271Y-58950932D01*
X46932111Y-59021414D01*
X46778972Y-59123738D01*
X46648738Y-59253972D01*
X46546414Y-59407111D01*
X46475932Y-59577271D01*
X46440000Y-59757911D01*
X42805028Y-59757911D01*
X42774068Y-59602271D01*
X42703586Y-59432111D01*
X42601262Y-59278972D01*
X42471028Y-59148738D01*
X42317889Y-59046414D01*
X42147729Y-58975932D01*
X41967089Y-58940000D01*
X41782911Y-58940000D01*
X41602271Y-58975932D01*
X41432111Y-59046414D01*
X41278972Y-59148738D01*
X41148738Y-59278972D01*
X41046414Y-59432111D01*
X40975932Y-59602271D01*
X40940000Y-59782911D01*
X20685000Y-59782911D01*
X20685000Y-54232911D01*
X39090000Y-54232911D01*
X39090000Y-54417089D01*
X39125932Y-54597729D01*
X39196414Y-54767889D01*
X39298738Y-54921028D01*
X39428972Y-55051262D01*
X39582111Y-55153586D01*
X39752271Y-55224068D01*
X39932911Y-55260000D01*
X40117089Y-55260000D01*
X40297729Y-55224068D01*
X40467889Y-55153586D01*
X40621028Y-55051262D01*
X40751262Y-54921028D01*
X40853586Y-54767889D01*
X40924068Y-54597729D01*
X40960000Y-54417089D01*
X40960000Y-54232911D01*
X41215000Y-54232911D01*
X41215000Y-54417089D01*
X41250932Y-54597729D01*
X41321414Y-54767889D01*
X41423738Y-54921028D01*
X41553972Y-55051262D01*
X41707111Y-55153586D01*
X41877271Y-55224068D01*
X42057911Y-55260000D01*
X42242089Y-55260000D01*
X42422729Y-55224068D01*
X42592889Y-55153586D01*
X42746028Y-55051262D01*
X42876262Y-54921028D01*
X42978586Y-54767889D01*
X43049068Y-54597729D01*
X43085000Y-54417089D01*
X43085000Y-54232911D01*
X43049068Y-54052271D01*
X42978586Y-53882111D01*
X42876262Y-53728972D01*
X42746028Y-53598738D01*
X42592889Y-53496414D01*
X42422729Y-53425932D01*
X42242089Y-53390000D01*
X42057911Y-53390000D01*
X41877271Y-53425932D01*
X41707111Y-53496414D01*
X41553972Y-53598738D01*
X41423738Y-53728972D01*
X41321414Y-53882111D01*
X41250932Y-54052271D01*
X41215000Y-54232911D01*
X40960000Y-54232911D01*
X40924068Y-54052271D01*
X40853586Y-53882111D01*
X40751262Y-53728972D01*
X40621028Y-53598738D01*
X40467889Y-53496414D01*
X40297729Y-53425932D01*
X40117089Y-53390000D01*
X39932911Y-53390000D01*
X39752271Y-53425932D01*
X39582111Y-53496414D01*
X39428972Y-53598738D01*
X39298738Y-53728972D01*
X39196414Y-53882111D01*
X39125932Y-54052271D01*
X39090000Y-54232911D01*
X20685000Y-54232911D01*
X20685000Y-47807911D01*
X28040000Y-47807911D01*
X28040000Y-47992089D01*
X28075932Y-48172729D01*
X28146414Y-48342889D01*
X28248738Y-48496028D01*
X28378972Y-48626262D01*
X28532111Y-48728586D01*
X28702271Y-48799068D01*
X28882911Y-48835000D01*
X29067089Y-48835000D01*
X29247729Y-48799068D01*
X29417889Y-48728586D01*
X29571028Y-48626262D01*
X29701262Y-48496028D01*
X29803586Y-48342889D01*
X29874068Y-48172729D01*
X29910000Y-47992089D01*
X29910000Y-47807911D01*
X29874068Y-47627271D01*
X29803586Y-47457111D01*
X29701262Y-47303972D01*
X29571028Y-47173738D01*
X29417889Y-47071414D01*
X29247729Y-47000932D01*
X29067089Y-46965000D01*
X28882911Y-46965000D01*
X28702271Y-47000932D01*
X28532111Y-47071414D01*
X28378972Y-47173738D01*
X28248738Y-47303972D01*
X28146414Y-47457111D01*
X28075932Y-47627271D01*
X28040000Y-47807911D01*
X20685000Y-47807911D01*
X20685000Y-45182911D01*
X31015000Y-45182911D01*
X31015000Y-45367089D01*
X31050932Y-45547729D01*
X31121414Y-45717889D01*
X31223738Y-45871028D01*
X31353972Y-46001262D01*
X31389498Y-46025000D01*
X31353972Y-46048738D01*
X31223738Y-46178972D01*
X31121414Y-46332111D01*
X31050932Y-46502271D01*
X31015000Y-46682911D01*
X31015000Y-46867089D01*
X31050932Y-47047729D01*
X31098471Y-47162500D01*
X31050932Y-47277271D01*
X31015000Y-47457911D01*
X31015000Y-47642089D01*
X31050932Y-47822729D01*
X31121414Y-47992889D01*
X31223738Y-48146028D01*
X31353972Y-48276262D01*
X31507111Y-48378586D01*
X31677271Y-48449068D01*
X31857911Y-48485000D01*
X32042089Y-48485000D01*
X32222729Y-48449068D01*
X32392889Y-48378586D01*
X32546028Y-48276262D01*
X32676262Y-48146028D01*
X32778586Y-47992889D01*
X32849068Y-47822729D01*
X32885000Y-47642089D01*
X32885000Y-47457911D01*
X32849068Y-47277271D01*
X32841049Y-47257911D01*
X39415000Y-47257911D01*
X39415000Y-47442089D01*
X39450932Y-47622729D01*
X39512789Y-47772066D01*
X39490351Y-47826236D01*
X39454419Y-48006876D01*
X39454419Y-48191054D01*
X39490351Y-48371694D01*
X39560833Y-48541854D01*
X39663157Y-48694993D01*
X39793391Y-48825227D01*
X39946530Y-48927551D01*
X40116690Y-48998033D01*
X40297330Y-49033965D01*
X40481508Y-49033965D01*
X40662148Y-48998033D01*
X40832308Y-48927551D01*
X40985447Y-48825227D01*
X41102763Y-48707911D01*
X42965000Y-48707911D01*
X42965000Y-48892089D01*
X43000932Y-49072729D01*
X43071414Y-49242889D01*
X43173738Y-49396028D01*
X43303972Y-49526262D01*
X43457111Y-49628586D01*
X43627271Y-49699068D01*
X43807911Y-49735000D01*
X43992089Y-49735000D01*
X44172729Y-49699068D01*
X44342889Y-49628586D01*
X44496028Y-49526262D01*
X44626262Y-49396028D01*
X44728586Y-49242889D01*
X44799068Y-49072729D01*
X44835000Y-48892089D01*
X44835000Y-48707911D01*
X44799068Y-48527271D01*
X44728586Y-48357111D01*
X44626262Y-48203972D01*
X44496028Y-48073738D01*
X44342889Y-47971414D01*
X44172729Y-47900932D01*
X43992089Y-47865000D01*
X43807911Y-47865000D01*
X43627271Y-47900932D01*
X43457111Y-47971414D01*
X43303972Y-48073738D01*
X43173738Y-48203972D01*
X43071414Y-48357111D01*
X43000932Y-48527271D01*
X42965000Y-48707911D01*
X41102763Y-48707911D01*
X41115681Y-48694993D01*
X41218005Y-48541854D01*
X41288487Y-48371694D01*
X41324419Y-48191054D01*
X41324419Y-48006876D01*
X41288487Y-47826236D01*
X41226630Y-47676899D01*
X41249068Y-47622729D01*
X41285000Y-47442089D01*
X41285000Y-47257911D01*
X41249068Y-47077271D01*
X41178586Y-46907111D01*
X41076262Y-46753972D01*
X40946028Y-46623738D01*
X40792889Y-46521414D01*
X40622729Y-46450932D01*
X40442089Y-46415000D01*
X40257911Y-46415000D01*
X40077271Y-46450932D01*
X39907111Y-46521414D01*
X39753972Y-46623738D01*
X39623738Y-46753972D01*
X39521414Y-46907111D01*
X39450932Y-47077271D01*
X39415000Y-47257911D01*
X32841049Y-47257911D01*
X32801529Y-47162500D01*
X32849068Y-47047729D01*
X32885000Y-46867089D01*
X32885000Y-46682911D01*
X32849068Y-46502271D01*
X32778586Y-46332111D01*
X32676262Y-46178972D01*
X32546028Y-46048738D01*
X32510502Y-46025000D01*
X32546028Y-46001262D01*
X32676262Y-45871028D01*
X32778586Y-45717889D01*
X32849068Y-45547729D01*
X32885000Y-45367089D01*
X32885000Y-45182911D01*
X32849068Y-45002271D01*
X32778586Y-44832111D01*
X32689767Y-44699183D01*
X44100427Y-44699183D01*
X44170593Y-44869473D01*
X44272633Y-45022802D01*
X44402625Y-45153278D01*
X44555574Y-45255886D01*
X44725602Y-45326684D01*
X44728939Y-45327695D01*
X44873000Y-45198498D01*
X44873000Y-44555122D01*
X45127000Y-44555122D01*
X45127000Y-45198498D01*
X45271061Y-45327695D01*
X45441351Y-45257529D01*
X45594680Y-45155489D01*
X45725156Y-45025497D01*
X45827764Y-44872548D01*
X45898562Y-44702520D01*
X45899573Y-44699183D01*
X45770376Y-44555122D01*
X45127000Y-44555122D01*
X44873000Y-44555122D01*
X44229624Y-44555122D01*
X44100427Y-44699183D01*
X32689767Y-44699183D01*
X32676262Y-44678972D01*
X32546028Y-44548738D01*
X32392889Y-44446414D01*
X32222729Y-44375932D01*
X32042089Y-44340000D01*
X31857911Y-44340000D01*
X31677271Y-44375932D01*
X31507111Y-44446414D01*
X31353972Y-44548738D01*
X31223738Y-44678972D01*
X31121414Y-44832111D01*
X31050932Y-45002271D01*
X31015000Y-45182911D01*
X20685000Y-45182911D01*
X20685000Y-44057911D01*
X28015000Y-44057911D01*
X28015000Y-44242089D01*
X28050932Y-44422729D01*
X28121414Y-44592889D01*
X28223738Y-44746028D01*
X28353972Y-44876262D01*
X28507111Y-44978586D01*
X28677271Y-45049068D01*
X28857911Y-45085000D01*
X29042089Y-45085000D01*
X29222729Y-45049068D01*
X29392889Y-44978586D01*
X29546028Y-44876262D01*
X29676262Y-44746028D01*
X29778586Y-44592889D01*
X29849068Y-44422729D01*
X29885000Y-44242089D01*
X29885000Y-44057911D01*
X29849068Y-43877271D01*
X29778586Y-43707111D01*
X29676262Y-43553972D01*
X29546028Y-43423738D01*
X29392889Y-43321414D01*
X29222729Y-43250932D01*
X29042089Y-43215000D01*
X28857911Y-43215000D01*
X28677271Y-43250932D01*
X28507111Y-43321414D01*
X28353972Y-43423738D01*
X28223738Y-43553972D01*
X28121414Y-43707111D01*
X28050932Y-43877271D01*
X28015000Y-44057911D01*
X20685000Y-44057911D01*
X20685000Y-43082911D01*
X37940000Y-43082911D01*
X37940000Y-43267089D01*
X37975932Y-43447729D01*
X38046414Y-43617889D01*
X38148738Y-43771028D01*
X38278972Y-43901262D01*
X38432111Y-44003586D01*
X38602271Y-44074068D01*
X38782911Y-44110000D01*
X38967089Y-44110000D01*
X39147729Y-44074068D01*
X39317889Y-44003586D01*
X39471028Y-43901262D01*
X39574668Y-43797622D01*
X43198866Y-43797622D01*
X43269032Y-43967912D01*
X43371072Y-44121241D01*
X43501064Y-44251717D01*
X43654013Y-44354325D01*
X43824041Y-44425123D01*
X43827378Y-44426134D01*
X43971439Y-44296937D01*
X43971439Y-44157061D01*
X44100427Y-44157061D01*
X44225439Y-44296456D01*
X44225439Y-44296937D01*
X44227645Y-44298916D01*
X44229624Y-44301122D01*
X44230105Y-44301122D01*
X44369500Y-44426134D01*
X44539790Y-44355968D01*
X44622204Y-44301122D01*
X44693392Y-44301122D01*
X44806251Y-44413981D01*
X44985859Y-44234373D01*
X44873000Y-44121514D01*
X44873000Y-44050292D01*
X44926203Y-43970987D01*
X44997001Y-43800959D01*
X44998012Y-43797622D01*
X45001988Y-43797622D01*
X45072154Y-43967912D01*
X45127000Y-44050326D01*
X45127000Y-44121514D01*
X45014141Y-44234373D01*
X45193749Y-44413981D01*
X45306608Y-44301122D01*
X45377830Y-44301122D01*
X45457135Y-44354325D01*
X45627163Y-44425123D01*
X45630500Y-44426134D01*
X45769895Y-44301122D01*
X45770376Y-44301122D01*
X45772355Y-44298916D01*
X45774561Y-44296937D01*
X45774561Y-44296456D01*
X45899573Y-44157061D01*
X45829407Y-43986771D01*
X45774561Y-43904357D01*
X45774561Y-43833169D01*
X45887420Y-43720310D01*
X45820671Y-43653561D01*
X46028561Y-43653561D01*
X46028561Y-44296937D01*
X46172622Y-44426134D01*
X46342912Y-44355968D01*
X46496241Y-44253928D01*
X46626717Y-44123936D01*
X46729325Y-43970987D01*
X46800123Y-43800959D01*
X46801134Y-43797622D01*
X46671937Y-43653561D01*
X46028561Y-43653561D01*
X45820671Y-43653561D01*
X45707812Y-43540702D01*
X45594953Y-43653561D01*
X45523731Y-43653561D01*
X45444426Y-43600358D01*
X45274398Y-43529560D01*
X45271061Y-43528549D01*
X45131666Y-43653561D01*
X45131185Y-43653561D01*
X45129206Y-43655767D01*
X45127000Y-43657746D01*
X45127000Y-43658227D01*
X45001988Y-43797622D01*
X44998012Y-43797622D01*
X44873000Y-43658227D01*
X44873000Y-43657746D01*
X44870794Y-43655767D01*
X44868815Y-43653561D01*
X44868334Y-43653561D01*
X44728939Y-43528549D01*
X44558649Y-43598715D01*
X44476235Y-43653561D01*
X44405047Y-43653561D01*
X44292188Y-43540702D01*
X44112580Y-43720310D01*
X44225439Y-43833169D01*
X44225439Y-43904391D01*
X44172236Y-43983696D01*
X44101438Y-44153724D01*
X44100427Y-44157061D01*
X43971439Y-44157061D01*
X43971439Y-43653561D01*
X43328063Y-43653561D01*
X43198866Y-43797622D01*
X39574668Y-43797622D01*
X39601262Y-43771028D01*
X39703586Y-43617889D01*
X39774068Y-43447729D01*
X39810000Y-43267089D01*
X39810000Y-43082911D01*
X39774068Y-42902271D01*
X39771496Y-42896061D01*
X42297305Y-42896061D01*
X42367471Y-43066351D01*
X42469511Y-43219680D01*
X42599503Y-43350156D01*
X42752452Y-43452764D01*
X42922480Y-43523562D01*
X42925817Y-43524573D01*
X43069878Y-43395376D01*
X43069878Y-43255500D01*
X43198866Y-43255500D01*
X43323878Y-43394895D01*
X43323878Y-43395376D01*
X43326084Y-43397355D01*
X43328063Y-43399561D01*
X43328544Y-43399561D01*
X43467939Y-43524573D01*
X43638229Y-43454407D01*
X43720643Y-43399561D01*
X43791831Y-43399561D01*
X43904690Y-43512420D01*
X44084298Y-43332812D01*
X43971439Y-43219953D01*
X43971439Y-43148731D01*
X44024642Y-43069426D01*
X44095440Y-42899398D01*
X44096451Y-42896061D01*
X44100427Y-42896061D01*
X44170593Y-43066351D01*
X44225439Y-43148765D01*
X44225439Y-43219953D01*
X44112580Y-43332812D01*
X44292188Y-43512420D01*
X44405047Y-43399561D01*
X44476269Y-43399561D01*
X44555574Y-43452764D01*
X44725602Y-43523562D01*
X44728939Y-43524573D01*
X44868334Y-43399561D01*
X44868815Y-43399561D01*
X44870794Y-43397355D01*
X44873000Y-43395376D01*
X44873000Y-43394895D01*
X44998012Y-43255500D01*
X45001988Y-43255500D01*
X45127000Y-43394895D01*
X45127000Y-43395376D01*
X45129206Y-43397355D01*
X45131185Y-43399561D01*
X45131666Y-43399561D01*
X45271061Y-43524573D01*
X45441351Y-43454407D01*
X45523765Y-43399561D01*
X45594953Y-43399561D01*
X45707812Y-43512420D01*
X45887420Y-43332812D01*
X45774561Y-43219953D01*
X45774561Y-43148731D01*
X45827764Y-43069426D01*
X45898562Y-42899398D01*
X45899573Y-42896061D01*
X45903549Y-42896061D01*
X45973715Y-43066351D01*
X46028561Y-43148765D01*
X46028561Y-43219953D01*
X45915702Y-43332812D01*
X46095310Y-43512420D01*
X46208169Y-43399561D01*
X46279391Y-43399561D01*
X46358696Y-43452764D01*
X46528724Y-43523562D01*
X46532061Y-43524573D01*
X46671456Y-43399561D01*
X46671937Y-43399561D01*
X46673916Y-43397355D01*
X46676122Y-43395376D01*
X46676122Y-43394895D01*
X46801134Y-43255500D01*
X46730968Y-43085210D01*
X46676122Y-43002796D01*
X46676122Y-42931608D01*
X46788981Y-42818749D01*
X46722232Y-42752000D01*
X46930122Y-42752000D01*
X46930122Y-43395376D01*
X47074183Y-43524573D01*
X47244473Y-43454407D01*
X47397802Y-43352367D01*
X47528278Y-43222375D01*
X47630886Y-43069426D01*
X47698139Y-42907911D01*
X56065000Y-42907911D01*
X56065000Y-43092089D01*
X56100932Y-43272729D01*
X56171414Y-43442889D01*
X56273738Y-43596028D01*
X56403972Y-43726262D01*
X56557111Y-43828586D01*
X56727271Y-43899068D01*
X56907911Y-43935000D01*
X57092089Y-43935000D01*
X57272729Y-43899068D01*
X57442889Y-43828586D01*
X57500000Y-43790426D01*
X57557111Y-43828586D01*
X57727271Y-43899068D01*
X57907911Y-43935000D01*
X58092089Y-43935000D01*
X58272729Y-43899068D01*
X58442889Y-43828586D01*
X58500000Y-43790426D01*
X58557111Y-43828586D01*
X58727271Y-43899068D01*
X58907911Y-43935000D01*
X59092089Y-43935000D01*
X59272729Y-43899068D01*
X59442889Y-43828586D01*
X59500000Y-43790426D01*
X59557111Y-43828586D01*
X59727271Y-43899068D01*
X59907911Y-43935000D01*
X60092089Y-43935000D01*
X60272729Y-43899068D01*
X60442889Y-43828586D01*
X60596028Y-43726262D01*
X60726262Y-43596028D01*
X60828586Y-43442889D01*
X60899068Y-43272729D01*
X60935000Y-43092089D01*
X60935000Y-42907911D01*
X60899068Y-42727271D01*
X60828586Y-42557111D01*
X60726262Y-42403972D01*
X60596028Y-42273738D01*
X60442889Y-42171414D01*
X60272729Y-42100932D01*
X60092089Y-42065000D01*
X59907911Y-42065000D01*
X59727271Y-42100932D01*
X59557111Y-42171414D01*
X59500000Y-42209574D01*
X59442889Y-42171414D01*
X59272729Y-42100932D01*
X59092089Y-42065000D01*
X58907911Y-42065000D01*
X58727271Y-42100932D01*
X58557111Y-42171414D01*
X58500000Y-42209574D01*
X58442889Y-42171414D01*
X58272729Y-42100932D01*
X58092089Y-42065000D01*
X57907911Y-42065000D01*
X57727271Y-42100932D01*
X57557111Y-42171414D01*
X57500000Y-42209574D01*
X57442889Y-42171414D01*
X57272729Y-42100932D01*
X57092089Y-42065000D01*
X56907911Y-42065000D01*
X56727271Y-42100932D01*
X56557111Y-42171414D01*
X56403972Y-42273738D01*
X56273738Y-42403972D01*
X56171414Y-42557111D01*
X56100932Y-42727271D01*
X56065000Y-42907911D01*
X47698139Y-42907911D01*
X47701684Y-42899398D01*
X47702695Y-42896061D01*
X47573498Y-42752000D01*
X46930122Y-42752000D01*
X46722232Y-42752000D01*
X46609373Y-42639141D01*
X46496514Y-42752000D01*
X46425292Y-42752000D01*
X46345987Y-42698797D01*
X46175959Y-42627999D01*
X46172622Y-42626988D01*
X46033227Y-42752000D01*
X46032746Y-42752000D01*
X46030767Y-42754206D01*
X46028561Y-42756185D01*
X46028561Y-42756666D01*
X45903549Y-42896061D01*
X45899573Y-42896061D01*
X45774561Y-42756666D01*
X45774561Y-42756185D01*
X45772355Y-42754206D01*
X45770376Y-42752000D01*
X45769895Y-42752000D01*
X45630500Y-42626988D01*
X45460210Y-42697154D01*
X45377796Y-42752000D01*
X45306608Y-42752000D01*
X45193749Y-42639141D01*
X45014141Y-42818749D01*
X45127000Y-42931608D01*
X45127000Y-43002830D01*
X45073797Y-43082135D01*
X45002999Y-43252163D01*
X45001988Y-43255500D01*
X44998012Y-43255500D01*
X44927846Y-43085210D01*
X44873000Y-43002796D01*
X44873000Y-42931608D01*
X44985859Y-42818749D01*
X44806251Y-42639141D01*
X44693392Y-42752000D01*
X44622170Y-42752000D01*
X44542865Y-42698797D01*
X44372837Y-42627999D01*
X44369500Y-42626988D01*
X44230105Y-42752000D01*
X44229624Y-42752000D01*
X44227645Y-42754206D01*
X44225439Y-42756185D01*
X44225439Y-42756666D01*
X44100427Y-42896061D01*
X44096451Y-42896061D01*
X43971439Y-42756666D01*
X43971439Y-42756185D01*
X43969233Y-42754206D01*
X43967254Y-42752000D01*
X43966773Y-42752000D01*
X43827378Y-42626988D01*
X43657088Y-42697154D01*
X43574674Y-42752000D01*
X43503486Y-42752000D01*
X43390627Y-42639141D01*
X43211019Y-42818749D01*
X43323878Y-42931608D01*
X43323878Y-43002830D01*
X43270675Y-43082135D01*
X43199877Y-43252163D01*
X43198866Y-43255500D01*
X43069878Y-43255500D01*
X43069878Y-42752000D01*
X42426502Y-42752000D01*
X42297305Y-42896061D01*
X39771496Y-42896061D01*
X39703586Y-42732111D01*
X39601262Y-42578972D01*
X39471028Y-42448738D01*
X39329151Y-42353939D01*
X42297305Y-42353939D01*
X42426502Y-42498000D01*
X43069878Y-42498000D01*
X43069878Y-41994500D01*
X43198866Y-41994500D01*
X43269032Y-42164790D01*
X43323878Y-42247204D01*
X43323878Y-42318392D01*
X43211019Y-42431251D01*
X43390627Y-42610859D01*
X43503486Y-42498000D01*
X43574708Y-42498000D01*
X43654013Y-42551203D01*
X43824041Y-42622001D01*
X43827378Y-42623012D01*
X43966773Y-42498000D01*
X43967254Y-42498000D01*
X43969233Y-42495794D01*
X43971439Y-42493815D01*
X43971439Y-42493334D01*
X44096451Y-42353939D01*
X44100427Y-42353939D01*
X44225439Y-42493334D01*
X44225439Y-42493815D01*
X44227645Y-42495794D01*
X44229624Y-42498000D01*
X44230105Y-42498000D01*
X44369500Y-42623012D01*
X44539790Y-42552846D01*
X44622204Y-42498000D01*
X44693392Y-42498000D01*
X44806251Y-42610859D01*
X44985859Y-42431251D01*
X44873000Y-42318392D01*
X44873000Y-42247170D01*
X44926203Y-42167865D01*
X44997001Y-41997837D01*
X44998012Y-41994500D01*
X45001988Y-41994500D01*
X45072154Y-42164790D01*
X45127000Y-42247204D01*
X45127000Y-42318392D01*
X45014141Y-42431251D01*
X45193749Y-42610859D01*
X45306608Y-42498000D01*
X45377830Y-42498000D01*
X45457135Y-42551203D01*
X45627163Y-42622001D01*
X45630500Y-42623012D01*
X45769895Y-42498000D01*
X45770376Y-42498000D01*
X45772355Y-42495794D01*
X45774561Y-42493815D01*
X45774561Y-42493334D01*
X45899573Y-42353939D01*
X45903549Y-42353939D01*
X46028561Y-42493334D01*
X46028561Y-42493815D01*
X46030767Y-42495794D01*
X46032746Y-42498000D01*
X46033227Y-42498000D01*
X46172622Y-42623012D01*
X46342912Y-42552846D01*
X46425326Y-42498000D01*
X46496514Y-42498000D01*
X46609373Y-42610859D01*
X46788981Y-42431251D01*
X46676122Y-42318392D01*
X46676122Y-42247170D01*
X46729325Y-42167865D01*
X46800123Y-41997837D01*
X46801134Y-41994500D01*
X46676122Y-41855105D01*
X46676122Y-41854624D01*
X46930122Y-41854624D01*
X46930122Y-42498000D01*
X47573498Y-42498000D01*
X47702695Y-42353939D01*
X47632529Y-42183649D01*
X47530489Y-42030320D01*
X47400497Y-41899844D01*
X47247548Y-41797236D01*
X47077520Y-41726438D01*
X47074183Y-41725427D01*
X46930122Y-41854624D01*
X46676122Y-41854624D01*
X46673916Y-41852645D01*
X46671937Y-41850439D01*
X46671456Y-41850439D01*
X46532061Y-41725427D01*
X46361771Y-41795593D01*
X46279357Y-41850439D01*
X46208169Y-41850439D01*
X46095310Y-41737580D01*
X45915702Y-41917188D01*
X46028561Y-42030047D01*
X46028561Y-42101269D01*
X45975358Y-42180574D01*
X45904560Y-42350602D01*
X45903549Y-42353939D01*
X45899573Y-42353939D01*
X45829407Y-42183649D01*
X45774561Y-42101235D01*
X45774561Y-42030047D01*
X45887420Y-41917188D01*
X45707812Y-41737580D01*
X45594953Y-41850439D01*
X45523731Y-41850439D01*
X45444426Y-41797236D01*
X45274398Y-41726438D01*
X45271061Y-41725427D01*
X45131666Y-41850439D01*
X45131185Y-41850439D01*
X45129206Y-41852645D01*
X45127000Y-41854624D01*
X45127000Y-41855105D01*
X45001988Y-41994500D01*
X44998012Y-41994500D01*
X44873000Y-41855105D01*
X44873000Y-41854624D01*
X44870794Y-41852645D01*
X44868815Y-41850439D01*
X44868334Y-41850439D01*
X44728939Y-41725427D01*
X44558649Y-41795593D01*
X44476235Y-41850439D01*
X44405047Y-41850439D01*
X44292188Y-41737580D01*
X44112580Y-41917188D01*
X44225439Y-42030047D01*
X44225439Y-42101269D01*
X44172236Y-42180574D01*
X44101438Y-42350602D01*
X44100427Y-42353939D01*
X44096451Y-42353939D01*
X44026285Y-42183649D01*
X43971439Y-42101235D01*
X43971439Y-42030047D01*
X44084298Y-41917188D01*
X43904690Y-41737580D01*
X43791831Y-41850439D01*
X43720609Y-41850439D01*
X43641304Y-41797236D01*
X43471276Y-41726438D01*
X43467939Y-41725427D01*
X43328544Y-41850439D01*
X43328063Y-41850439D01*
X43326084Y-41852645D01*
X43323878Y-41854624D01*
X43323878Y-41855105D01*
X43198866Y-41994500D01*
X43069878Y-41994500D01*
X43069878Y-41854624D01*
X42925817Y-41725427D01*
X42755527Y-41795593D01*
X42602198Y-41897633D01*
X42471722Y-42027625D01*
X42369114Y-42180574D01*
X42298316Y-42350602D01*
X42297305Y-42353939D01*
X39329151Y-42353939D01*
X39317889Y-42346414D01*
X39147729Y-42275932D01*
X38967089Y-42240000D01*
X38782911Y-42240000D01*
X38602271Y-42275932D01*
X38432111Y-42346414D01*
X38278972Y-42448738D01*
X38148738Y-42578972D01*
X38046414Y-42732111D01*
X37975932Y-42902271D01*
X37940000Y-43082911D01*
X20685000Y-43082911D01*
X20685000Y-41082911D01*
X26015000Y-41082911D01*
X26015000Y-41267089D01*
X26050932Y-41447729D01*
X26121414Y-41617889D01*
X26223738Y-41771028D01*
X26353972Y-41901262D01*
X26507111Y-42003586D01*
X26677271Y-42074068D01*
X26857911Y-42110000D01*
X27042089Y-42110000D01*
X27222729Y-42074068D01*
X27392889Y-42003586D01*
X27546028Y-41901262D01*
X27676262Y-41771028D01*
X27778586Y-41617889D01*
X27847142Y-41452378D01*
X43198866Y-41452378D01*
X43328063Y-41596439D01*
X43971439Y-41596439D01*
X43971439Y-41092939D01*
X44100427Y-41092939D01*
X44170593Y-41263229D01*
X44225439Y-41345643D01*
X44225439Y-41416831D01*
X44112580Y-41529690D01*
X44292188Y-41709298D01*
X44405047Y-41596439D01*
X44476269Y-41596439D01*
X44555574Y-41649642D01*
X44725602Y-41720440D01*
X44728939Y-41721451D01*
X44868334Y-41596439D01*
X44868815Y-41596439D01*
X44870794Y-41594233D01*
X44873000Y-41592254D01*
X44873000Y-41591773D01*
X44998012Y-41452378D01*
X45001988Y-41452378D01*
X45127000Y-41591773D01*
X45127000Y-41592254D01*
X45129206Y-41594233D01*
X45131185Y-41596439D01*
X45131666Y-41596439D01*
X45271061Y-41721451D01*
X45441351Y-41651285D01*
X45523765Y-41596439D01*
X45594953Y-41596439D01*
X45707812Y-41709298D01*
X45887420Y-41529690D01*
X45774561Y-41416831D01*
X45774561Y-41345609D01*
X45827764Y-41266304D01*
X45898562Y-41096276D01*
X45899573Y-41092939D01*
X45774561Y-40953544D01*
X45774561Y-40953063D01*
X46028561Y-40953063D01*
X46028561Y-41596439D01*
X46671937Y-41596439D01*
X46801134Y-41452378D01*
X46730968Y-41282088D01*
X46628928Y-41128759D01*
X46498936Y-40998283D01*
X46345987Y-40895675D01*
X46175959Y-40824877D01*
X46172622Y-40823866D01*
X46028561Y-40953063D01*
X45774561Y-40953063D01*
X45772355Y-40951084D01*
X45770376Y-40948878D01*
X45769895Y-40948878D01*
X45630500Y-40823866D01*
X45460210Y-40894032D01*
X45377796Y-40948878D01*
X45306608Y-40948878D01*
X45193749Y-40836019D01*
X45014141Y-41015627D01*
X45127000Y-41128486D01*
X45127000Y-41199708D01*
X45073797Y-41279013D01*
X45002999Y-41449041D01*
X45001988Y-41452378D01*
X44998012Y-41452378D01*
X44927846Y-41282088D01*
X44873000Y-41199674D01*
X44873000Y-41128486D01*
X44985859Y-41015627D01*
X44806251Y-40836019D01*
X44693392Y-40948878D01*
X44622170Y-40948878D01*
X44542865Y-40895675D01*
X44372837Y-40824877D01*
X44369500Y-40823866D01*
X44230105Y-40948878D01*
X44229624Y-40948878D01*
X44227645Y-40951084D01*
X44225439Y-40953063D01*
X44225439Y-40953544D01*
X44100427Y-41092939D01*
X43971439Y-41092939D01*
X43971439Y-40953063D01*
X43827378Y-40823866D01*
X43657088Y-40894032D01*
X43503759Y-40996072D01*
X43373283Y-41126064D01*
X43270675Y-41279013D01*
X43199877Y-41449041D01*
X43198866Y-41452378D01*
X27847142Y-41452378D01*
X27849068Y-41447729D01*
X27885000Y-41267089D01*
X27885000Y-41082911D01*
X27849068Y-40902271D01*
X27778586Y-40732111D01*
X27676262Y-40578972D01*
X27648107Y-40550817D01*
X44100427Y-40550817D01*
X44229624Y-40694878D01*
X44873000Y-40694878D01*
X44873000Y-40051502D01*
X45127000Y-40051502D01*
X45127000Y-40694878D01*
X45770376Y-40694878D01*
X45803528Y-40657911D01*
X48815000Y-40657911D01*
X48815000Y-40842089D01*
X48850932Y-41022729D01*
X48921414Y-41192889D01*
X49023738Y-41346028D01*
X49153972Y-41476262D01*
X49307111Y-41578586D01*
X49477271Y-41649068D01*
X49657911Y-41685000D01*
X49842089Y-41685000D01*
X50022729Y-41649068D01*
X50192889Y-41578586D01*
X50346028Y-41476262D01*
X50476262Y-41346028D01*
X50578586Y-41192889D01*
X50649068Y-41022729D01*
X50685000Y-40842089D01*
X50685000Y-40657911D01*
X50649068Y-40477271D01*
X50578586Y-40307111D01*
X50476262Y-40153972D01*
X50346028Y-40023738D01*
X50192889Y-39921414D01*
X50022729Y-39850932D01*
X49842089Y-39815000D01*
X49657911Y-39815000D01*
X49477271Y-39850932D01*
X49307111Y-39921414D01*
X49153972Y-40023738D01*
X49023738Y-40153972D01*
X48921414Y-40307111D01*
X48850932Y-40477271D01*
X48815000Y-40657911D01*
X45803528Y-40657911D01*
X45899573Y-40550817D01*
X45829407Y-40380527D01*
X45727367Y-40227198D01*
X45597375Y-40096722D01*
X45444426Y-39994114D01*
X45274398Y-39923316D01*
X45271061Y-39922305D01*
X45127000Y-40051502D01*
X44873000Y-40051502D01*
X44728939Y-39922305D01*
X44558649Y-39992471D01*
X44405320Y-40094511D01*
X44274844Y-40224503D01*
X44172236Y-40377452D01*
X44101438Y-40547480D01*
X44100427Y-40550817D01*
X27648107Y-40550817D01*
X27546028Y-40448738D01*
X27392889Y-40346414D01*
X27222729Y-40275932D01*
X27042089Y-40240000D01*
X26857911Y-40240000D01*
X26677271Y-40275932D01*
X26507111Y-40346414D01*
X26353972Y-40448738D01*
X26223738Y-40578972D01*
X26121414Y-40732111D01*
X26050932Y-40902271D01*
X26015000Y-41082911D01*
X20685000Y-41082911D01*
X20685000Y-38307911D01*
X38240000Y-38307911D01*
X38240000Y-38492089D01*
X38275932Y-38672729D01*
X38346414Y-38842889D01*
X38448738Y-38996028D01*
X38578972Y-39126262D01*
X38732111Y-39228586D01*
X38902271Y-39299068D01*
X39065000Y-39331437D01*
X39065000Y-39490713D01*
X39100932Y-39671353D01*
X39171414Y-39841513D01*
X39273738Y-39994652D01*
X39403972Y-40124886D01*
X39557111Y-40227210D01*
X39727271Y-40297692D01*
X39907911Y-40333624D01*
X40092089Y-40333624D01*
X40272729Y-40297692D01*
X40442889Y-40227210D01*
X40596028Y-40124886D01*
X40726262Y-39994652D01*
X40828586Y-39841513D01*
X40899068Y-39671353D01*
X40935000Y-39490713D01*
X40935000Y-39306535D01*
X40899068Y-39125895D01*
X40828586Y-38955735D01*
X40726262Y-38802596D01*
X40596028Y-38672362D01*
X40442889Y-38570038D01*
X40272729Y-38499556D01*
X40110000Y-38467187D01*
X40110000Y-38307911D01*
X40074068Y-38127271D01*
X40003586Y-37957111D01*
X39901262Y-37803972D01*
X39771028Y-37673738D01*
X39617889Y-37571414D01*
X39447729Y-37500932D01*
X39267089Y-37465000D01*
X39082911Y-37465000D01*
X38902271Y-37500932D01*
X38732111Y-37571414D01*
X38578972Y-37673738D01*
X38448738Y-37803972D01*
X38346414Y-37957111D01*
X38275932Y-38127271D01*
X38240000Y-38307911D01*
X20685000Y-38307911D01*
X20685000Y-36232911D01*
X46090000Y-36232911D01*
X46090000Y-36417089D01*
X46125932Y-36597729D01*
X46196414Y-36767889D01*
X46298738Y-36921028D01*
X46428972Y-37051262D01*
X46582111Y-37153586D01*
X46752271Y-37224068D01*
X46932911Y-37260000D01*
X47117089Y-37260000D01*
X47297729Y-37224068D01*
X47467889Y-37153586D01*
X47621028Y-37051262D01*
X47751262Y-36921028D01*
X47853586Y-36767889D01*
X47924068Y-36597729D01*
X47960000Y-36417089D01*
X47960000Y-36232911D01*
X47924068Y-36052271D01*
X47853586Y-35882111D01*
X47751262Y-35728972D01*
X47621028Y-35598738D01*
X47467889Y-35496414D01*
X47297729Y-35425932D01*
X47117089Y-35390000D01*
X46932911Y-35390000D01*
X46752271Y-35425932D01*
X46582111Y-35496414D01*
X46428972Y-35598738D01*
X46298738Y-35728972D01*
X46196414Y-35882111D01*
X46125932Y-36052271D01*
X46090000Y-36232911D01*
X20685000Y-36232911D01*
X20685000Y-35157911D01*
X40240000Y-35157911D01*
X40240000Y-35342089D01*
X40275932Y-35522729D01*
X40346414Y-35692889D01*
X40448738Y-35846028D01*
X40578972Y-35976262D01*
X40732111Y-36078586D01*
X40902271Y-36149068D01*
X41082911Y-36185000D01*
X41267089Y-36185000D01*
X41447729Y-36149068D01*
X41617889Y-36078586D01*
X41771028Y-35976262D01*
X41901262Y-35846028D01*
X42003586Y-35692889D01*
X42074068Y-35522729D01*
X42110000Y-35342089D01*
X42110000Y-35157911D01*
X42074068Y-34977271D01*
X42003586Y-34807111D01*
X41901262Y-34653972D01*
X41771028Y-34523738D01*
X41617889Y-34421414D01*
X41447729Y-34350932D01*
X41267089Y-34315000D01*
X41082911Y-34315000D01*
X40902271Y-34350932D01*
X40732111Y-34421414D01*
X40578972Y-34523738D01*
X40448738Y-34653972D01*
X40346414Y-34807111D01*
X40275932Y-34977271D01*
X40240000Y-35157911D01*
X20685000Y-35157911D01*
X20685000Y-30482911D01*
X27615000Y-30482911D01*
X27615000Y-30667089D01*
X27650932Y-30847729D01*
X27721414Y-31017889D01*
X27823738Y-31171028D01*
X27953972Y-31301262D01*
X28107111Y-31403586D01*
X28277271Y-31474068D01*
X28457911Y-31510000D01*
X28642089Y-31510000D01*
X28822729Y-31474068D01*
X28992889Y-31403586D01*
X29146028Y-31301262D01*
X29276262Y-31171028D01*
X29378586Y-31017889D01*
X29449068Y-30847729D01*
X29485000Y-30667089D01*
X29485000Y-30482911D01*
X29449068Y-30302271D01*
X29378918Y-30132911D01*
X40815000Y-30132911D01*
X40815000Y-30317089D01*
X40850932Y-30497729D01*
X40921414Y-30667889D01*
X41023738Y-30821028D01*
X41153972Y-30951262D01*
X41307111Y-31053586D01*
X41477271Y-31124068D01*
X41657911Y-31160000D01*
X41842089Y-31160000D01*
X42022729Y-31124068D01*
X42192889Y-31053586D01*
X42346028Y-30951262D01*
X42476262Y-30821028D01*
X42578586Y-30667889D01*
X42649068Y-30497729D01*
X42685000Y-30317089D01*
X42685000Y-30182911D01*
X46640000Y-30182911D01*
X46640000Y-30367089D01*
X46675932Y-30547729D01*
X46746414Y-30717889D01*
X46848738Y-30871028D01*
X46978972Y-31001262D01*
X47132111Y-31103586D01*
X47302271Y-31174068D01*
X47482911Y-31210000D01*
X47667089Y-31210000D01*
X47847729Y-31174068D01*
X48017889Y-31103586D01*
X48171028Y-31001262D01*
X48301262Y-30871028D01*
X48403586Y-30717889D01*
X48474068Y-30547729D01*
X48510000Y-30367089D01*
X48510000Y-30182911D01*
X48474068Y-30002271D01*
X48403586Y-29832111D01*
X48301262Y-29678972D01*
X48171028Y-29548738D01*
X48017889Y-29446414D01*
X47847729Y-29375932D01*
X47667089Y-29340000D01*
X47482911Y-29340000D01*
X47302271Y-29375932D01*
X47132111Y-29446414D01*
X46978972Y-29548738D01*
X46848738Y-29678972D01*
X46746414Y-29832111D01*
X46675932Y-30002271D01*
X46640000Y-30182911D01*
X42685000Y-30182911D01*
X42685000Y-30132911D01*
X42649068Y-29952271D01*
X42578586Y-29782111D01*
X42476262Y-29628972D01*
X42346028Y-29498738D01*
X42192889Y-29396414D01*
X42022729Y-29325932D01*
X41842089Y-29290000D01*
X41657911Y-29290000D01*
X41477271Y-29325932D01*
X41307111Y-29396414D01*
X41153972Y-29498738D01*
X41023738Y-29628972D01*
X40921414Y-29782111D01*
X40850932Y-29952271D01*
X40815000Y-30132911D01*
X29378918Y-30132911D01*
X29378586Y-30132111D01*
X29276262Y-29978972D01*
X29146028Y-29848738D01*
X28992889Y-29746414D01*
X28822729Y-29675932D01*
X28642089Y-29640000D01*
X28457911Y-29640000D01*
X28277271Y-29675932D01*
X28107111Y-29746414D01*
X27953972Y-29848738D01*
X27823738Y-29978972D01*
X27721414Y-30132111D01*
X27650932Y-30302271D01*
X27615000Y-30482911D01*
X20685000Y-30482911D01*
X20685000Y-26450881D01*
X21228724Y-26450881D01*
X21588912Y-26940548D01*
X22252882Y-27300849D01*
X22974385Y-27524694D01*
X23725695Y-27603480D01*
X24477938Y-27534178D01*
X25202208Y-27319452D01*
X25870670Y-26967555D01*
X25911088Y-26940548D01*
X26065961Y-26730001D01*
X39541928Y-26730001D01*
X39554188Y-26854483D01*
X39590498Y-26974181D01*
X39649463Y-27084495D01*
X39728815Y-27181186D01*
X39825506Y-27260538D01*
X39935820Y-27319503D01*
X40055518Y-27355813D01*
X40180000Y-27368073D01*
X40394250Y-27365001D01*
X40553000Y-27206251D01*
X40553000Y-26057001D01*
X39703750Y-26057001D01*
X39545000Y-26215751D01*
X39541928Y-26730001D01*
X26065961Y-26730001D01*
X26271276Y-26450881D01*
X23750000Y-23929605D01*
X21228724Y-26450881D01*
X20685000Y-26450881D01*
X20685000Y-26003438D01*
X21049119Y-26271276D01*
X23570395Y-23750000D01*
X23929605Y-23750000D01*
X26450881Y-26271276D01*
X26940548Y-25911088D01*
X27300849Y-25247118D01*
X27337184Y-25130001D01*
X39541928Y-25130001D01*
X39545000Y-25644251D01*
X39703750Y-25803001D01*
X40553000Y-25803001D01*
X40553000Y-24653751D01*
X40807000Y-24653751D01*
X40807000Y-25803001D01*
X40827000Y-25803001D01*
X40827000Y-26057001D01*
X40807000Y-26057001D01*
X40807000Y-27206251D01*
X40965750Y-27365001D01*
X41180000Y-27368073D01*
X41304482Y-27355813D01*
X41424180Y-27319503D01*
X41534494Y-27260538D01*
X41631185Y-27181186D01*
X41710537Y-27084495D01*
X41769502Y-26974181D01*
X41805812Y-26854483D01*
X41818072Y-26730001D01*
X41815631Y-26321308D01*
X41819978Y-26323109D01*
X42005448Y-26360001D01*
X42194552Y-26360001D01*
X42380022Y-26323109D01*
X42554731Y-26250742D01*
X42711964Y-26145682D01*
X42845681Y-26011965D01*
X42950741Y-25854732D01*
X43023108Y-25680023D01*
X43060000Y-25494553D01*
X43060000Y-25305449D01*
X46940000Y-25305449D01*
X46940000Y-25494553D01*
X46976892Y-25680023D01*
X47049259Y-25854732D01*
X47154319Y-26011965D01*
X47288036Y-26145682D01*
X47445269Y-26250742D01*
X47619978Y-26323109D01*
X47805448Y-26360001D01*
X47994552Y-26360001D01*
X48180022Y-26323109D01*
X48184369Y-26321308D01*
X48181928Y-26730001D01*
X48194188Y-26854483D01*
X48230498Y-26974181D01*
X48289463Y-27084495D01*
X48368815Y-27181186D01*
X48465506Y-27260538D01*
X48575820Y-27319503D01*
X48695518Y-27355813D01*
X48820000Y-27368073D01*
X49034250Y-27365001D01*
X49193000Y-27206251D01*
X49193000Y-26057001D01*
X49447000Y-26057001D01*
X49447000Y-27206251D01*
X49605750Y-27365001D01*
X49820000Y-27368073D01*
X49944482Y-27355813D01*
X50064180Y-27319503D01*
X50174494Y-27260538D01*
X50271185Y-27181186D01*
X50350537Y-27084495D01*
X50409502Y-26974181D01*
X50445812Y-26854483D01*
X50458072Y-26730001D01*
X50456405Y-26450881D01*
X63728724Y-26450881D01*
X64088912Y-26940548D01*
X64752882Y-27300849D01*
X65474385Y-27524694D01*
X66225695Y-27603480D01*
X66977938Y-27534178D01*
X67702208Y-27319452D01*
X68370670Y-26967555D01*
X68411088Y-26940548D01*
X68771276Y-26450881D01*
X66250000Y-23929605D01*
X63728724Y-26450881D01*
X50456405Y-26450881D01*
X50455000Y-26215751D01*
X50296250Y-26057001D01*
X49447000Y-26057001D01*
X49193000Y-26057001D01*
X49173000Y-26057001D01*
X49173000Y-25803001D01*
X49193000Y-25803001D01*
X49193000Y-24653751D01*
X49447000Y-24653751D01*
X49447000Y-25803001D01*
X50296250Y-25803001D01*
X50455000Y-25644251D01*
X50458072Y-25130001D01*
X50445812Y-25005519D01*
X50409502Y-24885821D01*
X50350537Y-24775507D01*
X50271185Y-24678816D01*
X50174494Y-24599464D01*
X50064180Y-24540499D01*
X49944482Y-24504189D01*
X49820000Y-24491929D01*
X49605750Y-24495001D01*
X49447000Y-24653751D01*
X49193000Y-24653751D01*
X49034250Y-24495001D01*
X48820000Y-24491929D01*
X48695518Y-24504189D01*
X48575820Y-24540499D01*
X48465506Y-24599464D01*
X48449511Y-24612590D01*
X48354731Y-24549260D01*
X48180022Y-24476893D01*
X47994552Y-24440001D01*
X47805448Y-24440001D01*
X47619978Y-24476893D01*
X47445269Y-24549260D01*
X47288036Y-24654320D01*
X47154319Y-24788037D01*
X47049259Y-24945270D01*
X46976892Y-25119979D01*
X46940000Y-25305449D01*
X43060000Y-25305449D01*
X43023108Y-25119979D01*
X42950741Y-24945270D01*
X42845681Y-24788037D01*
X42711964Y-24654320D01*
X42554731Y-24549260D01*
X42380022Y-24476893D01*
X42194552Y-24440001D01*
X42005448Y-24440001D01*
X41819978Y-24476893D01*
X41645269Y-24549260D01*
X41550489Y-24612590D01*
X41534494Y-24599464D01*
X41424180Y-24540499D01*
X41304482Y-24504189D01*
X41180000Y-24491929D01*
X40965750Y-24495001D01*
X40807000Y-24653751D01*
X40553000Y-24653751D01*
X40394250Y-24495001D01*
X40180000Y-24491929D01*
X40055518Y-24504189D01*
X39935820Y-24540499D01*
X39825506Y-24599464D01*
X39728815Y-24678816D01*
X39649463Y-24775507D01*
X39590498Y-24885821D01*
X39554188Y-25005519D01*
X39541928Y-25130001D01*
X27337184Y-25130001D01*
X27524694Y-24525615D01*
X27603480Y-23774305D01*
X27599002Y-23725695D01*
X62396520Y-23725695D01*
X62465822Y-24477938D01*
X62680548Y-25202208D01*
X63032445Y-25870670D01*
X63059452Y-25911088D01*
X63549119Y-26271276D01*
X66070395Y-23750000D01*
X63549119Y-21228724D01*
X63059452Y-21588912D01*
X62699151Y-22252882D01*
X62475306Y-22974385D01*
X62396520Y-23725695D01*
X27599002Y-23725695D01*
X27534178Y-23022062D01*
X27394225Y-22550001D01*
X39541928Y-22550001D01*
X39554188Y-22674483D01*
X39590498Y-22794181D01*
X39649463Y-22904495D01*
X39728815Y-23001186D01*
X39825506Y-23080538D01*
X39935820Y-23139503D01*
X40055518Y-23175813D01*
X40180000Y-23188073D01*
X40394250Y-23185001D01*
X40553000Y-23026251D01*
X40553000Y-21877001D01*
X40807000Y-21877001D01*
X40807000Y-23026251D01*
X40965750Y-23185001D01*
X41180000Y-23188073D01*
X41304482Y-23175813D01*
X41424180Y-23139503D01*
X41534494Y-23080538D01*
X41631185Y-23001186D01*
X41710537Y-22904495D01*
X41769502Y-22794181D01*
X41805812Y-22674483D01*
X41818072Y-22550001D01*
X48181928Y-22550001D01*
X48194188Y-22674483D01*
X48230498Y-22794181D01*
X48289463Y-22904495D01*
X48368815Y-23001186D01*
X48465506Y-23080538D01*
X48575820Y-23139503D01*
X48695518Y-23175813D01*
X48820000Y-23188073D01*
X49034250Y-23185001D01*
X49193000Y-23026251D01*
X49193000Y-21877001D01*
X49447000Y-21877001D01*
X49447000Y-23026251D01*
X49605750Y-23185001D01*
X49820000Y-23188073D01*
X49944482Y-23175813D01*
X50064180Y-23139503D01*
X50174494Y-23080538D01*
X50271185Y-23001186D01*
X50350537Y-22904495D01*
X50409502Y-22794181D01*
X50445812Y-22674483D01*
X50458072Y-22550001D01*
X50455000Y-22035751D01*
X50296250Y-21877001D01*
X49447000Y-21877001D01*
X49193000Y-21877001D01*
X48343750Y-21877001D01*
X48185000Y-22035751D01*
X48181928Y-22550001D01*
X41818072Y-22550001D01*
X41815000Y-22035751D01*
X41656250Y-21877001D01*
X40807000Y-21877001D01*
X40553000Y-21877001D01*
X39703750Y-21877001D01*
X39545000Y-22035751D01*
X39541928Y-22550001D01*
X27394225Y-22550001D01*
X27319452Y-22297792D01*
X26967555Y-21629330D01*
X26940548Y-21588912D01*
X26450881Y-21228724D01*
X23929605Y-23750000D01*
X23570395Y-23750000D01*
X23556253Y-23735858D01*
X23735858Y-23556253D01*
X23750000Y-23570395D01*
X26271276Y-21049119D01*
X26003438Y-20685000D01*
X39601627Y-20685000D01*
X39590498Y-20705821D01*
G37*
G04 #@! TD.AperFunction*
G04 #@! TD*
M02*
