M48
INCH,TZ
T1C0.0138
T2C0.0197
T3C0.0236
T4C0.0354
T5C0.0866
T6C0.1260
%
G90
G05
T1
X10610Y-16211
X11240Y-12037
X11398Y-17382
X11407Y-18858
X12579Y-17825
X12579Y-18415
X12579Y-18720
X13415Y-15610
X15069Y-17283
X15157Y-14852
X15157Y-14852
X15305Y-16998
X15423Y-15118
X15748Y-15511
X15758Y-21388
X15886Y-18642
X15901Y-18937
X16211Y-13878
X16437Y-11900
X16486Y-23573
X16594Y-21388
X16594Y-21388
X16880Y-11900
X16919Y-13878
X17007Y-16781
X17047Y-19488
X17283Y-19213
X17362Y-16427
X17362Y-17136
X17717Y-16072
X17717Y-16781
X17717Y-17491
X18071Y-16427
X18071Y-17136
X18327Y-11909
X18426Y-16781
X18474Y-19783
X18514Y-14301
X18652Y-23563
X18730Y-11919
X19587Y-16043
X19823Y-15797
X19961Y-18209
X20827Y-19085
X21565Y-26073
X22441Y-16929
X22835Y-16929
X23228Y-16929
X23622Y-16929
X23632Y-26073
X24508Y-20226
T2
X8385Y-26104
X8406Y-9350
X8661Y-25435
X8661Y-26772
X8682Y-8682
X8682Y-10019
X9330Y-25159
X9330Y-27048
X9350Y-8406
X9350Y-10295
X9998Y-25435
X9998Y-26772
X10019Y-8682
X10019Y-10019
X10274Y-26104
X10295Y-9350
X25138Y-9350
X25138Y-26083
X25415Y-8682
X25415Y-10019
X25415Y-25415
X25415Y-26751
X26083Y-8406
X26083Y-10295
X26083Y-25138
X26083Y-27028
X26751Y-8682
X26751Y-10019
X26751Y-25415
X26751Y-26751
X27028Y-9350
X27028Y-26083
T4
X16957Y-25783
X16957Y-26417
X17717Y-25783
X17717Y-26417
X18476Y-25783
X18476Y-26417
T5
X15661Y-26533
X19783Y-26533
T6
X9330Y-26104
X9350Y-9350
X26083Y-9350
X26083Y-26083
T3
G00X16016Y-8681
M15
G01X16016Y-8445
M16
G05
G00X16016Y-10327
M15
G01X16016Y-10091
M16
G05
G00X19417Y-8681
M15
G01X19417Y-8445
M16
G05
G00X19417Y-10327
M15
G01X19417Y-10091
M16
G05
T0
M30
