%TF.GenerationSoftware,KiCad,Pcbnew,5.1.10*%
%TF.CreationDate,2021-06-16T23:26:04-06:00*%
%TF.ProjectId,cable-link,6361626c-652d-46c6-996e-6b2e6b696361,rev?*%
%TF.SameCoordinates,Original*%
%TF.FileFunction,Soldermask,Top*%
%TF.FilePolarity,Negative*%
%FSLAX46Y46*%
G04 Gerber Fmt 4.6, Leading zero omitted, Abs format (unit mm)*
G04 Created by KiCad (PCBNEW 5.1.10) date 2021-06-16 23:26:04*
%MOMM*%
%LPD*%
G01*
G04 APERTURE LIST*
%ADD10R,2.050000X0.760000*%
%ADD11C,0.800000*%
%ADD12C,6.400000*%
%ADD13R,0.740000X2.400000*%
%ADD14O,1.270000X2.540000*%
%ADD15C,3.500000*%
%ADD16R,0.800000X0.900000*%
%ADD17R,3.800000X2.000000*%
%ADD18R,1.500000X2.000000*%
%ADD19R,0.750000X0.300000*%
%ADD20R,1.300000X1.500000*%
%ADD21C,0.100000*%
%ADD22R,0.300000X1.450000*%
%ADD23C,0.670000*%
G04 APERTURE END LIST*
D10*
%TO.C,J4*%
X67855000Y-51365000D03*
X64295000Y-51365000D03*
X67855000Y-50095000D03*
X64295000Y-50095000D03*
X67855000Y-48825000D03*
X64295000Y-48825000D03*
X67855000Y-47555000D03*
X64295000Y-47555000D03*
X67855000Y-46285000D03*
X64295000Y-46285000D03*
%TD*%
%TO.C,C9*%
G36*
G01*
X58725000Y-30900000D02*
X57775000Y-30900000D01*
G75*
G02*
X57525000Y-30650000I0J250000D01*
G01*
X57525000Y-30150000D01*
G75*
G02*
X57775000Y-29900000I250000J0D01*
G01*
X58725000Y-29900000D01*
G75*
G02*
X58975000Y-30150000I0J-250000D01*
G01*
X58975000Y-30650000D01*
G75*
G02*
X58725000Y-30900000I-250000J0D01*
G01*
G37*
G36*
G01*
X58725000Y-32800000D02*
X57775000Y-32800000D01*
G75*
G02*
X57525000Y-32550000I0J250000D01*
G01*
X57525000Y-32050000D01*
G75*
G02*
X57775000Y-31800000I250000J0D01*
G01*
X58725000Y-31800000D01*
G75*
G02*
X58975000Y-32050000I0J-250000D01*
G01*
X58975000Y-32550000D01*
G75*
G02*
X58725000Y-32800000I-250000J0D01*
G01*
G37*
%TD*%
%TO.C,C5*%
G36*
G01*
X56550000Y-30875000D02*
X55600000Y-30875000D01*
G75*
G02*
X55350000Y-30625000I0J250000D01*
G01*
X55350000Y-30125000D01*
G75*
G02*
X55600000Y-29875000I250000J0D01*
G01*
X56550000Y-29875000D01*
G75*
G02*
X56800000Y-30125000I0J-250000D01*
G01*
X56800000Y-30625000D01*
G75*
G02*
X56550000Y-30875000I-250000J0D01*
G01*
G37*
G36*
G01*
X56550000Y-32775000D02*
X55600000Y-32775000D01*
G75*
G02*
X55350000Y-32525000I0J250000D01*
G01*
X55350000Y-32025000D01*
G75*
G02*
X55600000Y-31775000I250000J0D01*
G01*
X56550000Y-31775000D01*
G75*
G02*
X56800000Y-32025000I0J-250000D01*
G01*
X56800000Y-32525000D01*
G75*
G02*
X56550000Y-32775000I-250000J0D01*
G01*
G37*
%TD*%
D11*
%TO.C,H4*%
X25394112Y-64605888D03*
X23697056Y-63902944D03*
X22000000Y-64605888D03*
X21297056Y-66302944D03*
X22000000Y-68000000D03*
X23697056Y-68702944D03*
X25394112Y-68000000D03*
X26097056Y-66302944D03*
D12*
X23697056Y-66302944D03*
%TD*%
D11*
%TO.C,H3*%
X67947056Y-64552944D03*
X66250000Y-63850000D03*
X64552944Y-64552944D03*
X63850000Y-66250000D03*
X64552944Y-67947056D03*
X66250000Y-68650000D03*
X67947056Y-67947056D03*
X68650000Y-66250000D03*
D12*
X66250000Y-66250000D03*
%TD*%
D11*
%TO.C,H2*%
X67947056Y-22052944D03*
X66250000Y-21350000D03*
X64552944Y-22052944D03*
X63850000Y-23750000D03*
X64552944Y-25447056D03*
X66250000Y-26150000D03*
X67947056Y-25447056D03*
X68650000Y-23750000D03*
D12*
X66250000Y-23750000D03*
%TD*%
D11*
%TO.C,H1*%
X25447056Y-22052944D03*
X23750000Y-21350000D03*
X22052944Y-22052944D03*
X21350000Y-23750000D03*
X22052944Y-25447056D03*
X23750000Y-26150000D03*
X25447056Y-25447056D03*
X26150000Y-23750000D03*
D12*
X23750000Y-23750000D03*
%TD*%
%TO.C,C2*%
G36*
G01*
X48542355Y-51654630D02*
X48301939Y-51895046D01*
G75*
G02*
X48103949Y-51895046I-98995J98995D01*
G01*
X47905959Y-51697056D01*
G75*
G02*
X47905959Y-51499066I98995J98995D01*
G01*
X48146375Y-51258650D01*
G75*
G02*
X48344365Y-51258650I98995J-98995D01*
G01*
X48542355Y-51456640D01*
G75*
G02*
X48542355Y-51654630I-98995J-98995D01*
G01*
G37*
G36*
G01*
X47863533Y-50975808D02*
X47623117Y-51216224D01*
G75*
G02*
X47425127Y-51216224I-98995J98995D01*
G01*
X47227137Y-51018234D01*
G75*
G02*
X47227137Y-50820244I98995J98995D01*
G01*
X47467553Y-50579828D01*
G75*
G02*
X47665543Y-50579828I98995J-98995D01*
G01*
X47863533Y-50777818D01*
G75*
G02*
X47863533Y-50975808I-98995J-98995D01*
G01*
G37*
%TD*%
%TO.C,C3*%
G36*
G01*
X41732609Y-39417193D02*
X41492193Y-39657609D01*
G75*
G02*
X41294203Y-39657609I-98995J98995D01*
G01*
X41096213Y-39459619D01*
G75*
G02*
X41096213Y-39261629I98995J98995D01*
G01*
X41336629Y-39021213D01*
G75*
G02*
X41534619Y-39021213I98995J-98995D01*
G01*
X41732609Y-39219203D01*
G75*
G02*
X41732609Y-39417193I-98995J-98995D01*
G01*
G37*
G36*
G01*
X41053787Y-38738371D02*
X40813371Y-38978787D01*
G75*
G02*
X40615381Y-38978787I-98995J98995D01*
G01*
X40417391Y-38780797D01*
G75*
G02*
X40417391Y-38582807I98995J98995D01*
G01*
X40657807Y-38342391D01*
G75*
G02*
X40855797Y-38342391I98995J-98995D01*
G01*
X41053787Y-38540381D01*
G75*
G02*
X41053787Y-38738371I-98995J-98995D01*
G01*
G37*
%TD*%
%TO.C,C4*%
G36*
G01*
X52496213Y-46886629D02*
X52736629Y-46646213D01*
G75*
G02*
X52934619Y-46646213I98995J-98995D01*
G01*
X53132609Y-46844203D01*
G75*
G02*
X53132609Y-47042193I-98995J-98995D01*
G01*
X52892193Y-47282609D01*
G75*
G02*
X52694203Y-47282609I-98995J98995D01*
G01*
X52496213Y-47084619D01*
G75*
G02*
X52496213Y-46886629I98995J98995D01*
G01*
G37*
G36*
G01*
X51817391Y-46207807D02*
X52057807Y-45967391D01*
G75*
G02*
X52255797Y-45967391I98995J-98995D01*
G01*
X52453787Y-46165381D01*
G75*
G02*
X52453787Y-46363371I-98995J-98995D01*
G01*
X52213371Y-46603787D01*
G75*
G02*
X52015381Y-46603787I-98995J98995D01*
G01*
X51817391Y-46405797D01*
G75*
G02*
X51817391Y-46207807I98995J98995D01*
G01*
G37*
%TD*%
%TO.C,C6*%
G36*
G01*
X42805000Y-37025000D02*
X43145000Y-37025000D01*
G75*
G02*
X43285000Y-37165000I0J-140000D01*
G01*
X43285000Y-37445000D01*
G75*
G02*
X43145000Y-37585000I-140000J0D01*
G01*
X42805000Y-37585000D01*
G75*
G02*
X42665000Y-37445000I0J140000D01*
G01*
X42665000Y-37165000D01*
G75*
G02*
X42805000Y-37025000I140000J0D01*
G01*
G37*
G36*
G01*
X42805000Y-36065000D02*
X43145000Y-36065000D01*
G75*
G02*
X43285000Y-36205000I0J-140000D01*
G01*
X43285000Y-36485000D01*
G75*
G02*
X43145000Y-36625000I-140000J0D01*
G01*
X42805000Y-36625000D01*
G75*
G02*
X42665000Y-36485000I0J140000D01*
G01*
X42665000Y-36205000D01*
G75*
G02*
X42805000Y-36065000I140000J0D01*
G01*
G37*
%TD*%
%TO.C,C7*%
G36*
G01*
X43805000Y-35090000D02*
X44145000Y-35090000D01*
G75*
G02*
X44285000Y-35230000I0J-140000D01*
G01*
X44285000Y-35510000D01*
G75*
G02*
X44145000Y-35650000I-140000J0D01*
G01*
X43805000Y-35650000D01*
G75*
G02*
X43665000Y-35510000I0J140000D01*
G01*
X43665000Y-35230000D01*
G75*
G02*
X43805000Y-35090000I140000J0D01*
G01*
G37*
G36*
G01*
X43805000Y-36050000D02*
X44145000Y-36050000D01*
G75*
G02*
X44285000Y-36190000I0J-140000D01*
G01*
X44285000Y-36470000D01*
G75*
G02*
X44145000Y-36610000I-140000J0D01*
G01*
X43805000Y-36610000D01*
G75*
G02*
X43665000Y-36470000I0J140000D01*
G01*
X43665000Y-36190000D01*
G75*
G02*
X43805000Y-36050000I140000J0D01*
G01*
G37*
%TD*%
%TO.C,C8*%
G36*
G01*
X39503787Y-37113371D02*
X39263371Y-37353787D01*
G75*
G02*
X39065381Y-37353787I-98995J98995D01*
G01*
X38867391Y-37155797D01*
G75*
G02*
X38867391Y-36957807I98995J98995D01*
G01*
X39107807Y-36717391D01*
G75*
G02*
X39305797Y-36717391I98995J-98995D01*
G01*
X39503787Y-36915381D01*
G75*
G02*
X39503787Y-37113371I-98995J-98995D01*
G01*
G37*
G36*
G01*
X40182609Y-37792193D02*
X39942193Y-38032609D01*
G75*
G02*
X39744203Y-38032609I-98995J98995D01*
G01*
X39546213Y-37834619D01*
G75*
G02*
X39546213Y-37636629I98995J98995D01*
G01*
X39786629Y-37396213D01*
G75*
G02*
X39984619Y-37396213I98995J-98995D01*
G01*
X40182609Y-37594203D01*
G75*
G02*
X40182609Y-37792193I-98995J-98995D01*
G01*
G37*
%TD*%
%TO.C,C10*%
G36*
G01*
X46220000Y-36610000D02*
X45880000Y-36610000D01*
G75*
G02*
X45740000Y-36470000I0J140000D01*
G01*
X45740000Y-36190000D01*
G75*
G02*
X45880000Y-36050000I140000J0D01*
G01*
X46220000Y-36050000D01*
G75*
G02*
X46360000Y-36190000I0J-140000D01*
G01*
X46360000Y-36470000D01*
G75*
G02*
X46220000Y-36610000I-140000J0D01*
G01*
G37*
G36*
G01*
X46220000Y-35650000D02*
X45880000Y-35650000D01*
G75*
G02*
X45740000Y-35510000I0J140000D01*
G01*
X45740000Y-35230000D01*
G75*
G02*
X45880000Y-35090000I140000J0D01*
G01*
X46220000Y-35090000D01*
G75*
G02*
X46360000Y-35230000I0J-140000D01*
G01*
X46360000Y-35510000D01*
G75*
G02*
X46220000Y-35650000I-140000J0D01*
G01*
G37*
%TD*%
%TO.C,C11*%
G36*
G01*
X60950000Y-32800000D02*
X60000000Y-32800000D01*
G75*
G02*
X59750000Y-32550000I0J250000D01*
G01*
X59750000Y-32050000D01*
G75*
G02*
X60000000Y-31800000I250000J0D01*
G01*
X60950000Y-31800000D01*
G75*
G02*
X61200000Y-32050000I0J-250000D01*
G01*
X61200000Y-32550000D01*
G75*
G02*
X60950000Y-32800000I-250000J0D01*
G01*
G37*
G36*
G01*
X60950000Y-30900000D02*
X60000000Y-30900000D01*
G75*
G02*
X59750000Y-30650000I0J250000D01*
G01*
X59750000Y-30150000D01*
G75*
G02*
X60000000Y-29900000I250000J0D01*
G01*
X60950000Y-29900000D01*
G75*
G02*
X61200000Y-30150000I0J-250000D01*
G01*
X61200000Y-30650000D01*
G75*
G02*
X60950000Y-30900000I-250000J0D01*
G01*
G37*
%TD*%
%TO.C,C12*%
G36*
G01*
X49475485Y-39653913D02*
X49235069Y-39413497D01*
G75*
G02*
X49235069Y-39215507I98995J98995D01*
G01*
X49433059Y-39017517D01*
G75*
G02*
X49631049Y-39017517I98995J-98995D01*
G01*
X49871465Y-39257933D01*
G75*
G02*
X49871465Y-39455923I-98995J-98995D01*
G01*
X49673475Y-39653913D01*
G75*
G02*
X49475485Y-39653913I-98995J98995D01*
G01*
G37*
G36*
G01*
X48796663Y-40332735D02*
X48556247Y-40092319D01*
G75*
G02*
X48556247Y-39894329I98995J98995D01*
G01*
X48754237Y-39696339D01*
G75*
G02*
X48952227Y-39696339I98995J-98995D01*
G01*
X49192643Y-39936755D01*
G75*
G02*
X49192643Y-40134745I-98995J-98995D01*
G01*
X48994653Y-40332735D01*
G75*
G02*
X48796663Y-40332735I-98995J98995D01*
G01*
G37*
%TD*%
%TO.C,C13*%
G36*
G01*
X48492391Y-45707807D02*
X48732807Y-45467391D01*
G75*
G02*
X48930797Y-45467391I98995J-98995D01*
G01*
X49128787Y-45665381D01*
G75*
G02*
X49128787Y-45863371I-98995J-98995D01*
G01*
X48888371Y-46103787D01*
G75*
G02*
X48690381Y-46103787I-98995J98995D01*
G01*
X48492391Y-45905797D01*
G75*
G02*
X48492391Y-45707807I98995J98995D01*
G01*
G37*
G36*
G01*
X49171213Y-46386629D02*
X49411629Y-46146213D01*
G75*
G02*
X49609619Y-46146213I98995J-98995D01*
G01*
X49807609Y-46344203D01*
G75*
G02*
X49807609Y-46542193I-98995J-98995D01*
G01*
X49567193Y-46782609D01*
G75*
G02*
X49369203Y-46782609I-98995J98995D01*
G01*
X49171213Y-46584619D01*
G75*
G02*
X49171213Y-46386629I98995J98995D01*
G01*
G37*
%TD*%
%TO.C,C14*%
G36*
G01*
X42563371Y-48421213D02*
X42803787Y-48661629D01*
G75*
G02*
X42803787Y-48859619I-98995J-98995D01*
G01*
X42605797Y-49057609D01*
G75*
G02*
X42407807Y-49057609I-98995J98995D01*
G01*
X42167391Y-48817193D01*
G75*
G02*
X42167391Y-48619203I98995J98995D01*
G01*
X42365381Y-48421213D01*
G75*
G02*
X42563371Y-48421213I98995J-98995D01*
G01*
G37*
G36*
G01*
X43242193Y-47742391D02*
X43482609Y-47982807D01*
G75*
G02*
X43482609Y-48180797I-98995J-98995D01*
G01*
X43284619Y-48378787D01*
G75*
G02*
X43086629Y-48378787I-98995J98995D01*
G01*
X42846213Y-48138371D01*
G75*
G02*
X42846213Y-47940381I98995J98995D01*
G01*
X43044203Y-47742391D01*
G75*
G02*
X43242193Y-47742391I98995J-98995D01*
G01*
G37*
%TD*%
%TO.C,C15*%
G36*
G01*
X39625488Y-43507645D02*
X39865904Y-43748061D01*
G75*
G02*
X39865904Y-43946051I-98995J-98995D01*
G01*
X39667914Y-44144041D01*
G75*
G02*
X39469924Y-44144041I-98995J98995D01*
G01*
X39229508Y-43903625D01*
G75*
G02*
X39229508Y-43705635I98995J98995D01*
G01*
X39427498Y-43507645D01*
G75*
G02*
X39625488Y-43507645I98995J-98995D01*
G01*
G37*
G36*
G01*
X38946666Y-44186467D02*
X39187082Y-44426883D01*
G75*
G02*
X39187082Y-44624873I-98995J-98995D01*
G01*
X38989092Y-44822863D01*
G75*
G02*
X38791102Y-44822863I-98995J98995D01*
G01*
X38550686Y-44582447D01*
G75*
G02*
X38550686Y-44384457I98995J98995D01*
G01*
X38748676Y-44186467D01*
G75*
G02*
X38946666Y-44186467I98995J-98995D01*
G01*
G37*
%TD*%
%TO.C,C16*%
G36*
G01*
X40378787Y-36238371D02*
X40138371Y-36478787D01*
G75*
G02*
X39940381Y-36478787I-98995J98995D01*
G01*
X39742391Y-36280797D01*
G75*
G02*
X39742391Y-36082807I98995J98995D01*
G01*
X39982807Y-35842391D01*
G75*
G02*
X40180797Y-35842391I98995J-98995D01*
G01*
X40378787Y-36040381D01*
G75*
G02*
X40378787Y-36238371I-98995J-98995D01*
G01*
G37*
G36*
G01*
X41057609Y-36917193D02*
X40817193Y-37157609D01*
G75*
G02*
X40619203Y-37157609I-98995J98995D01*
G01*
X40421213Y-36959619D01*
G75*
G02*
X40421213Y-36761629I98995J98995D01*
G01*
X40661629Y-36521213D01*
G75*
G02*
X40859619Y-36521213I98995J-98995D01*
G01*
X41057609Y-36719203D01*
G75*
G02*
X41057609Y-36917193I-98995J-98995D01*
G01*
G37*
%TD*%
%TO.C,C17*%
G36*
G01*
X29235000Y-48705000D02*
X29235000Y-49045000D01*
G75*
G02*
X29095000Y-49185000I-140000J0D01*
G01*
X28815000Y-49185000D01*
G75*
G02*
X28675000Y-49045000I0J140000D01*
G01*
X28675000Y-48705000D01*
G75*
G02*
X28815000Y-48565000I140000J0D01*
G01*
X29095000Y-48565000D01*
G75*
G02*
X29235000Y-48705000I0J-140000D01*
G01*
G37*
G36*
G01*
X28275000Y-48705000D02*
X28275000Y-49045000D01*
G75*
G02*
X28135000Y-49185000I-140000J0D01*
G01*
X27855000Y-49185000D01*
G75*
G02*
X27715000Y-49045000I0J140000D01*
G01*
X27715000Y-48705000D01*
G75*
G02*
X27855000Y-48565000I140000J0D01*
G01*
X28135000Y-48565000D01*
G75*
G02*
X28275000Y-48705000I0J-140000D01*
G01*
G37*
%TD*%
%TO.C,C18*%
G36*
G01*
X41945000Y-29535000D02*
X41605000Y-29535000D01*
G75*
G02*
X41465000Y-29395000I0J140000D01*
G01*
X41465000Y-29115000D01*
G75*
G02*
X41605000Y-28975000I140000J0D01*
G01*
X41945000Y-28975000D01*
G75*
G02*
X42085000Y-29115000I0J-140000D01*
G01*
X42085000Y-29395000D01*
G75*
G02*
X41945000Y-29535000I-140000J0D01*
G01*
G37*
G36*
G01*
X41945000Y-28575000D02*
X41605000Y-28575000D01*
G75*
G02*
X41465000Y-28435000I0J140000D01*
G01*
X41465000Y-28155000D01*
G75*
G02*
X41605000Y-28015000I140000J0D01*
G01*
X41945000Y-28015000D01*
G75*
G02*
X42085000Y-28155000I0J-140000D01*
G01*
X42085000Y-28435000D01*
G75*
G02*
X41945000Y-28575000I-140000J0D01*
G01*
G37*
%TD*%
%TO.C,D1*%
G36*
G01*
X60256250Y-69475000D02*
X59743750Y-69475000D01*
G75*
G02*
X59525000Y-69256250I0J218750D01*
G01*
X59525000Y-68818750D01*
G75*
G02*
X59743750Y-68600000I218750J0D01*
G01*
X60256250Y-68600000D01*
G75*
G02*
X60475000Y-68818750I0J-218750D01*
G01*
X60475000Y-69256250D01*
G75*
G02*
X60256250Y-69475000I-218750J0D01*
G01*
G37*
G36*
G01*
X60256250Y-67900000D02*
X59743750Y-67900000D01*
G75*
G02*
X59525000Y-67681250I0J218750D01*
G01*
X59525000Y-67243750D01*
G75*
G02*
X59743750Y-67025000I218750J0D01*
G01*
X60256250Y-67025000D01*
G75*
G02*
X60475000Y-67243750I0J-218750D01*
G01*
X60475000Y-67681250D01*
G75*
G02*
X60256250Y-67900000I-218750J0D01*
G01*
G37*
%TD*%
%TO.C,D2*%
G36*
G01*
X55006250Y-67900000D02*
X54493750Y-67900000D01*
G75*
G02*
X54275000Y-67681250I0J218750D01*
G01*
X54275000Y-67243750D01*
G75*
G02*
X54493750Y-67025000I218750J0D01*
G01*
X55006250Y-67025000D01*
G75*
G02*
X55225000Y-67243750I0J-218750D01*
G01*
X55225000Y-67681250D01*
G75*
G02*
X55006250Y-67900000I-218750J0D01*
G01*
G37*
G36*
G01*
X55006250Y-69475000D02*
X54493750Y-69475000D01*
G75*
G02*
X54275000Y-69256250I0J218750D01*
G01*
X54275000Y-68818750D01*
G75*
G02*
X54493750Y-68600000I218750J0D01*
G01*
X55006250Y-68600000D01*
G75*
G02*
X55225000Y-68818750I0J-218750D01*
G01*
X55225000Y-69256250D01*
G75*
G02*
X55006250Y-69475000I-218750J0D01*
G01*
G37*
%TD*%
D13*
%TO.C,J2*%
X26200000Y-36225000D03*
X26200000Y-32325000D03*
%TD*%
D14*
%TO.C,J3*%
X46930000Y-64890000D03*
X45000000Y-64890000D03*
X43070000Y-64890000D03*
X46930000Y-67700000D03*
X45000000Y-67700000D03*
X43070000Y-67700000D03*
D15*
X50250000Y-67395000D03*
X39780000Y-67395000D03*
%TD*%
D16*
%TO.C,Q1*%
X42800000Y-58650000D03*
X41850000Y-56650000D03*
X43750000Y-56650000D03*
%TD*%
%TO.C,Q2*%
X39150000Y-58650001D03*
X38200000Y-56650001D03*
X40100000Y-56650001D03*
%TD*%
%TO.C,Q3*%
X50950000Y-56650000D03*
X49050000Y-56650000D03*
X50000000Y-58650000D03*
%TD*%
%TO.C,Q4*%
X47350000Y-56650001D03*
X45450000Y-56650001D03*
X46400000Y-58650001D03*
%TD*%
%TO.C,R1*%
G36*
G01*
X47294063Y-46572953D02*
X47555692Y-46311324D01*
G75*
G02*
X47746610Y-46311324I95459J-95459D01*
G01*
X47937529Y-46502243D01*
G75*
G02*
X47937529Y-46693161I-95459J-95459D01*
G01*
X47675900Y-46954790D01*
G75*
G02*
X47484982Y-46954790I-95459J95459D01*
G01*
X47294063Y-46763871D01*
G75*
G02*
X47294063Y-46572953I95459J95459D01*
G01*
G37*
G36*
G01*
X48015311Y-47294201D02*
X48276940Y-47032572D01*
G75*
G02*
X48467858Y-47032572I95459J-95459D01*
G01*
X48658777Y-47223491D01*
G75*
G02*
X48658777Y-47414409I-95459J-95459D01*
G01*
X48397148Y-47676038D01*
G75*
G02*
X48206230Y-47676038I-95459J95459D01*
G01*
X48015311Y-47485119D01*
G75*
G02*
X48015311Y-47294201I95459J95459D01*
G01*
G37*
%TD*%
%TO.C,R2*%
G36*
G01*
X42690000Y-29015000D02*
X43060000Y-29015000D01*
G75*
G02*
X43195000Y-29150000I0J-135000D01*
G01*
X43195000Y-29420000D01*
G75*
G02*
X43060000Y-29555000I-135000J0D01*
G01*
X42690000Y-29555000D01*
G75*
G02*
X42555000Y-29420000I0J135000D01*
G01*
X42555000Y-29150000D01*
G75*
G02*
X42690000Y-29015000I135000J0D01*
G01*
G37*
G36*
G01*
X42690000Y-27995000D02*
X43060000Y-27995000D01*
G75*
G02*
X43195000Y-28130000I0J-135000D01*
G01*
X43195000Y-28400000D01*
G75*
G02*
X43060000Y-28535000I-135000J0D01*
G01*
X42690000Y-28535000D01*
G75*
G02*
X42555000Y-28400000I0J135000D01*
G01*
X42555000Y-28130000D01*
G75*
G02*
X42690000Y-27995000I135000J0D01*
G01*
G37*
%TD*%
%TO.C,R3*%
G36*
G01*
X46705000Y-28560000D02*
X46335000Y-28560000D01*
G75*
G02*
X46200000Y-28425000I0J135000D01*
G01*
X46200000Y-28155000D01*
G75*
G02*
X46335000Y-28020000I135000J0D01*
G01*
X46705000Y-28020000D01*
G75*
G02*
X46840000Y-28155000I0J-135000D01*
G01*
X46840000Y-28425000D01*
G75*
G02*
X46705000Y-28560000I-135000J0D01*
G01*
G37*
G36*
G01*
X46705000Y-29580000D02*
X46335000Y-29580000D01*
G75*
G02*
X46200000Y-29445000I0J135000D01*
G01*
X46200000Y-29175000D01*
G75*
G02*
X46335000Y-29040000I135000J0D01*
G01*
X46705000Y-29040000D01*
G75*
G02*
X46840000Y-29175000I0J-135000D01*
G01*
X46840000Y-29445000D01*
G75*
G02*
X46705000Y-29580000I-135000J0D01*
G01*
G37*
%TD*%
%TO.C,R4*%
G36*
G01*
X57975000Y-67025000D02*
X58525000Y-67025000D01*
G75*
G02*
X58725000Y-67225000I0J-200000D01*
G01*
X58725000Y-67625000D01*
G75*
G02*
X58525000Y-67825000I-200000J0D01*
G01*
X57975000Y-67825000D01*
G75*
G02*
X57775000Y-67625000I0J200000D01*
G01*
X57775000Y-67225000D01*
G75*
G02*
X57975000Y-67025000I200000J0D01*
G01*
G37*
G36*
G01*
X57975000Y-68675000D02*
X58525000Y-68675000D01*
G75*
G02*
X58725000Y-68875000I0J-200000D01*
G01*
X58725000Y-69275000D01*
G75*
G02*
X58525000Y-69475000I-200000J0D01*
G01*
X57975000Y-69475000D01*
G75*
G02*
X57775000Y-69275000I0J200000D01*
G01*
X57775000Y-68875000D01*
G75*
G02*
X57975000Y-68675000I200000J0D01*
G01*
G37*
%TD*%
%TO.C,R5*%
G36*
G01*
X56225000Y-68675000D02*
X56775000Y-68675000D01*
G75*
G02*
X56975000Y-68875000I0J-200000D01*
G01*
X56975000Y-69275000D01*
G75*
G02*
X56775000Y-69475000I-200000J0D01*
G01*
X56225000Y-69475000D01*
G75*
G02*
X56025000Y-69275000I0J200000D01*
G01*
X56025000Y-68875000D01*
G75*
G02*
X56225000Y-68675000I200000J0D01*
G01*
G37*
G36*
G01*
X56225000Y-67025000D02*
X56775000Y-67025000D01*
G75*
G02*
X56975000Y-67225000I0J-200000D01*
G01*
X56975000Y-67625000D01*
G75*
G02*
X56775000Y-67825000I-200000J0D01*
G01*
X56225000Y-67825000D01*
G75*
G02*
X56025000Y-67625000I0J200000D01*
G01*
X56025000Y-67225000D01*
G75*
G02*
X56225000Y-67025000I200000J0D01*
G01*
G37*
%TD*%
%TO.C,R6*%
G36*
G01*
X44035000Y-30910000D02*
X44405000Y-30910000D01*
G75*
G02*
X44540000Y-31045000I0J-135000D01*
G01*
X44540000Y-31315000D01*
G75*
G02*
X44405000Y-31450000I-135000J0D01*
G01*
X44035000Y-31450000D01*
G75*
G02*
X43900000Y-31315000I0J135000D01*
G01*
X43900000Y-31045000D01*
G75*
G02*
X44035000Y-30910000I135000J0D01*
G01*
G37*
G36*
G01*
X44035000Y-29890000D02*
X44405000Y-29890000D01*
G75*
G02*
X44540000Y-30025000I0J-135000D01*
G01*
X44540000Y-30295000D01*
G75*
G02*
X44405000Y-30430000I-135000J0D01*
G01*
X44035000Y-30430000D01*
G75*
G02*
X43900000Y-30295000I0J135000D01*
G01*
X43900000Y-30025000D01*
G75*
G02*
X44035000Y-29890000I135000J0D01*
G01*
G37*
%TD*%
%TO.C,R7*%
G36*
G01*
X45115000Y-29890000D02*
X45485000Y-29890000D01*
G75*
G02*
X45620000Y-30025000I0J-135000D01*
G01*
X45620000Y-30295000D01*
G75*
G02*
X45485000Y-30430000I-135000J0D01*
G01*
X45115000Y-30430000D01*
G75*
G02*
X44980000Y-30295000I0J135000D01*
G01*
X44980000Y-30025000D01*
G75*
G02*
X45115000Y-29890000I135000J0D01*
G01*
G37*
G36*
G01*
X45115000Y-30910000D02*
X45485000Y-30910000D01*
G75*
G02*
X45620000Y-31045000I0J-135000D01*
G01*
X45620000Y-31315000D01*
G75*
G02*
X45485000Y-31450000I-135000J0D01*
G01*
X45115000Y-31450000D01*
G75*
G02*
X44980000Y-31315000I0J135000D01*
G01*
X44980000Y-31045000D01*
G75*
G02*
X45115000Y-30910000I135000J0D01*
G01*
G37*
%TD*%
%TO.C,R8*%
G36*
G01*
X25665000Y-39990000D02*
X26035000Y-39990000D01*
G75*
G02*
X26170000Y-40125000I0J-135000D01*
G01*
X26170000Y-40395000D01*
G75*
G02*
X26035000Y-40530000I-135000J0D01*
G01*
X25665000Y-40530000D01*
G75*
G02*
X25530000Y-40395000I0J135000D01*
G01*
X25530000Y-40125000D01*
G75*
G02*
X25665000Y-39990000I135000J0D01*
G01*
G37*
G36*
G01*
X25665000Y-38970000D02*
X26035000Y-38970000D01*
G75*
G02*
X26170000Y-39105000I0J-135000D01*
G01*
X26170000Y-39375000D01*
G75*
G02*
X26035000Y-39510000I-135000J0D01*
G01*
X25665000Y-39510000D01*
G75*
G02*
X25530000Y-39375000I0J135000D01*
G01*
X25530000Y-39105000D01*
G75*
G02*
X25665000Y-38970000I135000J0D01*
G01*
G37*
%TD*%
%TO.C,R9*%
G36*
G01*
X27135000Y-40530000D02*
X26765000Y-40530000D01*
G75*
G02*
X26630000Y-40395000I0J135000D01*
G01*
X26630000Y-40125000D01*
G75*
G02*
X26765000Y-39990000I135000J0D01*
G01*
X27135000Y-39990000D01*
G75*
G02*
X27270000Y-40125000I0J-135000D01*
G01*
X27270000Y-40395000D01*
G75*
G02*
X27135000Y-40530000I-135000J0D01*
G01*
G37*
G36*
G01*
X27135000Y-39510000D02*
X26765000Y-39510000D01*
G75*
G02*
X26630000Y-39375000I0J135000D01*
G01*
X26630000Y-39105000D01*
G75*
G02*
X26765000Y-38970000I135000J0D01*
G01*
X27135000Y-38970000D01*
G75*
G02*
X27270000Y-39105000I0J-135000D01*
G01*
X27270000Y-39375000D01*
G75*
G02*
X27135000Y-39510000I-135000J0D01*
G01*
G37*
%TD*%
%TO.C,R10*%
G36*
G01*
X44380000Y-55214999D02*
X44380000Y-55584999D01*
G75*
G02*
X44245000Y-55719999I-135000J0D01*
G01*
X43975000Y-55719999D01*
G75*
G02*
X43840000Y-55584999I0J135000D01*
G01*
X43840000Y-55214999D01*
G75*
G02*
X43975000Y-55079999I135000J0D01*
G01*
X44245000Y-55079999D01*
G75*
G02*
X44380000Y-55214999I0J-135000D01*
G01*
G37*
G36*
G01*
X43360000Y-55214999D02*
X43360000Y-55584999D01*
G75*
G02*
X43225000Y-55719999I-135000J0D01*
G01*
X42955000Y-55719999D01*
G75*
G02*
X42820000Y-55584999I0J135000D01*
G01*
X42820000Y-55214999D01*
G75*
G02*
X42955000Y-55079999I135000J0D01*
G01*
X43225000Y-55079999D01*
G75*
G02*
X43360000Y-55214999I0J-135000D01*
G01*
G37*
%TD*%
%TO.C,R11*%
G36*
G01*
X39710000Y-55215000D02*
X39710000Y-55585000D01*
G75*
G02*
X39575000Y-55720000I-135000J0D01*
G01*
X39305000Y-55720000D01*
G75*
G02*
X39170000Y-55585000I0J135000D01*
G01*
X39170000Y-55215000D01*
G75*
G02*
X39305000Y-55080000I135000J0D01*
G01*
X39575000Y-55080000D01*
G75*
G02*
X39710000Y-55215000I0J-135000D01*
G01*
G37*
G36*
G01*
X40730000Y-55215000D02*
X40730000Y-55585000D01*
G75*
G02*
X40595000Y-55720000I-135000J0D01*
G01*
X40325000Y-55720000D01*
G75*
G02*
X40190000Y-55585000I0J135000D01*
G01*
X40190000Y-55215000D01*
G75*
G02*
X40325000Y-55080000I135000J0D01*
G01*
X40595000Y-55080000D01*
G75*
G02*
X40730000Y-55215000I0J-135000D01*
G01*
G37*
%TD*%
%TO.C,R12*%
G36*
G01*
X44380000Y-59715000D02*
X44380000Y-60085000D01*
G75*
G02*
X44245000Y-60220000I-135000J0D01*
G01*
X43975000Y-60220000D01*
G75*
G02*
X43840000Y-60085000I0J135000D01*
G01*
X43840000Y-59715000D01*
G75*
G02*
X43975000Y-59580000I135000J0D01*
G01*
X44245000Y-59580000D01*
G75*
G02*
X44380000Y-59715000I0J-135000D01*
G01*
G37*
G36*
G01*
X43360000Y-59715000D02*
X43360000Y-60085000D01*
G75*
G02*
X43225000Y-60220000I-135000J0D01*
G01*
X42955000Y-60220000D01*
G75*
G02*
X42820000Y-60085000I0J135000D01*
G01*
X42820000Y-59715000D01*
G75*
G02*
X42955000Y-59580000I135000J0D01*
G01*
X43225000Y-59580000D01*
G75*
G02*
X43360000Y-59715000I0J-135000D01*
G01*
G37*
%TD*%
%TO.C,R13*%
G36*
G01*
X40720001Y-59765000D02*
X40720001Y-60135000D01*
G75*
G02*
X40585001Y-60270000I-135000J0D01*
G01*
X40315001Y-60270000D01*
G75*
G02*
X40180001Y-60135000I0J135000D01*
G01*
X40180001Y-59765000D01*
G75*
G02*
X40315001Y-59630000I135000J0D01*
G01*
X40585001Y-59630000D01*
G75*
G02*
X40720001Y-59765000I0J-135000D01*
G01*
G37*
G36*
G01*
X39700001Y-59765000D02*
X39700001Y-60135000D01*
G75*
G02*
X39565001Y-60270000I-135000J0D01*
G01*
X39295001Y-60270000D01*
G75*
G02*
X39160001Y-60135000I0J135000D01*
G01*
X39160001Y-59765000D01*
G75*
G02*
X39295001Y-59630000I135000J0D01*
G01*
X39565001Y-59630000D01*
G75*
G02*
X39700001Y-59765000I0J-135000D01*
G01*
G37*
%TD*%
%TO.C,R14*%
G36*
G01*
X50560000Y-55214999D02*
X50560000Y-55584999D01*
G75*
G02*
X50425000Y-55719999I-135000J0D01*
G01*
X50155000Y-55719999D01*
G75*
G02*
X50020000Y-55584999I0J135000D01*
G01*
X50020000Y-55214999D01*
G75*
G02*
X50155000Y-55079999I135000J0D01*
G01*
X50425000Y-55079999D01*
G75*
G02*
X50560000Y-55214999I0J-135000D01*
G01*
G37*
G36*
G01*
X51580000Y-55214999D02*
X51580000Y-55584999D01*
G75*
G02*
X51445000Y-55719999I-135000J0D01*
G01*
X51175000Y-55719999D01*
G75*
G02*
X51040000Y-55584999I0J135000D01*
G01*
X51040000Y-55214999D01*
G75*
G02*
X51175000Y-55079999I135000J0D01*
G01*
X51445000Y-55079999D01*
G75*
G02*
X51580000Y-55214999I0J-135000D01*
G01*
G37*
%TD*%
%TO.C,R15*%
G36*
G01*
X46960000Y-55215000D02*
X46960000Y-55585000D01*
G75*
G02*
X46825000Y-55720000I-135000J0D01*
G01*
X46555000Y-55720000D01*
G75*
G02*
X46420000Y-55585000I0J135000D01*
G01*
X46420000Y-55215000D01*
G75*
G02*
X46555000Y-55080000I135000J0D01*
G01*
X46825000Y-55080000D01*
G75*
G02*
X46960000Y-55215000I0J-135000D01*
G01*
G37*
G36*
G01*
X47980000Y-55215000D02*
X47980000Y-55585000D01*
G75*
G02*
X47845000Y-55720000I-135000J0D01*
G01*
X47575000Y-55720000D01*
G75*
G02*
X47440000Y-55585000I0J135000D01*
G01*
X47440000Y-55215000D01*
G75*
G02*
X47575000Y-55080000I135000J0D01*
G01*
X47845000Y-55080000D01*
G75*
G02*
X47980000Y-55215000I0J-135000D01*
G01*
G37*
%TD*%
%TO.C,R16*%
G36*
G01*
X29670000Y-48085000D02*
X29670000Y-47715000D01*
G75*
G02*
X29805000Y-47580000I135000J0D01*
G01*
X30075000Y-47580000D01*
G75*
G02*
X30210000Y-47715000I0J-135000D01*
G01*
X30210000Y-48085000D01*
G75*
G02*
X30075000Y-48220000I-135000J0D01*
G01*
X29805000Y-48220000D01*
G75*
G02*
X29670000Y-48085000I0J135000D01*
G01*
G37*
G36*
G01*
X30690000Y-48085000D02*
X30690000Y-47715000D01*
G75*
G02*
X30825000Y-47580000I135000J0D01*
G01*
X31095000Y-47580000D01*
G75*
G02*
X31230000Y-47715000I0J-135000D01*
G01*
X31230000Y-48085000D01*
G75*
G02*
X31095000Y-48220000I-135000J0D01*
G01*
X30825000Y-48220000D01*
G75*
G02*
X30690000Y-48085000I0J135000D01*
G01*
G37*
%TD*%
%TO.C,R17*%
G36*
G01*
X30690000Y-44335000D02*
X30690000Y-43965000D01*
G75*
G02*
X30825000Y-43830000I135000J0D01*
G01*
X31095000Y-43830000D01*
G75*
G02*
X31230000Y-43965000I0J-135000D01*
G01*
X31230000Y-44335000D01*
G75*
G02*
X31095000Y-44470000I-135000J0D01*
G01*
X30825000Y-44470000D01*
G75*
G02*
X30690000Y-44335000I0J135000D01*
G01*
G37*
G36*
G01*
X29670000Y-44335000D02*
X29670000Y-43965000D01*
G75*
G02*
X29805000Y-43830000I135000J0D01*
G01*
X30075000Y-43830000D01*
G75*
G02*
X30210000Y-43965000I0J-135000D01*
G01*
X30210000Y-44335000D01*
G75*
G02*
X30075000Y-44470000I-135000J0D01*
G01*
X29805000Y-44470000D01*
G75*
G02*
X29670000Y-44335000I0J135000D01*
G01*
G37*
%TD*%
%TO.C,R18*%
G36*
G01*
X48420000Y-60135000D02*
X48420000Y-59765000D01*
G75*
G02*
X48555000Y-59630000I135000J0D01*
G01*
X48825000Y-59630000D01*
G75*
G02*
X48960000Y-59765000I0J-135000D01*
G01*
X48960000Y-60135000D01*
G75*
G02*
X48825000Y-60270000I-135000J0D01*
G01*
X48555000Y-60270000D01*
G75*
G02*
X48420000Y-60135000I0J135000D01*
G01*
G37*
G36*
G01*
X49440000Y-60135000D02*
X49440000Y-59765000D01*
G75*
G02*
X49575000Y-59630000I135000J0D01*
G01*
X49845000Y-59630000D01*
G75*
G02*
X49980000Y-59765000I0J-135000D01*
G01*
X49980000Y-60135000D01*
G75*
G02*
X49845000Y-60270000I-135000J0D01*
G01*
X49575000Y-60270000D01*
G75*
G02*
X49440000Y-60135000I0J135000D01*
G01*
G37*
%TD*%
%TO.C,R19*%
G36*
G01*
X44795000Y-60085000D02*
X44795000Y-59715000D01*
G75*
G02*
X44930000Y-59580000I135000J0D01*
G01*
X45200000Y-59580000D01*
G75*
G02*
X45335000Y-59715000I0J-135000D01*
G01*
X45335000Y-60085000D01*
G75*
G02*
X45200000Y-60220000I-135000J0D01*
G01*
X44930000Y-60220000D01*
G75*
G02*
X44795000Y-60085000I0J135000D01*
G01*
G37*
G36*
G01*
X45815000Y-60085000D02*
X45815000Y-59715000D01*
G75*
G02*
X45950000Y-59580000I135000J0D01*
G01*
X46220000Y-59580000D01*
G75*
G02*
X46355000Y-59715000I0J-135000D01*
G01*
X46355000Y-60085000D01*
G75*
G02*
X46220000Y-60220000I-135000J0D01*
G01*
X45950000Y-60220000D01*
G75*
G02*
X45815000Y-60085000I0J135000D01*
G01*
G37*
%TD*%
D17*
%TO.C,U1*%
X58825000Y-41100000D03*
D18*
X58825000Y-34800000D03*
X56525000Y-34800000D03*
X61125000Y-34800000D03*
%TD*%
%TO.C,U2*%
G36*
G01*
X44898177Y-44785918D02*
X42839082Y-42726823D01*
G75*
G02*
X42839082Y-42523177I101823J101823D01*
G01*
X44898177Y-40464082D01*
G75*
G02*
X45101823Y-40464082I101823J-101823D01*
G01*
X47160918Y-42523177D01*
G75*
G02*
X47160918Y-42726823I-101823J-101823D01*
G01*
X45101823Y-44785918D01*
G75*
G02*
X44898177Y-44785918I-101823J101823D01*
G01*
G37*
G36*
G01*
X40456839Y-43561916D02*
X40386129Y-43491206D01*
G75*
G02*
X40386129Y-43420496I35355J35355D01*
G01*
X40934137Y-42872488D01*
G75*
G02*
X41004847Y-42872488I35355J-35355D01*
G01*
X41075557Y-42943198D01*
G75*
G02*
X41075557Y-43013908I-35355J-35355D01*
G01*
X40527549Y-43561916D01*
G75*
G02*
X40456839Y-43561916I-35355J35355D01*
G01*
G37*
G36*
G01*
X40739682Y-43844759D02*
X40668972Y-43774049D01*
G75*
G02*
X40668972Y-43703339I35355J35355D01*
G01*
X41216980Y-43155331D01*
G75*
G02*
X41287690Y-43155331I35355J-35355D01*
G01*
X41358400Y-43226041D01*
G75*
G02*
X41358400Y-43296751I-35355J-35355D01*
G01*
X40810392Y-43844759D01*
G75*
G02*
X40739682Y-43844759I-35355J35355D01*
G01*
G37*
G36*
G01*
X41022524Y-44127601D02*
X40951814Y-44056891D01*
G75*
G02*
X40951814Y-43986181I35355J35355D01*
G01*
X41499822Y-43438173D01*
G75*
G02*
X41570532Y-43438173I35355J-35355D01*
G01*
X41641242Y-43508883D01*
G75*
G02*
X41641242Y-43579593I-35355J-35355D01*
G01*
X41093234Y-44127601D01*
G75*
G02*
X41022524Y-44127601I-35355J35355D01*
G01*
G37*
G36*
G01*
X41305367Y-44410444D02*
X41234657Y-44339734D01*
G75*
G02*
X41234657Y-44269024I35355J35355D01*
G01*
X41782665Y-43721016D01*
G75*
G02*
X41853375Y-43721016I35355J-35355D01*
G01*
X41924085Y-43791726D01*
G75*
G02*
X41924085Y-43862436I-35355J-35355D01*
G01*
X41376077Y-44410444D01*
G75*
G02*
X41305367Y-44410444I-35355J35355D01*
G01*
G37*
G36*
G01*
X41588210Y-44693287D02*
X41517500Y-44622577D01*
G75*
G02*
X41517500Y-44551867I35355J35355D01*
G01*
X42065508Y-44003859D01*
G75*
G02*
X42136218Y-44003859I35355J-35355D01*
G01*
X42206928Y-44074569D01*
G75*
G02*
X42206928Y-44145279I-35355J-35355D01*
G01*
X41658920Y-44693287D01*
G75*
G02*
X41588210Y-44693287I-35355J35355D01*
G01*
G37*
G36*
G01*
X41871052Y-44976129D02*
X41800342Y-44905419D01*
G75*
G02*
X41800342Y-44834709I35355J35355D01*
G01*
X42348350Y-44286701D01*
G75*
G02*
X42419060Y-44286701I35355J-35355D01*
G01*
X42489770Y-44357411D01*
G75*
G02*
X42489770Y-44428121I-35355J-35355D01*
G01*
X41941762Y-44976129D01*
G75*
G02*
X41871052Y-44976129I-35355J35355D01*
G01*
G37*
G36*
G01*
X42153895Y-45258972D02*
X42083185Y-45188262D01*
G75*
G02*
X42083185Y-45117552I35355J35355D01*
G01*
X42631193Y-44569544D01*
G75*
G02*
X42701903Y-44569544I35355J-35355D01*
G01*
X42772613Y-44640254D01*
G75*
G02*
X42772613Y-44710964I-35355J-35355D01*
G01*
X42224605Y-45258972D01*
G75*
G02*
X42153895Y-45258972I-35355J35355D01*
G01*
G37*
G36*
G01*
X42436738Y-45541815D02*
X42366028Y-45471105D01*
G75*
G02*
X42366028Y-45400395I35355J35355D01*
G01*
X42914036Y-44852387D01*
G75*
G02*
X42984746Y-44852387I35355J-35355D01*
G01*
X43055456Y-44923097D01*
G75*
G02*
X43055456Y-44993807I-35355J-35355D01*
G01*
X42507448Y-45541815D01*
G75*
G02*
X42436738Y-45541815I-35355J35355D01*
G01*
G37*
G36*
G01*
X42719581Y-45824658D02*
X42648871Y-45753948D01*
G75*
G02*
X42648871Y-45683238I35355J35355D01*
G01*
X43196879Y-45135230D01*
G75*
G02*
X43267589Y-45135230I35355J-35355D01*
G01*
X43338299Y-45205940D01*
G75*
G02*
X43338299Y-45276650I-35355J-35355D01*
G01*
X42790291Y-45824658D01*
G75*
G02*
X42719581Y-45824658I-35355J35355D01*
G01*
G37*
G36*
G01*
X43002423Y-46107500D02*
X42931713Y-46036790D01*
G75*
G02*
X42931713Y-45966080I35355J35355D01*
G01*
X43479721Y-45418072D01*
G75*
G02*
X43550431Y-45418072I35355J-35355D01*
G01*
X43621141Y-45488782D01*
G75*
G02*
X43621141Y-45559492I-35355J-35355D01*
G01*
X43073133Y-46107500D01*
G75*
G02*
X43002423Y-46107500I-35355J35355D01*
G01*
G37*
G36*
G01*
X43285266Y-46390343D02*
X43214556Y-46319633D01*
G75*
G02*
X43214556Y-46248923I35355J35355D01*
G01*
X43762564Y-45700915D01*
G75*
G02*
X43833274Y-45700915I35355J-35355D01*
G01*
X43903984Y-45771625D01*
G75*
G02*
X43903984Y-45842335I-35355J-35355D01*
G01*
X43355976Y-46390343D01*
G75*
G02*
X43285266Y-46390343I-35355J35355D01*
G01*
G37*
G36*
G01*
X43568109Y-46673186D02*
X43497399Y-46602476D01*
G75*
G02*
X43497399Y-46531766I35355J35355D01*
G01*
X44045407Y-45983758D01*
G75*
G02*
X44116117Y-45983758I35355J-35355D01*
G01*
X44186827Y-46054468D01*
G75*
G02*
X44186827Y-46125178I-35355J-35355D01*
G01*
X43638819Y-46673186D01*
G75*
G02*
X43568109Y-46673186I-35355J35355D01*
G01*
G37*
G36*
G01*
X43850951Y-46956028D02*
X43780241Y-46885318D01*
G75*
G02*
X43780241Y-46814608I35355J35355D01*
G01*
X44328249Y-46266600D01*
G75*
G02*
X44398959Y-46266600I35355J-35355D01*
G01*
X44469669Y-46337310D01*
G75*
G02*
X44469669Y-46408020I-35355J-35355D01*
G01*
X43921661Y-46956028D01*
G75*
G02*
X43850951Y-46956028I-35355J35355D01*
G01*
G37*
G36*
G01*
X44133794Y-47238871D02*
X44063084Y-47168161D01*
G75*
G02*
X44063084Y-47097451I35355J35355D01*
G01*
X44611092Y-46549443D01*
G75*
G02*
X44681802Y-46549443I35355J-35355D01*
G01*
X44752512Y-46620153D01*
G75*
G02*
X44752512Y-46690863I-35355J-35355D01*
G01*
X44204504Y-47238871D01*
G75*
G02*
X44133794Y-47238871I-35355J35355D01*
G01*
G37*
G36*
G01*
X45795496Y-47238871D02*
X45247488Y-46690863D01*
G75*
G02*
X45247488Y-46620153I35355J35355D01*
G01*
X45318198Y-46549443D01*
G75*
G02*
X45388908Y-46549443I35355J-35355D01*
G01*
X45936916Y-47097451D01*
G75*
G02*
X45936916Y-47168161I-35355J-35355D01*
G01*
X45866206Y-47238871D01*
G75*
G02*
X45795496Y-47238871I-35355J35355D01*
G01*
G37*
G36*
G01*
X46078339Y-46956028D02*
X45530331Y-46408020D01*
G75*
G02*
X45530331Y-46337310I35355J35355D01*
G01*
X45601041Y-46266600D01*
G75*
G02*
X45671751Y-46266600I35355J-35355D01*
G01*
X46219759Y-46814608D01*
G75*
G02*
X46219759Y-46885318I-35355J-35355D01*
G01*
X46149049Y-46956028D01*
G75*
G02*
X46078339Y-46956028I-35355J35355D01*
G01*
G37*
G36*
G01*
X46361181Y-46673186D02*
X45813173Y-46125178D01*
G75*
G02*
X45813173Y-46054468I35355J35355D01*
G01*
X45883883Y-45983758D01*
G75*
G02*
X45954593Y-45983758I35355J-35355D01*
G01*
X46502601Y-46531766D01*
G75*
G02*
X46502601Y-46602476I-35355J-35355D01*
G01*
X46431891Y-46673186D01*
G75*
G02*
X46361181Y-46673186I-35355J35355D01*
G01*
G37*
G36*
G01*
X46644024Y-46390343D02*
X46096016Y-45842335D01*
G75*
G02*
X46096016Y-45771625I35355J35355D01*
G01*
X46166726Y-45700915D01*
G75*
G02*
X46237436Y-45700915I35355J-35355D01*
G01*
X46785444Y-46248923D01*
G75*
G02*
X46785444Y-46319633I-35355J-35355D01*
G01*
X46714734Y-46390343D01*
G75*
G02*
X46644024Y-46390343I-35355J35355D01*
G01*
G37*
G36*
G01*
X46926867Y-46107500D02*
X46378859Y-45559492D01*
G75*
G02*
X46378859Y-45488782I35355J35355D01*
G01*
X46449569Y-45418072D01*
G75*
G02*
X46520279Y-45418072I35355J-35355D01*
G01*
X47068287Y-45966080D01*
G75*
G02*
X47068287Y-46036790I-35355J-35355D01*
G01*
X46997577Y-46107500D01*
G75*
G02*
X46926867Y-46107500I-35355J35355D01*
G01*
G37*
G36*
G01*
X47209709Y-45824658D02*
X46661701Y-45276650D01*
G75*
G02*
X46661701Y-45205940I35355J35355D01*
G01*
X46732411Y-45135230D01*
G75*
G02*
X46803121Y-45135230I35355J-35355D01*
G01*
X47351129Y-45683238D01*
G75*
G02*
X47351129Y-45753948I-35355J-35355D01*
G01*
X47280419Y-45824658D01*
G75*
G02*
X47209709Y-45824658I-35355J35355D01*
G01*
G37*
G36*
G01*
X47492552Y-45541815D02*
X46944544Y-44993807D01*
G75*
G02*
X46944544Y-44923097I35355J35355D01*
G01*
X47015254Y-44852387D01*
G75*
G02*
X47085964Y-44852387I35355J-35355D01*
G01*
X47633972Y-45400395D01*
G75*
G02*
X47633972Y-45471105I-35355J-35355D01*
G01*
X47563262Y-45541815D01*
G75*
G02*
X47492552Y-45541815I-35355J35355D01*
G01*
G37*
G36*
G01*
X47775395Y-45258972D02*
X47227387Y-44710964D01*
G75*
G02*
X47227387Y-44640254I35355J35355D01*
G01*
X47298097Y-44569544D01*
G75*
G02*
X47368807Y-44569544I35355J-35355D01*
G01*
X47916815Y-45117552D01*
G75*
G02*
X47916815Y-45188262I-35355J-35355D01*
G01*
X47846105Y-45258972D01*
G75*
G02*
X47775395Y-45258972I-35355J35355D01*
G01*
G37*
G36*
G01*
X48058238Y-44976129D02*
X47510230Y-44428121D01*
G75*
G02*
X47510230Y-44357411I35355J35355D01*
G01*
X47580940Y-44286701D01*
G75*
G02*
X47651650Y-44286701I35355J-35355D01*
G01*
X48199658Y-44834709D01*
G75*
G02*
X48199658Y-44905419I-35355J-35355D01*
G01*
X48128948Y-44976129D01*
G75*
G02*
X48058238Y-44976129I-35355J35355D01*
G01*
G37*
G36*
G01*
X48341080Y-44693287D02*
X47793072Y-44145279D01*
G75*
G02*
X47793072Y-44074569I35355J35355D01*
G01*
X47863782Y-44003859D01*
G75*
G02*
X47934492Y-44003859I35355J-35355D01*
G01*
X48482500Y-44551867D01*
G75*
G02*
X48482500Y-44622577I-35355J-35355D01*
G01*
X48411790Y-44693287D01*
G75*
G02*
X48341080Y-44693287I-35355J35355D01*
G01*
G37*
G36*
G01*
X48623923Y-44410444D02*
X48075915Y-43862436D01*
G75*
G02*
X48075915Y-43791726I35355J35355D01*
G01*
X48146625Y-43721016D01*
G75*
G02*
X48217335Y-43721016I35355J-35355D01*
G01*
X48765343Y-44269024D01*
G75*
G02*
X48765343Y-44339734I-35355J-35355D01*
G01*
X48694633Y-44410444D01*
G75*
G02*
X48623923Y-44410444I-35355J35355D01*
G01*
G37*
G36*
G01*
X48906766Y-44127601D02*
X48358758Y-43579593D01*
G75*
G02*
X48358758Y-43508883I35355J35355D01*
G01*
X48429468Y-43438173D01*
G75*
G02*
X48500178Y-43438173I35355J-35355D01*
G01*
X49048186Y-43986181D01*
G75*
G02*
X49048186Y-44056891I-35355J-35355D01*
G01*
X48977476Y-44127601D01*
G75*
G02*
X48906766Y-44127601I-35355J35355D01*
G01*
G37*
G36*
G01*
X49189608Y-43844759D02*
X48641600Y-43296751D01*
G75*
G02*
X48641600Y-43226041I35355J35355D01*
G01*
X48712310Y-43155331D01*
G75*
G02*
X48783020Y-43155331I35355J-35355D01*
G01*
X49331028Y-43703339D01*
G75*
G02*
X49331028Y-43774049I-35355J-35355D01*
G01*
X49260318Y-43844759D01*
G75*
G02*
X49189608Y-43844759I-35355J35355D01*
G01*
G37*
G36*
G01*
X49472451Y-43561916D02*
X48924443Y-43013908D01*
G75*
G02*
X48924443Y-42943198I35355J35355D01*
G01*
X48995153Y-42872488D01*
G75*
G02*
X49065863Y-42872488I35355J-35355D01*
G01*
X49613871Y-43420496D01*
G75*
G02*
X49613871Y-43491206I-35355J-35355D01*
G01*
X49543161Y-43561916D01*
G75*
G02*
X49472451Y-43561916I-35355J35355D01*
G01*
G37*
G36*
G01*
X48995153Y-42377512D02*
X48924443Y-42306802D01*
G75*
G02*
X48924443Y-42236092I35355J35355D01*
G01*
X49472451Y-41688084D01*
G75*
G02*
X49543161Y-41688084I35355J-35355D01*
G01*
X49613871Y-41758794D01*
G75*
G02*
X49613871Y-41829504I-35355J-35355D01*
G01*
X49065863Y-42377512D01*
G75*
G02*
X48995153Y-42377512I-35355J35355D01*
G01*
G37*
G36*
G01*
X48712310Y-42094669D02*
X48641600Y-42023959D01*
G75*
G02*
X48641600Y-41953249I35355J35355D01*
G01*
X49189608Y-41405241D01*
G75*
G02*
X49260318Y-41405241I35355J-35355D01*
G01*
X49331028Y-41475951D01*
G75*
G02*
X49331028Y-41546661I-35355J-35355D01*
G01*
X48783020Y-42094669D01*
G75*
G02*
X48712310Y-42094669I-35355J35355D01*
G01*
G37*
G36*
G01*
X48429468Y-41811827D02*
X48358758Y-41741117D01*
G75*
G02*
X48358758Y-41670407I35355J35355D01*
G01*
X48906766Y-41122399D01*
G75*
G02*
X48977476Y-41122399I35355J-35355D01*
G01*
X49048186Y-41193109D01*
G75*
G02*
X49048186Y-41263819I-35355J-35355D01*
G01*
X48500178Y-41811827D01*
G75*
G02*
X48429468Y-41811827I-35355J35355D01*
G01*
G37*
G36*
G01*
X48146625Y-41528984D02*
X48075915Y-41458274D01*
G75*
G02*
X48075915Y-41387564I35355J35355D01*
G01*
X48623923Y-40839556D01*
G75*
G02*
X48694633Y-40839556I35355J-35355D01*
G01*
X48765343Y-40910266D01*
G75*
G02*
X48765343Y-40980976I-35355J-35355D01*
G01*
X48217335Y-41528984D01*
G75*
G02*
X48146625Y-41528984I-35355J35355D01*
G01*
G37*
G36*
G01*
X47863782Y-41246141D02*
X47793072Y-41175431D01*
G75*
G02*
X47793072Y-41104721I35355J35355D01*
G01*
X48341080Y-40556713D01*
G75*
G02*
X48411790Y-40556713I35355J-35355D01*
G01*
X48482500Y-40627423D01*
G75*
G02*
X48482500Y-40698133I-35355J-35355D01*
G01*
X47934492Y-41246141D01*
G75*
G02*
X47863782Y-41246141I-35355J35355D01*
G01*
G37*
G36*
G01*
X47580940Y-40963299D02*
X47510230Y-40892589D01*
G75*
G02*
X47510230Y-40821879I35355J35355D01*
G01*
X48058238Y-40273871D01*
G75*
G02*
X48128948Y-40273871I35355J-35355D01*
G01*
X48199658Y-40344581D01*
G75*
G02*
X48199658Y-40415291I-35355J-35355D01*
G01*
X47651650Y-40963299D01*
G75*
G02*
X47580940Y-40963299I-35355J35355D01*
G01*
G37*
G36*
G01*
X47298097Y-40680456D02*
X47227387Y-40609746D01*
G75*
G02*
X47227387Y-40539036I35355J35355D01*
G01*
X47775395Y-39991028D01*
G75*
G02*
X47846105Y-39991028I35355J-35355D01*
G01*
X47916815Y-40061738D01*
G75*
G02*
X47916815Y-40132448I-35355J-35355D01*
G01*
X47368807Y-40680456D01*
G75*
G02*
X47298097Y-40680456I-35355J35355D01*
G01*
G37*
G36*
G01*
X47015254Y-40397613D02*
X46944544Y-40326903D01*
G75*
G02*
X46944544Y-40256193I35355J35355D01*
G01*
X47492552Y-39708185D01*
G75*
G02*
X47563262Y-39708185I35355J-35355D01*
G01*
X47633972Y-39778895D01*
G75*
G02*
X47633972Y-39849605I-35355J-35355D01*
G01*
X47085964Y-40397613D01*
G75*
G02*
X47015254Y-40397613I-35355J35355D01*
G01*
G37*
G36*
G01*
X46732411Y-40114770D02*
X46661701Y-40044060D01*
G75*
G02*
X46661701Y-39973350I35355J35355D01*
G01*
X47209709Y-39425342D01*
G75*
G02*
X47280419Y-39425342I35355J-35355D01*
G01*
X47351129Y-39496052D01*
G75*
G02*
X47351129Y-39566762I-35355J-35355D01*
G01*
X46803121Y-40114770D01*
G75*
G02*
X46732411Y-40114770I-35355J35355D01*
G01*
G37*
G36*
G01*
X46449569Y-39831928D02*
X46378859Y-39761218D01*
G75*
G02*
X46378859Y-39690508I35355J35355D01*
G01*
X46926867Y-39142500D01*
G75*
G02*
X46997577Y-39142500I35355J-35355D01*
G01*
X47068287Y-39213210D01*
G75*
G02*
X47068287Y-39283920I-35355J-35355D01*
G01*
X46520279Y-39831928D01*
G75*
G02*
X46449569Y-39831928I-35355J35355D01*
G01*
G37*
G36*
G01*
X46166726Y-39549085D02*
X46096016Y-39478375D01*
G75*
G02*
X46096016Y-39407665I35355J35355D01*
G01*
X46644024Y-38859657D01*
G75*
G02*
X46714734Y-38859657I35355J-35355D01*
G01*
X46785444Y-38930367D01*
G75*
G02*
X46785444Y-39001077I-35355J-35355D01*
G01*
X46237436Y-39549085D01*
G75*
G02*
X46166726Y-39549085I-35355J35355D01*
G01*
G37*
G36*
G01*
X45883883Y-39266242D02*
X45813173Y-39195532D01*
G75*
G02*
X45813173Y-39124822I35355J35355D01*
G01*
X46361181Y-38576814D01*
G75*
G02*
X46431891Y-38576814I35355J-35355D01*
G01*
X46502601Y-38647524D01*
G75*
G02*
X46502601Y-38718234I-35355J-35355D01*
G01*
X45954593Y-39266242D01*
G75*
G02*
X45883883Y-39266242I-35355J35355D01*
G01*
G37*
G36*
G01*
X45601041Y-38983400D02*
X45530331Y-38912690D01*
G75*
G02*
X45530331Y-38841980I35355J35355D01*
G01*
X46078339Y-38293972D01*
G75*
G02*
X46149049Y-38293972I35355J-35355D01*
G01*
X46219759Y-38364682D01*
G75*
G02*
X46219759Y-38435392I-35355J-35355D01*
G01*
X45671751Y-38983400D01*
G75*
G02*
X45601041Y-38983400I-35355J35355D01*
G01*
G37*
G36*
G01*
X45318198Y-38700557D02*
X45247488Y-38629847D01*
G75*
G02*
X45247488Y-38559137I35355J35355D01*
G01*
X45795496Y-38011129D01*
G75*
G02*
X45866206Y-38011129I35355J-35355D01*
G01*
X45936916Y-38081839D01*
G75*
G02*
X45936916Y-38152549I-35355J-35355D01*
G01*
X45388908Y-38700557D01*
G75*
G02*
X45318198Y-38700557I-35355J35355D01*
G01*
G37*
G36*
G01*
X44611092Y-38700557D02*
X44063084Y-38152549D01*
G75*
G02*
X44063084Y-38081839I35355J35355D01*
G01*
X44133794Y-38011129D01*
G75*
G02*
X44204504Y-38011129I35355J-35355D01*
G01*
X44752512Y-38559137D01*
G75*
G02*
X44752512Y-38629847I-35355J-35355D01*
G01*
X44681802Y-38700557D01*
G75*
G02*
X44611092Y-38700557I-35355J35355D01*
G01*
G37*
G36*
G01*
X44328249Y-38983400D02*
X43780241Y-38435392D01*
G75*
G02*
X43780241Y-38364682I35355J35355D01*
G01*
X43850951Y-38293972D01*
G75*
G02*
X43921661Y-38293972I35355J-35355D01*
G01*
X44469669Y-38841980D01*
G75*
G02*
X44469669Y-38912690I-35355J-35355D01*
G01*
X44398959Y-38983400D01*
G75*
G02*
X44328249Y-38983400I-35355J35355D01*
G01*
G37*
G36*
G01*
X44045407Y-39266242D02*
X43497399Y-38718234D01*
G75*
G02*
X43497399Y-38647524I35355J35355D01*
G01*
X43568109Y-38576814D01*
G75*
G02*
X43638819Y-38576814I35355J-35355D01*
G01*
X44186827Y-39124822D01*
G75*
G02*
X44186827Y-39195532I-35355J-35355D01*
G01*
X44116117Y-39266242D01*
G75*
G02*
X44045407Y-39266242I-35355J35355D01*
G01*
G37*
G36*
G01*
X43762564Y-39549085D02*
X43214556Y-39001077D01*
G75*
G02*
X43214556Y-38930367I35355J35355D01*
G01*
X43285266Y-38859657D01*
G75*
G02*
X43355976Y-38859657I35355J-35355D01*
G01*
X43903984Y-39407665D01*
G75*
G02*
X43903984Y-39478375I-35355J-35355D01*
G01*
X43833274Y-39549085D01*
G75*
G02*
X43762564Y-39549085I-35355J35355D01*
G01*
G37*
G36*
G01*
X43479721Y-39831928D02*
X42931713Y-39283920D01*
G75*
G02*
X42931713Y-39213210I35355J35355D01*
G01*
X43002423Y-39142500D01*
G75*
G02*
X43073133Y-39142500I35355J-35355D01*
G01*
X43621141Y-39690508D01*
G75*
G02*
X43621141Y-39761218I-35355J-35355D01*
G01*
X43550431Y-39831928D01*
G75*
G02*
X43479721Y-39831928I-35355J35355D01*
G01*
G37*
G36*
G01*
X43196879Y-40114770D02*
X42648871Y-39566762D01*
G75*
G02*
X42648871Y-39496052I35355J35355D01*
G01*
X42719581Y-39425342D01*
G75*
G02*
X42790291Y-39425342I35355J-35355D01*
G01*
X43338299Y-39973350D01*
G75*
G02*
X43338299Y-40044060I-35355J-35355D01*
G01*
X43267589Y-40114770D01*
G75*
G02*
X43196879Y-40114770I-35355J35355D01*
G01*
G37*
G36*
G01*
X42914036Y-40397613D02*
X42366028Y-39849605D01*
G75*
G02*
X42366028Y-39778895I35355J35355D01*
G01*
X42436738Y-39708185D01*
G75*
G02*
X42507448Y-39708185I35355J-35355D01*
G01*
X43055456Y-40256193D01*
G75*
G02*
X43055456Y-40326903I-35355J-35355D01*
G01*
X42984746Y-40397613D01*
G75*
G02*
X42914036Y-40397613I-35355J35355D01*
G01*
G37*
G36*
G01*
X42631193Y-40680456D02*
X42083185Y-40132448D01*
G75*
G02*
X42083185Y-40061738I35355J35355D01*
G01*
X42153895Y-39991028D01*
G75*
G02*
X42224605Y-39991028I35355J-35355D01*
G01*
X42772613Y-40539036D01*
G75*
G02*
X42772613Y-40609746I-35355J-35355D01*
G01*
X42701903Y-40680456D01*
G75*
G02*
X42631193Y-40680456I-35355J35355D01*
G01*
G37*
G36*
G01*
X42348350Y-40963299D02*
X41800342Y-40415291D01*
G75*
G02*
X41800342Y-40344581I35355J35355D01*
G01*
X41871052Y-40273871D01*
G75*
G02*
X41941762Y-40273871I35355J-35355D01*
G01*
X42489770Y-40821879D01*
G75*
G02*
X42489770Y-40892589I-35355J-35355D01*
G01*
X42419060Y-40963299D01*
G75*
G02*
X42348350Y-40963299I-35355J35355D01*
G01*
G37*
G36*
G01*
X42065508Y-41246141D02*
X41517500Y-40698133D01*
G75*
G02*
X41517500Y-40627423I35355J35355D01*
G01*
X41588210Y-40556713D01*
G75*
G02*
X41658920Y-40556713I35355J-35355D01*
G01*
X42206928Y-41104721D01*
G75*
G02*
X42206928Y-41175431I-35355J-35355D01*
G01*
X42136218Y-41246141D01*
G75*
G02*
X42065508Y-41246141I-35355J35355D01*
G01*
G37*
G36*
G01*
X41782665Y-41528984D02*
X41234657Y-40980976D01*
G75*
G02*
X41234657Y-40910266I35355J35355D01*
G01*
X41305367Y-40839556D01*
G75*
G02*
X41376077Y-40839556I35355J-35355D01*
G01*
X41924085Y-41387564D01*
G75*
G02*
X41924085Y-41458274I-35355J-35355D01*
G01*
X41853375Y-41528984D01*
G75*
G02*
X41782665Y-41528984I-35355J35355D01*
G01*
G37*
G36*
G01*
X41499822Y-41811827D02*
X40951814Y-41263819D01*
G75*
G02*
X40951814Y-41193109I35355J35355D01*
G01*
X41022524Y-41122399D01*
G75*
G02*
X41093234Y-41122399I35355J-35355D01*
G01*
X41641242Y-41670407D01*
G75*
G02*
X41641242Y-41741117I-35355J-35355D01*
G01*
X41570532Y-41811827D01*
G75*
G02*
X41499822Y-41811827I-35355J35355D01*
G01*
G37*
G36*
G01*
X41216980Y-42094669D02*
X40668972Y-41546661D01*
G75*
G02*
X40668972Y-41475951I35355J35355D01*
G01*
X40739682Y-41405241D01*
G75*
G02*
X40810392Y-41405241I35355J-35355D01*
G01*
X41358400Y-41953249D01*
G75*
G02*
X41358400Y-42023959I-35355J-35355D01*
G01*
X41287690Y-42094669D01*
G75*
G02*
X41216980Y-42094669I-35355J35355D01*
G01*
G37*
G36*
G01*
X40934137Y-42377512D02*
X40386129Y-41829504D01*
G75*
G02*
X40386129Y-41758794I35355J35355D01*
G01*
X40456839Y-41688084D01*
G75*
G02*
X40527549Y-41688084I35355J-35355D01*
G01*
X41075557Y-42236092D01*
G75*
G02*
X41075557Y-42306802I-35355J-35355D01*
G01*
X41004847Y-42377512D01*
G75*
G02*
X40934137Y-42377512I-35355J35355D01*
G01*
G37*
%TD*%
D19*
%TO.C,U3*%
X27825000Y-45275000D03*
X27825000Y-45775000D03*
X27825000Y-46275000D03*
X27825000Y-46775000D03*
X30725000Y-46775000D03*
X30725000Y-46275000D03*
X30725000Y-45775000D03*
X30725000Y-45275000D03*
D20*
X29275000Y-46025000D03*
%TD*%
%TO.C,U4*%
G36*
G01*
X28695000Y-40450000D02*
X28395000Y-40450000D01*
G75*
G02*
X28245000Y-40300000I0J150000D01*
G01*
X28245000Y-39000000D01*
G75*
G02*
X28395000Y-38850000I150000J0D01*
G01*
X28695000Y-38850000D01*
G75*
G02*
X28845000Y-39000000I0J-150000D01*
G01*
X28845000Y-40300000D01*
G75*
G02*
X28695000Y-40450000I-150000J0D01*
G01*
G37*
G36*
G01*
X29965000Y-40450000D02*
X29665000Y-40450000D01*
G75*
G02*
X29515000Y-40300000I0J150000D01*
G01*
X29515000Y-39000000D01*
G75*
G02*
X29665000Y-38850000I150000J0D01*
G01*
X29965000Y-38850000D01*
G75*
G02*
X30115000Y-39000000I0J-150000D01*
G01*
X30115000Y-40300000D01*
G75*
G02*
X29965000Y-40450000I-150000J0D01*
G01*
G37*
G36*
G01*
X31235000Y-40450000D02*
X30935000Y-40450000D01*
G75*
G02*
X30785000Y-40300000I0J150000D01*
G01*
X30785000Y-39000000D01*
G75*
G02*
X30935000Y-38850000I150000J0D01*
G01*
X31235000Y-38850000D01*
G75*
G02*
X31385000Y-39000000I0J-150000D01*
G01*
X31385000Y-40300000D01*
G75*
G02*
X31235000Y-40450000I-150000J0D01*
G01*
G37*
G36*
G01*
X32505000Y-40450000D02*
X32205000Y-40450000D01*
G75*
G02*
X32055000Y-40300000I0J150000D01*
G01*
X32055000Y-39000000D01*
G75*
G02*
X32205000Y-38850000I150000J0D01*
G01*
X32505000Y-38850000D01*
G75*
G02*
X32655000Y-39000000I0J-150000D01*
G01*
X32655000Y-40300000D01*
G75*
G02*
X32505000Y-40450000I-150000J0D01*
G01*
G37*
G36*
G01*
X32505000Y-33250000D02*
X32205000Y-33250000D01*
G75*
G02*
X32055000Y-33100000I0J150000D01*
G01*
X32055000Y-31800000D01*
G75*
G02*
X32205000Y-31650000I150000J0D01*
G01*
X32505000Y-31650000D01*
G75*
G02*
X32655000Y-31800000I0J-150000D01*
G01*
X32655000Y-33100000D01*
G75*
G02*
X32505000Y-33250000I-150000J0D01*
G01*
G37*
G36*
G01*
X31235000Y-33250000D02*
X30935000Y-33250000D01*
G75*
G02*
X30785000Y-33100000I0J150000D01*
G01*
X30785000Y-31800000D01*
G75*
G02*
X30935000Y-31650000I150000J0D01*
G01*
X31235000Y-31650000D01*
G75*
G02*
X31385000Y-31800000I0J-150000D01*
G01*
X31385000Y-33100000D01*
G75*
G02*
X31235000Y-33250000I-150000J0D01*
G01*
G37*
G36*
G01*
X29965000Y-33250000D02*
X29665000Y-33250000D01*
G75*
G02*
X29515000Y-33100000I0J150000D01*
G01*
X29515000Y-31800000D01*
G75*
G02*
X29665000Y-31650000I150000J0D01*
G01*
X29965000Y-31650000D01*
G75*
G02*
X30115000Y-31800000I0J-150000D01*
G01*
X30115000Y-33100000D01*
G75*
G02*
X29965000Y-33250000I-150000J0D01*
G01*
G37*
G36*
G01*
X28695000Y-33250000D02*
X28395000Y-33250000D01*
G75*
G02*
X28245000Y-33100000I0J150000D01*
G01*
X28245000Y-31800000D01*
G75*
G02*
X28395000Y-31650000I150000J0D01*
G01*
X28695000Y-31650000D01*
G75*
G02*
X28845000Y-31800000I0J-150000D01*
G01*
X28845000Y-33100000D01*
G75*
G02*
X28695000Y-33250000I-150000J0D01*
G01*
G37*
%TD*%
D21*
%TO.C,Y1*%
G36*
X50076777Y-46994796D02*
G01*
X50925305Y-47843324D01*
X49935355Y-48833274D01*
X49086827Y-47984746D01*
X50076777Y-46994796D01*
G37*
G36*
X48521142Y-48550431D02*
G01*
X49369670Y-49398959D01*
X48379720Y-50388909D01*
X47531192Y-49540381D01*
X48521142Y-48550431D01*
G37*
G36*
X49723223Y-49752512D02*
G01*
X50571751Y-50601040D01*
X49581801Y-51590990D01*
X48733273Y-50742462D01*
X49723223Y-49752512D01*
G37*
G36*
X51278858Y-48196877D02*
G01*
X52127386Y-49045405D01*
X51137436Y-50035355D01*
X50288908Y-49186827D01*
X51278858Y-48196877D01*
G37*
%TD*%
%TO.C,C1*%
G36*
G01*
X51116224Y-46931157D02*
X51356640Y-46690741D01*
G75*
G02*
X51554630Y-46690741I98995J-98995D01*
G01*
X51752620Y-46888731D01*
G75*
G02*
X51752620Y-47086721I-98995J-98995D01*
G01*
X51512204Y-47327137D01*
G75*
G02*
X51314214Y-47327137I-98995J98995D01*
G01*
X51116224Y-47129147D01*
G75*
G02*
X51116224Y-46931157I98995J98995D01*
G01*
G37*
G36*
G01*
X51795046Y-47609979D02*
X52035462Y-47369563D01*
G75*
G02*
X52233452Y-47369563I98995J-98995D01*
G01*
X52431442Y-47567553D01*
G75*
G02*
X52431442Y-47765543I-98995J-98995D01*
G01*
X52191026Y-48005959D01*
G75*
G02*
X51993036Y-48005959I-98995J98995D01*
G01*
X51795046Y-47807969D01*
G75*
G02*
X51795046Y-47609979I98995J98995D01*
G01*
G37*
%TD*%
D22*
%TO.C,J1*%
X45750000Y-26850001D03*
X45250000Y-26850001D03*
X44750000Y-26850001D03*
X44250000Y-26850001D03*
X43750000Y-26850001D03*
X42700000Y-26850001D03*
X41900000Y-26850001D03*
X41600000Y-26850001D03*
X42400000Y-26850001D03*
X43250000Y-26850001D03*
X46250000Y-26850001D03*
X47300000Y-26850001D03*
X48100000Y-26850001D03*
G36*
G01*
X49820000Y-25630001D02*
X49820000Y-26230001D01*
G75*
G02*
X49320000Y-26730001I-500000J0D01*
G01*
X49320000Y-26730001D01*
G75*
G02*
X48820000Y-26230001I0J500000D01*
G01*
X48820000Y-25630001D01*
G75*
G02*
X49320000Y-25130001I500000J0D01*
G01*
X49320000Y-25130001D01*
G75*
G02*
X49820000Y-25630001I0J-500000D01*
G01*
G37*
G36*
G01*
X41180000Y-25630001D02*
X41180000Y-26230001D01*
G75*
G02*
X40680000Y-26730001I-500000J0D01*
G01*
X40680000Y-26730001D01*
G75*
G02*
X40180000Y-26230001I0J500000D01*
G01*
X40180000Y-25630001D01*
G75*
G02*
X40680000Y-25130001I500000J0D01*
G01*
X40680000Y-25130001D01*
G75*
G02*
X41180000Y-25630001I0J-500000D01*
G01*
G37*
G36*
G01*
X41180000Y-21450001D02*
X41180000Y-22050001D01*
G75*
G02*
X40680000Y-22550001I-500000J0D01*
G01*
X40680000Y-22550001D01*
G75*
G02*
X40180000Y-22050001I0J500000D01*
G01*
X40180000Y-21450001D01*
G75*
G02*
X40680000Y-20950001I500000J0D01*
G01*
X40680000Y-20950001D01*
G75*
G02*
X41180000Y-21450001I0J-500000D01*
G01*
G37*
G36*
G01*
X49820000Y-21450001D02*
X49820000Y-22050001D01*
G75*
G02*
X49320000Y-22550001I-500000J0D01*
G01*
X49320000Y-22550001D01*
G75*
G02*
X48820000Y-22050001I0J500000D01*
G01*
X48820000Y-21450001D01*
G75*
G02*
X49320000Y-20950001I500000J0D01*
G01*
X49320000Y-20950001D01*
G75*
G02*
X49820000Y-21450001I0J-500000D01*
G01*
G37*
X46750000Y-26850001D03*
X47600000Y-26850001D03*
X48400000Y-26850001D03*
D23*
X47900000Y-25400001D03*
X42100000Y-25400001D03*
%TD*%
M02*
