G04 #@! TF.GenerationSoftware,KiCad,Pcbnew,5.1.10*
G04 #@! TF.CreationDate,2021-06-17T07:00:03-06:00*
G04 #@! TF.ProjectId,cable-link,6361626c-652d-46c6-996e-6b2e6b696361,rev?*
G04 #@! TF.SameCoordinates,Original*
G04 #@! TF.FileFunction,Legend,Bot*
G04 #@! TF.FilePolarity,Positive*
%FSLAX46Y46*%
G04 Gerber Fmt 4.6, Leading zero omitted, Abs format (unit mm)*
G04 Created by KiCad (PCBNEW 5.1.10) date 2021-06-17 07:00:03*
%MOMM*%
%LPD*%
G01*
G04 APERTURE LIST*
%ADD10C,0.010000*%
G04 APERTURE END LIST*
D10*
G04 #@! TO.C,G\u002A\u002A\u002A*
G36*
X62351640Y-31238426D02*
G01*
X62134665Y-30514286D01*
X62022969Y-30428807D01*
X61174745Y-30322035D01*
X60427094Y-30791827D01*
X60143228Y-31566671D01*
X60194268Y-31795805D01*
X60775057Y-32384874D01*
X61161039Y-32449483D01*
X61964511Y-32030218D01*
X62351640Y-31238426D01*
G37*
X62351640Y-31238426D02*
X62134665Y-30514286D01*
X62022969Y-30428807D01*
X61174745Y-30322035D01*
X60427094Y-30791827D01*
X60143228Y-31566671D01*
X60194268Y-31795805D01*
X60775057Y-32384874D01*
X61161039Y-32449483D01*
X61964511Y-32030218D01*
X62351640Y-31238426D01*
G36*
X58280590Y-32914740D02*
G01*
X58063616Y-32190600D01*
X57951919Y-32105122D01*
X57103696Y-31998349D01*
X56356044Y-32468141D01*
X56072179Y-33242986D01*
X56123218Y-33472119D01*
X56704008Y-34061188D01*
X57089990Y-34125798D01*
X57893462Y-33706532D01*
X58280590Y-32914740D01*
G37*
X58280590Y-32914740D02*
X58063616Y-32190600D01*
X57951919Y-32105122D01*
X57103696Y-31998349D01*
X56356044Y-32468141D01*
X56072179Y-33242986D01*
X56123218Y-33472119D01*
X56704008Y-34061188D01*
X57089990Y-34125798D01*
X57893462Y-33706532D01*
X58280590Y-32914740D01*
G36*
X34062284Y-60725435D02*
G01*
X33813166Y-60276304D01*
X33566874Y-59522012D01*
X33932903Y-58959200D01*
X34330811Y-58186952D01*
X34202311Y-57791766D01*
X33537165Y-57725566D01*
X33034877Y-58061174D01*
X32222860Y-58449859D01*
X31717774Y-58180911D01*
X31005605Y-57917950D01*
X30580274Y-58121043D01*
X30391025Y-58809412D01*
X30640143Y-59258542D01*
X30886434Y-60012835D01*
X30520406Y-60575646D01*
X30122497Y-61347895D01*
X30250998Y-61743079D01*
X30916144Y-61809281D01*
X31418431Y-61473671D01*
X32230449Y-61084987D01*
X32735536Y-61353935D01*
X33447704Y-61616896D01*
X33873035Y-61413803D01*
X34062284Y-60725435D01*
G37*
X34062284Y-60725435D02*
X33813166Y-60276304D01*
X33566874Y-59522012D01*
X33932903Y-58959200D01*
X34330811Y-58186952D01*
X34202311Y-57791766D01*
X33537165Y-57725566D01*
X33034877Y-58061174D01*
X32222860Y-58449859D01*
X31717774Y-58180911D01*
X31005605Y-57917950D01*
X30580274Y-58121043D01*
X30391025Y-58809412D01*
X30640143Y-59258542D01*
X30886434Y-60012835D01*
X30520406Y-60575646D01*
X30122497Y-61347895D01*
X30250998Y-61743079D01*
X30916144Y-61809281D01*
X31418431Y-61473671D01*
X32230449Y-61084987D01*
X32735536Y-61353935D01*
X33447704Y-61616896D01*
X33873035Y-61413803D01*
X34062284Y-60725435D01*
G36*
X29623624Y-53233956D02*
G01*
X29562512Y-53151968D01*
X28998518Y-53134675D01*
X28903959Y-53211836D01*
X28782979Y-53788401D01*
X28844092Y-53870388D01*
X29408085Y-53887682D01*
X29502643Y-53810520D01*
X29623624Y-53233956D01*
G37*
X29623624Y-53233956D02*
X29562512Y-53151968D01*
X28998518Y-53134675D01*
X28903959Y-53211836D01*
X28782979Y-53788401D01*
X28844092Y-53870388D01*
X29408085Y-53887682D01*
X29502643Y-53810520D01*
X29623624Y-53233956D01*
G36*
X28126914Y-51737246D02*
G01*
X28065802Y-51655258D01*
X27501808Y-51637965D01*
X27407251Y-51715127D01*
X27286270Y-52291691D01*
X27347382Y-52373679D01*
X27911375Y-52390972D01*
X28005934Y-52313810D01*
X28126914Y-51737246D01*
G37*
X28126914Y-51737246D02*
X28065802Y-51655258D01*
X27501808Y-51637965D01*
X27407251Y-51715127D01*
X27286270Y-52291691D01*
X27347382Y-52373679D01*
X27911375Y-52390972D01*
X28005934Y-52313810D01*
X28126914Y-51737246D01*
G36*
X48780260Y-32138168D02*
G01*
X31538168Y-49380260D01*
X41117108Y-58959200D01*
X58359200Y-41717108D01*
X48780260Y-32138168D01*
G37*
X48780260Y-32138168D02*
X31538168Y-49380260D01*
X41117108Y-58959200D01*
X58359200Y-41717108D01*
X48780260Y-32138168D01*
G36*
X64101297Y-41505986D02*
G01*
X65285064Y-39817826D01*
X66672814Y-37719123D01*
X66980528Y-37239481D01*
X67614480Y-35908383D01*
X67825773Y-34746085D01*
X67805592Y-34593841D01*
X67497301Y-33772508D01*
X67179296Y-33694269D01*
X66999914Y-34316560D01*
X66699837Y-35067198D01*
X65978228Y-36350764D01*
X65088561Y-37741920D01*
X64012268Y-39472124D01*
X63185530Y-41054248D01*
X62694897Y-42289470D01*
X62626918Y-42978974D01*
X62774650Y-43057330D01*
X63228747Y-42635265D01*
X64101297Y-41505986D01*
G37*
X64101297Y-41505986D02*
X65285064Y-39817826D01*
X66672814Y-37719123D01*
X66980528Y-37239481D01*
X67614480Y-35908383D01*
X67825773Y-34746085D01*
X67805592Y-34593841D01*
X67497301Y-33772508D01*
X67179296Y-33694269D01*
X66999914Y-34316560D01*
X66699837Y-35067198D01*
X65978228Y-36350764D01*
X65088561Y-37741920D01*
X64012268Y-39472124D01*
X63185530Y-41054248D01*
X62694897Y-42289470D01*
X62626918Y-42978974D01*
X62774650Y-43057330D01*
X63228747Y-42635265D01*
X64101297Y-41505986D01*
G36*
X42336869Y-63342561D02*
G01*
X41719659Y-63392768D01*
X41444807Y-63439875D01*
X40256243Y-63869162D01*
X38688839Y-64704608D01*
X37639757Y-65382190D01*
X36086184Y-66391908D01*
X34673864Y-67179693D01*
X34002438Y-67470176D01*
X33192759Y-67836676D01*
X33030633Y-68114816D01*
X33976917Y-68437675D01*
X35490635Y-68040776D01*
X37617084Y-66908908D01*
X38706231Y-66209078D01*
X40685984Y-64873419D01*
X41898618Y-64003422D01*
X42422718Y-63519625D01*
X42336869Y-63342561D01*
G37*
X42336869Y-63342561D02*
X41719659Y-63392768D01*
X41444807Y-63439875D01*
X40256243Y-63869162D01*
X38688839Y-64704608D01*
X37639757Y-65382190D01*
X36086184Y-66391908D01*
X34673864Y-67179693D01*
X34002438Y-67470176D01*
X33192759Y-67836676D01*
X33030633Y-68114816D01*
X33976917Y-68437675D01*
X35490635Y-68040776D01*
X37617084Y-66908908D01*
X38706231Y-66209078D01*
X40685984Y-64873419D01*
X41898618Y-64003422D01*
X42422718Y-63519625D01*
X42336869Y-63342561D01*
G36*
X62422712Y-42346066D02*
G01*
X63016271Y-40555008D01*
X64161291Y-38398578D01*
X64704872Y-37558354D01*
X65705974Y-35979638D01*
X66435294Y-34626206D01*
X66727919Y-33819032D01*
X66494648Y-32740790D01*
X65695821Y-31216843D01*
X64406276Y-29356328D01*
X62700857Y-27268387D01*
X60884300Y-25297382D01*
X59401923Y-23808530D01*
X58339940Y-22854687D01*
X57559617Y-22334364D01*
X56922214Y-22146069D01*
X56578547Y-22147596D01*
X55549863Y-22448322D01*
X53870906Y-23168402D01*
X51748506Y-24204689D01*
X49389492Y-25454044D01*
X47000692Y-26813321D01*
X45936480Y-27454672D01*
X42598769Y-29767043D01*
X39016884Y-32694294D01*
X35460815Y-35990247D01*
X32200554Y-39408722D01*
X30169765Y-41830828D01*
X28395326Y-44231606D01*
X26683808Y-46856581D01*
X24874656Y-49962370D01*
X23505189Y-52482799D01*
X22404314Y-54704406D01*
X21820549Y-56434774D01*
X21793977Y-57753608D01*
X27018985Y-52528599D01*
X26863729Y-51849349D01*
X27107908Y-51415784D01*
X27786661Y-51173134D01*
X27991492Y-51183050D01*
X28489972Y-51597606D01*
X28436282Y-52097143D01*
X29610472Y-50922952D01*
X28954356Y-50174881D01*
X28892216Y-50074742D01*
X28568673Y-48859204D01*
X28873917Y-47425550D01*
X29863158Y-45632581D01*
X31465394Y-43494202D01*
X32906655Y-41843081D01*
X34830883Y-39815544D01*
X37047350Y-37594673D01*
X39365333Y-35363552D01*
X41594108Y-33305261D01*
X43542951Y-31602883D01*
X45021136Y-30439500D01*
X45177536Y-30331495D01*
X46537061Y-29515986D01*
X47682432Y-29141729D01*
X48756115Y-29258302D01*
X49900578Y-29915283D01*
X51258285Y-31162252D01*
X52965532Y-33041708D01*
X54717205Y-35075490D01*
X55843722Y-33948973D01*
X55694989Y-33272369D01*
X56057111Y-32199389D01*
X57008797Y-31623483D01*
X57845013Y-31593426D01*
X58554208Y-31943887D01*
X58655754Y-32810272D01*
X58232672Y-33861550D01*
X57408964Y-34435160D01*
X56505644Y-34481001D01*
X55843722Y-33948973D01*
X54717205Y-35075490D01*
X55160624Y-35590324D01*
X55809885Y-36377546D01*
X59914772Y-32272659D01*
X59766039Y-31596054D01*
X60128161Y-30523075D01*
X61079847Y-29947168D01*
X61916062Y-29917111D01*
X62625257Y-30267573D01*
X62726804Y-31133958D01*
X62303722Y-32185236D01*
X61480014Y-32758846D01*
X60576693Y-32804687D01*
X59914772Y-32272659D01*
X55809885Y-36377546D01*
X56828436Y-37612530D01*
X58026448Y-39194305D01*
X58812135Y-40421631D01*
X59242976Y-41380487D01*
X59376448Y-42156853D01*
X59337268Y-42573099D01*
X58802826Y-43733231D01*
X57597496Y-45435656D01*
X55822830Y-47564874D01*
X53580386Y-50005383D01*
X50971718Y-52641683D01*
X48098382Y-55358274D01*
X48085112Y-55370409D01*
X45832576Y-57386254D01*
X44146652Y-58769151D01*
X42882186Y-59611142D01*
X41894029Y-60004268D01*
X41037024Y-60040573D01*
X40789152Y-59996814D01*
X40114918Y-59646106D01*
X38955596Y-58839276D01*
X37450431Y-57692452D01*
X35738667Y-56321763D01*
X33959545Y-54843340D01*
X32252310Y-53373311D01*
X30756205Y-52027806D01*
X29610472Y-50922952D01*
X28436282Y-52097143D01*
X28416204Y-52283942D01*
X27857932Y-52768246D01*
X27692131Y-52799515D01*
X27018985Y-52528599D01*
X21793977Y-57753608D01*
X21791694Y-57866878D01*
X22355550Y-59193691D01*
X22809591Y-59731413D01*
X28515695Y-54025309D01*
X28360439Y-53346059D01*
X28604618Y-52912494D01*
X29283370Y-52669844D01*
X29488201Y-52679760D01*
X29986681Y-53094316D01*
X29912913Y-53780651D01*
X29354642Y-54264956D01*
X29188841Y-54296224D01*
X28515695Y-54025309D01*
X22809591Y-59731413D01*
X23549916Y-60608187D01*
X25412591Y-62303340D01*
X25432129Y-62320135D01*
X27544379Y-64053056D01*
X29751454Y-61845981D01*
X29800214Y-60986628D01*
X29922615Y-60762697D01*
X30192670Y-59711523D01*
X30066681Y-59177970D01*
X30008749Y-58292088D01*
X30280933Y-57821701D01*
X31110932Y-57492710D01*
X31637201Y-57607450D01*
X32656383Y-57689291D01*
X33221928Y-57463384D01*
X34133194Y-57242074D01*
X34561521Y-57432556D01*
X34743830Y-58216074D01*
X34530694Y-58772150D01*
X34260638Y-59823324D01*
X34386628Y-60356877D01*
X34444560Y-61242758D01*
X34172377Y-61713145D01*
X33342377Y-62042137D01*
X32816108Y-61927397D01*
X31796926Y-61845556D01*
X31231381Y-62071463D01*
X30315350Y-62294433D01*
X29751454Y-61845981D01*
X27544379Y-64053056D01*
X28057024Y-64473638D01*
X30230954Y-66039670D01*
X31923676Y-66998804D01*
X33104950Y-67331614D01*
X33226447Y-67327245D01*
X34074271Y-67013824D01*
X35439006Y-66271412D01*
X36958353Y-65304873D01*
X39161248Y-63994633D01*
X41132302Y-63172205D01*
X41746065Y-63022713D01*
X43679328Y-62683158D01*
X62083158Y-44279329D01*
X62422712Y-42346066D01*
G37*
X62422712Y-42346066D02*
X63016271Y-40555008D01*
X64161291Y-38398578D01*
X64704872Y-37558354D01*
X65705974Y-35979638D01*
X66435294Y-34626206D01*
X66727919Y-33819032D01*
X66494648Y-32740790D01*
X65695821Y-31216843D01*
X64406276Y-29356328D01*
X62700857Y-27268387D01*
X60884300Y-25297382D01*
X59401923Y-23808530D01*
X58339940Y-22854687D01*
X57559617Y-22334364D01*
X56922214Y-22146069D01*
X56578547Y-22147596D01*
X55549863Y-22448322D01*
X53870906Y-23168402D01*
X51748506Y-24204689D01*
X49389492Y-25454044D01*
X47000692Y-26813321D01*
X45936480Y-27454672D01*
X42598769Y-29767043D01*
X39016884Y-32694294D01*
X35460815Y-35990247D01*
X32200554Y-39408722D01*
X30169765Y-41830828D01*
X28395326Y-44231606D01*
X26683808Y-46856581D01*
X24874656Y-49962370D01*
X23505189Y-52482799D01*
X22404314Y-54704406D01*
X21820549Y-56434774D01*
X21793977Y-57753608D01*
X27018985Y-52528599D01*
X26863729Y-51849349D01*
X27107908Y-51415784D01*
X27786661Y-51173134D01*
X27991492Y-51183050D01*
X28489972Y-51597606D01*
X28436282Y-52097143D01*
X29610472Y-50922952D01*
X28954356Y-50174881D01*
X28892216Y-50074742D01*
X28568673Y-48859204D01*
X28873917Y-47425550D01*
X29863158Y-45632581D01*
X31465394Y-43494202D01*
X32906655Y-41843081D01*
X34830883Y-39815544D01*
X37047350Y-37594673D01*
X39365333Y-35363552D01*
X41594108Y-33305261D01*
X43542951Y-31602883D01*
X45021136Y-30439500D01*
X45177536Y-30331495D01*
X46537061Y-29515986D01*
X47682432Y-29141729D01*
X48756115Y-29258302D01*
X49900578Y-29915283D01*
X51258285Y-31162252D01*
X52965532Y-33041708D01*
X54717205Y-35075490D01*
X55843722Y-33948973D01*
X55694989Y-33272369D01*
X56057111Y-32199389D01*
X57008797Y-31623483D01*
X57845013Y-31593426D01*
X58554208Y-31943887D01*
X58655754Y-32810272D01*
X58232672Y-33861550D01*
X57408964Y-34435160D01*
X56505644Y-34481001D01*
X55843722Y-33948973D01*
X54717205Y-35075490D01*
X55160624Y-35590324D01*
X55809885Y-36377546D01*
X59914772Y-32272659D01*
X59766039Y-31596054D01*
X60128161Y-30523075D01*
X61079847Y-29947168D01*
X61916062Y-29917111D01*
X62625257Y-30267573D01*
X62726804Y-31133958D01*
X62303722Y-32185236D01*
X61480014Y-32758846D01*
X60576693Y-32804687D01*
X59914772Y-32272659D01*
X55809885Y-36377546D01*
X56828436Y-37612530D01*
X58026448Y-39194305D01*
X58812135Y-40421631D01*
X59242976Y-41380487D01*
X59376448Y-42156853D01*
X59337268Y-42573099D01*
X58802826Y-43733231D01*
X57597496Y-45435656D01*
X55822830Y-47564874D01*
X53580386Y-50005383D01*
X50971718Y-52641683D01*
X48098382Y-55358274D01*
X48085112Y-55370409D01*
X45832576Y-57386254D01*
X44146652Y-58769151D01*
X42882186Y-59611142D01*
X41894029Y-60004268D01*
X41037024Y-60040573D01*
X40789152Y-59996814D01*
X40114918Y-59646106D01*
X38955596Y-58839276D01*
X37450431Y-57692452D01*
X35738667Y-56321763D01*
X33959545Y-54843340D01*
X32252310Y-53373311D01*
X30756205Y-52027806D01*
X29610472Y-50922952D01*
X28436282Y-52097143D01*
X28416204Y-52283942D01*
X27857932Y-52768246D01*
X27692131Y-52799515D01*
X27018985Y-52528599D01*
X21793977Y-57753608D01*
X21791694Y-57866878D01*
X22355550Y-59193691D01*
X22809591Y-59731413D01*
X28515695Y-54025309D01*
X28360439Y-53346059D01*
X28604618Y-52912494D01*
X29283370Y-52669844D01*
X29488201Y-52679760D01*
X29986681Y-53094316D01*
X29912913Y-53780651D01*
X29354642Y-54264956D01*
X29188841Y-54296224D01*
X28515695Y-54025309D01*
X22809591Y-59731413D01*
X23549916Y-60608187D01*
X25412591Y-62303340D01*
X25432129Y-62320135D01*
X27544379Y-64053056D01*
X29751454Y-61845981D01*
X29800214Y-60986628D01*
X29922615Y-60762697D01*
X30192670Y-59711523D01*
X30066681Y-59177970D01*
X30008749Y-58292088D01*
X30280933Y-57821701D01*
X31110932Y-57492710D01*
X31637201Y-57607450D01*
X32656383Y-57689291D01*
X33221928Y-57463384D01*
X34133194Y-57242074D01*
X34561521Y-57432556D01*
X34743830Y-58216074D01*
X34530694Y-58772150D01*
X34260638Y-59823324D01*
X34386628Y-60356877D01*
X34444560Y-61242758D01*
X34172377Y-61713145D01*
X33342377Y-62042137D01*
X32816108Y-61927397D01*
X31796926Y-61845556D01*
X31231381Y-62071463D01*
X30315350Y-62294433D01*
X29751454Y-61845981D01*
X27544379Y-64053056D01*
X28057024Y-64473638D01*
X30230954Y-66039670D01*
X31923676Y-66998804D01*
X33104950Y-67331614D01*
X33226447Y-67327245D01*
X34074271Y-67013824D01*
X35439006Y-66271412D01*
X36958353Y-65304873D01*
X39161248Y-63994633D01*
X41132302Y-63172205D01*
X41746065Y-63022713D01*
X43679328Y-62683158D01*
X62083158Y-44279329D01*
X62422712Y-42346066D01*
G04 #@! TD*
M02*
