M48
; DRILL file {KiCad (5.1.10)-1} date 05/11/21 23:47:09
; FORMAT={-:-/ absolute / inch / decimal}
; #@! TF.CreationDate,2021-05-11T23:47:09-07:00
; #@! TF.GenerationSoftware,Kicad,Pcbnew,(5.1.10)-1
; #@! TF.FileFunction,Plated,1,2,PTH
FMAT,2
INCH
T1C0.0157
T2C0.0236
T3C0.0256
%
G90
G05
T1
X0.8209Y-2.3681
X0.8209Y-3.501
X0.8268Y-2.6122
X0.8406Y-1.9744
X0.8642Y-1.7835
X0.8681Y-3.499
X0.9203Y-3.2608
X0.9331Y-1.9094
X0.935Y-1.8465
X1.0217Y-3.8159
X1.0256Y-2.4075
X1.0276Y-2.5472
X1.063Y-3.1093
X1.0699Y-2.4232
X1.0711Y-2.1616
X1.1014Y-2.3799
X1.1073Y-2.9537
X1.187Y-1.9626
X1.2431Y-3.5659
X1.3159Y-3.2766
X1.3169Y-3.1821
X1.3484Y-2.0472
X1.376Y-3.6634
X1.377Y-2.6516
X1.378Y-2.8002
X1.4508Y-1.9626
X1.4528Y-1.8169
X1.5148Y-2.3445
X1.5148Y-2.3829
X1.5305Y-2.1801
X1.5778Y-3.2736
X1.5827Y-3.4469
X1.5896Y-2.8012
X1.627Y-2.3287
X1.6486Y-3.1181
X1.6506Y-3.1663
X1.6516Y-3.3878
X1.6535Y-1.8701
X1.6929Y-1.7087
X1.7154Y-2.8889
X1.7156Y-2.9341
X1.7156Y-2.9764
X1.7156Y-3.0157
X1.7402Y-3.4173
X1.75Y-1.8701
X1.7677Y-2.3435
X1.78Y-3.4168
X1.7963Y-2.9341
X1.7963Y-2.9734
X1.7976Y-3.0128
X1.811Y-2.3445
X1.814Y-2.8031
X1.8366Y-2.1713
X1.8445Y-2.4242
X1.8484Y-3.4469
X1.8583Y-3.2402
X1.8976Y-3.4469
X1.9016Y-3.1191
X1.9026Y-3.1663
X1.9154Y-2.8051
X1.9213Y-2.5955
X1.935Y-2.4656
T3
X1.3484Y-1.7126
X1.3484Y-1.7626
X1.3484Y-1.8126
X1.3484Y-1.8626
X1.3484Y-1.9126
X1.3484Y-1.9626
T2
G00X1.5799Y-3.5303
M15
G01X1.5799Y-3.5736
M16
G05
G00X1.5799Y-3.7047
M15
G01X1.5799Y-3.7283
M16
G05
G00X1.9201Y-3.5303
M15
G01X1.9201Y-3.5736
M16
G05
G00X1.9201Y-3.7047
M15
G01X1.9201Y-3.7283
M16
G05
T0
M30
