%TF.GenerationSoftware,KiCad,Pcbnew,(5.1.10)-1*%
%TF.CreationDate,2021-05-11T23:47:16-07:00*%
%TF.ProjectId,LinkMeBaby,4c696e6b-4d65-4426-9162-792e6b696361,rev?*%
%TF.SameCoordinates,Original*%
%TF.FileFunction,Copper,L2,Bot*%
%TF.FilePolarity,Positive*%
%FSLAX46Y46*%
G04 Gerber Fmt 4.6, Leading zero omitted, Abs format (unit mm)*
G04 Created by KiCad (PCBNEW (5.1.10)-1) date 2021-05-11 23:47:16*
%MOMM*%
%LPD*%
G01*
G04 APERTURE LIST*
%TA.AperFunction,ComponentPad*%
%ADD10O,1.000000X1.600000*%
%TD*%
%TA.AperFunction,ComponentPad*%
%ADD11O,1.000000X2.100000*%
%TD*%
%TA.AperFunction,ComponentPad*%
%ADD12R,1.000000X1.000000*%
%TD*%
%TA.AperFunction,ComponentPad*%
%ADD13O,1.000000X1.000000*%
%TD*%
%TA.AperFunction,ViaPad*%
%ADD14C,0.800000*%
%TD*%
%TA.AperFunction,Conductor*%
%ADD15C,1.000000*%
%TD*%
%TA.AperFunction,Conductor*%
%ADD16C,0.250000*%
%TD*%
%TA.AperFunction,Conductor*%
%ADD17C,0.254000*%
%TD*%
%TA.AperFunction,Conductor*%
%ADD18C,0.100000*%
%TD*%
G04 APERTURE END LIST*
D10*
%TO.P,J1,S1*%
%TO.N,Net-(J1-PadS1)*%
X48770000Y-94400000D03*
X40130000Y-94400000D03*
D11*
X40130000Y-90220000D03*
X48770000Y-90220000D03*
%TD*%
D12*
%TO.P,J2,1*%
%TO.N,EDGE_SO*%
X34250000Y-43500000D03*
D13*
%TO.P,J2,2*%
%TO.N,EDGE_SC*%
X34250000Y-44770000D03*
%TO.P,J2,3*%
%TO.N,EDGE_SD*%
X34250000Y-46040000D03*
%TO.P,J2,4*%
%TO.N,EDGE_SI*%
X34250000Y-47310000D03*
%TO.P,J2,5*%
%TO.N,EDGE_VDD*%
X34250000Y-48580000D03*
%TO.P,J2,6*%
%TO.N,GND*%
X34250000Y-49850000D03*
%TD*%
%TO.P,J3,6*%
%TO.N,GND*%
%TA.AperFunction,SMDPad,CuDef*%
G36*
G01*
X45900000Y-28400000D02*
X45900000Y-34900000D01*
G75*
G02*
X45650000Y-35150000I-250000J0D01*
G01*
X45150000Y-35150000D01*
G75*
G02*
X44900000Y-34900000I0J250000D01*
G01*
X44900000Y-28400000D01*
G75*
G02*
X45150000Y-28150000I250000J0D01*
G01*
X45650000Y-28150000D01*
G75*
G02*
X45900000Y-28400000I0J-250000D01*
G01*
G37*
%TD.AperFunction*%
%TO.P,J3,4*%
%TO.N,N/C*%
%TA.AperFunction,SMDPad,CuDef*%
G36*
G01*
X47400000Y-28400000D02*
X47400000Y-34900000D01*
G75*
G02*
X47150000Y-35150000I-250000J0D01*
G01*
X46650000Y-35150000D01*
G75*
G02*
X46400000Y-34900000I0J250000D01*
G01*
X46400000Y-28400000D01*
G75*
G02*
X46650000Y-28150000I250000J0D01*
G01*
X47150000Y-28150000D01*
G75*
G02*
X47400000Y-28400000I0J-250000D01*
G01*
G37*
%TD.AperFunction*%
%TO.P,J3,2*%
%TO.N,EDGE_SO*%
%TA.AperFunction,SMDPad,CuDef*%
G36*
G01*
X48900000Y-28400000D02*
X48900000Y-34900000D01*
G75*
G02*
X48650000Y-35150000I-250000J0D01*
G01*
X48150000Y-35150000D01*
G75*
G02*
X47900000Y-34900000I0J250000D01*
G01*
X47900000Y-28400000D01*
G75*
G02*
X48150000Y-28150000I250000J0D01*
G01*
X48650000Y-28150000D01*
G75*
G02*
X48900000Y-28400000I0J-250000D01*
G01*
G37*
%TD.AperFunction*%
%TD*%
%TO.P,J4,2*%
%TO.N,EDGE_SO*%
%TA.AperFunction,SMDPad,CuDef*%
G36*
G01*
X24900000Y-28400000D02*
X24900000Y-34900000D01*
G75*
G02*
X24650000Y-35150000I-250000J0D01*
G01*
X24150000Y-35150000D01*
G75*
G02*
X23900000Y-34900000I0J250000D01*
G01*
X23900000Y-28400000D01*
G75*
G02*
X24150000Y-28150000I250000J0D01*
G01*
X24650000Y-28150000D01*
G75*
G02*
X24900000Y-28400000I0J-250000D01*
G01*
G37*
%TD.AperFunction*%
%TO.P,J4,4*%
%TO.N,EDGE_SD*%
%TA.AperFunction,SMDPad,CuDef*%
G36*
G01*
X23400000Y-28400000D02*
X23400000Y-34900000D01*
G75*
G02*
X23150000Y-35150000I-250000J0D01*
G01*
X22650000Y-35150000D01*
G75*
G02*
X22400000Y-34900000I0J250000D01*
G01*
X22400000Y-28400000D01*
G75*
G02*
X22650000Y-28150000I250000J0D01*
G01*
X23150000Y-28150000D01*
G75*
G02*
X23400000Y-28400000I0J-250000D01*
G01*
G37*
%TD.AperFunction*%
%TO.P,J4,6*%
%TO.N,GND*%
%TA.AperFunction,SMDPad,CuDef*%
G36*
G01*
X21900000Y-28400000D02*
X21900000Y-34900000D01*
G75*
G02*
X21650000Y-35150000I-250000J0D01*
G01*
X21150000Y-35150000D01*
G75*
G02*
X20900000Y-34900000I0J250000D01*
G01*
X20900000Y-28400000D01*
G75*
G02*
X21150000Y-28150000I250000J0D01*
G01*
X21650000Y-28150000D01*
G75*
G02*
X21900000Y-28400000I0J-250000D01*
G01*
G37*
%TD.AperFunction*%
%TD*%
D14*
%TO.N,GND*%
X41950000Y-86050000D03*
X48200000Y-87550000D03*
X40200000Y-87550000D03*
X47200000Y-82300000D03*
X38875000Y-55375000D03*
X21350000Y-50150000D03*
X20850000Y-60150000D03*
X30150000Y-49850000D03*
X34250000Y-52000000D03*
X36850000Y-49850000D03*
X36900000Y-46150000D03*
X43000000Y-43400000D03*
X46650000Y-55150000D03*
X38475000Y-60525000D03*
X38475000Y-59550000D03*
X35000000Y-71125000D03*
X49150000Y-62625000D03*
X34975000Y-67350000D03*
X48800000Y-65925000D03*
X46000000Y-59550000D03*
X21000000Y-66350000D03*
X40075000Y-83150000D03*
X34950000Y-93050000D03*
X31575000Y-90575000D03*
X25950000Y-96925000D03*
X22050000Y-88875000D03*
%TO.N,+3V3*%
X40375000Y-71150000D03*
X41925000Y-80425000D03*
X48325000Y-80425000D03*
X41875000Y-79200000D03*
X48300000Y-79225000D03*
X46850000Y-61575000D03*
X44900000Y-59525000D03*
X46075000Y-71200000D03*
X48650000Y-71250000D03*
X27975000Y-60450000D03*
X28125000Y-75025000D03*
X33425000Y-83225000D03*
X33450000Y-80825000D03*
X20850000Y-88925000D03*
%TO.N,+5V*%
X46950000Y-87550000D03*
%TO.N,USB_CONN_D+*%
X45212653Y-86787347D03*
%TO.N,USB_CONN_D-*%
X44200000Y-86800000D03*
%TO.N,EDGE_SI*%
X44450000Y-47500000D03*
X42000000Y-47500000D03*
X23750000Y-46900000D03*
%TO.N,EDGE_VDD*%
X23700000Y-48500000D03*
%TO.N,EDGE_SC*%
X21950000Y-45300000D03*
%TO.N,SWO*%
X45658314Y-76524447D03*
X43575000Y-76600000D03*
%TO.N,SWCLK*%
X45625000Y-75525000D03*
X43575000Y-75600000D03*
%TO.N,NRST*%
X41325000Y-59150000D03*
X23375000Y-82825000D03*
X27000000Y-78975000D03*
X43570925Y-73379075D03*
%TO.N,SWDIO*%
X45625000Y-74525000D03*
X43575000Y-74525000D03*
%TO.N,DIR*%
X27175000Y-61550000D03*
X27205001Y-54905001D03*
%TO.N,SPI1_MOSI*%
X26050000Y-61150000D03*
X26100000Y-64700000D03*
%TD*%
D15*
%TO.N,GND*%
X21400000Y-31650000D02*
X21400000Y-36450000D01*
X21400000Y-36450000D02*
X20650000Y-37200000D01*
X20650000Y-49450000D02*
X21350000Y-50150000D01*
X20650000Y-37200000D02*
X20650000Y-49450000D01*
X34250000Y-49850000D02*
X30150000Y-49850000D01*
X36850000Y-46200000D02*
X36900000Y-46150000D01*
X36850000Y-49850000D02*
X36850000Y-46200000D01*
X45400000Y-41000000D02*
X43000000Y-43400000D01*
X45400000Y-31650000D02*
X45400000Y-41000000D01*
%TO.N,+3V3*%
X41925000Y-80425000D02*
X48325000Y-80425000D01*
X48275000Y-79200000D02*
X48300000Y-79225000D01*
X41875000Y-79200000D02*
X48275000Y-79200000D01*
X46850000Y-70425000D02*
X46075000Y-71200000D01*
X46850000Y-61575000D02*
X46850000Y-70425000D01*
X47825000Y-70425000D02*
X48650000Y-71250000D01*
X46850000Y-70425000D02*
X47825000Y-70425000D01*
%TO.N,Net-(J1-PadS1)*%
X40130000Y-94400000D02*
X48770000Y-94400000D01*
X40130000Y-90220000D02*
X40130000Y-94400000D01*
D16*
%TO.N,EDGE_SO*%
X24400000Y-31650000D02*
X24400000Y-35150000D01*
X48400000Y-31650000D02*
X48400000Y-35150000D01*
X48400000Y-44623002D02*
X44473002Y-48550000D01*
X48400000Y-31650000D02*
X48400000Y-44623002D01*
X36926998Y-43500000D02*
X34250000Y-43500000D01*
X41976998Y-48550000D02*
X36926998Y-43500000D01*
X44473002Y-48550000D02*
X41976998Y-48550000D01*
X24400000Y-31650000D02*
X24400000Y-39113590D01*
X28786410Y-43500000D02*
X32900000Y-43500000D01*
X32900000Y-43500000D02*
X34250000Y-43500000D01*
X24400000Y-39113590D02*
X28786410Y-43500000D01*
X32750000Y-43500000D02*
X32900000Y-43500000D01*
%TO.N,EDGE_SI*%
X44450000Y-47500000D02*
X42000000Y-47500000D01*
X24160000Y-47310000D02*
X34250000Y-47310000D01*
X23750000Y-46900000D02*
X24160000Y-47310000D01*
%TO.N,EDGE_VDD*%
X34170000Y-48500000D02*
X34250000Y-48580000D01*
X23700000Y-48500000D02*
X34170000Y-48500000D01*
%TO.N,EDGE_SD*%
X22900000Y-31650000D02*
X22900000Y-38250000D01*
X30690000Y-46040000D02*
X34250000Y-46040000D01*
X22900000Y-38250000D02*
X30690000Y-46040000D01*
%TO.N,EDGE_SC*%
X35075001Y-50246001D02*
X35075001Y-45595001D01*
X34646001Y-50675001D02*
X35075001Y-50246001D01*
X24801999Y-50675001D02*
X34646001Y-50675001D01*
X35075001Y-45595001D02*
X34250000Y-44770000D01*
X21950000Y-47823002D02*
X24801999Y-50675001D01*
X21950000Y-45300000D02*
X21950000Y-47823002D01*
%TO.N,SWO*%
X43650553Y-76524447D02*
X43575000Y-76600000D01*
X45658314Y-76524447D02*
X43650553Y-76524447D01*
%TO.N,SWCLK*%
X43650000Y-75525000D02*
X43575000Y-75600000D01*
X45625000Y-75525000D02*
X43650000Y-75525000D01*
%TO.N,NRST*%
X23974342Y-82825000D02*
X23375000Y-82825000D01*
X27087171Y-79062171D02*
X27000000Y-78975000D01*
X27087171Y-79712171D02*
X27087171Y-79062171D01*
X27087171Y-79712171D02*
X23974342Y-82825000D01*
X41325000Y-71133150D02*
X43570925Y-73379075D01*
X41325000Y-70400000D02*
X41325000Y-71133150D01*
X41325000Y-59150000D02*
X41325000Y-70400000D01*
%TO.N,SWDIO*%
X45625000Y-74525000D02*
X43575000Y-74525000D01*
%TO.N,DIR*%
X27175000Y-54935002D02*
X27205001Y-54905001D01*
X27175000Y-61550000D02*
X27175000Y-54935002D01*
%TO.N,SPI1_MOSI*%
X26050000Y-64650000D02*
X26100000Y-64700000D01*
X26050000Y-61150000D02*
X26050000Y-64650000D01*
%TD*%
D17*
%TO.N,GND*%
X21527000Y-31523000D02*
X21547000Y-31523000D01*
X21547000Y-31777000D01*
X21527000Y-31777000D01*
X21527000Y-35626250D01*
X21685750Y-35785000D01*
X21900000Y-35788072D01*
X22024482Y-35775812D01*
X22140001Y-35740770D01*
X22140001Y-38212668D01*
X22136324Y-38250000D01*
X22140001Y-38287333D01*
X22150783Y-38396798D01*
X22150998Y-38398985D01*
X22194454Y-38542246D01*
X22265026Y-38674276D01*
X22336201Y-38761002D01*
X22360000Y-38790001D01*
X22388998Y-38813799D01*
X30125198Y-46550000D01*
X24725301Y-46550000D01*
X24667205Y-46409744D01*
X24553937Y-46240226D01*
X24409774Y-46096063D01*
X24240256Y-45982795D01*
X24051898Y-45904774D01*
X23851939Y-45865000D01*
X23648061Y-45865000D01*
X23448102Y-45904774D01*
X23259744Y-45982795D01*
X23090226Y-46096063D01*
X22946063Y-46240226D01*
X22832795Y-46409744D01*
X22754774Y-46598102D01*
X22715000Y-46798061D01*
X22715000Y-47001939D01*
X22754774Y-47201898D01*
X22832795Y-47390256D01*
X22946063Y-47559774D01*
X23065479Y-47679190D01*
X23040226Y-47696063D01*
X22969044Y-47767245D01*
X22710000Y-47508201D01*
X22710000Y-46003711D01*
X22753937Y-45959774D01*
X22867205Y-45790256D01*
X22945226Y-45601898D01*
X22985000Y-45401939D01*
X22985000Y-45198061D01*
X22945226Y-44998102D01*
X22867205Y-44809744D01*
X22753937Y-44640226D01*
X22609774Y-44496063D01*
X22440256Y-44382795D01*
X22251898Y-44304774D01*
X22051939Y-44265000D01*
X21848061Y-44265000D01*
X21648102Y-44304774D01*
X21459744Y-44382795D01*
X21290226Y-44496063D01*
X21146063Y-44640226D01*
X21032795Y-44809744D01*
X20954774Y-44998102D01*
X20915000Y-45198061D01*
X20915000Y-45401939D01*
X20954774Y-45601898D01*
X21032795Y-45790256D01*
X21146063Y-45959774D01*
X21190000Y-46003711D01*
X21190001Y-47785670D01*
X21186324Y-47823002D01*
X21190001Y-47860335D01*
X21200998Y-47971988D01*
X21212451Y-48009744D01*
X21244454Y-48115248D01*
X21315026Y-48247278D01*
X21371281Y-48315824D01*
X21410000Y-48363003D01*
X21438998Y-48386801D01*
X24238200Y-51186004D01*
X24261998Y-51215002D01*
X24377723Y-51309975D01*
X24509752Y-51380547D01*
X24653013Y-51424004D01*
X24764666Y-51435001D01*
X24764674Y-51435001D01*
X24801999Y-51438677D01*
X24839324Y-51435001D01*
X34608679Y-51435001D01*
X34646001Y-51438677D01*
X34683323Y-51435001D01*
X34683334Y-51435001D01*
X34794987Y-51424004D01*
X34938248Y-51380547D01*
X35070277Y-51309975D01*
X35186002Y-51215002D01*
X35209805Y-51185998D01*
X35585999Y-50809804D01*
X35615002Y-50786002D01*
X35709975Y-50670277D01*
X35780547Y-50538248D01*
X35824004Y-50394987D01*
X35835001Y-50283334D01*
X35835001Y-50283333D01*
X35838678Y-50246001D01*
X35835001Y-50208668D01*
X35835001Y-45632334D01*
X35838678Y-45595001D01*
X35824004Y-45446015D01*
X35780547Y-45302754D01*
X35709975Y-45170725D01*
X35638800Y-45083998D01*
X35615002Y-45055000D01*
X35586003Y-45031202D01*
X35385000Y-44830198D01*
X35385000Y-44658212D01*
X35341383Y-44438933D01*
X35295112Y-44327226D01*
X35331046Y-44260000D01*
X36612197Y-44260000D01*
X41413203Y-49061008D01*
X41436997Y-49090001D01*
X41465990Y-49113795D01*
X41465994Y-49113799D01*
X41536683Y-49171811D01*
X41552722Y-49184974D01*
X41684751Y-49255546D01*
X41828012Y-49299003D01*
X41939665Y-49310000D01*
X41939674Y-49310000D01*
X41976997Y-49313676D01*
X42014320Y-49310000D01*
X44435680Y-49310000D01*
X44473002Y-49313676D01*
X44510324Y-49310000D01*
X44510335Y-49310000D01*
X44621988Y-49299003D01*
X44765249Y-49255546D01*
X44897278Y-49184974D01*
X45013003Y-49090001D01*
X45036806Y-49060997D01*
X48911003Y-45186801D01*
X48940001Y-45163003D01*
X49034974Y-45047278D01*
X49105546Y-44915249D01*
X49149003Y-44771988D01*
X49160000Y-44660335D01*
X49160000Y-44660325D01*
X49163676Y-44623002D01*
X49160000Y-44585679D01*
X49160000Y-35624770D01*
X49240001Y-35559116D01*
X49240001Y-35617844D01*
X49239974Y-35618120D01*
X49240001Y-35651230D01*
X49240001Y-35682419D01*
X49240027Y-35682679D01*
X49268221Y-70263089D01*
X48666995Y-69661864D01*
X48631449Y-69618551D01*
X48458623Y-69476716D01*
X48261447Y-69371324D01*
X48047499Y-69306423D01*
X47985000Y-69300267D01*
X47985000Y-61519248D01*
X47968577Y-61352501D01*
X47903676Y-61138553D01*
X47798284Y-60941377D01*
X47656449Y-60768551D01*
X47483623Y-60626716D01*
X47286446Y-60521324D01*
X47072498Y-60456423D01*
X46850000Y-60434509D01*
X46627501Y-60456423D01*
X46413553Y-60521324D01*
X46216377Y-60626716D01*
X46043551Y-60768551D01*
X45901716Y-60941377D01*
X45796324Y-61138554D01*
X45731423Y-61352502D01*
X45715000Y-61519249D01*
X45715001Y-69954867D01*
X45233012Y-70436857D01*
X45126717Y-70566378D01*
X45021324Y-70763554D01*
X44956423Y-70977502D01*
X44934509Y-71200000D01*
X44956423Y-71422498D01*
X45021324Y-71636446D01*
X45126717Y-71833622D01*
X45268552Y-72006448D01*
X45441378Y-72148283D01*
X45638554Y-72253676D01*
X45852502Y-72318577D01*
X46075000Y-72340491D01*
X46297498Y-72318577D01*
X46511446Y-72253676D01*
X46708622Y-72148283D01*
X46838143Y-72041988D01*
X47320132Y-71560000D01*
X47354869Y-71560000D01*
X47886856Y-72091988D01*
X48016377Y-72198283D01*
X48213553Y-72303675D01*
X48427500Y-72368577D01*
X48649999Y-72390490D01*
X48872498Y-72368577D01*
X49086446Y-72303675D01*
X49269805Y-72205668D01*
X49275052Y-78641459D01*
X49248283Y-78591377D01*
X49141988Y-78461857D01*
X49116996Y-78436865D01*
X49081449Y-78393551D01*
X48908623Y-78251716D01*
X48711447Y-78146324D01*
X48497499Y-78081423D01*
X48330752Y-78065000D01*
X48330751Y-78065000D01*
X48275000Y-78059509D01*
X48219249Y-78065000D01*
X41819248Y-78065000D01*
X41652501Y-78081423D01*
X41438553Y-78146324D01*
X41241377Y-78251716D01*
X41068551Y-78393551D01*
X40926716Y-78566377D01*
X40821324Y-78763553D01*
X40756423Y-78977501D01*
X40734509Y-79200000D01*
X40756423Y-79422499D01*
X40821324Y-79636447D01*
X40926716Y-79833623D01*
X40943321Y-79853856D01*
X40871324Y-79988553D01*
X40806423Y-80202501D01*
X40784509Y-80425000D01*
X40806423Y-80647499D01*
X40871324Y-80861447D01*
X40976716Y-81058623D01*
X41118551Y-81231449D01*
X41291377Y-81373284D01*
X41488553Y-81478676D01*
X41702501Y-81543577D01*
X41869248Y-81560000D01*
X48380752Y-81560000D01*
X48547499Y-81543577D01*
X48761447Y-81478676D01*
X48958623Y-81373284D01*
X49131449Y-81231449D01*
X49273284Y-81058623D01*
X49277017Y-81051638D01*
X49283219Y-88657359D01*
X49206446Y-88616324D01*
X48992498Y-88551423D01*
X48770000Y-88529509D01*
X48547501Y-88551423D01*
X48333553Y-88616324D01*
X48136377Y-88721716D01*
X47963551Y-88863551D01*
X47821716Y-89036377D01*
X47716324Y-89233554D01*
X47651423Y-89447502D01*
X47635000Y-89614249D01*
X47635000Y-89833096D01*
X47620022Y-89826892D01*
X47434552Y-89790000D01*
X47245448Y-89790000D01*
X47059978Y-89826892D01*
X46885269Y-89899259D01*
X46728036Y-90004319D01*
X46594319Y-90138036D01*
X46489259Y-90295269D01*
X46416892Y-90469978D01*
X46380000Y-90655448D01*
X46380000Y-90844552D01*
X46416892Y-91030022D01*
X46489259Y-91204731D01*
X46594319Y-91361964D01*
X46728036Y-91495681D01*
X46885269Y-91600741D01*
X47059978Y-91673108D01*
X47245448Y-91710000D01*
X47434552Y-91710000D01*
X47620022Y-91673108D01*
X47794731Y-91600741D01*
X47916638Y-91519285D01*
X47963552Y-91576449D01*
X48136378Y-91718284D01*
X48333554Y-91823676D01*
X48547502Y-91888577D01*
X48770000Y-91910491D01*
X48992499Y-91888577D01*
X49206447Y-91823676D01*
X49285766Y-91781280D01*
X49286832Y-93089291D01*
X49206446Y-93046324D01*
X48992498Y-92981423D01*
X48770000Y-92959509D01*
X48547501Y-92981423D01*
X48333553Y-93046324D01*
X48136377Y-93151716D01*
X47998340Y-93265000D01*
X41265000Y-93265000D01*
X41265000Y-91666904D01*
X41279978Y-91673108D01*
X41465448Y-91710000D01*
X41654552Y-91710000D01*
X41840022Y-91673108D01*
X42014731Y-91600741D01*
X42171964Y-91495681D01*
X42305681Y-91361964D01*
X42410741Y-91204731D01*
X42483108Y-91030022D01*
X42520000Y-90844552D01*
X42520000Y-90655448D01*
X42483108Y-90469978D01*
X42410741Y-90295269D01*
X42305681Y-90138036D01*
X42171964Y-90004319D01*
X42014731Y-89899259D01*
X41840022Y-89826892D01*
X41654552Y-89790000D01*
X41465448Y-89790000D01*
X41279978Y-89826892D01*
X41265000Y-89833096D01*
X41265000Y-89614248D01*
X41248577Y-89447501D01*
X41183676Y-89233553D01*
X41078284Y-89036377D01*
X40936449Y-88863551D01*
X40763623Y-88721716D01*
X40566446Y-88616324D01*
X40352498Y-88551423D01*
X40130000Y-88529509D01*
X39907501Y-88551423D01*
X39693553Y-88616324D01*
X39496377Y-88721716D01*
X39323551Y-88863551D01*
X39181716Y-89036377D01*
X39076324Y-89233554D01*
X39011423Y-89447502D01*
X38995000Y-89614249D01*
X38995000Y-90164249D01*
X38995001Y-94044240D01*
X38995000Y-94044249D01*
X38995000Y-94344248D01*
X38989509Y-94400000D01*
X38995000Y-94455752D01*
X38995000Y-94755752D01*
X39011423Y-94922499D01*
X39076324Y-95136447D01*
X39181717Y-95333623D01*
X39323552Y-95506449D01*
X39496378Y-95648284D01*
X39693554Y-95753676D01*
X39907502Y-95818577D01*
X40130000Y-95840491D01*
X40352499Y-95818577D01*
X40566447Y-95753676D01*
X40763623Y-95648284D01*
X40901660Y-95535000D01*
X47998341Y-95535000D01*
X48136378Y-95648284D01*
X48333554Y-95753676D01*
X48547502Y-95818577D01*
X48770000Y-95840491D01*
X48992499Y-95818577D01*
X49206447Y-95753676D01*
X49288968Y-95709568D01*
X49289974Y-96942988D01*
X49278516Y-97059846D01*
X49253874Y-97141465D01*
X49213848Y-97216743D01*
X49159966Y-97282808D01*
X49094277Y-97337151D01*
X49019280Y-97377702D01*
X48937839Y-97402912D01*
X48822821Y-97415001D01*
X21082277Y-97414999D01*
X20965154Y-97403515D01*
X20883537Y-97378874D01*
X20808259Y-97338848D01*
X20742189Y-97284963D01*
X20687847Y-97219274D01*
X20647299Y-97144282D01*
X20622089Y-97062840D01*
X20609979Y-96947618D01*
X20604258Y-89931396D01*
X20748061Y-89960000D01*
X20951939Y-89960000D01*
X21151898Y-89920226D01*
X21340256Y-89842205D01*
X21509774Y-89728937D01*
X21653937Y-89584774D01*
X21767205Y-89415256D01*
X21845226Y-89226898D01*
X21885000Y-89026939D01*
X21885000Y-88823061D01*
X21845226Y-88623102D01*
X21767205Y-88434744D01*
X21653937Y-88265226D01*
X21509774Y-88121063D01*
X21340256Y-88007795D01*
X21151898Y-87929774D01*
X20951939Y-87890000D01*
X20748061Y-87890000D01*
X20602617Y-87918930D01*
X20601622Y-86698061D01*
X43165000Y-86698061D01*
X43165000Y-86901939D01*
X43204774Y-87101898D01*
X43282795Y-87290256D01*
X43396063Y-87459774D01*
X43540226Y-87603937D01*
X43709744Y-87717205D01*
X43898102Y-87795226D01*
X44098061Y-87835000D01*
X44301939Y-87835000D01*
X44501898Y-87795226D01*
X44690256Y-87717205D01*
X44715795Y-87700141D01*
X44722397Y-87704552D01*
X44910755Y-87782573D01*
X45110714Y-87822347D01*
X45314592Y-87822347D01*
X45514551Y-87782573D01*
X45702909Y-87704552D01*
X45872427Y-87591284D01*
X45915000Y-87548711D01*
X45915000Y-87651939D01*
X45954774Y-87851898D01*
X46032795Y-88040256D01*
X46146063Y-88209774D01*
X46290226Y-88353937D01*
X46459744Y-88467205D01*
X46648102Y-88545226D01*
X46848061Y-88585000D01*
X47051939Y-88585000D01*
X47251898Y-88545226D01*
X47440256Y-88467205D01*
X47609774Y-88353937D01*
X47753937Y-88209774D01*
X47867205Y-88040256D01*
X47945226Y-87851898D01*
X47985000Y-87651939D01*
X47985000Y-87448061D01*
X47945226Y-87248102D01*
X47867205Y-87059744D01*
X47753937Y-86890226D01*
X47609774Y-86746063D01*
X47440256Y-86632795D01*
X47251898Y-86554774D01*
X47051939Y-86515000D01*
X46848061Y-86515000D01*
X46648102Y-86554774D01*
X46459744Y-86632795D01*
X46290226Y-86746063D01*
X46247653Y-86788636D01*
X46247653Y-86685408D01*
X46207879Y-86485449D01*
X46129858Y-86297091D01*
X46016590Y-86127573D01*
X45872427Y-85983410D01*
X45702909Y-85870142D01*
X45514551Y-85792121D01*
X45314592Y-85752347D01*
X45110714Y-85752347D01*
X44910755Y-85792121D01*
X44722397Y-85870142D01*
X44696858Y-85887206D01*
X44690256Y-85882795D01*
X44501898Y-85804774D01*
X44301939Y-85765000D01*
X44098061Y-85765000D01*
X43898102Y-85804774D01*
X43709744Y-85882795D01*
X43540226Y-85996063D01*
X43396063Y-86140226D01*
X43282795Y-86309744D01*
X43204774Y-86498102D01*
X43165000Y-86698061D01*
X20601622Y-86698061D01*
X20600424Y-85228655D01*
X23178500Y-85228655D01*
X23178500Y-85451345D01*
X23221944Y-85669755D01*
X23307164Y-85875493D01*
X23430883Y-86060652D01*
X23588348Y-86218117D01*
X23773507Y-86341836D01*
X23979245Y-86427056D01*
X24197655Y-86470500D01*
X24420345Y-86470500D01*
X24638755Y-86427056D01*
X24844493Y-86341836D01*
X25029652Y-86218117D01*
X25187117Y-86060652D01*
X25310836Y-85875493D01*
X25325000Y-85841298D01*
X25339164Y-85875493D01*
X25462883Y-86060652D01*
X25620348Y-86218117D01*
X25805507Y-86341836D01*
X26011245Y-86427056D01*
X26229655Y-86470500D01*
X26452345Y-86470500D01*
X26670755Y-86427056D01*
X26876493Y-86341836D01*
X27061652Y-86218117D01*
X27219117Y-86060652D01*
X27342836Y-85875493D01*
X27428056Y-85669755D01*
X27471500Y-85451345D01*
X27471500Y-85228655D01*
X27428056Y-85010245D01*
X27342836Y-84804507D01*
X27219117Y-84619348D01*
X27061652Y-84461883D01*
X26876493Y-84338164D01*
X26670755Y-84252944D01*
X26452345Y-84209500D01*
X26229655Y-84209500D01*
X26011245Y-84252944D01*
X25805507Y-84338164D01*
X25620348Y-84461883D01*
X25462883Y-84619348D01*
X25339164Y-84804507D01*
X25325000Y-84838702D01*
X25310836Y-84804507D01*
X25187117Y-84619348D01*
X25029652Y-84461883D01*
X24844493Y-84338164D01*
X24638755Y-84252944D01*
X24420345Y-84209500D01*
X24197655Y-84209500D01*
X23979245Y-84252944D01*
X23773507Y-84338164D01*
X23588348Y-84461883D01*
X23430883Y-84619348D01*
X23307164Y-84804507D01*
X23221944Y-85010245D01*
X23178500Y-85228655D01*
X20600424Y-85228655D01*
X20598381Y-82723061D01*
X22340000Y-82723061D01*
X22340000Y-82926939D01*
X22379774Y-83126898D01*
X22457795Y-83315256D01*
X22571063Y-83484774D01*
X22715226Y-83628937D01*
X22884744Y-83742205D01*
X23073102Y-83820226D01*
X23273061Y-83860000D01*
X23476939Y-83860000D01*
X23676898Y-83820226D01*
X23865256Y-83742205D01*
X24034774Y-83628937D01*
X24086035Y-83577676D01*
X24123328Y-83574003D01*
X24266589Y-83530546D01*
X24398618Y-83459974D01*
X24514343Y-83365001D01*
X24538146Y-83335997D01*
X24751082Y-83123061D01*
X32390000Y-83123061D01*
X32390000Y-83326939D01*
X32429774Y-83526898D01*
X32507795Y-83715256D01*
X32621063Y-83884774D01*
X32765226Y-84028937D01*
X32934744Y-84142205D01*
X33123102Y-84220226D01*
X33323061Y-84260000D01*
X33526939Y-84260000D01*
X33726898Y-84220226D01*
X33915256Y-84142205D01*
X34084774Y-84028937D01*
X34228937Y-83884774D01*
X34342205Y-83715256D01*
X34420226Y-83526898D01*
X34460000Y-83326939D01*
X34460000Y-83123061D01*
X34420226Y-82923102D01*
X34342205Y-82734744D01*
X34228937Y-82565226D01*
X34084774Y-82421063D01*
X33915256Y-82307795D01*
X33726898Y-82229774D01*
X33526939Y-82190000D01*
X33323061Y-82190000D01*
X33123102Y-82229774D01*
X32934744Y-82307795D01*
X32765226Y-82421063D01*
X32621063Y-82565226D01*
X32507795Y-82734744D01*
X32429774Y-82923102D01*
X32390000Y-83123061D01*
X24751082Y-83123061D01*
X27151082Y-80723061D01*
X32415000Y-80723061D01*
X32415000Y-80926939D01*
X32454774Y-81126898D01*
X32532795Y-81315256D01*
X32646063Y-81484774D01*
X32790226Y-81628937D01*
X32959744Y-81742205D01*
X33148102Y-81820226D01*
X33348061Y-81860000D01*
X33551939Y-81860000D01*
X33751898Y-81820226D01*
X33940256Y-81742205D01*
X34109774Y-81628937D01*
X34253937Y-81484774D01*
X34367205Y-81315256D01*
X34445226Y-81126898D01*
X34485000Y-80926939D01*
X34485000Y-80723061D01*
X34445226Y-80523102D01*
X34367205Y-80334744D01*
X34253937Y-80165226D01*
X34109774Y-80021063D01*
X33940256Y-79907795D01*
X33751898Y-79829774D01*
X33551939Y-79790000D01*
X33348061Y-79790000D01*
X33148102Y-79829774D01*
X32959744Y-79907795D01*
X32790226Y-80021063D01*
X32646063Y-80165226D01*
X32532795Y-80334744D01*
X32454774Y-80523102D01*
X32415000Y-80723061D01*
X27151082Y-80723061D01*
X27598175Y-80275969D01*
X27627172Y-80252172D01*
X27667936Y-80202501D01*
X27722145Y-80136448D01*
X27792717Y-80004418D01*
X27792863Y-80003937D01*
X27836174Y-79861157D01*
X27847171Y-79749504D01*
X27847171Y-79749494D01*
X27850847Y-79712171D01*
X27847171Y-79674849D01*
X27847171Y-79570070D01*
X27917205Y-79465256D01*
X27995226Y-79276898D01*
X28035000Y-79076939D01*
X28035000Y-78873061D01*
X27995226Y-78673102D01*
X27917205Y-78484744D01*
X27803937Y-78315226D01*
X27659774Y-78171063D01*
X27490256Y-78057795D01*
X27301898Y-77979774D01*
X27101939Y-77940000D01*
X26898061Y-77940000D01*
X26698102Y-77979774D01*
X26509744Y-78057795D01*
X26340226Y-78171063D01*
X26196063Y-78315226D01*
X26082795Y-78484744D01*
X26004774Y-78673102D01*
X25965000Y-78873061D01*
X25965000Y-79076939D01*
X26004774Y-79276898D01*
X26050105Y-79386336D01*
X26045652Y-79381883D01*
X25860493Y-79258164D01*
X25654755Y-79172944D01*
X25436345Y-79129500D01*
X25213655Y-79129500D01*
X24995245Y-79172944D01*
X24789507Y-79258164D01*
X24604348Y-79381883D01*
X24446883Y-79539348D01*
X24323164Y-79724507D01*
X24237944Y-79930245D01*
X24194500Y-80148655D01*
X24194500Y-80371345D01*
X24237944Y-80589755D01*
X24323164Y-80795493D01*
X24446883Y-80980652D01*
X24595386Y-81129155D01*
X23830954Y-81893587D01*
X23676898Y-81829774D01*
X23476939Y-81790000D01*
X23273061Y-81790000D01*
X23073102Y-81829774D01*
X22884744Y-81907795D01*
X22715226Y-82021063D01*
X22571063Y-82165226D01*
X22457795Y-82334744D01*
X22379774Y-82523102D01*
X22340000Y-82723061D01*
X20598381Y-82723061D01*
X20592022Y-74923061D01*
X27090000Y-74923061D01*
X27090000Y-75126939D01*
X27129774Y-75326898D01*
X27207795Y-75515256D01*
X27321063Y-75684774D01*
X27465226Y-75828937D01*
X27634744Y-75942205D01*
X27823102Y-76020226D01*
X28023061Y-76060000D01*
X28226939Y-76060000D01*
X28426898Y-76020226D01*
X28615256Y-75942205D01*
X28784774Y-75828937D01*
X28928937Y-75684774D01*
X29042205Y-75515256D01*
X29120226Y-75326898D01*
X29160000Y-75126939D01*
X29160000Y-74923061D01*
X29120226Y-74723102D01*
X29042205Y-74534744D01*
X28928937Y-74365226D01*
X28784774Y-74221063D01*
X28615256Y-74107795D01*
X28426898Y-74029774D01*
X28226939Y-73990000D01*
X28023061Y-73990000D01*
X27823102Y-74029774D01*
X27634744Y-74107795D01*
X27465226Y-74221063D01*
X27321063Y-74365226D01*
X27207795Y-74534744D01*
X27129774Y-74723102D01*
X27090000Y-74923061D01*
X20592022Y-74923061D01*
X20588863Y-71048061D01*
X39340000Y-71048061D01*
X39340000Y-71251939D01*
X39379774Y-71451898D01*
X39457795Y-71640256D01*
X39571063Y-71809774D01*
X39715226Y-71953937D01*
X39884744Y-72067205D01*
X40073102Y-72145226D01*
X40273061Y-72185000D01*
X40476939Y-72185000D01*
X40676898Y-72145226D01*
X40865256Y-72067205D01*
X41034774Y-71953937D01*
X41052880Y-71935831D01*
X42535925Y-73418877D01*
X42535925Y-73481014D01*
X42575699Y-73680973D01*
X42653720Y-73869331D01*
X42711020Y-73955087D01*
X42657795Y-74034744D01*
X42579774Y-74223102D01*
X42540000Y-74423061D01*
X42540000Y-74626939D01*
X42579774Y-74826898D01*
X42657795Y-75015256D01*
X42689362Y-75062500D01*
X42657795Y-75109744D01*
X42579774Y-75298102D01*
X42540000Y-75498061D01*
X42540000Y-75701939D01*
X42579774Y-75901898D01*
X42657795Y-76090256D01*
X42664306Y-76100000D01*
X42657795Y-76109744D01*
X42579774Y-76298102D01*
X42540000Y-76498061D01*
X42540000Y-76701939D01*
X42579774Y-76901898D01*
X42657795Y-77090256D01*
X42771063Y-77259774D01*
X42915226Y-77403937D01*
X43084744Y-77517205D01*
X43273102Y-77595226D01*
X43473061Y-77635000D01*
X43676939Y-77635000D01*
X43876898Y-77595226D01*
X44065256Y-77517205D01*
X44234774Y-77403937D01*
X44354264Y-77284447D01*
X44954603Y-77284447D01*
X44998540Y-77328384D01*
X45168058Y-77441652D01*
X45356416Y-77519673D01*
X45556375Y-77559447D01*
X45760253Y-77559447D01*
X45960212Y-77519673D01*
X46148570Y-77441652D01*
X46318088Y-77328384D01*
X46462251Y-77184221D01*
X46575519Y-77014703D01*
X46653540Y-76826345D01*
X46693314Y-76626386D01*
X46693314Y-76422508D01*
X46653540Y-76222549D01*
X46575519Y-76034191D01*
X46550112Y-75996167D01*
X46620226Y-75826898D01*
X46660000Y-75626939D01*
X46660000Y-75423061D01*
X46620226Y-75223102D01*
X46542205Y-75034744D01*
X46535694Y-75025000D01*
X46542205Y-75015256D01*
X46620226Y-74826898D01*
X46660000Y-74626939D01*
X46660000Y-74423061D01*
X46620226Y-74223102D01*
X46542205Y-74034744D01*
X46428937Y-73865226D01*
X46284774Y-73721063D01*
X46115256Y-73607795D01*
X45926898Y-73529774D01*
X45726939Y-73490000D01*
X45523061Y-73490000D01*
X45323102Y-73529774D01*
X45134744Y-73607795D01*
X44965226Y-73721063D01*
X44921289Y-73765000D01*
X44531346Y-73765000D01*
X44566151Y-73680973D01*
X44605925Y-73481014D01*
X44605925Y-73277136D01*
X44566151Y-73077177D01*
X44488130Y-72888819D01*
X44374862Y-72719301D01*
X44230699Y-72575138D01*
X44061181Y-72461870D01*
X43872823Y-72383849D01*
X43672864Y-72344075D01*
X43610727Y-72344075D01*
X42085000Y-70818349D01*
X42085000Y-59853711D01*
X42128937Y-59809774D01*
X42242205Y-59640256D01*
X42320226Y-59451898D01*
X42325961Y-59423061D01*
X43865000Y-59423061D01*
X43865000Y-59626939D01*
X43904774Y-59826898D01*
X43982795Y-60015256D01*
X44096063Y-60184774D01*
X44240226Y-60328937D01*
X44409744Y-60442205D01*
X44598102Y-60520226D01*
X44798061Y-60560000D01*
X45001939Y-60560000D01*
X45201898Y-60520226D01*
X45390256Y-60442205D01*
X45559774Y-60328937D01*
X45703937Y-60184774D01*
X45817205Y-60015256D01*
X45895226Y-59826898D01*
X45935000Y-59626939D01*
X45935000Y-59423061D01*
X45895226Y-59223102D01*
X45817205Y-59034744D01*
X45703937Y-58865226D01*
X45559774Y-58721063D01*
X45390256Y-58607795D01*
X45201898Y-58529774D01*
X45187400Y-58526890D01*
X46750048Y-58526890D01*
X46750048Y-58773110D01*
X46798083Y-59014598D01*
X46892307Y-59242074D01*
X47029099Y-59446798D01*
X47203202Y-59620901D01*
X47407926Y-59757693D01*
X47635402Y-59851917D01*
X47876890Y-59899952D01*
X48123110Y-59899952D01*
X48364598Y-59851917D01*
X48592074Y-59757693D01*
X48796798Y-59620901D01*
X48970901Y-59446798D01*
X49107693Y-59242074D01*
X49201917Y-59014598D01*
X49249952Y-58773110D01*
X49249952Y-58526890D01*
X49201917Y-58285402D01*
X49107693Y-58057926D01*
X48970901Y-57853202D01*
X48796798Y-57679099D01*
X48592074Y-57542307D01*
X48364598Y-57448083D01*
X48123110Y-57400048D01*
X47876890Y-57400048D01*
X47635402Y-57448083D01*
X47407926Y-57542307D01*
X47203202Y-57679099D01*
X47029099Y-57853202D01*
X46892307Y-58057926D01*
X46798083Y-58285402D01*
X46750048Y-58526890D01*
X45187400Y-58526890D01*
X45001939Y-58490000D01*
X44798061Y-58490000D01*
X44598102Y-58529774D01*
X44409744Y-58607795D01*
X44240226Y-58721063D01*
X44096063Y-58865226D01*
X43982795Y-59034744D01*
X43904774Y-59223102D01*
X43865000Y-59423061D01*
X42325961Y-59423061D01*
X42360000Y-59251939D01*
X42360000Y-59048061D01*
X42320226Y-58848102D01*
X42242205Y-58659744D01*
X42128937Y-58490226D01*
X41984774Y-58346063D01*
X41815256Y-58232795D01*
X41626898Y-58154774D01*
X41426939Y-58115000D01*
X41223061Y-58115000D01*
X41023102Y-58154774D01*
X40834744Y-58232795D01*
X40665226Y-58346063D01*
X40521063Y-58490226D01*
X40407795Y-58659744D01*
X40329774Y-58848102D01*
X40290000Y-59048061D01*
X40290000Y-59251939D01*
X40329774Y-59451898D01*
X40407795Y-59640256D01*
X40521063Y-59809774D01*
X40565000Y-59853711D01*
X40565001Y-70132516D01*
X40476939Y-70115000D01*
X40273061Y-70115000D01*
X40073102Y-70154774D01*
X39884744Y-70232795D01*
X39715226Y-70346063D01*
X39571063Y-70490226D01*
X39457795Y-70659744D01*
X39379774Y-70848102D01*
X39340000Y-71048061D01*
X20588863Y-71048061D01*
X20580709Y-61048061D01*
X25015000Y-61048061D01*
X25015000Y-61251939D01*
X25054774Y-61451898D01*
X25132795Y-61640256D01*
X25246063Y-61809774D01*
X25290000Y-61853711D01*
X25290001Y-64049299D01*
X25182795Y-64209744D01*
X25104774Y-64398102D01*
X25065000Y-64598061D01*
X25065000Y-64801939D01*
X25104774Y-65001898D01*
X25182795Y-65190256D01*
X25296063Y-65359774D01*
X25440226Y-65503937D01*
X25609744Y-65617205D01*
X25798102Y-65695226D01*
X25998061Y-65735000D01*
X26201939Y-65735000D01*
X26401898Y-65695226D01*
X26590256Y-65617205D01*
X26759774Y-65503937D01*
X26903937Y-65359774D01*
X27017205Y-65190256D01*
X27095226Y-65001898D01*
X27135000Y-64801939D01*
X27135000Y-64598061D01*
X27095226Y-64398102D01*
X27017205Y-64209744D01*
X26903937Y-64040226D01*
X26810000Y-63946289D01*
X26810000Y-62519088D01*
X26873102Y-62545226D01*
X27073061Y-62585000D01*
X27276939Y-62585000D01*
X27476898Y-62545226D01*
X27665256Y-62467205D01*
X27834774Y-62353937D01*
X27978937Y-62209774D01*
X28092205Y-62040256D01*
X28170226Y-61851898D01*
X28210000Y-61651939D01*
X28210000Y-61458533D01*
X28276898Y-61445226D01*
X28465256Y-61367205D01*
X28634774Y-61253937D01*
X28778937Y-61109774D01*
X28892205Y-60940256D01*
X28970226Y-60751898D01*
X29010000Y-60551939D01*
X29010000Y-60348061D01*
X28970226Y-60148102D01*
X28892205Y-59959744D01*
X28778937Y-59790226D01*
X28634774Y-59646063D01*
X28465256Y-59532795D01*
X28276898Y-59454774D01*
X28076939Y-59415000D01*
X27935000Y-59415000D01*
X27935000Y-55638713D01*
X28008938Y-55564775D01*
X28122206Y-55395257D01*
X28200227Y-55206899D01*
X28240001Y-55006940D01*
X28240001Y-54803062D01*
X28200227Y-54603103D01*
X28122206Y-54414745D01*
X28008938Y-54245227D01*
X27864775Y-54101064D01*
X27695257Y-53987796D01*
X27506899Y-53909775D01*
X27306940Y-53870001D01*
X27103062Y-53870001D01*
X26903103Y-53909775D01*
X26714745Y-53987796D01*
X26545227Y-54101064D01*
X26401064Y-54245227D01*
X26287796Y-54414745D01*
X26209775Y-54603103D01*
X26170001Y-54803062D01*
X26170001Y-55006940D01*
X26209775Y-55206899D01*
X26287796Y-55395257D01*
X26401064Y-55564775D01*
X26415001Y-55578712D01*
X26415000Y-60180912D01*
X26351898Y-60154774D01*
X26151939Y-60115000D01*
X25948061Y-60115000D01*
X25748102Y-60154774D01*
X25559744Y-60232795D01*
X25390226Y-60346063D01*
X25246063Y-60490226D01*
X25132795Y-60659744D01*
X25054774Y-60848102D01*
X25015000Y-61048061D01*
X20580709Y-61048061D01*
X20560031Y-35688301D01*
X20655820Y-35739502D01*
X20775518Y-35775812D01*
X20900000Y-35788072D01*
X21114250Y-35785000D01*
X21273000Y-35626250D01*
X21273000Y-31777000D01*
X21253000Y-31777000D01*
X21253000Y-31523000D01*
X21273000Y-31523000D01*
X21273000Y-31503000D01*
X21527000Y-31503000D01*
X21527000Y-31523000D01*
%TA.AperFunction,Conductor*%
D18*
G36*
X21527000Y-31523000D02*
G01*
X21547000Y-31523000D01*
X21547000Y-31777000D01*
X21527000Y-31777000D01*
X21527000Y-35626250D01*
X21685750Y-35785000D01*
X21900000Y-35788072D01*
X22024482Y-35775812D01*
X22140001Y-35740770D01*
X22140001Y-38212668D01*
X22136324Y-38250000D01*
X22140001Y-38287333D01*
X22150783Y-38396798D01*
X22150998Y-38398985D01*
X22194454Y-38542246D01*
X22265026Y-38674276D01*
X22336201Y-38761002D01*
X22360000Y-38790001D01*
X22388998Y-38813799D01*
X30125198Y-46550000D01*
X24725301Y-46550000D01*
X24667205Y-46409744D01*
X24553937Y-46240226D01*
X24409774Y-46096063D01*
X24240256Y-45982795D01*
X24051898Y-45904774D01*
X23851939Y-45865000D01*
X23648061Y-45865000D01*
X23448102Y-45904774D01*
X23259744Y-45982795D01*
X23090226Y-46096063D01*
X22946063Y-46240226D01*
X22832795Y-46409744D01*
X22754774Y-46598102D01*
X22715000Y-46798061D01*
X22715000Y-47001939D01*
X22754774Y-47201898D01*
X22832795Y-47390256D01*
X22946063Y-47559774D01*
X23065479Y-47679190D01*
X23040226Y-47696063D01*
X22969044Y-47767245D01*
X22710000Y-47508201D01*
X22710000Y-46003711D01*
X22753937Y-45959774D01*
X22867205Y-45790256D01*
X22945226Y-45601898D01*
X22985000Y-45401939D01*
X22985000Y-45198061D01*
X22945226Y-44998102D01*
X22867205Y-44809744D01*
X22753937Y-44640226D01*
X22609774Y-44496063D01*
X22440256Y-44382795D01*
X22251898Y-44304774D01*
X22051939Y-44265000D01*
X21848061Y-44265000D01*
X21648102Y-44304774D01*
X21459744Y-44382795D01*
X21290226Y-44496063D01*
X21146063Y-44640226D01*
X21032795Y-44809744D01*
X20954774Y-44998102D01*
X20915000Y-45198061D01*
X20915000Y-45401939D01*
X20954774Y-45601898D01*
X21032795Y-45790256D01*
X21146063Y-45959774D01*
X21190000Y-46003711D01*
X21190001Y-47785670D01*
X21186324Y-47823002D01*
X21190001Y-47860335D01*
X21200998Y-47971988D01*
X21212451Y-48009744D01*
X21244454Y-48115248D01*
X21315026Y-48247278D01*
X21371281Y-48315824D01*
X21410000Y-48363003D01*
X21438998Y-48386801D01*
X24238200Y-51186004D01*
X24261998Y-51215002D01*
X24377723Y-51309975D01*
X24509752Y-51380547D01*
X24653013Y-51424004D01*
X24764666Y-51435001D01*
X24764674Y-51435001D01*
X24801999Y-51438677D01*
X24839324Y-51435001D01*
X34608679Y-51435001D01*
X34646001Y-51438677D01*
X34683323Y-51435001D01*
X34683334Y-51435001D01*
X34794987Y-51424004D01*
X34938248Y-51380547D01*
X35070277Y-51309975D01*
X35186002Y-51215002D01*
X35209805Y-51185998D01*
X35585999Y-50809804D01*
X35615002Y-50786002D01*
X35709975Y-50670277D01*
X35780547Y-50538248D01*
X35824004Y-50394987D01*
X35835001Y-50283334D01*
X35835001Y-50283333D01*
X35838678Y-50246001D01*
X35835001Y-50208668D01*
X35835001Y-45632334D01*
X35838678Y-45595001D01*
X35824004Y-45446015D01*
X35780547Y-45302754D01*
X35709975Y-45170725D01*
X35638800Y-45083998D01*
X35615002Y-45055000D01*
X35586003Y-45031202D01*
X35385000Y-44830198D01*
X35385000Y-44658212D01*
X35341383Y-44438933D01*
X35295112Y-44327226D01*
X35331046Y-44260000D01*
X36612197Y-44260000D01*
X41413203Y-49061008D01*
X41436997Y-49090001D01*
X41465990Y-49113795D01*
X41465994Y-49113799D01*
X41536683Y-49171811D01*
X41552722Y-49184974D01*
X41684751Y-49255546D01*
X41828012Y-49299003D01*
X41939665Y-49310000D01*
X41939674Y-49310000D01*
X41976997Y-49313676D01*
X42014320Y-49310000D01*
X44435680Y-49310000D01*
X44473002Y-49313676D01*
X44510324Y-49310000D01*
X44510335Y-49310000D01*
X44621988Y-49299003D01*
X44765249Y-49255546D01*
X44897278Y-49184974D01*
X45013003Y-49090001D01*
X45036806Y-49060997D01*
X48911003Y-45186801D01*
X48940001Y-45163003D01*
X49034974Y-45047278D01*
X49105546Y-44915249D01*
X49149003Y-44771988D01*
X49160000Y-44660335D01*
X49160000Y-44660325D01*
X49163676Y-44623002D01*
X49160000Y-44585679D01*
X49160000Y-35624770D01*
X49240001Y-35559116D01*
X49240001Y-35617844D01*
X49239974Y-35618120D01*
X49240001Y-35651230D01*
X49240001Y-35682419D01*
X49240027Y-35682679D01*
X49268221Y-70263089D01*
X48666995Y-69661864D01*
X48631449Y-69618551D01*
X48458623Y-69476716D01*
X48261447Y-69371324D01*
X48047499Y-69306423D01*
X47985000Y-69300267D01*
X47985000Y-61519248D01*
X47968577Y-61352501D01*
X47903676Y-61138553D01*
X47798284Y-60941377D01*
X47656449Y-60768551D01*
X47483623Y-60626716D01*
X47286446Y-60521324D01*
X47072498Y-60456423D01*
X46850000Y-60434509D01*
X46627501Y-60456423D01*
X46413553Y-60521324D01*
X46216377Y-60626716D01*
X46043551Y-60768551D01*
X45901716Y-60941377D01*
X45796324Y-61138554D01*
X45731423Y-61352502D01*
X45715000Y-61519249D01*
X45715001Y-69954867D01*
X45233012Y-70436857D01*
X45126717Y-70566378D01*
X45021324Y-70763554D01*
X44956423Y-70977502D01*
X44934509Y-71200000D01*
X44956423Y-71422498D01*
X45021324Y-71636446D01*
X45126717Y-71833622D01*
X45268552Y-72006448D01*
X45441378Y-72148283D01*
X45638554Y-72253676D01*
X45852502Y-72318577D01*
X46075000Y-72340491D01*
X46297498Y-72318577D01*
X46511446Y-72253676D01*
X46708622Y-72148283D01*
X46838143Y-72041988D01*
X47320132Y-71560000D01*
X47354869Y-71560000D01*
X47886856Y-72091988D01*
X48016377Y-72198283D01*
X48213553Y-72303675D01*
X48427500Y-72368577D01*
X48649999Y-72390490D01*
X48872498Y-72368577D01*
X49086446Y-72303675D01*
X49269805Y-72205668D01*
X49275052Y-78641459D01*
X49248283Y-78591377D01*
X49141988Y-78461857D01*
X49116996Y-78436865D01*
X49081449Y-78393551D01*
X48908623Y-78251716D01*
X48711447Y-78146324D01*
X48497499Y-78081423D01*
X48330752Y-78065000D01*
X48330751Y-78065000D01*
X48275000Y-78059509D01*
X48219249Y-78065000D01*
X41819248Y-78065000D01*
X41652501Y-78081423D01*
X41438553Y-78146324D01*
X41241377Y-78251716D01*
X41068551Y-78393551D01*
X40926716Y-78566377D01*
X40821324Y-78763553D01*
X40756423Y-78977501D01*
X40734509Y-79200000D01*
X40756423Y-79422499D01*
X40821324Y-79636447D01*
X40926716Y-79833623D01*
X40943321Y-79853856D01*
X40871324Y-79988553D01*
X40806423Y-80202501D01*
X40784509Y-80425000D01*
X40806423Y-80647499D01*
X40871324Y-80861447D01*
X40976716Y-81058623D01*
X41118551Y-81231449D01*
X41291377Y-81373284D01*
X41488553Y-81478676D01*
X41702501Y-81543577D01*
X41869248Y-81560000D01*
X48380752Y-81560000D01*
X48547499Y-81543577D01*
X48761447Y-81478676D01*
X48958623Y-81373284D01*
X49131449Y-81231449D01*
X49273284Y-81058623D01*
X49277017Y-81051638D01*
X49283219Y-88657359D01*
X49206446Y-88616324D01*
X48992498Y-88551423D01*
X48770000Y-88529509D01*
X48547501Y-88551423D01*
X48333553Y-88616324D01*
X48136377Y-88721716D01*
X47963551Y-88863551D01*
X47821716Y-89036377D01*
X47716324Y-89233554D01*
X47651423Y-89447502D01*
X47635000Y-89614249D01*
X47635000Y-89833096D01*
X47620022Y-89826892D01*
X47434552Y-89790000D01*
X47245448Y-89790000D01*
X47059978Y-89826892D01*
X46885269Y-89899259D01*
X46728036Y-90004319D01*
X46594319Y-90138036D01*
X46489259Y-90295269D01*
X46416892Y-90469978D01*
X46380000Y-90655448D01*
X46380000Y-90844552D01*
X46416892Y-91030022D01*
X46489259Y-91204731D01*
X46594319Y-91361964D01*
X46728036Y-91495681D01*
X46885269Y-91600741D01*
X47059978Y-91673108D01*
X47245448Y-91710000D01*
X47434552Y-91710000D01*
X47620022Y-91673108D01*
X47794731Y-91600741D01*
X47916638Y-91519285D01*
X47963552Y-91576449D01*
X48136378Y-91718284D01*
X48333554Y-91823676D01*
X48547502Y-91888577D01*
X48770000Y-91910491D01*
X48992499Y-91888577D01*
X49206447Y-91823676D01*
X49285766Y-91781280D01*
X49286832Y-93089291D01*
X49206446Y-93046324D01*
X48992498Y-92981423D01*
X48770000Y-92959509D01*
X48547501Y-92981423D01*
X48333553Y-93046324D01*
X48136377Y-93151716D01*
X47998340Y-93265000D01*
X41265000Y-93265000D01*
X41265000Y-91666904D01*
X41279978Y-91673108D01*
X41465448Y-91710000D01*
X41654552Y-91710000D01*
X41840022Y-91673108D01*
X42014731Y-91600741D01*
X42171964Y-91495681D01*
X42305681Y-91361964D01*
X42410741Y-91204731D01*
X42483108Y-91030022D01*
X42520000Y-90844552D01*
X42520000Y-90655448D01*
X42483108Y-90469978D01*
X42410741Y-90295269D01*
X42305681Y-90138036D01*
X42171964Y-90004319D01*
X42014731Y-89899259D01*
X41840022Y-89826892D01*
X41654552Y-89790000D01*
X41465448Y-89790000D01*
X41279978Y-89826892D01*
X41265000Y-89833096D01*
X41265000Y-89614248D01*
X41248577Y-89447501D01*
X41183676Y-89233553D01*
X41078284Y-89036377D01*
X40936449Y-88863551D01*
X40763623Y-88721716D01*
X40566446Y-88616324D01*
X40352498Y-88551423D01*
X40130000Y-88529509D01*
X39907501Y-88551423D01*
X39693553Y-88616324D01*
X39496377Y-88721716D01*
X39323551Y-88863551D01*
X39181716Y-89036377D01*
X39076324Y-89233554D01*
X39011423Y-89447502D01*
X38995000Y-89614249D01*
X38995000Y-90164249D01*
X38995001Y-94044240D01*
X38995000Y-94044249D01*
X38995000Y-94344248D01*
X38989509Y-94400000D01*
X38995000Y-94455752D01*
X38995000Y-94755752D01*
X39011423Y-94922499D01*
X39076324Y-95136447D01*
X39181717Y-95333623D01*
X39323552Y-95506449D01*
X39496378Y-95648284D01*
X39693554Y-95753676D01*
X39907502Y-95818577D01*
X40130000Y-95840491D01*
X40352499Y-95818577D01*
X40566447Y-95753676D01*
X40763623Y-95648284D01*
X40901660Y-95535000D01*
X47998341Y-95535000D01*
X48136378Y-95648284D01*
X48333554Y-95753676D01*
X48547502Y-95818577D01*
X48770000Y-95840491D01*
X48992499Y-95818577D01*
X49206447Y-95753676D01*
X49288968Y-95709568D01*
X49289974Y-96942988D01*
X49278516Y-97059846D01*
X49253874Y-97141465D01*
X49213848Y-97216743D01*
X49159966Y-97282808D01*
X49094277Y-97337151D01*
X49019280Y-97377702D01*
X48937839Y-97402912D01*
X48822821Y-97415001D01*
X21082277Y-97414999D01*
X20965154Y-97403515D01*
X20883537Y-97378874D01*
X20808259Y-97338848D01*
X20742189Y-97284963D01*
X20687847Y-97219274D01*
X20647299Y-97144282D01*
X20622089Y-97062840D01*
X20609979Y-96947618D01*
X20604258Y-89931396D01*
X20748061Y-89960000D01*
X20951939Y-89960000D01*
X21151898Y-89920226D01*
X21340256Y-89842205D01*
X21509774Y-89728937D01*
X21653937Y-89584774D01*
X21767205Y-89415256D01*
X21845226Y-89226898D01*
X21885000Y-89026939D01*
X21885000Y-88823061D01*
X21845226Y-88623102D01*
X21767205Y-88434744D01*
X21653937Y-88265226D01*
X21509774Y-88121063D01*
X21340256Y-88007795D01*
X21151898Y-87929774D01*
X20951939Y-87890000D01*
X20748061Y-87890000D01*
X20602617Y-87918930D01*
X20601622Y-86698061D01*
X43165000Y-86698061D01*
X43165000Y-86901939D01*
X43204774Y-87101898D01*
X43282795Y-87290256D01*
X43396063Y-87459774D01*
X43540226Y-87603937D01*
X43709744Y-87717205D01*
X43898102Y-87795226D01*
X44098061Y-87835000D01*
X44301939Y-87835000D01*
X44501898Y-87795226D01*
X44690256Y-87717205D01*
X44715795Y-87700141D01*
X44722397Y-87704552D01*
X44910755Y-87782573D01*
X45110714Y-87822347D01*
X45314592Y-87822347D01*
X45514551Y-87782573D01*
X45702909Y-87704552D01*
X45872427Y-87591284D01*
X45915000Y-87548711D01*
X45915000Y-87651939D01*
X45954774Y-87851898D01*
X46032795Y-88040256D01*
X46146063Y-88209774D01*
X46290226Y-88353937D01*
X46459744Y-88467205D01*
X46648102Y-88545226D01*
X46848061Y-88585000D01*
X47051939Y-88585000D01*
X47251898Y-88545226D01*
X47440256Y-88467205D01*
X47609774Y-88353937D01*
X47753937Y-88209774D01*
X47867205Y-88040256D01*
X47945226Y-87851898D01*
X47985000Y-87651939D01*
X47985000Y-87448061D01*
X47945226Y-87248102D01*
X47867205Y-87059744D01*
X47753937Y-86890226D01*
X47609774Y-86746063D01*
X47440256Y-86632795D01*
X47251898Y-86554774D01*
X47051939Y-86515000D01*
X46848061Y-86515000D01*
X46648102Y-86554774D01*
X46459744Y-86632795D01*
X46290226Y-86746063D01*
X46247653Y-86788636D01*
X46247653Y-86685408D01*
X46207879Y-86485449D01*
X46129858Y-86297091D01*
X46016590Y-86127573D01*
X45872427Y-85983410D01*
X45702909Y-85870142D01*
X45514551Y-85792121D01*
X45314592Y-85752347D01*
X45110714Y-85752347D01*
X44910755Y-85792121D01*
X44722397Y-85870142D01*
X44696858Y-85887206D01*
X44690256Y-85882795D01*
X44501898Y-85804774D01*
X44301939Y-85765000D01*
X44098061Y-85765000D01*
X43898102Y-85804774D01*
X43709744Y-85882795D01*
X43540226Y-85996063D01*
X43396063Y-86140226D01*
X43282795Y-86309744D01*
X43204774Y-86498102D01*
X43165000Y-86698061D01*
X20601622Y-86698061D01*
X20600424Y-85228655D01*
X23178500Y-85228655D01*
X23178500Y-85451345D01*
X23221944Y-85669755D01*
X23307164Y-85875493D01*
X23430883Y-86060652D01*
X23588348Y-86218117D01*
X23773507Y-86341836D01*
X23979245Y-86427056D01*
X24197655Y-86470500D01*
X24420345Y-86470500D01*
X24638755Y-86427056D01*
X24844493Y-86341836D01*
X25029652Y-86218117D01*
X25187117Y-86060652D01*
X25310836Y-85875493D01*
X25325000Y-85841298D01*
X25339164Y-85875493D01*
X25462883Y-86060652D01*
X25620348Y-86218117D01*
X25805507Y-86341836D01*
X26011245Y-86427056D01*
X26229655Y-86470500D01*
X26452345Y-86470500D01*
X26670755Y-86427056D01*
X26876493Y-86341836D01*
X27061652Y-86218117D01*
X27219117Y-86060652D01*
X27342836Y-85875493D01*
X27428056Y-85669755D01*
X27471500Y-85451345D01*
X27471500Y-85228655D01*
X27428056Y-85010245D01*
X27342836Y-84804507D01*
X27219117Y-84619348D01*
X27061652Y-84461883D01*
X26876493Y-84338164D01*
X26670755Y-84252944D01*
X26452345Y-84209500D01*
X26229655Y-84209500D01*
X26011245Y-84252944D01*
X25805507Y-84338164D01*
X25620348Y-84461883D01*
X25462883Y-84619348D01*
X25339164Y-84804507D01*
X25325000Y-84838702D01*
X25310836Y-84804507D01*
X25187117Y-84619348D01*
X25029652Y-84461883D01*
X24844493Y-84338164D01*
X24638755Y-84252944D01*
X24420345Y-84209500D01*
X24197655Y-84209500D01*
X23979245Y-84252944D01*
X23773507Y-84338164D01*
X23588348Y-84461883D01*
X23430883Y-84619348D01*
X23307164Y-84804507D01*
X23221944Y-85010245D01*
X23178500Y-85228655D01*
X20600424Y-85228655D01*
X20598381Y-82723061D01*
X22340000Y-82723061D01*
X22340000Y-82926939D01*
X22379774Y-83126898D01*
X22457795Y-83315256D01*
X22571063Y-83484774D01*
X22715226Y-83628937D01*
X22884744Y-83742205D01*
X23073102Y-83820226D01*
X23273061Y-83860000D01*
X23476939Y-83860000D01*
X23676898Y-83820226D01*
X23865256Y-83742205D01*
X24034774Y-83628937D01*
X24086035Y-83577676D01*
X24123328Y-83574003D01*
X24266589Y-83530546D01*
X24398618Y-83459974D01*
X24514343Y-83365001D01*
X24538146Y-83335997D01*
X24751082Y-83123061D01*
X32390000Y-83123061D01*
X32390000Y-83326939D01*
X32429774Y-83526898D01*
X32507795Y-83715256D01*
X32621063Y-83884774D01*
X32765226Y-84028937D01*
X32934744Y-84142205D01*
X33123102Y-84220226D01*
X33323061Y-84260000D01*
X33526939Y-84260000D01*
X33726898Y-84220226D01*
X33915256Y-84142205D01*
X34084774Y-84028937D01*
X34228937Y-83884774D01*
X34342205Y-83715256D01*
X34420226Y-83526898D01*
X34460000Y-83326939D01*
X34460000Y-83123061D01*
X34420226Y-82923102D01*
X34342205Y-82734744D01*
X34228937Y-82565226D01*
X34084774Y-82421063D01*
X33915256Y-82307795D01*
X33726898Y-82229774D01*
X33526939Y-82190000D01*
X33323061Y-82190000D01*
X33123102Y-82229774D01*
X32934744Y-82307795D01*
X32765226Y-82421063D01*
X32621063Y-82565226D01*
X32507795Y-82734744D01*
X32429774Y-82923102D01*
X32390000Y-83123061D01*
X24751082Y-83123061D01*
X27151082Y-80723061D01*
X32415000Y-80723061D01*
X32415000Y-80926939D01*
X32454774Y-81126898D01*
X32532795Y-81315256D01*
X32646063Y-81484774D01*
X32790226Y-81628937D01*
X32959744Y-81742205D01*
X33148102Y-81820226D01*
X33348061Y-81860000D01*
X33551939Y-81860000D01*
X33751898Y-81820226D01*
X33940256Y-81742205D01*
X34109774Y-81628937D01*
X34253937Y-81484774D01*
X34367205Y-81315256D01*
X34445226Y-81126898D01*
X34485000Y-80926939D01*
X34485000Y-80723061D01*
X34445226Y-80523102D01*
X34367205Y-80334744D01*
X34253937Y-80165226D01*
X34109774Y-80021063D01*
X33940256Y-79907795D01*
X33751898Y-79829774D01*
X33551939Y-79790000D01*
X33348061Y-79790000D01*
X33148102Y-79829774D01*
X32959744Y-79907795D01*
X32790226Y-80021063D01*
X32646063Y-80165226D01*
X32532795Y-80334744D01*
X32454774Y-80523102D01*
X32415000Y-80723061D01*
X27151082Y-80723061D01*
X27598175Y-80275969D01*
X27627172Y-80252172D01*
X27667936Y-80202501D01*
X27722145Y-80136448D01*
X27792717Y-80004418D01*
X27792863Y-80003937D01*
X27836174Y-79861157D01*
X27847171Y-79749504D01*
X27847171Y-79749494D01*
X27850847Y-79712171D01*
X27847171Y-79674849D01*
X27847171Y-79570070D01*
X27917205Y-79465256D01*
X27995226Y-79276898D01*
X28035000Y-79076939D01*
X28035000Y-78873061D01*
X27995226Y-78673102D01*
X27917205Y-78484744D01*
X27803937Y-78315226D01*
X27659774Y-78171063D01*
X27490256Y-78057795D01*
X27301898Y-77979774D01*
X27101939Y-77940000D01*
X26898061Y-77940000D01*
X26698102Y-77979774D01*
X26509744Y-78057795D01*
X26340226Y-78171063D01*
X26196063Y-78315226D01*
X26082795Y-78484744D01*
X26004774Y-78673102D01*
X25965000Y-78873061D01*
X25965000Y-79076939D01*
X26004774Y-79276898D01*
X26050105Y-79386336D01*
X26045652Y-79381883D01*
X25860493Y-79258164D01*
X25654755Y-79172944D01*
X25436345Y-79129500D01*
X25213655Y-79129500D01*
X24995245Y-79172944D01*
X24789507Y-79258164D01*
X24604348Y-79381883D01*
X24446883Y-79539348D01*
X24323164Y-79724507D01*
X24237944Y-79930245D01*
X24194500Y-80148655D01*
X24194500Y-80371345D01*
X24237944Y-80589755D01*
X24323164Y-80795493D01*
X24446883Y-80980652D01*
X24595386Y-81129155D01*
X23830954Y-81893587D01*
X23676898Y-81829774D01*
X23476939Y-81790000D01*
X23273061Y-81790000D01*
X23073102Y-81829774D01*
X22884744Y-81907795D01*
X22715226Y-82021063D01*
X22571063Y-82165226D01*
X22457795Y-82334744D01*
X22379774Y-82523102D01*
X22340000Y-82723061D01*
X20598381Y-82723061D01*
X20592022Y-74923061D01*
X27090000Y-74923061D01*
X27090000Y-75126939D01*
X27129774Y-75326898D01*
X27207795Y-75515256D01*
X27321063Y-75684774D01*
X27465226Y-75828937D01*
X27634744Y-75942205D01*
X27823102Y-76020226D01*
X28023061Y-76060000D01*
X28226939Y-76060000D01*
X28426898Y-76020226D01*
X28615256Y-75942205D01*
X28784774Y-75828937D01*
X28928937Y-75684774D01*
X29042205Y-75515256D01*
X29120226Y-75326898D01*
X29160000Y-75126939D01*
X29160000Y-74923061D01*
X29120226Y-74723102D01*
X29042205Y-74534744D01*
X28928937Y-74365226D01*
X28784774Y-74221063D01*
X28615256Y-74107795D01*
X28426898Y-74029774D01*
X28226939Y-73990000D01*
X28023061Y-73990000D01*
X27823102Y-74029774D01*
X27634744Y-74107795D01*
X27465226Y-74221063D01*
X27321063Y-74365226D01*
X27207795Y-74534744D01*
X27129774Y-74723102D01*
X27090000Y-74923061D01*
X20592022Y-74923061D01*
X20588863Y-71048061D01*
X39340000Y-71048061D01*
X39340000Y-71251939D01*
X39379774Y-71451898D01*
X39457795Y-71640256D01*
X39571063Y-71809774D01*
X39715226Y-71953937D01*
X39884744Y-72067205D01*
X40073102Y-72145226D01*
X40273061Y-72185000D01*
X40476939Y-72185000D01*
X40676898Y-72145226D01*
X40865256Y-72067205D01*
X41034774Y-71953937D01*
X41052880Y-71935831D01*
X42535925Y-73418877D01*
X42535925Y-73481014D01*
X42575699Y-73680973D01*
X42653720Y-73869331D01*
X42711020Y-73955087D01*
X42657795Y-74034744D01*
X42579774Y-74223102D01*
X42540000Y-74423061D01*
X42540000Y-74626939D01*
X42579774Y-74826898D01*
X42657795Y-75015256D01*
X42689362Y-75062500D01*
X42657795Y-75109744D01*
X42579774Y-75298102D01*
X42540000Y-75498061D01*
X42540000Y-75701939D01*
X42579774Y-75901898D01*
X42657795Y-76090256D01*
X42664306Y-76100000D01*
X42657795Y-76109744D01*
X42579774Y-76298102D01*
X42540000Y-76498061D01*
X42540000Y-76701939D01*
X42579774Y-76901898D01*
X42657795Y-77090256D01*
X42771063Y-77259774D01*
X42915226Y-77403937D01*
X43084744Y-77517205D01*
X43273102Y-77595226D01*
X43473061Y-77635000D01*
X43676939Y-77635000D01*
X43876898Y-77595226D01*
X44065256Y-77517205D01*
X44234774Y-77403937D01*
X44354264Y-77284447D01*
X44954603Y-77284447D01*
X44998540Y-77328384D01*
X45168058Y-77441652D01*
X45356416Y-77519673D01*
X45556375Y-77559447D01*
X45760253Y-77559447D01*
X45960212Y-77519673D01*
X46148570Y-77441652D01*
X46318088Y-77328384D01*
X46462251Y-77184221D01*
X46575519Y-77014703D01*
X46653540Y-76826345D01*
X46693314Y-76626386D01*
X46693314Y-76422508D01*
X46653540Y-76222549D01*
X46575519Y-76034191D01*
X46550112Y-75996167D01*
X46620226Y-75826898D01*
X46660000Y-75626939D01*
X46660000Y-75423061D01*
X46620226Y-75223102D01*
X46542205Y-75034744D01*
X46535694Y-75025000D01*
X46542205Y-75015256D01*
X46620226Y-74826898D01*
X46660000Y-74626939D01*
X46660000Y-74423061D01*
X46620226Y-74223102D01*
X46542205Y-74034744D01*
X46428937Y-73865226D01*
X46284774Y-73721063D01*
X46115256Y-73607795D01*
X45926898Y-73529774D01*
X45726939Y-73490000D01*
X45523061Y-73490000D01*
X45323102Y-73529774D01*
X45134744Y-73607795D01*
X44965226Y-73721063D01*
X44921289Y-73765000D01*
X44531346Y-73765000D01*
X44566151Y-73680973D01*
X44605925Y-73481014D01*
X44605925Y-73277136D01*
X44566151Y-73077177D01*
X44488130Y-72888819D01*
X44374862Y-72719301D01*
X44230699Y-72575138D01*
X44061181Y-72461870D01*
X43872823Y-72383849D01*
X43672864Y-72344075D01*
X43610727Y-72344075D01*
X42085000Y-70818349D01*
X42085000Y-59853711D01*
X42128937Y-59809774D01*
X42242205Y-59640256D01*
X42320226Y-59451898D01*
X42325961Y-59423061D01*
X43865000Y-59423061D01*
X43865000Y-59626939D01*
X43904774Y-59826898D01*
X43982795Y-60015256D01*
X44096063Y-60184774D01*
X44240226Y-60328937D01*
X44409744Y-60442205D01*
X44598102Y-60520226D01*
X44798061Y-60560000D01*
X45001939Y-60560000D01*
X45201898Y-60520226D01*
X45390256Y-60442205D01*
X45559774Y-60328937D01*
X45703937Y-60184774D01*
X45817205Y-60015256D01*
X45895226Y-59826898D01*
X45935000Y-59626939D01*
X45935000Y-59423061D01*
X45895226Y-59223102D01*
X45817205Y-59034744D01*
X45703937Y-58865226D01*
X45559774Y-58721063D01*
X45390256Y-58607795D01*
X45201898Y-58529774D01*
X45187400Y-58526890D01*
X46750048Y-58526890D01*
X46750048Y-58773110D01*
X46798083Y-59014598D01*
X46892307Y-59242074D01*
X47029099Y-59446798D01*
X47203202Y-59620901D01*
X47407926Y-59757693D01*
X47635402Y-59851917D01*
X47876890Y-59899952D01*
X48123110Y-59899952D01*
X48364598Y-59851917D01*
X48592074Y-59757693D01*
X48796798Y-59620901D01*
X48970901Y-59446798D01*
X49107693Y-59242074D01*
X49201917Y-59014598D01*
X49249952Y-58773110D01*
X49249952Y-58526890D01*
X49201917Y-58285402D01*
X49107693Y-58057926D01*
X48970901Y-57853202D01*
X48796798Y-57679099D01*
X48592074Y-57542307D01*
X48364598Y-57448083D01*
X48123110Y-57400048D01*
X47876890Y-57400048D01*
X47635402Y-57448083D01*
X47407926Y-57542307D01*
X47203202Y-57679099D01*
X47029099Y-57853202D01*
X46892307Y-58057926D01*
X46798083Y-58285402D01*
X46750048Y-58526890D01*
X45187400Y-58526890D01*
X45001939Y-58490000D01*
X44798061Y-58490000D01*
X44598102Y-58529774D01*
X44409744Y-58607795D01*
X44240226Y-58721063D01*
X44096063Y-58865226D01*
X43982795Y-59034744D01*
X43904774Y-59223102D01*
X43865000Y-59423061D01*
X42325961Y-59423061D01*
X42360000Y-59251939D01*
X42360000Y-59048061D01*
X42320226Y-58848102D01*
X42242205Y-58659744D01*
X42128937Y-58490226D01*
X41984774Y-58346063D01*
X41815256Y-58232795D01*
X41626898Y-58154774D01*
X41426939Y-58115000D01*
X41223061Y-58115000D01*
X41023102Y-58154774D01*
X40834744Y-58232795D01*
X40665226Y-58346063D01*
X40521063Y-58490226D01*
X40407795Y-58659744D01*
X40329774Y-58848102D01*
X40290000Y-59048061D01*
X40290000Y-59251939D01*
X40329774Y-59451898D01*
X40407795Y-59640256D01*
X40521063Y-59809774D01*
X40565000Y-59853711D01*
X40565001Y-70132516D01*
X40476939Y-70115000D01*
X40273061Y-70115000D01*
X40073102Y-70154774D01*
X39884744Y-70232795D01*
X39715226Y-70346063D01*
X39571063Y-70490226D01*
X39457795Y-70659744D01*
X39379774Y-70848102D01*
X39340000Y-71048061D01*
X20588863Y-71048061D01*
X20580709Y-61048061D01*
X25015000Y-61048061D01*
X25015000Y-61251939D01*
X25054774Y-61451898D01*
X25132795Y-61640256D01*
X25246063Y-61809774D01*
X25290000Y-61853711D01*
X25290001Y-64049299D01*
X25182795Y-64209744D01*
X25104774Y-64398102D01*
X25065000Y-64598061D01*
X25065000Y-64801939D01*
X25104774Y-65001898D01*
X25182795Y-65190256D01*
X25296063Y-65359774D01*
X25440226Y-65503937D01*
X25609744Y-65617205D01*
X25798102Y-65695226D01*
X25998061Y-65735000D01*
X26201939Y-65735000D01*
X26401898Y-65695226D01*
X26590256Y-65617205D01*
X26759774Y-65503937D01*
X26903937Y-65359774D01*
X27017205Y-65190256D01*
X27095226Y-65001898D01*
X27135000Y-64801939D01*
X27135000Y-64598061D01*
X27095226Y-64398102D01*
X27017205Y-64209744D01*
X26903937Y-64040226D01*
X26810000Y-63946289D01*
X26810000Y-62519088D01*
X26873102Y-62545226D01*
X27073061Y-62585000D01*
X27276939Y-62585000D01*
X27476898Y-62545226D01*
X27665256Y-62467205D01*
X27834774Y-62353937D01*
X27978937Y-62209774D01*
X28092205Y-62040256D01*
X28170226Y-61851898D01*
X28210000Y-61651939D01*
X28210000Y-61458533D01*
X28276898Y-61445226D01*
X28465256Y-61367205D01*
X28634774Y-61253937D01*
X28778937Y-61109774D01*
X28892205Y-60940256D01*
X28970226Y-60751898D01*
X29010000Y-60551939D01*
X29010000Y-60348061D01*
X28970226Y-60148102D01*
X28892205Y-59959744D01*
X28778937Y-59790226D01*
X28634774Y-59646063D01*
X28465256Y-59532795D01*
X28276898Y-59454774D01*
X28076939Y-59415000D01*
X27935000Y-59415000D01*
X27935000Y-55638713D01*
X28008938Y-55564775D01*
X28122206Y-55395257D01*
X28200227Y-55206899D01*
X28240001Y-55006940D01*
X28240001Y-54803062D01*
X28200227Y-54603103D01*
X28122206Y-54414745D01*
X28008938Y-54245227D01*
X27864775Y-54101064D01*
X27695257Y-53987796D01*
X27506899Y-53909775D01*
X27306940Y-53870001D01*
X27103062Y-53870001D01*
X26903103Y-53909775D01*
X26714745Y-53987796D01*
X26545227Y-54101064D01*
X26401064Y-54245227D01*
X26287796Y-54414745D01*
X26209775Y-54603103D01*
X26170001Y-54803062D01*
X26170001Y-55006940D01*
X26209775Y-55206899D01*
X26287796Y-55395257D01*
X26401064Y-55564775D01*
X26415001Y-55578712D01*
X26415000Y-60180912D01*
X26351898Y-60154774D01*
X26151939Y-60115000D01*
X25948061Y-60115000D01*
X25748102Y-60154774D01*
X25559744Y-60232795D01*
X25390226Y-60346063D01*
X25246063Y-60490226D01*
X25132795Y-60659744D01*
X25054774Y-60848102D01*
X25015000Y-61048061D01*
X20580709Y-61048061D01*
X20560031Y-35688301D01*
X20655820Y-35739502D01*
X20775518Y-35775812D01*
X20900000Y-35788072D01*
X21114250Y-35785000D01*
X21273000Y-35626250D01*
X21273000Y-31777000D01*
X21253000Y-31777000D01*
X21253000Y-31523000D01*
X21273000Y-31523000D01*
X21273000Y-31503000D01*
X21527000Y-31503000D01*
X21527000Y-31523000D01*
G37*
%TD.AperFunction*%
D17*
X33262877Y-49289794D02*
X33172554Y-49493136D01*
X33155881Y-49548126D01*
X33282046Y-49723000D01*
X34123000Y-49723000D01*
X34123000Y-49711974D01*
X34138212Y-49715000D01*
X34315001Y-49715000D01*
X34315001Y-49915001D01*
X25116801Y-49915001D01*
X24461800Y-49260000D01*
X33283895Y-49260000D01*
X33262877Y-49289794D01*
%TA.AperFunction,Conductor*%
D18*
G36*
X33262877Y-49289794D02*
G01*
X33172554Y-49493136D01*
X33155881Y-49548126D01*
X33282046Y-49723000D01*
X34123000Y-49723000D01*
X34123000Y-49711974D01*
X34138212Y-49715000D01*
X34315001Y-49715000D01*
X34315001Y-49915001D01*
X25116801Y-49915001D01*
X24461800Y-49260000D01*
X33283895Y-49260000D01*
X33262877Y-49289794D01*
G37*
%TD.AperFunction*%
D17*
X45527000Y-31523000D02*
X45547000Y-31523000D01*
X45547000Y-31777000D01*
X45527000Y-31777000D01*
X45527000Y-35626250D01*
X45685750Y-35785000D01*
X45900000Y-35788072D01*
X46024482Y-35775812D01*
X46144180Y-35739502D01*
X46244966Y-35685630D01*
X46310150Y-35720472D01*
X46476746Y-35771008D01*
X46650000Y-35788072D01*
X47150000Y-35788072D01*
X47323254Y-35771008D01*
X47489850Y-35720472D01*
X47640000Y-35640215D01*
X47640001Y-44308199D01*
X45180956Y-46767245D01*
X45109774Y-46696063D01*
X44940256Y-46582795D01*
X44751898Y-46504774D01*
X44551939Y-46465000D01*
X44348061Y-46465000D01*
X44148102Y-46504774D01*
X43959744Y-46582795D01*
X43790226Y-46696063D01*
X43746289Y-46740000D01*
X42703711Y-46740000D01*
X42659774Y-46696063D01*
X42490256Y-46582795D01*
X42301898Y-46504774D01*
X42101939Y-46465000D01*
X41898061Y-46465000D01*
X41698102Y-46504774D01*
X41509744Y-46582795D01*
X41340226Y-46696063D01*
X41269045Y-46767244D01*
X37490802Y-42989003D01*
X37466999Y-42959999D01*
X37351274Y-42865026D01*
X37219245Y-42794454D01*
X37075984Y-42750997D01*
X36964331Y-42740000D01*
X36964320Y-42740000D01*
X36926998Y-42736324D01*
X36889676Y-42740000D01*
X35331046Y-42740000D01*
X35280537Y-42645506D01*
X35201185Y-42548815D01*
X35104494Y-42469463D01*
X34994180Y-42410498D01*
X34874482Y-42374188D01*
X34750000Y-42361928D01*
X33750000Y-42361928D01*
X33625518Y-42374188D01*
X33505820Y-42410498D01*
X33395506Y-42469463D01*
X33298815Y-42548815D01*
X33219463Y-42645506D01*
X33168954Y-42740000D01*
X29101212Y-42740000D01*
X25160000Y-38798789D01*
X25160000Y-37526890D01*
X29600048Y-37526890D01*
X29600048Y-37773110D01*
X29648083Y-38014598D01*
X29742307Y-38242074D01*
X29879099Y-38446798D01*
X30053202Y-38620901D01*
X30257926Y-38757693D01*
X30485402Y-38851917D01*
X30726890Y-38899952D01*
X30973110Y-38899952D01*
X31214598Y-38851917D01*
X31442074Y-38757693D01*
X31646798Y-38620901D01*
X31820901Y-38446798D01*
X31957693Y-38242074D01*
X32051917Y-38014598D01*
X32099952Y-37773110D01*
X32099952Y-37526890D01*
X32090007Y-37476890D01*
X35800048Y-37476890D01*
X35800048Y-37723110D01*
X35848083Y-37964598D01*
X35942307Y-38192074D01*
X36079099Y-38396798D01*
X36253202Y-38570901D01*
X36457926Y-38707693D01*
X36685402Y-38801917D01*
X36926890Y-38849952D01*
X37173110Y-38849952D01*
X37414598Y-38801917D01*
X37642074Y-38707693D01*
X37846798Y-38570901D01*
X38020901Y-38396798D01*
X38157693Y-38192074D01*
X38251917Y-37964598D01*
X38299952Y-37723110D01*
X38299952Y-37476890D01*
X38251917Y-37235402D01*
X38157693Y-37007926D01*
X38020901Y-36803202D01*
X37846798Y-36629099D01*
X37642074Y-36492307D01*
X37414598Y-36398083D01*
X37173110Y-36350048D01*
X36926890Y-36350048D01*
X36685402Y-36398083D01*
X36457926Y-36492307D01*
X36253202Y-36629099D01*
X36079099Y-36803202D01*
X35942307Y-37007926D01*
X35848083Y-37235402D01*
X35800048Y-37476890D01*
X32090007Y-37476890D01*
X32051917Y-37285402D01*
X31957693Y-37057926D01*
X31820901Y-36853202D01*
X31646798Y-36679099D01*
X31442074Y-36542307D01*
X31214598Y-36448083D01*
X30973110Y-36400048D01*
X30726890Y-36400048D01*
X30485402Y-36448083D01*
X30257926Y-36542307D01*
X30053202Y-36679099D01*
X29879099Y-36853202D01*
X29742307Y-37057926D01*
X29648083Y-37285402D01*
X29600048Y-37526890D01*
X25160000Y-37526890D01*
X25160000Y-35624770D01*
X25277962Y-35527962D01*
X25388405Y-35393386D01*
X25424587Y-35325695D01*
X25507491Y-35479023D01*
X25540930Y-35528599D01*
X25573697Y-35578672D01*
X25579521Y-35585813D01*
X25716365Y-35751228D01*
X25758783Y-35793350D01*
X25800662Y-35836116D01*
X25807763Y-35841990D01*
X25974130Y-35977676D01*
X26023941Y-36010770D01*
X26073313Y-36044576D01*
X26081419Y-36048959D01*
X26270972Y-36149746D01*
X26326273Y-36172539D01*
X26381258Y-36196106D01*
X26390062Y-36198831D01*
X26595581Y-36260881D01*
X26654273Y-36272502D01*
X26712774Y-36284937D01*
X26721936Y-36285900D01*
X26721938Y-36285900D01*
X26935597Y-36306849D01*
X26935608Y-36306849D01*
X26967581Y-36309998D01*
X42832418Y-36310000D01*
X42860747Y-36307210D01*
X42867495Y-36307257D01*
X42876666Y-36306358D01*
X43090173Y-36283918D01*
X43148776Y-36271888D01*
X43207534Y-36260680D01*
X43216356Y-36258016D01*
X43421436Y-36194532D01*
X43476539Y-36171368D01*
X43532042Y-36148944D01*
X43540179Y-36144617D01*
X43729023Y-36042509D01*
X43778586Y-36009079D01*
X43828669Y-35976306D01*
X43835810Y-35970481D01*
X44001226Y-35833638D01*
X44043366Y-35791203D01*
X44086119Y-35749337D01*
X44091992Y-35742236D01*
X44227677Y-35575869D01*
X44260769Y-35526061D01*
X44294575Y-35476689D01*
X44298958Y-35468583D01*
X44324545Y-35420460D01*
X44369463Y-35504494D01*
X44448815Y-35601185D01*
X44545506Y-35680537D01*
X44655820Y-35739502D01*
X44775518Y-35775812D01*
X44900000Y-35788072D01*
X45114250Y-35785000D01*
X45273000Y-35626250D01*
X45273000Y-31777000D01*
X45253000Y-31777000D01*
X45253000Y-31523000D01*
X45273000Y-31523000D01*
X45273000Y-31503000D01*
X45527000Y-31503000D01*
X45527000Y-31523000D01*
%TA.AperFunction,Conductor*%
D18*
G36*
X45527000Y-31523000D02*
G01*
X45547000Y-31523000D01*
X45547000Y-31777000D01*
X45527000Y-31777000D01*
X45527000Y-35626250D01*
X45685750Y-35785000D01*
X45900000Y-35788072D01*
X46024482Y-35775812D01*
X46144180Y-35739502D01*
X46244966Y-35685630D01*
X46310150Y-35720472D01*
X46476746Y-35771008D01*
X46650000Y-35788072D01*
X47150000Y-35788072D01*
X47323254Y-35771008D01*
X47489850Y-35720472D01*
X47640000Y-35640215D01*
X47640001Y-44308199D01*
X45180956Y-46767245D01*
X45109774Y-46696063D01*
X44940256Y-46582795D01*
X44751898Y-46504774D01*
X44551939Y-46465000D01*
X44348061Y-46465000D01*
X44148102Y-46504774D01*
X43959744Y-46582795D01*
X43790226Y-46696063D01*
X43746289Y-46740000D01*
X42703711Y-46740000D01*
X42659774Y-46696063D01*
X42490256Y-46582795D01*
X42301898Y-46504774D01*
X42101939Y-46465000D01*
X41898061Y-46465000D01*
X41698102Y-46504774D01*
X41509744Y-46582795D01*
X41340226Y-46696063D01*
X41269045Y-46767244D01*
X37490802Y-42989003D01*
X37466999Y-42959999D01*
X37351274Y-42865026D01*
X37219245Y-42794454D01*
X37075984Y-42750997D01*
X36964331Y-42740000D01*
X36964320Y-42740000D01*
X36926998Y-42736324D01*
X36889676Y-42740000D01*
X35331046Y-42740000D01*
X35280537Y-42645506D01*
X35201185Y-42548815D01*
X35104494Y-42469463D01*
X34994180Y-42410498D01*
X34874482Y-42374188D01*
X34750000Y-42361928D01*
X33750000Y-42361928D01*
X33625518Y-42374188D01*
X33505820Y-42410498D01*
X33395506Y-42469463D01*
X33298815Y-42548815D01*
X33219463Y-42645506D01*
X33168954Y-42740000D01*
X29101212Y-42740000D01*
X25160000Y-38798789D01*
X25160000Y-37526890D01*
X29600048Y-37526890D01*
X29600048Y-37773110D01*
X29648083Y-38014598D01*
X29742307Y-38242074D01*
X29879099Y-38446798D01*
X30053202Y-38620901D01*
X30257926Y-38757693D01*
X30485402Y-38851917D01*
X30726890Y-38899952D01*
X30973110Y-38899952D01*
X31214598Y-38851917D01*
X31442074Y-38757693D01*
X31646798Y-38620901D01*
X31820901Y-38446798D01*
X31957693Y-38242074D01*
X32051917Y-38014598D01*
X32099952Y-37773110D01*
X32099952Y-37526890D01*
X32090007Y-37476890D01*
X35800048Y-37476890D01*
X35800048Y-37723110D01*
X35848083Y-37964598D01*
X35942307Y-38192074D01*
X36079099Y-38396798D01*
X36253202Y-38570901D01*
X36457926Y-38707693D01*
X36685402Y-38801917D01*
X36926890Y-38849952D01*
X37173110Y-38849952D01*
X37414598Y-38801917D01*
X37642074Y-38707693D01*
X37846798Y-38570901D01*
X38020901Y-38396798D01*
X38157693Y-38192074D01*
X38251917Y-37964598D01*
X38299952Y-37723110D01*
X38299952Y-37476890D01*
X38251917Y-37235402D01*
X38157693Y-37007926D01*
X38020901Y-36803202D01*
X37846798Y-36629099D01*
X37642074Y-36492307D01*
X37414598Y-36398083D01*
X37173110Y-36350048D01*
X36926890Y-36350048D01*
X36685402Y-36398083D01*
X36457926Y-36492307D01*
X36253202Y-36629099D01*
X36079099Y-36803202D01*
X35942307Y-37007926D01*
X35848083Y-37235402D01*
X35800048Y-37476890D01*
X32090007Y-37476890D01*
X32051917Y-37285402D01*
X31957693Y-37057926D01*
X31820901Y-36853202D01*
X31646798Y-36679099D01*
X31442074Y-36542307D01*
X31214598Y-36448083D01*
X30973110Y-36400048D01*
X30726890Y-36400048D01*
X30485402Y-36448083D01*
X30257926Y-36542307D01*
X30053202Y-36679099D01*
X29879099Y-36853202D01*
X29742307Y-37057926D01*
X29648083Y-37285402D01*
X29600048Y-37526890D01*
X25160000Y-37526890D01*
X25160000Y-35624770D01*
X25277962Y-35527962D01*
X25388405Y-35393386D01*
X25424587Y-35325695D01*
X25507491Y-35479023D01*
X25540930Y-35528599D01*
X25573697Y-35578672D01*
X25579521Y-35585813D01*
X25716365Y-35751228D01*
X25758783Y-35793350D01*
X25800662Y-35836116D01*
X25807763Y-35841990D01*
X25974130Y-35977676D01*
X26023941Y-36010770D01*
X26073313Y-36044576D01*
X26081419Y-36048959D01*
X26270972Y-36149746D01*
X26326273Y-36172539D01*
X26381258Y-36196106D01*
X26390062Y-36198831D01*
X26595581Y-36260881D01*
X26654273Y-36272502D01*
X26712774Y-36284937D01*
X26721936Y-36285900D01*
X26721938Y-36285900D01*
X26935597Y-36306849D01*
X26935608Y-36306849D01*
X26967581Y-36309998D01*
X42832418Y-36310000D01*
X42860747Y-36307210D01*
X42867495Y-36307257D01*
X42876666Y-36306358D01*
X43090173Y-36283918D01*
X43148776Y-36271888D01*
X43207534Y-36260680D01*
X43216356Y-36258016D01*
X43421436Y-36194532D01*
X43476539Y-36171368D01*
X43532042Y-36148944D01*
X43540179Y-36144617D01*
X43729023Y-36042509D01*
X43778586Y-36009079D01*
X43828669Y-35976306D01*
X43835810Y-35970481D01*
X44001226Y-35833638D01*
X44043366Y-35791203D01*
X44086119Y-35749337D01*
X44091992Y-35742236D01*
X44227677Y-35575869D01*
X44260769Y-35526061D01*
X44294575Y-35476689D01*
X44298958Y-35468583D01*
X44324545Y-35420460D01*
X44369463Y-35504494D01*
X44448815Y-35601185D01*
X44545506Y-35680537D01*
X44655820Y-35739502D01*
X44775518Y-35775812D01*
X44900000Y-35788072D01*
X45114250Y-35785000D01*
X45273000Y-35626250D01*
X45273000Y-31777000D01*
X45253000Y-31777000D01*
X45253000Y-31523000D01*
X45273000Y-31523000D01*
X45273000Y-31503000D01*
X45527000Y-31503000D01*
X45527000Y-31523000D01*
G37*
%TD.AperFunction*%
%TD*%
M02*
