%TF.GenerationSoftware,KiCad,Pcbnew,5.1.10*%
%TF.CreationDate,2021-05-11T19:06:34-06:00*%
%TF.ProjectId,LinkMeBaby,4c696e6b-4d65-4426-9162-792e6b696361,rev?*%
%TF.SameCoordinates,Original*%
%TF.FileFunction,Copper,L2,Bot*%
%TF.FilePolarity,Positive*%
%FSLAX46Y46*%
G04 Gerber Fmt 4.6, Leading zero omitted, Abs format (unit mm)*
G04 Created by KiCad (PCBNEW 5.1.10) date 2021-05-11 19:06:34*
%MOMM*%
%LPD*%
G01*
G04 APERTURE LIST*
%TA.AperFunction,ComponentPad*%
%ADD10O,1.000000X1.600000*%
%TD*%
%TA.AperFunction,ComponentPad*%
%ADD11O,1.000000X2.100000*%
%TD*%
%TA.AperFunction,ComponentPad*%
%ADD12R,1.000000X1.000000*%
%TD*%
%TA.AperFunction,ComponentPad*%
%ADD13O,1.000000X1.000000*%
%TD*%
%TA.AperFunction,ViaPad*%
%ADD14C,0.800000*%
%TD*%
%TA.AperFunction,Conductor*%
%ADD15C,1.000000*%
%TD*%
%TA.AperFunction,Conductor*%
%ADD16C,0.250000*%
%TD*%
%TA.AperFunction,Conductor*%
%ADD17C,0.254000*%
%TD*%
%TA.AperFunction,Conductor*%
%ADD18C,0.100000*%
%TD*%
G04 APERTURE END LIST*
D10*
%TO.P,J1,S1*%
%TO.N,Net-(J1-PadS1)*%
X48820000Y-106850000D03*
X40180000Y-106850000D03*
D11*
X40180000Y-102670000D03*
X48820000Y-102670000D03*
%TD*%
D12*
%TO.P,J2,1*%
%TO.N,EDGE_SO*%
X34250000Y-43500000D03*
D13*
%TO.P,J2,2*%
%TO.N,EDGE_SC*%
X34250000Y-44770000D03*
%TO.P,J2,3*%
%TO.N,EDGE_SD*%
X34250000Y-46040000D03*
%TO.P,J2,4*%
%TO.N,EDGE_SI*%
X34250000Y-47310000D03*
%TO.P,J2,5*%
%TO.N,EDGE_VDD*%
X34250000Y-48580000D03*
%TO.P,J2,6*%
%TO.N,GND*%
X34250000Y-49850000D03*
%TD*%
%TO.P,J3,6*%
%TO.N,GND*%
%TA.AperFunction,SMDPad,CuDef*%
G36*
G01*
X45900000Y-28400000D02*
X45900000Y-34900000D01*
G75*
G02*
X45650000Y-35150000I-250000J0D01*
G01*
X45150000Y-35150000D01*
G75*
G02*
X44900000Y-34900000I0J250000D01*
G01*
X44900000Y-28400000D01*
G75*
G02*
X45150000Y-28150000I250000J0D01*
G01*
X45650000Y-28150000D01*
G75*
G02*
X45900000Y-28400000I0J-250000D01*
G01*
G37*
%TD.AperFunction*%
%TO.P,J3,4*%
%TO.N,N/C*%
%TA.AperFunction,SMDPad,CuDef*%
G36*
G01*
X47400000Y-28400000D02*
X47400000Y-34900000D01*
G75*
G02*
X47150000Y-35150000I-250000J0D01*
G01*
X46650000Y-35150000D01*
G75*
G02*
X46400000Y-34900000I0J250000D01*
G01*
X46400000Y-28400000D01*
G75*
G02*
X46650000Y-28150000I250000J0D01*
G01*
X47150000Y-28150000D01*
G75*
G02*
X47400000Y-28400000I0J-250000D01*
G01*
G37*
%TD.AperFunction*%
%TO.P,J3,2*%
%TO.N,EDGE_SO*%
%TA.AperFunction,SMDPad,CuDef*%
G36*
G01*
X48900000Y-28400000D02*
X48900000Y-34900000D01*
G75*
G02*
X48650000Y-35150000I-250000J0D01*
G01*
X48150000Y-35150000D01*
G75*
G02*
X47900000Y-34900000I0J250000D01*
G01*
X47900000Y-28400000D01*
G75*
G02*
X48150000Y-28150000I250000J0D01*
G01*
X48650000Y-28150000D01*
G75*
G02*
X48900000Y-28400000I0J-250000D01*
G01*
G37*
%TD.AperFunction*%
%TD*%
%TO.P,J4,2*%
%TO.N,EDGE_SO*%
%TA.AperFunction,SMDPad,CuDef*%
G36*
G01*
X24900000Y-28400000D02*
X24900000Y-34900000D01*
G75*
G02*
X24650000Y-35150000I-250000J0D01*
G01*
X24150000Y-35150000D01*
G75*
G02*
X23900000Y-34900000I0J250000D01*
G01*
X23900000Y-28400000D01*
G75*
G02*
X24150000Y-28150000I250000J0D01*
G01*
X24650000Y-28150000D01*
G75*
G02*
X24900000Y-28400000I0J-250000D01*
G01*
G37*
%TD.AperFunction*%
%TO.P,J4,4*%
%TO.N,EDGE_SD*%
%TA.AperFunction,SMDPad,CuDef*%
G36*
G01*
X23400000Y-28400000D02*
X23400000Y-34900000D01*
G75*
G02*
X23150000Y-35150000I-250000J0D01*
G01*
X22650000Y-35150000D01*
G75*
G02*
X22400000Y-34900000I0J250000D01*
G01*
X22400000Y-28400000D01*
G75*
G02*
X22650000Y-28150000I250000J0D01*
G01*
X23150000Y-28150000D01*
G75*
G02*
X23400000Y-28400000I0J-250000D01*
G01*
G37*
%TD.AperFunction*%
%TO.P,J4,6*%
%TO.N,GND*%
%TA.AperFunction,SMDPad,CuDef*%
G36*
G01*
X21900000Y-28400000D02*
X21900000Y-34900000D01*
G75*
G02*
X21650000Y-35150000I-250000J0D01*
G01*
X21150000Y-35150000D01*
G75*
G02*
X20900000Y-34900000I0J250000D01*
G01*
X20900000Y-28400000D01*
G75*
G02*
X21150000Y-28150000I250000J0D01*
G01*
X21650000Y-28150000D01*
G75*
G02*
X21900000Y-28400000I0J-250000D01*
G01*
G37*
%TD.AperFunction*%
%TD*%
D14*
%TO.N,GND*%
X42000000Y-98500000D03*
X48250000Y-100000000D03*
X40250000Y-100000000D03*
X28250000Y-95350000D03*
X47250000Y-94750000D03*
X36750000Y-108750000D03*
X39675000Y-86700000D03*
X42425000Y-86700000D03*
X20925000Y-82200000D03*
X35150000Y-66350000D03*
X38725000Y-64925000D03*
X38700000Y-65925000D03*
X45025000Y-69950000D03*
X45025000Y-68875000D03*
X32850000Y-99050000D03*
X28225000Y-63550000D03*
X29325000Y-63525000D03*
X29325000Y-62325000D03*
X48750000Y-79900000D03*
X21350000Y-50150000D03*
X24250000Y-102300000D03*
X22225000Y-69375000D03*
X20850000Y-60150000D03*
X30150000Y-49850000D03*
X34250000Y-52000000D03*
X36850000Y-49850000D03*
X36900000Y-46150000D03*
X43000000Y-43400000D03*
X37100000Y-62100000D03*
X31450000Y-92550000D03*
X37900000Y-95600000D03*
X21150000Y-94600000D03*
X20900000Y-81250000D03*
%TO.N,+3V3*%
X40925000Y-86700000D03*
X37425000Y-63750000D03*
X23225000Y-83375000D03*
X41900000Y-68950000D03*
X27075000Y-65800000D03*
X22225000Y-70450000D03*
X29800000Y-70225000D03*
X36300000Y-69700000D03*
X27125000Y-80050000D03*
X26750000Y-60800000D03*
X27550000Y-60800000D03*
X29900000Y-60800000D03*
X38550000Y-81350000D03*
X26750000Y-102350000D03*
X31550000Y-108900000D03*
X31450000Y-95600000D03*
%TO.N,+5V*%
X47000000Y-100000000D03*
%TO.N,USB_CONN_D+*%
X45262653Y-99237347D03*
%TO.N,USB_CONN_D-*%
X44250000Y-99250000D03*
%TO.N,EDGE_SI*%
X44450000Y-47500000D03*
X42000000Y-47500000D03*
X23750000Y-46900000D03*
%TO.N,EDGE_VDD*%
X23700000Y-48500000D03*
%TO.N,EDGE_SC*%
X21950000Y-45300000D03*
%TO.N,SWO*%
X23249997Y-102300000D03*
X43400000Y-79850000D03*
%TO.N,SWCLK*%
X22237343Y-102287349D03*
X44825000Y-79875000D03*
%TO.N,NRST*%
X32025010Y-66175000D03*
X25525000Y-102300000D03*
%TO.N,SWDIO*%
X37450000Y-85450000D03*
X21215890Y-102283496D03*
%TO.N,DIR*%
X20802405Y-73385482D03*
X23400000Y-67100000D03*
%TO.N,SPI1_MOSI*%
X20789436Y-72385564D03*
X22224999Y-68150000D03*
%TD*%
D15*
%TO.N,GND*%
X21400000Y-31650000D02*
X21400000Y-36450000D01*
X21400000Y-36450000D02*
X20650000Y-37200000D01*
X20650000Y-49450000D02*
X21350000Y-50150000D01*
X20650000Y-37200000D02*
X20650000Y-49450000D01*
X34250000Y-49850000D02*
X30150000Y-49850000D01*
X36850000Y-46200000D02*
X36900000Y-46150000D01*
X36850000Y-49850000D02*
X36850000Y-46200000D01*
X45400000Y-41000000D02*
X43000000Y-43400000D01*
X45400000Y-31650000D02*
X45400000Y-41000000D01*
D16*
%TO.N,+3V3*%
X26750000Y-60800000D02*
X27550000Y-60800000D01*
D15*
X26750000Y-60800000D02*
X29900000Y-60800000D01*
X31450000Y-95600000D02*
X31450000Y-101100000D01*
X30200000Y-102350000D02*
X26750000Y-102350000D01*
X31450000Y-101100000D02*
X30200000Y-102350000D01*
D16*
%TO.N,EDGE_SO*%
X24400000Y-31650000D02*
X24400000Y-35150000D01*
X48400000Y-31650000D02*
X48400000Y-35150000D01*
X48400000Y-44623002D02*
X44473002Y-48550000D01*
X48400000Y-31650000D02*
X48400000Y-44623002D01*
X36926998Y-43500000D02*
X34250000Y-43500000D01*
X41976998Y-48550000D02*
X36926998Y-43500000D01*
X44473002Y-48550000D02*
X41976998Y-48550000D01*
X24400000Y-31650000D02*
X24400000Y-39113590D01*
X28786410Y-43500000D02*
X32900000Y-43500000D01*
X32900000Y-43500000D02*
X34250000Y-43500000D01*
X24400000Y-39113590D02*
X28786410Y-43500000D01*
X32750000Y-43500000D02*
X32900000Y-43500000D01*
%TO.N,EDGE_SI*%
X44450000Y-47500000D02*
X42000000Y-47500000D01*
X24160000Y-47310000D02*
X34250000Y-47310000D01*
X23750000Y-46900000D02*
X24160000Y-47310000D01*
%TO.N,EDGE_VDD*%
X34170000Y-48500000D02*
X34250000Y-48580000D01*
X23700000Y-48500000D02*
X34170000Y-48500000D01*
%TO.N,EDGE_SD*%
X22900000Y-31650000D02*
X22900000Y-38250000D01*
X30690000Y-46040000D02*
X34250000Y-46040000D01*
X22900000Y-38250000D02*
X30690000Y-46040000D01*
%TO.N,EDGE_SC*%
X35075001Y-50246001D02*
X35075001Y-45595001D01*
X34646001Y-50675001D02*
X35075001Y-50246001D01*
X24801999Y-50675001D02*
X34646001Y-50675001D01*
X35075001Y-45595001D02*
X34250000Y-44770000D01*
X21950000Y-47823002D02*
X24801999Y-50675001D01*
X21950000Y-45300000D02*
X21950000Y-47823002D01*
%TO.N,SWO*%
X23725001Y-98338407D02*
X23725001Y-101259311D01*
X32963397Y-89100011D02*
X23725001Y-98338407D01*
X45550001Y-85284411D02*
X41734401Y-89100011D01*
X23249997Y-101734315D02*
X23249997Y-102300000D01*
X41734401Y-89100011D02*
X32963397Y-89100011D01*
X45550001Y-79526999D02*
X45550001Y-85284411D01*
X45173001Y-79149999D02*
X45550001Y-79526999D01*
X44100001Y-79149999D02*
X45173001Y-79149999D01*
X23725001Y-101259311D02*
X23249997Y-101734315D01*
X43400000Y-79850000D02*
X44100001Y-79149999D01*
%TO.N,SWCLK*%
X41548001Y-88650001D02*
X44825000Y-85373002D01*
X44825000Y-85373002D02*
X44825000Y-79875000D01*
X32776997Y-88650001D02*
X41548001Y-88650001D01*
X22237343Y-99189655D02*
X32776997Y-88650001D01*
X22237343Y-102287349D02*
X22237343Y-99189655D01*
%TO.N,NRST*%
X20884393Y-103025001D02*
X24799999Y-103025001D01*
X20490889Y-102631497D02*
X20884393Y-103025001D01*
X20490889Y-99663289D02*
X20490889Y-102631497D01*
X30574999Y-89579179D02*
X20490889Y-99663289D01*
X30574999Y-67625011D02*
X30574999Y-89579179D01*
X24799999Y-103025001D02*
X25525000Y-102300000D01*
X32025010Y-66175000D02*
X30574999Y-67625011D01*
%TO.N,SWDIO*%
X34700009Y-88199991D02*
X37450000Y-85450000D01*
X32590597Y-88199991D02*
X34700009Y-88199991D01*
X21215890Y-99574698D02*
X32590597Y-88199991D01*
X21215890Y-102283496D02*
X21215890Y-99574698D01*
%TO.N,DIR*%
X20862520Y-73385482D02*
X20802405Y-73385482D01*
X21368090Y-73385482D02*
X20802405Y-73385482D01*
X23799999Y-70953573D02*
X21368090Y-73385482D01*
X23799999Y-67499999D02*
X23799999Y-70953573D01*
X23400000Y-67100000D02*
X23799999Y-67499999D01*
%TO.N,SPI1_MOSI*%
X20900000Y-72275000D02*
X20789436Y-72385564D01*
X21362438Y-72385564D02*
X20789436Y-72385564D01*
X22950001Y-70798001D02*
X21362438Y-72385564D01*
X22950001Y-68875002D02*
X22950001Y-70798001D01*
X22224999Y-68150000D02*
X22950001Y-68875002D01*
%TD*%
D17*
%TO.N,GND*%
X21527000Y-31523000D02*
X21547000Y-31523000D01*
X21547000Y-31777000D01*
X21527000Y-31777000D01*
X21527000Y-35626250D01*
X21685750Y-35785000D01*
X21900000Y-35788072D01*
X22024482Y-35775812D01*
X22140001Y-35740770D01*
X22140001Y-38212668D01*
X22136324Y-38250000D01*
X22140001Y-38287333D01*
X22150783Y-38396798D01*
X22150998Y-38398985D01*
X22194454Y-38542246D01*
X22265026Y-38674276D01*
X22336201Y-38761002D01*
X22360000Y-38790001D01*
X22388998Y-38813799D01*
X30125198Y-46550000D01*
X24725301Y-46550000D01*
X24667205Y-46409744D01*
X24553937Y-46240226D01*
X24409774Y-46096063D01*
X24240256Y-45982795D01*
X24051898Y-45904774D01*
X23851939Y-45865000D01*
X23648061Y-45865000D01*
X23448102Y-45904774D01*
X23259744Y-45982795D01*
X23090226Y-46096063D01*
X22946063Y-46240226D01*
X22832795Y-46409744D01*
X22754774Y-46598102D01*
X22715000Y-46798061D01*
X22715000Y-47001939D01*
X22754774Y-47201898D01*
X22832795Y-47390256D01*
X22946063Y-47559774D01*
X23065479Y-47679190D01*
X23040226Y-47696063D01*
X22969044Y-47767245D01*
X22710000Y-47508201D01*
X22710000Y-46003711D01*
X22753937Y-45959774D01*
X22867205Y-45790256D01*
X22945226Y-45601898D01*
X22985000Y-45401939D01*
X22985000Y-45198061D01*
X22945226Y-44998102D01*
X22867205Y-44809744D01*
X22753937Y-44640226D01*
X22609774Y-44496063D01*
X22440256Y-44382795D01*
X22251898Y-44304774D01*
X22051939Y-44265000D01*
X21848061Y-44265000D01*
X21648102Y-44304774D01*
X21459744Y-44382795D01*
X21290226Y-44496063D01*
X21146063Y-44640226D01*
X21032795Y-44809744D01*
X20954774Y-44998102D01*
X20915000Y-45198061D01*
X20915000Y-45401939D01*
X20954774Y-45601898D01*
X21032795Y-45790256D01*
X21146063Y-45959774D01*
X21190000Y-46003711D01*
X21190001Y-47785670D01*
X21186324Y-47823002D01*
X21190001Y-47860335D01*
X21200998Y-47971988D01*
X21212451Y-48009744D01*
X21244454Y-48115248D01*
X21315026Y-48247278D01*
X21371281Y-48315824D01*
X21410000Y-48363003D01*
X21438998Y-48386801D01*
X24238200Y-51186004D01*
X24261998Y-51215002D01*
X24377723Y-51309975D01*
X24509752Y-51380547D01*
X24653013Y-51424004D01*
X24764666Y-51435001D01*
X24764674Y-51435001D01*
X24801999Y-51438677D01*
X24839324Y-51435001D01*
X34608679Y-51435001D01*
X34646001Y-51438677D01*
X34683323Y-51435001D01*
X34683334Y-51435001D01*
X34794987Y-51424004D01*
X34938248Y-51380547D01*
X35070277Y-51309975D01*
X35186002Y-51215002D01*
X35209805Y-51185998D01*
X35585999Y-50809804D01*
X35615002Y-50786002D01*
X35709975Y-50670277D01*
X35780547Y-50538248D01*
X35824004Y-50394987D01*
X35835001Y-50283334D01*
X35835001Y-50283333D01*
X35838678Y-50246001D01*
X35835001Y-50208668D01*
X35835001Y-45632334D01*
X35838678Y-45595001D01*
X35824004Y-45446015D01*
X35780547Y-45302754D01*
X35709975Y-45170725D01*
X35638800Y-45083998D01*
X35615002Y-45055000D01*
X35586003Y-45031202D01*
X35385000Y-44830198D01*
X35385000Y-44658212D01*
X35341383Y-44438933D01*
X35295112Y-44327226D01*
X35331046Y-44260000D01*
X36612197Y-44260000D01*
X41413203Y-49061008D01*
X41436997Y-49090001D01*
X41465990Y-49113795D01*
X41465994Y-49113799D01*
X41536683Y-49171811D01*
X41552722Y-49184974D01*
X41684751Y-49255546D01*
X41828012Y-49299003D01*
X41939665Y-49310000D01*
X41939674Y-49310000D01*
X41976997Y-49313676D01*
X42014320Y-49310000D01*
X44435680Y-49310000D01*
X44473002Y-49313676D01*
X44510324Y-49310000D01*
X44510335Y-49310000D01*
X44621988Y-49299003D01*
X44765249Y-49255546D01*
X44897278Y-49184974D01*
X45013003Y-49090001D01*
X45036806Y-49060997D01*
X48911003Y-45186801D01*
X48940001Y-45163003D01*
X49034974Y-45047278D01*
X49105546Y-44915249D01*
X49149003Y-44771988D01*
X49160000Y-44660335D01*
X49160000Y-44660325D01*
X49163676Y-44623002D01*
X49160000Y-44585679D01*
X49160000Y-35624770D01*
X49240001Y-35559116D01*
X49240001Y-35618028D01*
X49239957Y-35618481D01*
X49240001Y-35650752D01*
X49240001Y-35682419D01*
X49240045Y-35682863D01*
X49329236Y-101105231D01*
X49256446Y-101066324D01*
X49042498Y-101001423D01*
X48820000Y-100979509D01*
X48597501Y-101001423D01*
X48383553Y-101066324D01*
X48186377Y-101171716D01*
X48013551Y-101313551D01*
X47871716Y-101486377D01*
X47766324Y-101683554D01*
X47701423Y-101897502D01*
X47685000Y-102064249D01*
X47685000Y-102283096D01*
X47670022Y-102276892D01*
X47484552Y-102240000D01*
X47295448Y-102240000D01*
X47109978Y-102276892D01*
X46935269Y-102349259D01*
X46778036Y-102454319D01*
X46644319Y-102588036D01*
X46539259Y-102745269D01*
X46466892Y-102919978D01*
X46430000Y-103105448D01*
X46430000Y-103294552D01*
X46466892Y-103480022D01*
X46539259Y-103654731D01*
X46644319Y-103811964D01*
X46778036Y-103945681D01*
X46935269Y-104050741D01*
X47109978Y-104123108D01*
X47295448Y-104160000D01*
X47484552Y-104160000D01*
X47670022Y-104123108D01*
X47844731Y-104050741D01*
X47966638Y-103969285D01*
X48013552Y-104026449D01*
X48186378Y-104168284D01*
X48383554Y-104273676D01*
X48597502Y-104338577D01*
X48820000Y-104360491D01*
X49042499Y-104338577D01*
X49256447Y-104273676D01*
X49333500Y-104232491D01*
X49335280Y-105538461D01*
X49256446Y-105496324D01*
X49042498Y-105431423D01*
X48820000Y-105409509D01*
X48597501Y-105431423D01*
X48383553Y-105496324D01*
X48186377Y-105601716D01*
X48013551Y-105743551D01*
X47871716Y-105916377D01*
X47766324Y-106113554D01*
X47701423Y-106327502D01*
X47685000Y-106494249D01*
X47685000Y-107205752D01*
X47701423Y-107372499D01*
X47766324Y-107586447D01*
X47871717Y-107783623D01*
X48013552Y-107956449D01*
X48186378Y-108098284D01*
X48383554Y-108203676D01*
X48597502Y-108268577D01*
X48820000Y-108290491D01*
X49042499Y-108268577D01*
X49256447Y-108203676D01*
X49338854Y-108159629D01*
X49339956Y-108968170D01*
X49328516Y-109084846D01*
X49303874Y-109166465D01*
X49263848Y-109241743D01*
X49209966Y-109307808D01*
X49144277Y-109362151D01*
X49069280Y-109402702D01*
X48987839Y-109427912D01*
X48872821Y-109440001D01*
X32433967Y-109440000D01*
X32467205Y-109390256D01*
X32545226Y-109201898D01*
X32585000Y-109001939D01*
X32585000Y-108798061D01*
X32545226Y-108598102D01*
X32467205Y-108409744D01*
X32353937Y-108240226D01*
X32209774Y-108096063D01*
X32040256Y-107982795D01*
X31851898Y-107904774D01*
X31651939Y-107865000D01*
X31448061Y-107865000D01*
X31248102Y-107904774D01*
X31059744Y-107982795D01*
X30890226Y-108096063D01*
X30746063Y-108240226D01*
X30632795Y-108409744D01*
X30554774Y-108598102D01*
X30515000Y-108798061D01*
X30515000Y-109001939D01*
X30554774Y-109201898D01*
X30632795Y-109390256D01*
X30666033Y-109440000D01*
X21132277Y-109439999D01*
X21015154Y-109428515D01*
X20933537Y-109403874D01*
X20858259Y-109363848D01*
X20792189Y-109309963D01*
X20737847Y-109244274D01*
X20697299Y-109169282D01*
X20672089Y-109087840D01*
X20659964Y-108972474D01*
X20655056Y-105372655D01*
X21829500Y-105372655D01*
X21829500Y-105595345D01*
X21872944Y-105813755D01*
X21958164Y-106019493D01*
X22081883Y-106204652D01*
X22239348Y-106362117D01*
X22424507Y-106485836D01*
X22458702Y-106500000D01*
X22424507Y-106514164D01*
X22239348Y-106637883D01*
X22081883Y-106795348D01*
X21958164Y-106980507D01*
X21872944Y-107186245D01*
X21829500Y-107404655D01*
X21829500Y-107627345D01*
X21872944Y-107845755D01*
X21958164Y-108051493D01*
X22081883Y-108236652D01*
X22239348Y-108394117D01*
X22424507Y-108517836D01*
X22630245Y-108603056D01*
X22848655Y-108646500D01*
X23071345Y-108646500D01*
X23289755Y-108603056D01*
X23495493Y-108517836D01*
X23680652Y-108394117D01*
X23838117Y-108236652D01*
X23961836Y-108051493D01*
X24047056Y-107845755D01*
X24090500Y-107627345D01*
X24090500Y-107404655D01*
X24047056Y-107186245D01*
X23961836Y-106980507D01*
X23838117Y-106795348D01*
X23680652Y-106637883D01*
X23495493Y-106514164D01*
X23461298Y-106500000D01*
X23495493Y-106485836D01*
X23640934Y-106388655D01*
X26909500Y-106388655D01*
X26909500Y-106611345D01*
X26952944Y-106829755D01*
X27038164Y-107035493D01*
X27161883Y-107220652D01*
X27319348Y-107378117D01*
X27504507Y-107501836D01*
X27710245Y-107587056D01*
X27928655Y-107630500D01*
X28151345Y-107630500D01*
X28369755Y-107587056D01*
X28575493Y-107501836D01*
X28760652Y-107378117D01*
X28918117Y-107220652D01*
X29041836Y-107035493D01*
X29127056Y-106829755D01*
X29170500Y-106611345D01*
X29170500Y-106494249D01*
X39045000Y-106494249D01*
X39045000Y-107205752D01*
X39061423Y-107372499D01*
X39126324Y-107586447D01*
X39231717Y-107783623D01*
X39373552Y-107956449D01*
X39546378Y-108098284D01*
X39743554Y-108203676D01*
X39957502Y-108268577D01*
X40180000Y-108290491D01*
X40402499Y-108268577D01*
X40616447Y-108203676D01*
X40813623Y-108098284D01*
X40986449Y-107956449D01*
X41128284Y-107783623D01*
X41233676Y-107586446D01*
X41298577Y-107372498D01*
X41315000Y-107205751D01*
X41315000Y-106494248D01*
X41298577Y-106327501D01*
X41233676Y-106113553D01*
X41128284Y-105916377D01*
X40986449Y-105743551D01*
X40813623Y-105601716D01*
X40616446Y-105496324D01*
X40402498Y-105431423D01*
X40180000Y-105409509D01*
X39957501Y-105431423D01*
X39743553Y-105496324D01*
X39546377Y-105601716D01*
X39373551Y-105743551D01*
X39231716Y-105916377D01*
X39126324Y-106113554D01*
X39061423Y-106327502D01*
X39045000Y-106494249D01*
X29170500Y-106494249D01*
X29170500Y-106388655D01*
X29127056Y-106170245D01*
X29041836Y-105964507D01*
X28918117Y-105779348D01*
X28760652Y-105621883D01*
X28575493Y-105498164D01*
X28369755Y-105412944D01*
X28151345Y-105369500D01*
X27928655Y-105369500D01*
X27710245Y-105412944D01*
X27504507Y-105498164D01*
X27319348Y-105621883D01*
X27161883Y-105779348D01*
X27038164Y-105964507D01*
X26952944Y-106170245D01*
X26909500Y-106388655D01*
X23640934Y-106388655D01*
X23680652Y-106362117D01*
X23838117Y-106204652D01*
X23961836Y-106019493D01*
X24047056Y-105813755D01*
X24090500Y-105595345D01*
X24090500Y-105372655D01*
X24047056Y-105154245D01*
X23961836Y-104948507D01*
X23838117Y-104763348D01*
X23680652Y-104605883D01*
X23495493Y-104482164D01*
X23289755Y-104396944D01*
X23071345Y-104353500D01*
X22848655Y-104353500D01*
X22630245Y-104396944D01*
X22424507Y-104482164D01*
X22239348Y-104605883D01*
X22081883Y-104763348D01*
X21958164Y-104948507D01*
X21872944Y-105154245D01*
X21829500Y-105372655D01*
X20655056Y-105372655D01*
X20652842Y-103748959D01*
X20735407Y-103774004D01*
X20847060Y-103785001D01*
X20847068Y-103785001D01*
X20884393Y-103788677D01*
X20921718Y-103785001D01*
X24762677Y-103785001D01*
X24799999Y-103788677D01*
X24837321Y-103785001D01*
X24837332Y-103785001D01*
X24948985Y-103774004D01*
X25092246Y-103730547D01*
X25224275Y-103659975D01*
X25340000Y-103565002D01*
X25363802Y-103535999D01*
X25564801Y-103335000D01*
X25626939Y-103335000D01*
X25826898Y-103295226D01*
X26015256Y-103217205D01*
X26016538Y-103216348D01*
X26116377Y-103298284D01*
X26313553Y-103403676D01*
X26527501Y-103468577D01*
X26694248Y-103485000D01*
X30144249Y-103485000D01*
X30200000Y-103490491D01*
X30255751Y-103485000D01*
X30255752Y-103485000D01*
X30422499Y-103468577D01*
X30636447Y-103403676D01*
X30833623Y-103298284D01*
X31006449Y-103156449D01*
X31041996Y-103113135D01*
X32090882Y-102064249D01*
X39045000Y-102064249D01*
X39045000Y-103275752D01*
X39061423Y-103442499D01*
X39126324Y-103656447D01*
X39231717Y-103853623D01*
X39373552Y-104026449D01*
X39546378Y-104168284D01*
X39743554Y-104273676D01*
X39957502Y-104338577D01*
X40180000Y-104360491D01*
X40402499Y-104338577D01*
X40616447Y-104273676D01*
X40813623Y-104168284D01*
X40986449Y-104026449D01*
X41033362Y-103969285D01*
X41155269Y-104050741D01*
X41329978Y-104123108D01*
X41515448Y-104160000D01*
X41704552Y-104160000D01*
X41890022Y-104123108D01*
X42064731Y-104050741D01*
X42221964Y-103945681D01*
X42355681Y-103811964D01*
X42460741Y-103654731D01*
X42533108Y-103480022D01*
X42570000Y-103294552D01*
X42570000Y-103105448D01*
X42533108Y-102919978D01*
X42460741Y-102745269D01*
X42355681Y-102588036D01*
X42221964Y-102454319D01*
X42064731Y-102349259D01*
X41890022Y-102276892D01*
X41704552Y-102240000D01*
X41515448Y-102240000D01*
X41329978Y-102276892D01*
X41315000Y-102283096D01*
X41315000Y-102064248D01*
X41298577Y-101897501D01*
X41233676Y-101683553D01*
X41128284Y-101486377D01*
X40986449Y-101313551D01*
X40813623Y-101171716D01*
X40616446Y-101066324D01*
X40402498Y-101001423D01*
X40180000Y-100979509D01*
X39957501Y-101001423D01*
X39743553Y-101066324D01*
X39546377Y-101171716D01*
X39373551Y-101313551D01*
X39231716Y-101486377D01*
X39126324Y-101683554D01*
X39061423Y-101897502D01*
X39045000Y-102064249D01*
X32090882Y-102064249D01*
X32213140Y-101941992D01*
X32256449Y-101906449D01*
X32398284Y-101733623D01*
X32503676Y-101536447D01*
X32568577Y-101322499D01*
X32585000Y-101155752D01*
X32590491Y-101100000D01*
X32585000Y-101044249D01*
X32585000Y-99148061D01*
X43215000Y-99148061D01*
X43215000Y-99351939D01*
X43254774Y-99551898D01*
X43332795Y-99740256D01*
X43446063Y-99909774D01*
X43590226Y-100053937D01*
X43759744Y-100167205D01*
X43948102Y-100245226D01*
X44148061Y-100285000D01*
X44351939Y-100285000D01*
X44551898Y-100245226D01*
X44740256Y-100167205D01*
X44765795Y-100150141D01*
X44772397Y-100154552D01*
X44960755Y-100232573D01*
X45160714Y-100272347D01*
X45364592Y-100272347D01*
X45564551Y-100232573D01*
X45752909Y-100154552D01*
X45922427Y-100041284D01*
X45965000Y-99998711D01*
X45965000Y-100101939D01*
X46004774Y-100301898D01*
X46082795Y-100490256D01*
X46196063Y-100659774D01*
X46340226Y-100803937D01*
X46509744Y-100917205D01*
X46698102Y-100995226D01*
X46898061Y-101035000D01*
X47101939Y-101035000D01*
X47301898Y-100995226D01*
X47490256Y-100917205D01*
X47659774Y-100803937D01*
X47803937Y-100659774D01*
X47917205Y-100490256D01*
X47995226Y-100301898D01*
X48035000Y-100101939D01*
X48035000Y-99898061D01*
X47995226Y-99698102D01*
X47917205Y-99509744D01*
X47803937Y-99340226D01*
X47659774Y-99196063D01*
X47490256Y-99082795D01*
X47301898Y-99004774D01*
X47101939Y-98965000D01*
X46898061Y-98965000D01*
X46698102Y-99004774D01*
X46509744Y-99082795D01*
X46340226Y-99196063D01*
X46297653Y-99238636D01*
X46297653Y-99135408D01*
X46257879Y-98935449D01*
X46179858Y-98747091D01*
X46066590Y-98577573D01*
X45922427Y-98433410D01*
X45752909Y-98320142D01*
X45564551Y-98242121D01*
X45364592Y-98202347D01*
X45160714Y-98202347D01*
X44960755Y-98242121D01*
X44772397Y-98320142D01*
X44746858Y-98337206D01*
X44740256Y-98332795D01*
X44551898Y-98254774D01*
X44351939Y-98215000D01*
X44148061Y-98215000D01*
X43948102Y-98254774D01*
X43759744Y-98332795D01*
X43590226Y-98446063D01*
X43446063Y-98590226D01*
X43332795Y-98759744D01*
X43254774Y-98948102D01*
X43215000Y-99148061D01*
X32585000Y-99148061D01*
X32585000Y-95544248D01*
X32568577Y-95377501D01*
X32503676Y-95163553D01*
X32398284Y-94966377D01*
X32256449Y-94793551D01*
X32083623Y-94651716D01*
X31886446Y-94546324D01*
X31672498Y-94481423D01*
X31450000Y-94459509D01*
X31227501Y-94481423D01*
X31013553Y-94546324D01*
X30816377Y-94651716D01*
X30643551Y-94793551D01*
X30501716Y-94966377D01*
X30396324Y-95163554D01*
X30331423Y-95377502D01*
X30315000Y-95544249D01*
X30315001Y-100629867D01*
X29729869Y-101215000D01*
X26694248Y-101215000D01*
X26527501Y-101231423D01*
X26313553Y-101296324D01*
X26116377Y-101401716D01*
X26083704Y-101428530D01*
X26015256Y-101382795D01*
X25826898Y-101304774D01*
X25626939Y-101265000D01*
X25423061Y-101265000D01*
X25223102Y-101304774D01*
X25034744Y-101382795D01*
X24865226Y-101496063D01*
X24721063Y-101640226D01*
X24607795Y-101809744D01*
X24529774Y-101998102D01*
X24490000Y-102198061D01*
X24490000Y-102260199D01*
X24485198Y-102265001D01*
X24284997Y-102265001D01*
X24284997Y-102198061D01*
X24245223Y-101998102D01*
X24191268Y-101867845D01*
X24235998Y-101823115D01*
X24265002Y-101799312D01*
X24333065Y-101716377D01*
X24359975Y-101683588D01*
X24430547Y-101551558D01*
X24450319Y-101486377D01*
X24474004Y-101408297D01*
X24485001Y-101296644D01*
X24485001Y-101296635D01*
X24488677Y-101259312D01*
X24485001Y-101221989D01*
X24485001Y-98653208D01*
X33278199Y-89860011D01*
X41697079Y-89860011D01*
X41734401Y-89863687D01*
X41771723Y-89860011D01*
X41771734Y-89860011D01*
X41883387Y-89849014D01*
X42026648Y-89805557D01*
X42158677Y-89734985D01*
X42274402Y-89640012D01*
X42298205Y-89611008D01*
X46061004Y-85848210D01*
X46090002Y-85824412D01*
X46184975Y-85708687D01*
X46255547Y-85576658D01*
X46299004Y-85433397D01*
X46310001Y-85321744D01*
X46310001Y-85321735D01*
X46313677Y-85284412D01*
X46310001Y-85247089D01*
X46310001Y-79564332D01*
X46313678Y-79526999D01*
X46299004Y-79378013D01*
X46255547Y-79234752D01*
X46197415Y-79125997D01*
X46184975Y-79102723D01*
X46090002Y-78986998D01*
X46060999Y-78963196D01*
X45736805Y-78639002D01*
X45713002Y-78609998D01*
X45597277Y-78515025D01*
X45465248Y-78444453D01*
X45321987Y-78400996D01*
X45210334Y-78389999D01*
X45210323Y-78389999D01*
X45173001Y-78386323D01*
X45135679Y-78389999D01*
X44137324Y-78389999D01*
X44100001Y-78386323D01*
X44062678Y-78389999D01*
X44062668Y-78389999D01*
X43951015Y-78400996D01*
X43807754Y-78444453D01*
X43675724Y-78515025D01*
X43592084Y-78583667D01*
X43560000Y-78609998D01*
X43536202Y-78638997D01*
X43360198Y-78815000D01*
X43298061Y-78815000D01*
X43098102Y-78854774D01*
X42909744Y-78932795D01*
X42740226Y-79046063D01*
X42596063Y-79190226D01*
X42482795Y-79359744D01*
X42404774Y-79548102D01*
X42365000Y-79748061D01*
X42365000Y-79951939D01*
X42404774Y-80151898D01*
X42482795Y-80340256D01*
X42596063Y-80509774D01*
X42740226Y-80653937D01*
X42909744Y-80767205D01*
X43098102Y-80845226D01*
X43298061Y-80885000D01*
X43501939Y-80885000D01*
X43701898Y-80845226D01*
X43890256Y-80767205D01*
X44059774Y-80653937D01*
X44065001Y-80648710D01*
X44065000Y-85058199D01*
X41233200Y-87890001D01*
X36084800Y-87890001D01*
X37376740Y-86598061D01*
X39890000Y-86598061D01*
X39890000Y-86801939D01*
X39929774Y-87001898D01*
X40007795Y-87190256D01*
X40121063Y-87359774D01*
X40265226Y-87503937D01*
X40434744Y-87617205D01*
X40623102Y-87695226D01*
X40823061Y-87735000D01*
X41026939Y-87735000D01*
X41226898Y-87695226D01*
X41415256Y-87617205D01*
X41584774Y-87503937D01*
X41728937Y-87359774D01*
X41842205Y-87190256D01*
X41920226Y-87001898D01*
X41960000Y-86801939D01*
X41960000Y-86598061D01*
X41920226Y-86398102D01*
X41842205Y-86209744D01*
X41728937Y-86040226D01*
X41584774Y-85896063D01*
X41415256Y-85782795D01*
X41226898Y-85704774D01*
X41026939Y-85665000D01*
X40823061Y-85665000D01*
X40623102Y-85704774D01*
X40434744Y-85782795D01*
X40265226Y-85896063D01*
X40121063Y-86040226D01*
X40007795Y-86209744D01*
X39929774Y-86398102D01*
X39890000Y-86598061D01*
X37376740Y-86598061D01*
X37489802Y-86485000D01*
X37551939Y-86485000D01*
X37751898Y-86445226D01*
X37940256Y-86367205D01*
X38109774Y-86253937D01*
X38253937Y-86109774D01*
X38367205Y-85940256D01*
X38445226Y-85751898D01*
X38485000Y-85551939D01*
X38485000Y-85348061D01*
X38445226Y-85148102D01*
X38367205Y-84959744D01*
X38253937Y-84790226D01*
X38109774Y-84646063D01*
X37940256Y-84532795D01*
X37751898Y-84454774D01*
X37551939Y-84415000D01*
X37348061Y-84415000D01*
X37148102Y-84454774D01*
X36959744Y-84532795D01*
X36790226Y-84646063D01*
X36646063Y-84790226D01*
X36532795Y-84959744D01*
X36454774Y-85148102D01*
X36415000Y-85348061D01*
X36415000Y-85410198D01*
X34385208Y-87439991D01*
X32627920Y-87439991D01*
X32590597Y-87436315D01*
X32553274Y-87439991D01*
X32553264Y-87439991D01*
X32441611Y-87450988D01*
X32298350Y-87494445D01*
X32166320Y-87565017D01*
X32082680Y-87633659D01*
X32050596Y-87659990D01*
X32026798Y-87688988D01*
X31334999Y-88380787D01*
X31334999Y-81248061D01*
X37515000Y-81248061D01*
X37515000Y-81451939D01*
X37554774Y-81651898D01*
X37632795Y-81840256D01*
X37746063Y-82009774D01*
X37890226Y-82153937D01*
X38059744Y-82267205D01*
X38248102Y-82345226D01*
X38448061Y-82385000D01*
X38651939Y-82385000D01*
X38851898Y-82345226D01*
X39040256Y-82267205D01*
X39209774Y-82153937D01*
X39353937Y-82009774D01*
X39467205Y-81840256D01*
X39545226Y-81651898D01*
X39585000Y-81451939D01*
X39585000Y-81248061D01*
X39545226Y-81048102D01*
X39467205Y-80859744D01*
X39353937Y-80690226D01*
X39209774Y-80546063D01*
X39040256Y-80432795D01*
X38851898Y-80354774D01*
X38651939Y-80315000D01*
X38448061Y-80315000D01*
X38248102Y-80354774D01*
X38059744Y-80432795D01*
X37890226Y-80546063D01*
X37746063Y-80690226D01*
X37632795Y-80859744D01*
X37554774Y-81048102D01*
X37515000Y-81248061D01*
X31334999Y-81248061D01*
X31334999Y-69598061D01*
X35265000Y-69598061D01*
X35265000Y-69801939D01*
X35304774Y-70001898D01*
X35382795Y-70190256D01*
X35496063Y-70359774D01*
X35640226Y-70503937D01*
X35809744Y-70617205D01*
X35998102Y-70695226D01*
X36198061Y-70735000D01*
X36401939Y-70735000D01*
X36601898Y-70695226D01*
X36790256Y-70617205D01*
X36959774Y-70503937D01*
X37103937Y-70359774D01*
X37217205Y-70190256D01*
X37295226Y-70001898D01*
X37335000Y-69801939D01*
X37335000Y-69598061D01*
X37295226Y-69398102D01*
X37217205Y-69209744D01*
X37103937Y-69040226D01*
X36959774Y-68896063D01*
X36887934Y-68848061D01*
X40865000Y-68848061D01*
X40865000Y-69051939D01*
X40904774Y-69251898D01*
X40982795Y-69440256D01*
X41096063Y-69609774D01*
X41240226Y-69753937D01*
X41409744Y-69867205D01*
X41598102Y-69945226D01*
X41798061Y-69985000D01*
X42001939Y-69985000D01*
X42201898Y-69945226D01*
X42390256Y-69867205D01*
X42559774Y-69753937D01*
X42703937Y-69609774D01*
X42817205Y-69440256D01*
X42895226Y-69251898D01*
X42935000Y-69051939D01*
X42935000Y-68848061D01*
X42895226Y-68648102D01*
X42817205Y-68459744D01*
X42703937Y-68290226D01*
X42559774Y-68146063D01*
X42390256Y-68032795D01*
X42201898Y-67954774D01*
X42001939Y-67915000D01*
X41798061Y-67915000D01*
X41598102Y-67954774D01*
X41409744Y-68032795D01*
X41240226Y-68146063D01*
X41096063Y-68290226D01*
X40982795Y-68459744D01*
X40904774Y-68648102D01*
X40865000Y-68848061D01*
X36887934Y-68848061D01*
X36790256Y-68782795D01*
X36601898Y-68704774D01*
X36401939Y-68665000D01*
X36198061Y-68665000D01*
X35998102Y-68704774D01*
X35809744Y-68782795D01*
X35640226Y-68896063D01*
X35496063Y-69040226D01*
X35382795Y-69209744D01*
X35304774Y-69398102D01*
X35265000Y-69598061D01*
X31334999Y-69598061D01*
X31334999Y-67939812D01*
X32064812Y-67210000D01*
X32126949Y-67210000D01*
X32326908Y-67170226D01*
X32515266Y-67092205D01*
X32684784Y-66978937D01*
X32828947Y-66834774D01*
X32942215Y-66665256D01*
X33020236Y-66476898D01*
X33060010Y-66276939D01*
X33060010Y-66073061D01*
X33020236Y-65873102D01*
X32942215Y-65684744D01*
X32828947Y-65515226D01*
X32684784Y-65371063D01*
X32515266Y-65257795D01*
X32326908Y-65179774D01*
X32126949Y-65140000D01*
X31923071Y-65140000D01*
X31723112Y-65179774D01*
X31534754Y-65257795D01*
X31365236Y-65371063D01*
X31221073Y-65515226D01*
X31107805Y-65684744D01*
X31029784Y-65873102D01*
X30990010Y-66073061D01*
X30990010Y-66135198D01*
X30064002Y-67061207D01*
X30034998Y-67085010D01*
X29979870Y-67152185D01*
X29940025Y-67200735D01*
X29914235Y-67248985D01*
X29869453Y-67332765D01*
X29825996Y-67476026D01*
X29814999Y-67587679D01*
X29814999Y-67587689D01*
X29811323Y-67625011D01*
X29814999Y-67662333D01*
X29814999Y-69190000D01*
X29698061Y-69190000D01*
X29498102Y-69229774D01*
X29309744Y-69307795D01*
X29140226Y-69421063D01*
X28996063Y-69565226D01*
X28882795Y-69734744D01*
X28804774Y-69923102D01*
X28765000Y-70123061D01*
X28765000Y-70326939D01*
X28804774Y-70526898D01*
X28882795Y-70715256D01*
X28996063Y-70884774D01*
X29140226Y-71028937D01*
X29309744Y-71142205D01*
X29498102Y-71220226D01*
X29698061Y-71260000D01*
X29814999Y-71260000D01*
X29815000Y-89264376D01*
X20645596Y-98433781D01*
X20634697Y-90439493D01*
X20785402Y-90501917D01*
X21026890Y-90549952D01*
X21273110Y-90549952D01*
X21514598Y-90501917D01*
X21742074Y-90407693D01*
X21946798Y-90270901D01*
X22120901Y-90096798D01*
X22257693Y-89892074D01*
X22351917Y-89664598D01*
X22399952Y-89423110D01*
X22399952Y-89176890D01*
X22351917Y-88935402D01*
X22257693Y-88707926D01*
X22120901Y-88503202D01*
X21946798Y-88329099D01*
X21742074Y-88192307D01*
X21514598Y-88098083D01*
X21273110Y-88050048D01*
X21026890Y-88050048D01*
X20785402Y-88098083D01*
X20631592Y-88161794D01*
X20624927Y-83273061D01*
X22190000Y-83273061D01*
X22190000Y-83476939D01*
X22229774Y-83676898D01*
X22307795Y-83865256D01*
X22421063Y-84034774D01*
X22565226Y-84178937D01*
X22734744Y-84292205D01*
X22923102Y-84370226D01*
X23123061Y-84410000D01*
X23326939Y-84410000D01*
X23526898Y-84370226D01*
X23715256Y-84292205D01*
X23884774Y-84178937D01*
X24028937Y-84034774D01*
X24142205Y-83865256D01*
X24220226Y-83676898D01*
X24260000Y-83476939D01*
X24260000Y-83273061D01*
X24220226Y-83073102D01*
X24142205Y-82884744D01*
X24028937Y-82715226D01*
X23884774Y-82571063D01*
X23715256Y-82457795D01*
X23526898Y-82379774D01*
X23326939Y-82340000D01*
X23123061Y-82340000D01*
X22923102Y-82379774D01*
X22734744Y-82457795D01*
X22565226Y-82571063D01*
X22421063Y-82715226D01*
X22307795Y-82884744D01*
X22229774Y-83073102D01*
X22190000Y-83273061D01*
X20624927Y-83273061D01*
X20620394Y-79948061D01*
X26090000Y-79948061D01*
X26090000Y-80151939D01*
X26129774Y-80351898D01*
X26207795Y-80540256D01*
X26321063Y-80709774D01*
X26465226Y-80853937D01*
X26634744Y-80967205D01*
X26823102Y-81045226D01*
X27023061Y-81085000D01*
X27226939Y-81085000D01*
X27426898Y-81045226D01*
X27615256Y-80967205D01*
X27784774Y-80853937D01*
X27928937Y-80709774D01*
X28042205Y-80540256D01*
X28120226Y-80351898D01*
X28160000Y-80151939D01*
X28160000Y-79948061D01*
X28120226Y-79748102D01*
X28042205Y-79559744D01*
X27928937Y-79390226D01*
X27784774Y-79246063D01*
X27615256Y-79132795D01*
X27426898Y-79054774D01*
X27226939Y-79015000D01*
X27023061Y-79015000D01*
X26823102Y-79054774D01*
X26634744Y-79132795D01*
X26465226Y-79246063D01*
X26321063Y-79390226D01*
X26207795Y-79559744D01*
X26129774Y-79748102D01*
X26090000Y-79948061D01*
X20620394Y-79948061D01*
X20612834Y-74403051D01*
X20700466Y-74420482D01*
X20904344Y-74420482D01*
X21104303Y-74380708D01*
X21292661Y-74302687D01*
X21462179Y-74189419D01*
X21517129Y-74134469D01*
X21660337Y-74091028D01*
X21792366Y-74020456D01*
X21908091Y-73925483D01*
X21931894Y-73896479D01*
X24311002Y-71517372D01*
X24340000Y-71493574D01*
X24434973Y-71377849D01*
X24505545Y-71245820D01*
X24549002Y-71102559D01*
X24559999Y-70990906D01*
X24559999Y-70990898D01*
X24563675Y-70953573D01*
X24559999Y-70916248D01*
X24559999Y-67537321D01*
X24563675Y-67499998D01*
X24559999Y-67462676D01*
X24559999Y-67462666D01*
X24549002Y-67351013D01*
X24505545Y-67207752D01*
X24435000Y-67075774D01*
X24435000Y-66998061D01*
X24395226Y-66798102D01*
X24317205Y-66609744D01*
X24203937Y-66440226D01*
X24059774Y-66296063D01*
X23890256Y-66182795D01*
X23701898Y-66104774D01*
X23501939Y-66065000D01*
X23298061Y-66065000D01*
X23098102Y-66104774D01*
X22909744Y-66182795D01*
X22740226Y-66296063D01*
X22596063Y-66440226D01*
X22482795Y-66609744D01*
X22404774Y-66798102D01*
X22365000Y-66998061D01*
X22365000Y-67122571D01*
X22326938Y-67115000D01*
X22123060Y-67115000D01*
X21923101Y-67154774D01*
X21734743Y-67232795D01*
X21565225Y-67346063D01*
X21421062Y-67490226D01*
X21307794Y-67659744D01*
X21229773Y-67848102D01*
X21189999Y-68048061D01*
X21189999Y-68251939D01*
X21229773Y-68451898D01*
X21307794Y-68640256D01*
X21421062Y-68809774D01*
X21565225Y-68953937D01*
X21734743Y-69067205D01*
X21923101Y-69145226D01*
X22123060Y-69185000D01*
X22185197Y-69185000D01*
X22190001Y-69189804D01*
X22190001Y-69415000D01*
X22123061Y-69415000D01*
X21923102Y-69454774D01*
X21734744Y-69532795D01*
X21565226Y-69646063D01*
X21421063Y-69790226D01*
X21307795Y-69959744D01*
X21229774Y-70148102D01*
X21190000Y-70348061D01*
X21190000Y-70551939D01*
X21229774Y-70751898D01*
X21307795Y-70940256D01*
X21421063Y-71109774D01*
X21492245Y-71180956D01*
X21226765Y-71446436D01*
X21091334Y-71390338D01*
X20891375Y-71350564D01*
X20687497Y-71350564D01*
X20608694Y-71366239D01*
X20600967Y-65698061D01*
X26040000Y-65698061D01*
X26040000Y-65901939D01*
X26079774Y-66101898D01*
X26157795Y-66290256D01*
X26271063Y-66459774D01*
X26415226Y-66603937D01*
X26584744Y-66717205D01*
X26773102Y-66795226D01*
X26973061Y-66835000D01*
X27176939Y-66835000D01*
X27376898Y-66795226D01*
X27565256Y-66717205D01*
X27734774Y-66603937D01*
X27878937Y-66459774D01*
X27992205Y-66290256D01*
X28070226Y-66101898D01*
X28110000Y-65901939D01*
X28110000Y-65698061D01*
X28070226Y-65498102D01*
X27992205Y-65309744D01*
X27878937Y-65140226D01*
X27734774Y-64996063D01*
X27565256Y-64882795D01*
X27376898Y-64804774D01*
X27176939Y-64765000D01*
X26973061Y-64765000D01*
X26773102Y-64804774D01*
X26584744Y-64882795D01*
X26415226Y-64996063D01*
X26271063Y-65140226D01*
X26157795Y-65309744D01*
X26079774Y-65498102D01*
X26040000Y-65698061D01*
X20600967Y-65698061D01*
X20598173Y-63648061D01*
X36390000Y-63648061D01*
X36390000Y-63851939D01*
X36429774Y-64051898D01*
X36507795Y-64240256D01*
X36621063Y-64409774D01*
X36765226Y-64553937D01*
X36934744Y-64667205D01*
X37123102Y-64745226D01*
X37323061Y-64785000D01*
X37526939Y-64785000D01*
X37726898Y-64745226D01*
X37915256Y-64667205D01*
X38084774Y-64553937D01*
X38228937Y-64409774D01*
X38342205Y-64240256D01*
X38420226Y-64051898D01*
X38460000Y-63851939D01*
X38460000Y-63648061D01*
X38420226Y-63448102D01*
X38342205Y-63259744D01*
X38228937Y-63090226D01*
X38084774Y-62946063D01*
X37915256Y-62832795D01*
X37726898Y-62754774D01*
X37526939Y-62715000D01*
X37323061Y-62715000D01*
X37123102Y-62754774D01*
X36934744Y-62832795D01*
X36765226Y-62946063D01*
X36621063Y-63090226D01*
X36507795Y-63259744D01*
X36429774Y-63448102D01*
X36390000Y-63648061D01*
X20598173Y-63648061D01*
X20594289Y-60800000D01*
X25609509Y-60800000D01*
X25631423Y-61022499D01*
X25696324Y-61236447D01*
X25801716Y-61433623D01*
X25943551Y-61606449D01*
X26116377Y-61748284D01*
X26313553Y-61853676D01*
X26527501Y-61918577D01*
X26694248Y-61935000D01*
X29955752Y-61935000D01*
X30122499Y-61918577D01*
X30336447Y-61853676D01*
X30533623Y-61748284D01*
X30706449Y-61606449D01*
X30848284Y-61433623D01*
X30953676Y-61236447D01*
X31018577Y-61022499D01*
X31040491Y-60800000D01*
X31018577Y-60577501D01*
X30953676Y-60363553D01*
X30848284Y-60166377D01*
X30706449Y-59993551D01*
X30533623Y-59851716D01*
X30336447Y-59746324D01*
X30122499Y-59681423D01*
X29955752Y-59665000D01*
X26694248Y-59665000D01*
X26527501Y-59681423D01*
X26313553Y-59746324D01*
X26116377Y-59851716D01*
X25943551Y-59993551D01*
X25801716Y-60166377D01*
X25696324Y-60363553D01*
X25631423Y-60577501D01*
X25609509Y-60800000D01*
X20594289Y-60800000D01*
X20591190Y-58526890D01*
X46750048Y-58526890D01*
X46750048Y-58773110D01*
X46798083Y-59014598D01*
X46892307Y-59242074D01*
X47029099Y-59446798D01*
X47203202Y-59620901D01*
X47407926Y-59757693D01*
X47635402Y-59851917D01*
X47876890Y-59899952D01*
X48123110Y-59899952D01*
X48364598Y-59851917D01*
X48592074Y-59757693D01*
X48796798Y-59620901D01*
X48970901Y-59446798D01*
X49107693Y-59242074D01*
X49201917Y-59014598D01*
X49249952Y-58773110D01*
X49249952Y-58526890D01*
X49201917Y-58285402D01*
X49107693Y-58057926D01*
X48970901Y-57853202D01*
X48796798Y-57679099D01*
X48592074Y-57542307D01*
X48364598Y-57448083D01*
X48123110Y-57400048D01*
X47876890Y-57400048D01*
X47635402Y-57448083D01*
X47407926Y-57542307D01*
X47203202Y-57679099D01*
X47029099Y-57853202D01*
X46892307Y-58057926D01*
X46798083Y-58285402D01*
X46750048Y-58526890D01*
X20591190Y-58526890D01*
X20560053Y-35688312D01*
X20655820Y-35739502D01*
X20775518Y-35775812D01*
X20900000Y-35788072D01*
X21114250Y-35785000D01*
X21273000Y-35626250D01*
X21273000Y-31777000D01*
X21253000Y-31777000D01*
X21253000Y-31523000D01*
X21273000Y-31523000D01*
X21273000Y-31503000D01*
X21527000Y-31503000D01*
X21527000Y-31523000D01*
%TA.AperFunction,Conductor*%
D18*
G36*
X21527000Y-31523000D02*
G01*
X21547000Y-31523000D01*
X21547000Y-31777000D01*
X21527000Y-31777000D01*
X21527000Y-35626250D01*
X21685750Y-35785000D01*
X21900000Y-35788072D01*
X22024482Y-35775812D01*
X22140001Y-35740770D01*
X22140001Y-38212668D01*
X22136324Y-38250000D01*
X22140001Y-38287333D01*
X22150783Y-38396798D01*
X22150998Y-38398985D01*
X22194454Y-38542246D01*
X22265026Y-38674276D01*
X22336201Y-38761002D01*
X22360000Y-38790001D01*
X22388998Y-38813799D01*
X30125198Y-46550000D01*
X24725301Y-46550000D01*
X24667205Y-46409744D01*
X24553937Y-46240226D01*
X24409774Y-46096063D01*
X24240256Y-45982795D01*
X24051898Y-45904774D01*
X23851939Y-45865000D01*
X23648061Y-45865000D01*
X23448102Y-45904774D01*
X23259744Y-45982795D01*
X23090226Y-46096063D01*
X22946063Y-46240226D01*
X22832795Y-46409744D01*
X22754774Y-46598102D01*
X22715000Y-46798061D01*
X22715000Y-47001939D01*
X22754774Y-47201898D01*
X22832795Y-47390256D01*
X22946063Y-47559774D01*
X23065479Y-47679190D01*
X23040226Y-47696063D01*
X22969044Y-47767245D01*
X22710000Y-47508201D01*
X22710000Y-46003711D01*
X22753937Y-45959774D01*
X22867205Y-45790256D01*
X22945226Y-45601898D01*
X22985000Y-45401939D01*
X22985000Y-45198061D01*
X22945226Y-44998102D01*
X22867205Y-44809744D01*
X22753937Y-44640226D01*
X22609774Y-44496063D01*
X22440256Y-44382795D01*
X22251898Y-44304774D01*
X22051939Y-44265000D01*
X21848061Y-44265000D01*
X21648102Y-44304774D01*
X21459744Y-44382795D01*
X21290226Y-44496063D01*
X21146063Y-44640226D01*
X21032795Y-44809744D01*
X20954774Y-44998102D01*
X20915000Y-45198061D01*
X20915000Y-45401939D01*
X20954774Y-45601898D01*
X21032795Y-45790256D01*
X21146063Y-45959774D01*
X21190000Y-46003711D01*
X21190001Y-47785670D01*
X21186324Y-47823002D01*
X21190001Y-47860335D01*
X21200998Y-47971988D01*
X21212451Y-48009744D01*
X21244454Y-48115248D01*
X21315026Y-48247278D01*
X21371281Y-48315824D01*
X21410000Y-48363003D01*
X21438998Y-48386801D01*
X24238200Y-51186004D01*
X24261998Y-51215002D01*
X24377723Y-51309975D01*
X24509752Y-51380547D01*
X24653013Y-51424004D01*
X24764666Y-51435001D01*
X24764674Y-51435001D01*
X24801999Y-51438677D01*
X24839324Y-51435001D01*
X34608679Y-51435001D01*
X34646001Y-51438677D01*
X34683323Y-51435001D01*
X34683334Y-51435001D01*
X34794987Y-51424004D01*
X34938248Y-51380547D01*
X35070277Y-51309975D01*
X35186002Y-51215002D01*
X35209805Y-51185998D01*
X35585999Y-50809804D01*
X35615002Y-50786002D01*
X35709975Y-50670277D01*
X35780547Y-50538248D01*
X35824004Y-50394987D01*
X35835001Y-50283334D01*
X35835001Y-50283333D01*
X35838678Y-50246001D01*
X35835001Y-50208668D01*
X35835001Y-45632334D01*
X35838678Y-45595001D01*
X35824004Y-45446015D01*
X35780547Y-45302754D01*
X35709975Y-45170725D01*
X35638800Y-45083998D01*
X35615002Y-45055000D01*
X35586003Y-45031202D01*
X35385000Y-44830198D01*
X35385000Y-44658212D01*
X35341383Y-44438933D01*
X35295112Y-44327226D01*
X35331046Y-44260000D01*
X36612197Y-44260000D01*
X41413203Y-49061008D01*
X41436997Y-49090001D01*
X41465990Y-49113795D01*
X41465994Y-49113799D01*
X41536683Y-49171811D01*
X41552722Y-49184974D01*
X41684751Y-49255546D01*
X41828012Y-49299003D01*
X41939665Y-49310000D01*
X41939674Y-49310000D01*
X41976997Y-49313676D01*
X42014320Y-49310000D01*
X44435680Y-49310000D01*
X44473002Y-49313676D01*
X44510324Y-49310000D01*
X44510335Y-49310000D01*
X44621988Y-49299003D01*
X44765249Y-49255546D01*
X44897278Y-49184974D01*
X45013003Y-49090001D01*
X45036806Y-49060997D01*
X48911003Y-45186801D01*
X48940001Y-45163003D01*
X49034974Y-45047278D01*
X49105546Y-44915249D01*
X49149003Y-44771988D01*
X49160000Y-44660335D01*
X49160000Y-44660325D01*
X49163676Y-44623002D01*
X49160000Y-44585679D01*
X49160000Y-35624770D01*
X49240001Y-35559116D01*
X49240001Y-35618028D01*
X49239957Y-35618481D01*
X49240001Y-35650752D01*
X49240001Y-35682419D01*
X49240045Y-35682863D01*
X49329236Y-101105231D01*
X49256446Y-101066324D01*
X49042498Y-101001423D01*
X48820000Y-100979509D01*
X48597501Y-101001423D01*
X48383553Y-101066324D01*
X48186377Y-101171716D01*
X48013551Y-101313551D01*
X47871716Y-101486377D01*
X47766324Y-101683554D01*
X47701423Y-101897502D01*
X47685000Y-102064249D01*
X47685000Y-102283096D01*
X47670022Y-102276892D01*
X47484552Y-102240000D01*
X47295448Y-102240000D01*
X47109978Y-102276892D01*
X46935269Y-102349259D01*
X46778036Y-102454319D01*
X46644319Y-102588036D01*
X46539259Y-102745269D01*
X46466892Y-102919978D01*
X46430000Y-103105448D01*
X46430000Y-103294552D01*
X46466892Y-103480022D01*
X46539259Y-103654731D01*
X46644319Y-103811964D01*
X46778036Y-103945681D01*
X46935269Y-104050741D01*
X47109978Y-104123108D01*
X47295448Y-104160000D01*
X47484552Y-104160000D01*
X47670022Y-104123108D01*
X47844731Y-104050741D01*
X47966638Y-103969285D01*
X48013552Y-104026449D01*
X48186378Y-104168284D01*
X48383554Y-104273676D01*
X48597502Y-104338577D01*
X48820000Y-104360491D01*
X49042499Y-104338577D01*
X49256447Y-104273676D01*
X49333500Y-104232491D01*
X49335280Y-105538461D01*
X49256446Y-105496324D01*
X49042498Y-105431423D01*
X48820000Y-105409509D01*
X48597501Y-105431423D01*
X48383553Y-105496324D01*
X48186377Y-105601716D01*
X48013551Y-105743551D01*
X47871716Y-105916377D01*
X47766324Y-106113554D01*
X47701423Y-106327502D01*
X47685000Y-106494249D01*
X47685000Y-107205752D01*
X47701423Y-107372499D01*
X47766324Y-107586447D01*
X47871717Y-107783623D01*
X48013552Y-107956449D01*
X48186378Y-108098284D01*
X48383554Y-108203676D01*
X48597502Y-108268577D01*
X48820000Y-108290491D01*
X49042499Y-108268577D01*
X49256447Y-108203676D01*
X49338854Y-108159629D01*
X49339956Y-108968170D01*
X49328516Y-109084846D01*
X49303874Y-109166465D01*
X49263848Y-109241743D01*
X49209966Y-109307808D01*
X49144277Y-109362151D01*
X49069280Y-109402702D01*
X48987839Y-109427912D01*
X48872821Y-109440001D01*
X32433967Y-109440000D01*
X32467205Y-109390256D01*
X32545226Y-109201898D01*
X32585000Y-109001939D01*
X32585000Y-108798061D01*
X32545226Y-108598102D01*
X32467205Y-108409744D01*
X32353937Y-108240226D01*
X32209774Y-108096063D01*
X32040256Y-107982795D01*
X31851898Y-107904774D01*
X31651939Y-107865000D01*
X31448061Y-107865000D01*
X31248102Y-107904774D01*
X31059744Y-107982795D01*
X30890226Y-108096063D01*
X30746063Y-108240226D01*
X30632795Y-108409744D01*
X30554774Y-108598102D01*
X30515000Y-108798061D01*
X30515000Y-109001939D01*
X30554774Y-109201898D01*
X30632795Y-109390256D01*
X30666033Y-109440000D01*
X21132277Y-109439999D01*
X21015154Y-109428515D01*
X20933537Y-109403874D01*
X20858259Y-109363848D01*
X20792189Y-109309963D01*
X20737847Y-109244274D01*
X20697299Y-109169282D01*
X20672089Y-109087840D01*
X20659964Y-108972474D01*
X20655056Y-105372655D01*
X21829500Y-105372655D01*
X21829500Y-105595345D01*
X21872944Y-105813755D01*
X21958164Y-106019493D01*
X22081883Y-106204652D01*
X22239348Y-106362117D01*
X22424507Y-106485836D01*
X22458702Y-106500000D01*
X22424507Y-106514164D01*
X22239348Y-106637883D01*
X22081883Y-106795348D01*
X21958164Y-106980507D01*
X21872944Y-107186245D01*
X21829500Y-107404655D01*
X21829500Y-107627345D01*
X21872944Y-107845755D01*
X21958164Y-108051493D01*
X22081883Y-108236652D01*
X22239348Y-108394117D01*
X22424507Y-108517836D01*
X22630245Y-108603056D01*
X22848655Y-108646500D01*
X23071345Y-108646500D01*
X23289755Y-108603056D01*
X23495493Y-108517836D01*
X23680652Y-108394117D01*
X23838117Y-108236652D01*
X23961836Y-108051493D01*
X24047056Y-107845755D01*
X24090500Y-107627345D01*
X24090500Y-107404655D01*
X24047056Y-107186245D01*
X23961836Y-106980507D01*
X23838117Y-106795348D01*
X23680652Y-106637883D01*
X23495493Y-106514164D01*
X23461298Y-106500000D01*
X23495493Y-106485836D01*
X23640934Y-106388655D01*
X26909500Y-106388655D01*
X26909500Y-106611345D01*
X26952944Y-106829755D01*
X27038164Y-107035493D01*
X27161883Y-107220652D01*
X27319348Y-107378117D01*
X27504507Y-107501836D01*
X27710245Y-107587056D01*
X27928655Y-107630500D01*
X28151345Y-107630500D01*
X28369755Y-107587056D01*
X28575493Y-107501836D01*
X28760652Y-107378117D01*
X28918117Y-107220652D01*
X29041836Y-107035493D01*
X29127056Y-106829755D01*
X29170500Y-106611345D01*
X29170500Y-106494249D01*
X39045000Y-106494249D01*
X39045000Y-107205752D01*
X39061423Y-107372499D01*
X39126324Y-107586447D01*
X39231717Y-107783623D01*
X39373552Y-107956449D01*
X39546378Y-108098284D01*
X39743554Y-108203676D01*
X39957502Y-108268577D01*
X40180000Y-108290491D01*
X40402499Y-108268577D01*
X40616447Y-108203676D01*
X40813623Y-108098284D01*
X40986449Y-107956449D01*
X41128284Y-107783623D01*
X41233676Y-107586446D01*
X41298577Y-107372498D01*
X41315000Y-107205751D01*
X41315000Y-106494248D01*
X41298577Y-106327501D01*
X41233676Y-106113553D01*
X41128284Y-105916377D01*
X40986449Y-105743551D01*
X40813623Y-105601716D01*
X40616446Y-105496324D01*
X40402498Y-105431423D01*
X40180000Y-105409509D01*
X39957501Y-105431423D01*
X39743553Y-105496324D01*
X39546377Y-105601716D01*
X39373551Y-105743551D01*
X39231716Y-105916377D01*
X39126324Y-106113554D01*
X39061423Y-106327502D01*
X39045000Y-106494249D01*
X29170500Y-106494249D01*
X29170500Y-106388655D01*
X29127056Y-106170245D01*
X29041836Y-105964507D01*
X28918117Y-105779348D01*
X28760652Y-105621883D01*
X28575493Y-105498164D01*
X28369755Y-105412944D01*
X28151345Y-105369500D01*
X27928655Y-105369500D01*
X27710245Y-105412944D01*
X27504507Y-105498164D01*
X27319348Y-105621883D01*
X27161883Y-105779348D01*
X27038164Y-105964507D01*
X26952944Y-106170245D01*
X26909500Y-106388655D01*
X23640934Y-106388655D01*
X23680652Y-106362117D01*
X23838117Y-106204652D01*
X23961836Y-106019493D01*
X24047056Y-105813755D01*
X24090500Y-105595345D01*
X24090500Y-105372655D01*
X24047056Y-105154245D01*
X23961836Y-104948507D01*
X23838117Y-104763348D01*
X23680652Y-104605883D01*
X23495493Y-104482164D01*
X23289755Y-104396944D01*
X23071345Y-104353500D01*
X22848655Y-104353500D01*
X22630245Y-104396944D01*
X22424507Y-104482164D01*
X22239348Y-104605883D01*
X22081883Y-104763348D01*
X21958164Y-104948507D01*
X21872944Y-105154245D01*
X21829500Y-105372655D01*
X20655056Y-105372655D01*
X20652842Y-103748959D01*
X20735407Y-103774004D01*
X20847060Y-103785001D01*
X20847068Y-103785001D01*
X20884393Y-103788677D01*
X20921718Y-103785001D01*
X24762677Y-103785001D01*
X24799999Y-103788677D01*
X24837321Y-103785001D01*
X24837332Y-103785001D01*
X24948985Y-103774004D01*
X25092246Y-103730547D01*
X25224275Y-103659975D01*
X25340000Y-103565002D01*
X25363802Y-103535999D01*
X25564801Y-103335000D01*
X25626939Y-103335000D01*
X25826898Y-103295226D01*
X26015256Y-103217205D01*
X26016538Y-103216348D01*
X26116377Y-103298284D01*
X26313553Y-103403676D01*
X26527501Y-103468577D01*
X26694248Y-103485000D01*
X30144249Y-103485000D01*
X30200000Y-103490491D01*
X30255751Y-103485000D01*
X30255752Y-103485000D01*
X30422499Y-103468577D01*
X30636447Y-103403676D01*
X30833623Y-103298284D01*
X31006449Y-103156449D01*
X31041996Y-103113135D01*
X32090882Y-102064249D01*
X39045000Y-102064249D01*
X39045000Y-103275752D01*
X39061423Y-103442499D01*
X39126324Y-103656447D01*
X39231717Y-103853623D01*
X39373552Y-104026449D01*
X39546378Y-104168284D01*
X39743554Y-104273676D01*
X39957502Y-104338577D01*
X40180000Y-104360491D01*
X40402499Y-104338577D01*
X40616447Y-104273676D01*
X40813623Y-104168284D01*
X40986449Y-104026449D01*
X41033362Y-103969285D01*
X41155269Y-104050741D01*
X41329978Y-104123108D01*
X41515448Y-104160000D01*
X41704552Y-104160000D01*
X41890022Y-104123108D01*
X42064731Y-104050741D01*
X42221964Y-103945681D01*
X42355681Y-103811964D01*
X42460741Y-103654731D01*
X42533108Y-103480022D01*
X42570000Y-103294552D01*
X42570000Y-103105448D01*
X42533108Y-102919978D01*
X42460741Y-102745269D01*
X42355681Y-102588036D01*
X42221964Y-102454319D01*
X42064731Y-102349259D01*
X41890022Y-102276892D01*
X41704552Y-102240000D01*
X41515448Y-102240000D01*
X41329978Y-102276892D01*
X41315000Y-102283096D01*
X41315000Y-102064248D01*
X41298577Y-101897501D01*
X41233676Y-101683553D01*
X41128284Y-101486377D01*
X40986449Y-101313551D01*
X40813623Y-101171716D01*
X40616446Y-101066324D01*
X40402498Y-101001423D01*
X40180000Y-100979509D01*
X39957501Y-101001423D01*
X39743553Y-101066324D01*
X39546377Y-101171716D01*
X39373551Y-101313551D01*
X39231716Y-101486377D01*
X39126324Y-101683554D01*
X39061423Y-101897502D01*
X39045000Y-102064249D01*
X32090882Y-102064249D01*
X32213140Y-101941992D01*
X32256449Y-101906449D01*
X32398284Y-101733623D01*
X32503676Y-101536447D01*
X32568577Y-101322499D01*
X32585000Y-101155752D01*
X32590491Y-101100000D01*
X32585000Y-101044249D01*
X32585000Y-99148061D01*
X43215000Y-99148061D01*
X43215000Y-99351939D01*
X43254774Y-99551898D01*
X43332795Y-99740256D01*
X43446063Y-99909774D01*
X43590226Y-100053937D01*
X43759744Y-100167205D01*
X43948102Y-100245226D01*
X44148061Y-100285000D01*
X44351939Y-100285000D01*
X44551898Y-100245226D01*
X44740256Y-100167205D01*
X44765795Y-100150141D01*
X44772397Y-100154552D01*
X44960755Y-100232573D01*
X45160714Y-100272347D01*
X45364592Y-100272347D01*
X45564551Y-100232573D01*
X45752909Y-100154552D01*
X45922427Y-100041284D01*
X45965000Y-99998711D01*
X45965000Y-100101939D01*
X46004774Y-100301898D01*
X46082795Y-100490256D01*
X46196063Y-100659774D01*
X46340226Y-100803937D01*
X46509744Y-100917205D01*
X46698102Y-100995226D01*
X46898061Y-101035000D01*
X47101939Y-101035000D01*
X47301898Y-100995226D01*
X47490256Y-100917205D01*
X47659774Y-100803937D01*
X47803937Y-100659774D01*
X47917205Y-100490256D01*
X47995226Y-100301898D01*
X48035000Y-100101939D01*
X48035000Y-99898061D01*
X47995226Y-99698102D01*
X47917205Y-99509744D01*
X47803937Y-99340226D01*
X47659774Y-99196063D01*
X47490256Y-99082795D01*
X47301898Y-99004774D01*
X47101939Y-98965000D01*
X46898061Y-98965000D01*
X46698102Y-99004774D01*
X46509744Y-99082795D01*
X46340226Y-99196063D01*
X46297653Y-99238636D01*
X46297653Y-99135408D01*
X46257879Y-98935449D01*
X46179858Y-98747091D01*
X46066590Y-98577573D01*
X45922427Y-98433410D01*
X45752909Y-98320142D01*
X45564551Y-98242121D01*
X45364592Y-98202347D01*
X45160714Y-98202347D01*
X44960755Y-98242121D01*
X44772397Y-98320142D01*
X44746858Y-98337206D01*
X44740256Y-98332795D01*
X44551898Y-98254774D01*
X44351939Y-98215000D01*
X44148061Y-98215000D01*
X43948102Y-98254774D01*
X43759744Y-98332795D01*
X43590226Y-98446063D01*
X43446063Y-98590226D01*
X43332795Y-98759744D01*
X43254774Y-98948102D01*
X43215000Y-99148061D01*
X32585000Y-99148061D01*
X32585000Y-95544248D01*
X32568577Y-95377501D01*
X32503676Y-95163553D01*
X32398284Y-94966377D01*
X32256449Y-94793551D01*
X32083623Y-94651716D01*
X31886446Y-94546324D01*
X31672498Y-94481423D01*
X31450000Y-94459509D01*
X31227501Y-94481423D01*
X31013553Y-94546324D01*
X30816377Y-94651716D01*
X30643551Y-94793551D01*
X30501716Y-94966377D01*
X30396324Y-95163554D01*
X30331423Y-95377502D01*
X30315000Y-95544249D01*
X30315001Y-100629867D01*
X29729869Y-101215000D01*
X26694248Y-101215000D01*
X26527501Y-101231423D01*
X26313553Y-101296324D01*
X26116377Y-101401716D01*
X26083704Y-101428530D01*
X26015256Y-101382795D01*
X25826898Y-101304774D01*
X25626939Y-101265000D01*
X25423061Y-101265000D01*
X25223102Y-101304774D01*
X25034744Y-101382795D01*
X24865226Y-101496063D01*
X24721063Y-101640226D01*
X24607795Y-101809744D01*
X24529774Y-101998102D01*
X24490000Y-102198061D01*
X24490000Y-102260199D01*
X24485198Y-102265001D01*
X24284997Y-102265001D01*
X24284997Y-102198061D01*
X24245223Y-101998102D01*
X24191268Y-101867845D01*
X24235998Y-101823115D01*
X24265002Y-101799312D01*
X24333065Y-101716377D01*
X24359975Y-101683588D01*
X24430547Y-101551558D01*
X24450319Y-101486377D01*
X24474004Y-101408297D01*
X24485001Y-101296644D01*
X24485001Y-101296635D01*
X24488677Y-101259312D01*
X24485001Y-101221989D01*
X24485001Y-98653208D01*
X33278199Y-89860011D01*
X41697079Y-89860011D01*
X41734401Y-89863687D01*
X41771723Y-89860011D01*
X41771734Y-89860011D01*
X41883387Y-89849014D01*
X42026648Y-89805557D01*
X42158677Y-89734985D01*
X42274402Y-89640012D01*
X42298205Y-89611008D01*
X46061004Y-85848210D01*
X46090002Y-85824412D01*
X46184975Y-85708687D01*
X46255547Y-85576658D01*
X46299004Y-85433397D01*
X46310001Y-85321744D01*
X46310001Y-85321735D01*
X46313677Y-85284412D01*
X46310001Y-85247089D01*
X46310001Y-79564332D01*
X46313678Y-79526999D01*
X46299004Y-79378013D01*
X46255547Y-79234752D01*
X46197415Y-79125997D01*
X46184975Y-79102723D01*
X46090002Y-78986998D01*
X46060999Y-78963196D01*
X45736805Y-78639002D01*
X45713002Y-78609998D01*
X45597277Y-78515025D01*
X45465248Y-78444453D01*
X45321987Y-78400996D01*
X45210334Y-78389999D01*
X45210323Y-78389999D01*
X45173001Y-78386323D01*
X45135679Y-78389999D01*
X44137324Y-78389999D01*
X44100001Y-78386323D01*
X44062678Y-78389999D01*
X44062668Y-78389999D01*
X43951015Y-78400996D01*
X43807754Y-78444453D01*
X43675724Y-78515025D01*
X43592084Y-78583667D01*
X43560000Y-78609998D01*
X43536202Y-78638997D01*
X43360198Y-78815000D01*
X43298061Y-78815000D01*
X43098102Y-78854774D01*
X42909744Y-78932795D01*
X42740226Y-79046063D01*
X42596063Y-79190226D01*
X42482795Y-79359744D01*
X42404774Y-79548102D01*
X42365000Y-79748061D01*
X42365000Y-79951939D01*
X42404774Y-80151898D01*
X42482795Y-80340256D01*
X42596063Y-80509774D01*
X42740226Y-80653937D01*
X42909744Y-80767205D01*
X43098102Y-80845226D01*
X43298061Y-80885000D01*
X43501939Y-80885000D01*
X43701898Y-80845226D01*
X43890256Y-80767205D01*
X44059774Y-80653937D01*
X44065001Y-80648710D01*
X44065000Y-85058199D01*
X41233200Y-87890001D01*
X36084800Y-87890001D01*
X37376740Y-86598061D01*
X39890000Y-86598061D01*
X39890000Y-86801939D01*
X39929774Y-87001898D01*
X40007795Y-87190256D01*
X40121063Y-87359774D01*
X40265226Y-87503937D01*
X40434744Y-87617205D01*
X40623102Y-87695226D01*
X40823061Y-87735000D01*
X41026939Y-87735000D01*
X41226898Y-87695226D01*
X41415256Y-87617205D01*
X41584774Y-87503937D01*
X41728937Y-87359774D01*
X41842205Y-87190256D01*
X41920226Y-87001898D01*
X41960000Y-86801939D01*
X41960000Y-86598061D01*
X41920226Y-86398102D01*
X41842205Y-86209744D01*
X41728937Y-86040226D01*
X41584774Y-85896063D01*
X41415256Y-85782795D01*
X41226898Y-85704774D01*
X41026939Y-85665000D01*
X40823061Y-85665000D01*
X40623102Y-85704774D01*
X40434744Y-85782795D01*
X40265226Y-85896063D01*
X40121063Y-86040226D01*
X40007795Y-86209744D01*
X39929774Y-86398102D01*
X39890000Y-86598061D01*
X37376740Y-86598061D01*
X37489802Y-86485000D01*
X37551939Y-86485000D01*
X37751898Y-86445226D01*
X37940256Y-86367205D01*
X38109774Y-86253937D01*
X38253937Y-86109774D01*
X38367205Y-85940256D01*
X38445226Y-85751898D01*
X38485000Y-85551939D01*
X38485000Y-85348061D01*
X38445226Y-85148102D01*
X38367205Y-84959744D01*
X38253937Y-84790226D01*
X38109774Y-84646063D01*
X37940256Y-84532795D01*
X37751898Y-84454774D01*
X37551939Y-84415000D01*
X37348061Y-84415000D01*
X37148102Y-84454774D01*
X36959744Y-84532795D01*
X36790226Y-84646063D01*
X36646063Y-84790226D01*
X36532795Y-84959744D01*
X36454774Y-85148102D01*
X36415000Y-85348061D01*
X36415000Y-85410198D01*
X34385208Y-87439991D01*
X32627920Y-87439991D01*
X32590597Y-87436315D01*
X32553274Y-87439991D01*
X32553264Y-87439991D01*
X32441611Y-87450988D01*
X32298350Y-87494445D01*
X32166320Y-87565017D01*
X32082680Y-87633659D01*
X32050596Y-87659990D01*
X32026798Y-87688988D01*
X31334999Y-88380787D01*
X31334999Y-81248061D01*
X37515000Y-81248061D01*
X37515000Y-81451939D01*
X37554774Y-81651898D01*
X37632795Y-81840256D01*
X37746063Y-82009774D01*
X37890226Y-82153937D01*
X38059744Y-82267205D01*
X38248102Y-82345226D01*
X38448061Y-82385000D01*
X38651939Y-82385000D01*
X38851898Y-82345226D01*
X39040256Y-82267205D01*
X39209774Y-82153937D01*
X39353937Y-82009774D01*
X39467205Y-81840256D01*
X39545226Y-81651898D01*
X39585000Y-81451939D01*
X39585000Y-81248061D01*
X39545226Y-81048102D01*
X39467205Y-80859744D01*
X39353937Y-80690226D01*
X39209774Y-80546063D01*
X39040256Y-80432795D01*
X38851898Y-80354774D01*
X38651939Y-80315000D01*
X38448061Y-80315000D01*
X38248102Y-80354774D01*
X38059744Y-80432795D01*
X37890226Y-80546063D01*
X37746063Y-80690226D01*
X37632795Y-80859744D01*
X37554774Y-81048102D01*
X37515000Y-81248061D01*
X31334999Y-81248061D01*
X31334999Y-69598061D01*
X35265000Y-69598061D01*
X35265000Y-69801939D01*
X35304774Y-70001898D01*
X35382795Y-70190256D01*
X35496063Y-70359774D01*
X35640226Y-70503937D01*
X35809744Y-70617205D01*
X35998102Y-70695226D01*
X36198061Y-70735000D01*
X36401939Y-70735000D01*
X36601898Y-70695226D01*
X36790256Y-70617205D01*
X36959774Y-70503937D01*
X37103937Y-70359774D01*
X37217205Y-70190256D01*
X37295226Y-70001898D01*
X37335000Y-69801939D01*
X37335000Y-69598061D01*
X37295226Y-69398102D01*
X37217205Y-69209744D01*
X37103937Y-69040226D01*
X36959774Y-68896063D01*
X36887934Y-68848061D01*
X40865000Y-68848061D01*
X40865000Y-69051939D01*
X40904774Y-69251898D01*
X40982795Y-69440256D01*
X41096063Y-69609774D01*
X41240226Y-69753937D01*
X41409744Y-69867205D01*
X41598102Y-69945226D01*
X41798061Y-69985000D01*
X42001939Y-69985000D01*
X42201898Y-69945226D01*
X42390256Y-69867205D01*
X42559774Y-69753937D01*
X42703937Y-69609774D01*
X42817205Y-69440256D01*
X42895226Y-69251898D01*
X42935000Y-69051939D01*
X42935000Y-68848061D01*
X42895226Y-68648102D01*
X42817205Y-68459744D01*
X42703937Y-68290226D01*
X42559774Y-68146063D01*
X42390256Y-68032795D01*
X42201898Y-67954774D01*
X42001939Y-67915000D01*
X41798061Y-67915000D01*
X41598102Y-67954774D01*
X41409744Y-68032795D01*
X41240226Y-68146063D01*
X41096063Y-68290226D01*
X40982795Y-68459744D01*
X40904774Y-68648102D01*
X40865000Y-68848061D01*
X36887934Y-68848061D01*
X36790256Y-68782795D01*
X36601898Y-68704774D01*
X36401939Y-68665000D01*
X36198061Y-68665000D01*
X35998102Y-68704774D01*
X35809744Y-68782795D01*
X35640226Y-68896063D01*
X35496063Y-69040226D01*
X35382795Y-69209744D01*
X35304774Y-69398102D01*
X35265000Y-69598061D01*
X31334999Y-69598061D01*
X31334999Y-67939812D01*
X32064812Y-67210000D01*
X32126949Y-67210000D01*
X32326908Y-67170226D01*
X32515266Y-67092205D01*
X32684784Y-66978937D01*
X32828947Y-66834774D01*
X32942215Y-66665256D01*
X33020236Y-66476898D01*
X33060010Y-66276939D01*
X33060010Y-66073061D01*
X33020236Y-65873102D01*
X32942215Y-65684744D01*
X32828947Y-65515226D01*
X32684784Y-65371063D01*
X32515266Y-65257795D01*
X32326908Y-65179774D01*
X32126949Y-65140000D01*
X31923071Y-65140000D01*
X31723112Y-65179774D01*
X31534754Y-65257795D01*
X31365236Y-65371063D01*
X31221073Y-65515226D01*
X31107805Y-65684744D01*
X31029784Y-65873102D01*
X30990010Y-66073061D01*
X30990010Y-66135198D01*
X30064002Y-67061207D01*
X30034998Y-67085010D01*
X29979870Y-67152185D01*
X29940025Y-67200735D01*
X29914235Y-67248985D01*
X29869453Y-67332765D01*
X29825996Y-67476026D01*
X29814999Y-67587679D01*
X29814999Y-67587689D01*
X29811323Y-67625011D01*
X29814999Y-67662333D01*
X29814999Y-69190000D01*
X29698061Y-69190000D01*
X29498102Y-69229774D01*
X29309744Y-69307795D01*
X29140226Y-69421063D01*
X28996063Y-69565226D01*
X28882795Y-69734744D01*
X28804774Y-69923102D01*
X28765000Y-70123061D01*
X28765000Y-70326939D01*
X28804774Y-70526898D01*
X28882795Y-70715256D01*
X28996063Y-70884774D01*
X29140226Y-71028937D01*
X29309744Y-71142205D01*
X29498102Y-71220226D01*
X29698061Y-71260000D01*
X29814999Y-71260000D01*
X29815000Y-89264376D01*
X20645596Y-98433781D01*
X20634697Y-90439493D01*
X20785402Y-90501917D01*
X21026890Y-90549952D01*
X21273110Y-90549952D01*
X21514598Y-90501917D01*
X21742074Y-90407693D01*
X21946798Y-90270901D01*
X22120901Y-90096798D01*
X22257693Y-89892074D01*
X22351917Y-89664598D01*
X22399952Y-89423110D01*
X22399952Y-89176890D01*
X22351917Y-88935402D01*
X22257693Y-88707926D01*
X22120901Y-88503202D01*
X21946798Y-88329099D01*
X21742074Y-88192307D01*
X21514598Y-88098083D01*
X21273110Y-88050048D01*
X21026890Y-88050048D01*
X20785402Y-88098083D01*
X20631592Y-88161794D01*
X20624927Y-83273061D01*
X22190000Y-83273061D01*
X22190000Y-83476939D01*
X22229774Y-83676898D01*
X22307795Y-83865256D01*
X22421063Y-84034774D01*
X22565226Y-84178937D01*
X22734744Y-84292205D01*
X22923102Y-84370226D01*
X23123061Y-84410000D01*
X23326939Y-84410000D01*
X23526898Y-84370226D01*
X23715256Y-84292205D01*
X23884774Y-84178937D01*
X24028937Y-84034774D01*
X24142205Y-83865256D01*
X24220226Y-83676898D01*
X24260000Y-83476939D01*
X24260000Y-83273061D01*
X24220226Y-83073102D01*
X24142205Y-82884744D01*
X24028937Y-82715226D01*
X23884774Y-82571063D01*
X23715256Y-82457795D01*
X23526898Y-82379774D01*
X23326939Y-82340000D01*
X23123061Y-82340000D01*
X22923102Y-82379774D01*
X22734744Y-82457795D01*
X22565226Y-82571063D01*
X22421063Y-82715226D01*
X22307795Y-82884744D01*
X22229774Y-83073102D01*
X22190000Y-83273061D01*
X20624927Y-83273061D01*
X20620394Y-79948061D01*
X26090000Y-79948061D01*
X26090000Y-80151939D01*
X26129774Y-80351898D01*
X26207795Y-80540256D01*
X26321063Y-80709774D01*
X26465226Y-80853937D01*
X26634744Y-80967205D01*
X26823102Y-81045226D01*
X27023061Y-81085000D01*
X27226939Y-81085000D01*
X27426898Y-81045226D01*
X27615256Y-80967205D01*
X27784774Y-80853937D01*
X27928937Y-80709774D01*
X28042205Y-80540256D01*
X28120226Y-80351898D01*
X28160000Y-80151939D01*
X28160000Y-79948061D01*
X28120226Y-79748102D01*
X28042205Y-79559744D01*
X27928937Y-79390226D01*
X27784774Y-79246063D01*
X27615256Y-79132795D01*
X27426898Y-79054774D01*
X27226939Y-79015000D01*
X27023061Y-79015000D01*
X26823102Y-79054774D01*
X26634744Y-79132795D01*
X26465226Y-79246063D01*
X26321063Y-79390226D01*
X26207795Y-79559744D01*
X26129774Y-79748102D01*
X26090000Y-79948061D01*
X20620394Y-79948061D01*
X20612834Y-74403051D01*
X20700466Y-74420482D01*
X20904344Y-74420482D01*
X21104303Y-74380708D01*
X21292661Y-74302687D01*
X21462179Y-74189419D01*
X21517129Y-74134469D01*
X21660337Y-74091028D01*
X21792366Y-74020456D01*
X21908091Y-73925483D01*
X21931894Y-73896479D01*
X24311002Y-71517372D01*
X24340000Y-71493574D01*
X24434973Y-71377849D01*
X24505545Y-71245820D01*
X24549002Y-71102559D01*
X24559999Y-70990906D01*
X24559999Y-70990898D01*
X24563675Y-70953573D01*
X24559999Y-70916248D01*
X24559999Y-67537321D01*
X24563675Y-67499998D01*
X24559999Y-67462676D01*
X24559999Y-67462666D01*
X24549002Y-67351013D01*
X24505545Y-67207752D01*
X24435000Y-67075774D01*
X24435000Y-66998061D01*
X24395226Y-66798102D01*
X24317205Y-66609744D01*
X24203937Y-66440226D01*
X24059774Y-66296063D01*
X23890256Y-66182795D01*
X23701898Y-66104774D01*
X23501939Y-66065000D01*
X23298061Y-66065000D01*
X23098102Y-66104774D01*
X22909744Y-66182795D01*
X22740226Y-66296063D01*
X22596063Y-66440226D01*
X22482795Y-66609744D01*
X22404774Y-66798102D01*
X22365000Y-66998061D01*
X22365000Y-67122571D01*
X22326938Y-67115000D01*
X22123060Y-67115000D01*
X21923101Y-67154774D01*
X21734743Y-67232795D01*
X21565225Y-67346063D01*
X21421062Y-67490226D01*
X21307794Y-67659744D01*
X21229773Y-67848102D01*
X21189999Y-68048061D01*
X21189999Y-68251939D01*
X21229773Y-68451898D01*
X21307794Y-68640256D01*
X21421062Y-68809774D01*
X21565225Y-68953937D01*
X21734743Y-69067205D01*
X21923101Y-69145226D01*
X22123060Y-69185000D01*
X22185197Y-69185000D01*
X22190001Y-69189804D01*
X22190001Y-69415000D01*
X22123061Y-69415000D01*
X21923102Y-69454774D01*
X21734744Y-69532795D01*
X21565226Y-69646063D01*
X21421063Y-69790226D01*
X21307795Y-69959744D01*
X21229774Y-70148102D01*
X21190000Y-70348061D01*
X21190000Y-70551939D01*
X21229774Y-70751898D01*
X21307795Y-70940256D01*
X21421063Y-71109774D01*
X21492245Y-71180956D01*
X21226765Y-71446436D01*
X21091334Y-71390338D01*
X20891375Y-71350564D01*
X20687497Y-71350564D01*
X20608694Y-71366239D01*
X20600967Y-65698061D01*
X26040000Y-65698061D01*
X26040000Y-65901939D01*
X26079774Y-66101898D01*
X26157795Y-66290256D01*
X26271063Y-66459774D01*
X26415226Y-66603937D01*
X26584744Y-66717205D01*
X26773102Y-66795226D01*
X26973061Y-66835000D01*
X27176939Y-66835000D01*
X27376898Y-66795226D01*
X27565256Y-66717205D01*
X27734774Y-66603937D01*
X27878937Y-66459774D01*
X27992205Y-66290256D01*
X28070226Y-66101898D01*
X28110000Y-65901939D01*
X28110000Y-65698061D01*
X28070226Y-65498102D01*
X27992205Y-65309744D01*
X27878937Y-65140226D01*
X27734774Y-64996063D01*
X27565256Y-64882795D01*
X27376898Y-64804774D01*
X27176939Y-64765000D01*
X26973061Y-64765000D01*
X26773102Y-64804774D01*
X26584744Y-64882795D01*
X26415226Y-64996063D01*
X26271063Y-65140226D01*
X26157795Y-65309744D01*
X26079774Y-65498102D01*
X26040000Y-65698061D01*
X20600967Y-65698061D01*
X20598173Y-63648061D01*
X36390000Y-63648061D01*
X36390000Y-63851939D01*
X36429774Y-64051898D01*
X36507795Y-64240256D01*
X36621063Y-64409774D01*
X36765226Y-64553937D01*
X36934744Y-64667205D01*
X37123102Y-64745226D01*
X37323061Y-64785000D01*
X37526939Y-64785000D01*
X37726898Y-64745226D01*
X37915256Y-64667205D01*
X38084774Y-64553937D01*
X38228937Y-64409774D01*
X38342205Y-64240256D01*
X38420226Y-64051898D01*
X38460000Y-63851939D01*
X38460000Y-63648061D01*
X38420226Y-63448102D01*
X38342205Y-63259744D01*
X38228937Y-63090226D01*
X38084774Y-62946063D01*
X37915256Y-62832795D01*
X37726898Y-62754774D01*
X37526939Y-62715000D01*
X37323061Y-62715000D01*
X37123102Y-62754774D01*
X36934744Y-62832795D01*
X36765226Y-62946063D01*
X36621063Y-63090226D01*
X36507795Y-63259744D01*
X36429774Y-63448102D01*
X36390000Y-63648061D01*
X20598173Y-63648061D01*
X20594289Y-60800000D01*
X25609509Y-60800000D01*
X25631423Y-61022499D01*
X25696324Y-61236447D01*
X25801716Y-61433623D01*
X25943551Y-61606449D01*
X26116377Y-61748284D01*
X26313553Y-61853676D01*
X26527501Y-61918577D01*
X26694248Y-61935000D01*
X29955752Y-61935000D01*
X30122499Y-61918577D01*
X30336447Y-61853676D01*
X30533623Y-61748284D01*
X30706449Y-61606449D01*
X30848284Y-61433623D01*
X30953676Y-61236447D01*
X31018577Y-61022499D01*
X31040491Y-60800000D01*
X31018577Y-60577501D01*
X30953676Y-60363553D01*
X30848284Y-60166377D01*
X30706449Y-59993551D01*
X30533623Y-59851716D01*
X30336447Y-59746324D01*
X30122499Y-59681423D01*
X29955752Y-59665000D01*
X26694248Y-59665000D01*
X26527501Y-59681423D01*
X26313553Y-59746324D01*
X26116377Y-59851716D01*
X25943551Y-59993551D01*
X25801716Y-60166377D01*
X25696324Y-60363553D01*
X25631423Y-60577501D01*
X25609509Y-60800000D01*
X20594289Y-60800000D01*
X20591190Y-58526890D01*
X46750048Y-58526890D01*
X46750048Y-58773110D01*
X46798083Y-59014598D01*
X46892307Y-59242074D01*
X47029099Y-59446798D01*
X47203202Y-59620901D01*
X47407926Y-59757693D01*
X47635402Y-59851917D01*
X47876890Y-59899952D01*
X48123110Y-59899952D01*
X48364598Y-59851917D01*
X48592074Y-59757693D01*
X48796798Y-59620901D01*
X48970901Y-59446798D01*
X49107693Y-59242074D01*
X49201917Y-59014598D01*
X49249952Y-58773110D01*
X49249952Y-58526890D01*
X49201917Y-58285402D01*
X49107693Y-58057926D01*
X48970901Y-57853202D01*
X48796798Y-57679099D01*
X48592074Y-57542307D01*
X48364598Y-57448083D01*
X48123110Y-57400048D01*
X47876890Y-57400048D01*
X47635402Y-57448083D01*
X47407926Y-57542307D01*
X47203202Y-57679099D01*
X47029099Y-57853202D01*
X46892307Y-58057926D01*
X46798083Y-58285402D01*
X46750048Y-58526890D01*
X20591190Y-58526890D01*
X20560053Y-35688312D01*
X20655820Y-35739502D01*
X20775518Y-35775812D01*
X20900000Y-35788072D01*
X21114250Y-35785000D01*
X21273000Y-35626250D01*
X21273000Y-31777000D01*
X21253000Y-31777000D01*
X21253000Y-31523000D01*
X21273000Y-31523000D01*
X21273000Y-31503000D01*
X21527000Y-31503000D01*
X21527000Y-31523000D01*
G37*
%TD.AperFunction*%
D17*
X33262877Y-49289794D02*
X33172554Y-49493136D01*
X33155881Y-49548126D01*
X33282046Y-49723000D01*
X34123000Y-49723000D01*
X34123000Y-49711974D01*
X34138212Y-49715000D01*
X34315001Y-49715000D01*
X34315001Y-49915001D01*
X25116801Y-49915001D01*
X24461800Y-49260000D01*
X33283895Y-49260000D01*
X33262877Y-49289794D01*
%TA.AperFunction,Conductor*%
D18*
G36*
X33262877Y-49289794D02*
G01*
X33172554Y-49493136D01*
X33155881Y-49548126D01*
X33282046Y-49723000D01*
X34123000Y-49723000D01*
X34123000Y-49711974D01*
X34138212Y-49715000D01*
X34315001Y-49715000D01*
X34315001Y-49915001D01*
X25116801Y-49915001D01*
X24461800Y-49260000D01*
X33283895Y-49260000D01*
X33262877Y-49289794D01*
G37*
%TD.AperFunction*%
D17*
X45527000Y-31523000D02*
X45547000Y-31523000D01*
X45547000Y-31777000D01*
X45527000Y-31777000D01*
X45527000Y-35626250D01*
X45685750Y-35785000D01*
X45900000Y-35788072D01*
X46024482Y-35775812D01*
X46144180Y-35739502D01*
X46244966Y-35685630D01*
X46310150Y-35720472D01*
X46476746Y-35771008D01*
X46650000Y-35788072D01*
X47150000Y-35788072D01*
X47323254Y-35771008D01*
X47489850Y-35720472D01*
X47640000Y-35640215D01*
X47640001Y-44308199D01*
X45180956Y-46767245D01*
X45109774Y-46696063D01*
X44940256Y-46582795D01*
X44751898Y-46504774D01*
X44551939Y-46465000D01*
X44348061Y-46465000D01*
X44148102Y-46504774D01*
X43959744Y-46582795D01*
X43790226Y-46696063D01*
X43746289Y-46740000D01*
X42703711Y-46740000D01*
X42659774Y-46696063D01*
X42490256Y-46582795D01*
X42301898Y-46504774D01*
X42101939Y-46465000D01*
X41898061Y-46465000D01*
X41698102Y-46504774D01*
X41509744Y-46582795D01*
X41340226Y-46696063D01*
X41269045Y-46767244D01*
X37490802Y-42989003D01*
X37466999Y-42959999D01*
X37351274Y-42865026D01*
X37219245Y-42794454D01*
X37075984Y-42750997D01*
X36964331Y-42740000D01*
X36964320Y-42740000D01*
X36926998Y-42736324D01*
X36889676Y-42740000D01*
X35331046Y-42740000D01*
X35280537Y-42645506D01*
X35201185Y-42548815D01*
X35104494Y-42469463D01*
X34994180Y-42410498D01*
X34874482Y-42374188D01*
X34750000Y-42361928D01*
X33750000Y-42361928D01*
X33625518Y-42374188D01*
X33505820Y-42410498D01*
X33395506Y-42469463D01*
X33298815Y-42548815D01*
X33219463Y-42645506D01*
X33168954Y-42740000D01*
X29101212Y-42740000D01*
X25160000Y-38798789D01*
X25160000Y-37526890D01*
X29600048Y-37526890D01*
X29600048Y-37773110D01*
X29648083Y-38014598D01*
X29742307Y-38242074D01*
X29879099Y-38446798D01*
X30053202Y-38620901D01*
X30257926Y-38757693D01*
X30485402Y-38851917D01*
X30726890Y-38899952D01*
X30973110Y-38899952D01*
X31214598Y-38851917D01*
X31442074Y-38757693D01*
X31646798Y-38620901D01*
X31820901Y-38446798D01*
X31957693Y-38242074D01*
X32051917Y-38014598D01*
X32099952Y-37773110D01*
X32099952Y-37526890D01*
X32090007Y-37476890D01*
X35800048Y-37476890D01*
X35800048Y-37723110D01*
X35848083Y-37964598D01*
X35942307Y-38192074D01*
X36079099Y-38396798D01*
X36253202Y-38570901D01*
X36457926Y-38707693D01*
X36685402Y-38801917D01*
X36926890Y-38849952D01*
X37173110Y-38849952D01*
X37414598Y-38801917D01*
X37642074Y-38707693D01*
X37846798Y-38570901D01*
X38020901Y-38396798D01*
X38157693Y-38192074D01*
X38251917Y-37964598D01*
X38299952Y-37723110D01*
X38299952Y-37476890D01*
X38251917Y-37235402D01*
X38157693Y-37007926D01*
X38020901Y-36803202D01*
X37846798Y-36629099D01*
X37642074Y-36492307D01*
X37414598Y-36398083D01*
X37173110Y-36350048D01*
X36926890Y-36350048D01*
X36685402Y-36398083D01*
X36457926Y-36492307D01*
X36253202Y-36629099D01*
X36079099Y-36803202D01*
X35942307Y-37007926D01*
X35848083Y-37235402D01*
X35800048Y-37476890D01*
X32090007Y-37476890D01*
X32051917Y-37285402D01*
X31957693Y-37057926D01*
X31820901Y-36853202D01*
X31646798Y-36679099D01*
X31442074Y-36542307D01*
X31214598Y-36448083D01*
X30973110Y-36400048D01*
X30726890Y-36400048D01*
X30485402Y-36448083D01*
X30257926Y-36542307D01*
X30053202Y-36679099D01*
X29879099Y-36853202D01*
X29742307Y-37057926D01*
X29648083Y-37285402D01*
X29600048Y-37526890D01*
X25160000Y-37526890D01*
X25160000Y-35624770D01*
X25277962Y-35527962D01*
X25388405Y-35393386D01*
X25424587Y-35325695D01*
X25507491Y-35479023D01*
X25540930Y-35528599D01*
X25573697Y-35578672D01*
X25579521Y-35585813D01*
X25716365Y-35751228D01*
X25758783Y-35793350D01*
X25800662Y-35836116D01*
X25807763Y-35841990D01*
X25974130Y-35977676D01*
X26023941Y-36010770D01*
X26073313Y-36044576D01*
X26081419Y-36048959D01*
X26270972Y-36149746D01*
X26326273Y-36172539D01*
X26381258Y-36196106D01*
X26390062Y-36198831D01*
X26595581Y-36260881D01*
X26654273Y-36272502D01*
X26712774Y-36284937D01*
X26721936Y-36285900D01*
X26721938Y-36285900D01*
X26935597Y-36306849D01*
X26935608Y-36306849D01*
X26967581Y-36309998D01*
X42832418Y-36310000D01*
X42860747Y-36307210D01*
X42867495Y-36307257D01*
X42876666Y-36306358D01*
X43090173Y-36283918D01*
X43148776Y-36271888D01*
X43207534Y-36260680D01*
X43216356Y-36258016D01*
X43421436Y-36194532D01*
X43476539Y-36171368D01*
X43532042Y-36148944D01*
X43540179Y-36144617D01*
X43729023Y-36042509D01*
X43778586Y-36009079D01*
X43828669Y-35976306D01*
X43835810Y-35970481D01*
X44001226Y-35833638D01*
X44043366Y-35791203D01*
X44086119Y-35749337D01*
X44091992Y-35742236D01*
X44227677Y-35575869D01*
X44260769Y-35526061D01*
X44294575Y-35476689D01*
X44298958Y-35468583D01*
X44324545Y-35420460D01*
X44369463Y-35504494D01*
X44448815Y-35601185D01*
X44545506Y-35680537D01*
X44655820Y-35739502D01*
X44775518Y-35775812D01*
X44900000Y-35788072D01*
X45114250Y-35785000D01*
X45273000Y-35626250D01*
X45273000Y-31777000D01*
X45253000Y-31777000D01*
X45253000Y-31523000D01*
X45273000Y-31523000D01*
X45273000Y-31503000D01*
X45527000Y-31503000D01*
X45527000Y-31523000D01*
%TA.AperFunction,Conductor*%
D18*
G36*
X45527000Y-31523000D02*
G01*
X45547000Y-31523000D01*
X45547000Y-31777000D01*
X45527000Y-31777000D01*
X45527000Y-35626250D01*
X45685750Y-35785000D01*
X45900000Y-35788072D01*
X46024482Y-35775812D01*
X46144180Y-35739502D01*
X46244966Y-35685630D01*
X46310150Y-35720472D01*
X46476746Y-35771008D01*
X46650000Y-35788072D01*
X47150000Y-35788072D01*
X47323254Y-35771008D01*
X47489850Y-35720472D01*
X47640000Y-35640215D01*
X47640001Y-44308199D01*
X45180956Y-46767245D01*
X45109774Y-46696063D01*
X44940256Y-46582795D01*
X44751898Y-46504774D01*
X44551939Y-46465000D01*
X44348061Y-46465000D01*
X44148102Y-46504774D01*
X43959744Y-46582795D01*
X43790226Y-46696063D01*
X43746289Y-46740000D01*
X42703711Y-46740000D01*
X42659774Y-46696063D01*
X42490256Y-46582795D01*
X42301898Y-46504774D01*
X42101939Y-46465000D01*
X41898061Y-46465000D01*
X41698102Y-46504774D01*
X41509744Y-46582795D01*
X41340226Y-46696063D01*
X41269045Y-46767244D01*
X37490802Y-42989003D01*
X37466999Y-42959999D01*
X37351274Y-42865026D01*
X37219245Y-42794454D01*
X37075984Y-42750997D01*
X36964331Y-42740000D01*
X36964320Y-42740000D01*
X36926998Y-42736324D01*
X36889676Y-42740000D01*
X35331046Y-42740000D01*
X35280537Y-42645506D01*
X35201185Y-42548815D01*
X35104494Y-42469463D01*
X34994180Y-42410498D01*
X34874482Y-42374188D01*
X34750000Y-42361928D01*
X33750000Y-42361928D01*
X33625518Y-42374188D01*
X33505820Y-42410498D01*
X33395506Y-42469463D01*
X33298815Y-42548815D01*
X33219463Y-42645506D01*
X33168954Y-42740000D01*
X29101212Y-42740000D01*
X25160000Y-38798789D01*
X25160000Y-37526890D01*
X29600048Y-37526890D01*
X29600048Y-37773110D01*
X29648083Y-38014598D01*
X29742307Y-38242074D01*
X29879099Y-38446798D01*
X30053202Y-38620901D01*
X30257926Y-38757693D01*
X30485402Y-38851917D01*
X30726890Y-38899952D01*
X30973110Y-38899952D01*
X31214598Y-38851917D01*
X31442074Y-38757693D01*
X31646798Y-38620901D01*
X31820901Y-38446798D01*
X31957693Y-38242074D01*
X32051917Y-38014598D01*
X32099952Y-37773110D01*
X32099952Y-37526890D01*
X32090007Y-37476890D01*
X35800048Y-37476890D01*
X35800048Y-37723110D01*
X35848083Y-37964598D01*
X35942307Y-38192074D01*
X36079099Y-38396798D01*
X36253202Y-38570901D01*
X36457926Y-38707693D01*
X36685402Y-38801917D01*
X36926890Y-38849952D01*
X37173110Y-38849952D01*
X37414598Y-38801917D01*
X37642074Y-38707693D01*
X37846798Y-38570901D01*
X38020901Y-38396798D01*
X38157693Y-38192074D01*
X38251917Y-37964598D01*
X38299952Y-37723110D01*
X38299952Y-37476890D01*
X38251917Y-37235402D01*
X38157693Y-37007926D01*
X38020901Y-36803202D01*
X37846798Y-36629099D01*
X37642074Y-36492307D01*
X37414598Y-36398083D01*
X37173110Y-36350048D01*
X36926890Y-36350048D01*
X36685402Y-36398083D01*
X36457926Y-36492307D01*
X36253202Y-36629099D01*
X36079099Y-36803202D01*
X35942307Y-37007926D01*
X35848083Y-37235402D01*
X35800048Y-37476890D01*
X32090007Y-37476890D01*
X32051917Y-37285402D01*
X31957693Y-37057926D01*
X31820901Y-36853202D01*
X31646798Y-36679099D01*
X31442074Y-36542307D01*
X31214598Y-36448083D01*
X30973110Y-36400048D01*
X30726890Y-36400048D01*
X30485402Y-36448083D01*
X30257926Y-36542307D01*
X30053202Y-36679099D01*
X29879099Y-36853202D01*
X29742307Y-37057926D01*
X29648083Y-37285402D01*
X29600048Y-37526890D01*
X25160000Y-37526890D01*
X25160000Y-35624770D01*
X25277962Y-35527962D01*
X25388405Y-35393386D01*
X25424587Y-35325695D01*
X25507491Y-35479023D01*
X25540930Y-35528599D01*
X25573697Y-35578672D01*
X25579521Y-35585813D01*
X25716365Y-35751228D01*
X25758783Y-35793350D01*
X25800662Y-35836116D01*
X25807763Y-35841990D01*
X25974130Y-35977676D01*
X26023941Y-36010770D01*
X26073313Y-36044576D01*
X26081419Y-36048959D01*
X26270972Y-36149746D01*
X26326273Y-36172539D01*
X26381258Y-36196106D01*
X26390062Y-36198831D01*
X26595581Y-36260881D01*
X26654273Y-36272502D01*
X26712774Y-36284937D01*
X26721936Y-36285900D01*
X26721938Y-36285900D01*
X26935597Y-36306849D01*
X26935608Y-36306849D01*
X26967581Y-36309998D01*
X42832418Y-36310000D01*
X42860747Y-36307210D01*
X42867495Y-36307257D01*
X42876666Y-36306358D01*
X43090173Y-36283918D01*
X43148776Y-36271888D01*
X43207534Y-36260680D01*
X43216356Y-36258016D01*
X43421436Y-36194532D01*
X43476539Y-36171368D01*
X43532042Y-36148944D01*
X43540179Y-36144617D01*
X43729023Y-36042509D01*
X43778586Y-36009079D01*
X43828669Y-35976306D01*
X43835810Y-35970481D01*
X44001226Y-35833638D01*
X44043366Y-35791203D01*
X44086119Y-35749337D01*
X44091992Y-35742236D01*
X44227677Y-35575869D01*
X44260769Y-35526061D01*
X44294575Y-35476689D01*
X44298958Y-35468583D01*
X44324545Y-35420460D01*
X44369463Y-35504494D01*
X44448815Y-35601185D01*
X44545506Y-35680537D01*
X44655820Y-35739502D01*
X44775518Y-35775812D01*
X44900000Y-35788072D01*
X45114250Y-35785000D01*
X45273000Y-35626250D01*
X45273000Y-31777000D01*
X45253000Y-31777000D01*
X45253000Y-31523000D01*
X45273000Y-31523000D01*
X45273000Y-31503000D01*
X45527000Y-31503000D01*
X45527000Y-31523000D01*
G37*
%TD.AperFunction*%
%TD*%
M02*
