%TF.GenerationSoftware,KiCad,Pcbnew,5.1.10*%
%TF.CreationDate,2021-05-11T19:06:34-06:00*%
%TF.ProjectId,LinkMeBaby,4c696e6b-4d65-4426-9162-792e6b696361,rev?*%
%TF.SameCoordinates,Original*%
%TF.FileFunction,Paste,Bot*%
%TF.FilePolarity,Positive*%
%FSLAX46Y46*%
G04 Gerber Fmt 4.6, Leading zero omitted, Abs format (unit mm)*
G04 Created by KiCad (PCBNEW 5.1.10) date 2021-05-11 19:06:34*
%MOMM*%
%LPD*%
G01*
G04 APERTURE LIST*
G04 APERTURE END LIST*
%TO.C,J3*%
G36*
G01*
X45900000Y-28400000D02*
X45900000Y-34900000D01*
G75*
G02*
X45650000Y-35150000I-250000J0D01*
G01*
X45150000Y-35150000D01*
G75*
G02*
X44900000Y-34900000I0J250000D01*
G01*
X44900000Y-28400000D01*
G75*
G02*
X45150000Y-28150000I250000J0D01*
G01*
X45650000Y-28150000D01*
G75*
G02*
X45900000Y-28400000I0J-250000D01*
G01*
G37*
G36*
G01*
X47400000Y-28400000D02*
X47400000Y-34900000D01*
G75*
G02*
X47150000Y-35150000I-250000J0D01*
G01*
X46650000Y-35150000D01*
G75*
G02*
X46400000Y-34900000I0J250000D01*
G01*
X46400000Y-28400000D01*
G75*
G02*
X46650000Y-28150000I250000J0D01*
G01*
X47150000Y-28150000D01*
G75*
G02*
X47400000Y-28400000I0J-250000D01*
G01*
G37*
G36*
G01*
X48900000Y-28400000D02*
X48900000Y-34900000D01*
G75*
G02*
X48650000Y-35150000I-250000J0D01*
G01*
X48150000Y-35150000D01*
G75*
G02*
X47900000Y-34900000I0J250000D01*
G01*
X47900000Y-28400000D01*
G75*
G02*
X48150000Y-28150000I250000J0D01*
G01*
X48650000Y-28150000D01*
G75*
G02*
X48900000Y-28400000I0J-250000D01*
G01*
G37*
%TD*%
%TO.C,J4*%
G36*
G01*
X24900000Y-28400000D02*
X24900000Y-34900000D01*
G75*
G02*
X24650000Y-35150000I-250000J0D01*
G01*
X24150000Y-35150000D01*
G75*
G02*
X23900000Y-34900000I0J250000D01*
G01*
X23900000Y-28400000D01*
G75*
G02*
X24150000Y-28150000I250000J0D01*
G01*
X24650000Y-28150000D01*
G75*
G02*
X24900000Y-28400000I0J-250000D01*
G01*
G37*
G36*
G01*
X23400000Y-28400000D02*
X23400000Y-34900000D01*
G75*
G02*
X23150000Y-35150000I-250000J0D01*
G01*
X22650000Y-35150000D01*
G75*
G02*
X22400000Y-34900000I0J250000D01*
G01*
X22400000Y-28400000D01*
G75*
G02*
X22650000Y-28150000I250000J0D01*
G01*
X23150000Y-28150000D01*
G75*
G02*
X23400000Y-28400000I0J-250000D01*
G01*
G37*
G36*
G01*
X21900000Y-28400000D02*
X21900000Y-34900000D01*
G75*
G02*
X21650000Y-35150000I-250000J0D01*
G01*
X21150000Y-35150000D01*
G75*
G02*
X20900000Y-34900000I0J250000D01*
G01*
X20900000Y-28400000D01*
G75*
G02*
X21150000Y-28150000I250000J0D01*
G01*
X21650000Y-28150000D01*
G75*
G02*
X21900000Y-28400000I0J-250000D01*
G01*
G37*
%TD*%
M02*
