%TF.GenerationSoftware,KiCad,Pcbnew,(5.1.10)-1*%
%TF.CreationDate,2021-05-11T23:47:16-07:00*%
%TF.ProjectId,LinkMeBaby,4c696e6b-4d65-4426-9162-792e6b696361,rev?*%
%TF.SameCoordinates,Original*%
%TF.FileFunction,Soldermask,Bot*%
%TF.FilePolarity,Negative*%
%FSLAX46Y46*%
G04 Gerber Fmt 4.6, Leading zero omitted, Abs format (unit mm)*
G04 Created by KiCad (PCBNEW (5.1.10)-1) date 2021-05-11 23:47:16*
%MOMM*%
%LPD*%
G01*
G04 APERTURE LIST*
%ADD10O,1.000000X1.600000*%
%ADD11C,0.650000*%
%ADD12O,1.000000X2.100000*%
%ADD13R,1.000000X1.000000*%
%ADD14O,1.000000X1.000000*%
%ADD15C,0.991000*%
G04 APERTURE END LIST*
D10*
%TO.C,J1*%
X48770000Y-94400000D03*
D11*
X47340000Y-90750000D03*
D10*
X40130000Y-94400000D03*
D11*
X41560000Y-90750000D03*
D12*
X40130000Y-90220000D03*
X48770000Y-90220000D03*
%TD*%
D13*
%TO.C,J2*%
X34250000Y-43500000D03*
D14*
X34250000Y-44770000D03*
X34250000Y-46040000D03*
X34250000Y-47310000D03*
X34250000Y-48580000D03*
X34250000Y-49850000D03*
%TD*%
%TO.C,J3*%
G36*
G01*
X45900000Y-28400000D02*
X45900000Y-34900000D01*
G75*
G02*
X45650000Y-35150000I-250000J0D01*
G01*
X45150000Y-35150000D01*
G75*
G02*
X44900000Y-34900000I0J250000D01*
G01*
X44900000Y-28400000D01*
G75*
G02*
X45150000Y-28150000I250000J0D01*
G01*
X45650000Y-28150000D01*
G75*
G02*
X45900000Y-28400000I0J-250000D01*
G01*
G37*
G36*
G01*
X47400000Y-28400000D02*
X47400000Y-34900000D01*
G75*
G02*
X47150000Y-35150000I-250000J0D01*
G01*
X46650000Y-35150000D01*
G75*
G02*
X46400000Y-34900000I0J250000D01*
G01*
X46400000Y-28400000D01*
G75*
G02*
X46650000Y-28150000I250000J0D01*
G01*
X47150000Y-28150000D01*
G75*
G02*
X47400000Y-28400000I0J-250000D01*
G01*
G37*
G36*
G01*
X48900000Y-28400000D02*
X48900000Y-34900000D01*
G75*
G02*
X48650000Y-35150000I-250000J0D01*
G01*
X48150000Y-35150000D01*
G75*
G02*
X47900000Y-34900000I0J250000D01*
G01*
X47900000Y-28400000D01*
G75*
G02*
X48150000Y-28150000I250000J0D01*
G01*
X48650000Y-28150000D01*
G75*
G02*
X48900000Y-28400000I0J-250000D01*
G01*
G37*
%TD*%
%TO.C,J4*%
G36*
G01*
X24900000Y-28400000D02*
X24900000Y-34900000D01*
G75*
G02*
X24650000Y-35150000I-250000J0D01*
G01*
X24150000Y-35150000D01*
G75*
G02*
X23900000Y-34900000I0J250000D01*
G01*
X23900000Y-28400000D01*
G75*
G02*
X24150000Y-28150000I250000J0D01*
G01*
X24650000Y-28150000D01*
G75*
G02*
X24900000Y-28400000I0J-250000D01*
G01*
G37*
G36*
G01*
X23400000Y-28400000D02*
X23400000Y-34900000D01*
G75*
G02*
X23150000Y-35150000I-250000J0D01*
G01*
X22650000Y-35150000D01*
G75*
G02*
X22400000Y-34900000I0J250000D01*
G01*
X22400000Y-28400000D01*
G75*
G02*
X22650000Y-28150000I250000J0D01*
G01*
X23150000Y-28150000D01*
G75*
G02*
X23400000Y-28400000I0J-250000D01*
G01*
G37*
G36*
G01*
X21900000Y-28400000D02*
X21900000Y-34900000D01*
G75*
G02*
X21650000Y-35150000I-250000J0D01*
G01*
X21150000Y-35150000D01*
G75*
G02*
X20900000Y-34900000I0J250000D01*
G01*
X20900000Y-28400000D01*
G75*
G02*
X21150000Y-28150000I250000J0D01*
G01*
X21650000Y-28150000D01*
G75*
G02*
X21900000Y-28400000I0J-250000D01*
G01*
G37*
%TD*%
D15*
%TO.C,J5*%
X24309000Y-85340000D03*
X26341000Y-85340000D03*
X25325000Y-80260000D03*
%TD*%
M02*
