M48
; DRILL file {KiCad 5.1.10} date Tue May 11 19:06:27 2021
; FORMAT={3:3/ absolute / metric / suppress leading zeros}
; #@! TF.CreationDate,2021-05-11T19:06:27-06:00
; #@! TF.GenerationSoftware,Kicad,Pcbnew,5.1.10
FMAT,2
METRIC,TZ
T1C0.400
T2C0.600
T3C0.650
T4C0.650
T5C0.991
%
G90
G05
T1
X20789Y-72386
X20802Y-73385
X20850Y-60150
X20900Y-81250
X20925Y-82200
X21150Y-94600
X21216Y-102283
X21350Y-50150
X21950Y-45300
X22225Y-68150
X22225Y-69375
X22225Y-70450
X22237Y-102287
X23225Y-83375
X23250Y-102300
X23400Y-67100
X23700Y-48500
X23750Y-46900
X24250Y-102300
X25525Y-102300
X26750Y-60800
X26750Y-102350
X27075Y-65800
X27125Y-80050
X27550Y-60800
X28225Y-63550
X28250Y-95350
X29325Y-62325
X29325Y-63525
X29800Y-70225
X29900Y-60800
X30150Y-49850
X31450Y-92550
X31450Y-95600
X31550Y-108900
X32025Y-66175
X32850Y-99050
X34250Y-52000
X35150Y-66350
X36300Y-69700
X36750Y-108750
X36850Y-49850
X36900Y-46150
X37100Y-62100
X37425Y-63750
X37450Y-85450
X37900Y-95600
X38550Y-81350
X38700Y-65925
X38725Y-64925
X39675Y-86700
X40250Y-100000
X40925Y-86700
X41900Y-68950
X42000Y-47500
X42000Y-98500
X42425Y-86700
X43000Y-43400
X43400Y-79850
X44250Y-99250
X44450Y-47500
X44825Y-79875
X45025Y-68875
X45025Y-69950
X45263Y-99237
X47000Y-100000
X47250Y-94750
X48250Y-100000
X48750Y-79900
T3
X34250Y-43500
X34250Y-44770
X34250Y-46040
X34250Y-47310
X34250Y-48580
X34250Y-49850
T4
X41610Y-103200
X47390Y-103200
T5
X22960Y-105484
X22960Y-107516
X28040Y-106500
T2
G00X40180Y-102120
M15
G01X40180Y-103220
M16
G05
G00X40180Y-106550
M15
G01X40180Y-107150
M16
G05
G00X48820Y-102120
M15
G01X48820Y-103220
M16
G05
G00X48820Y-106550
M15
G01X48820Y-107150
M16
G05
T0
M30
